<svg xmlns="http://www.w3.org/2000/svg" width="596" height="842" viewBox="0 0 595.3 841.9"><path d="M291.3 435.2c1.3-.3 2.4-.8 3.4-1.5.8-.6 1.6-1.4 2-2.4 1-1.4 1.3-3 1.3-4.8 0-1.7-.4-3.2-1.2-4.4s-2-2-3.5-2.6a6 6 0 0 0 2.3-1.7c1-1 1.4-2.6 1.4-4.4s-.5-3.3-1.4-4.6c-1.5-2-4-3-7.8-3.2h-14.5v30H287a21 21 0 0 0 4.2-.4zm-11.8-24.4h6.5c1.4 0 2.6.2 3.5.5 1 .4 1.6 1.4 1.6 2.8 0 1.3-.4 2-1.2 2.6s-2 .7-3.2.7h-7.3v-6.6zm0 19.6v-8h7.4c1.3 0 2.3.2 3 .5 1.3.6 2 1.7 2 3.2 0 1.8-.7 3-2 3.8-.7.4-1.7.5-3 .5h-7.3zm23.8 3.2c2.3 1.8 5 2.7 7.8 2.7 3.6 0 6.4-1 8.4-3.2 1.3-1.4 2-2.7 2.2-4h-6c-.3.7-.7 1.2-1.2 1.5-.8.7-2 1-3.2 1s-2.3-.3-3.2-.8c-1.5-1-2.2-2.5-2.3-4.7H322l-.2-4.4c-.3-1.7-1-3.3-1.8-4.6a9 9 0 0 0-3.8-3.3c-1.5-.7-3.3-1-5.2-1-3.3 0-6 1-8 3s-3 5-3 8.8c0 4 1 7 3.4 9zm4-14.8c.8-.8 2-1.3 3.5-1.3 1.4 0 2.5.4 3.4 1.2s1.4 2 1.5 3.5h-10c.2-1.4.7-2.6 1.5-3.4zm-3.3-11.5h13v3h-13z" fill="#3D3E3E"/></svg>