<?xml version="1.0" encoding="utf-8"?>
<!-- Generator: Adobe Illustrator 16.0.3, SVG Export Plug-In . SVG Version: 6.00 Build 0)  -->
<!DOCTYPE svg PUBLIC "-//W3C//DTD SVG 1.1//EN" "http://www.w3.org/Graphics/SVG/1.1/DTD/svg11.dtd">
<svg version="1.1" id="Layer_1" xmlns="http://www.w3.org/2000/svg" xmlns:xlink="http://www.w3.org/1999/xlink" x="0px" y="0px"
	 width="595.28px" height="841.89px" viewBox="0 0 595.28 841.89" enable-background="new 0 0 595.28 841.89" xml:space="preserve">
<g>
	<path fill="#3D3E3E" d="M291.332,435.18c1.303-0.27,2.435-0.771,3.394-1.508c0.849-0.637,1.56-1.426,2.128-2.361
		c0.891-1.416,1.336-3.01,1.336-4.791c0-1.725-0.391-3.191-1.169-4.4c-0.781-1.208-1.937-2.093-3.47-2.65
		c1.009-0.516,1.772-1.086,2.292-1.711c0.926-1.113,1.391-2.59,1.391-4.423c0-1.779-0.46-3.309-1.38-4.585
		c-1.527-2.078-4.122-3.144-7.783-3.199h-14.518v30.037h13.535C288.611,435.588,290.028,435.451,291.332,435.18z M279.542,410.768
		h6.535c1.439,0,2.622,0.156,3.549,0.47c1.077,0.448,1.615,1.371,1.615,2.771c0,1.264-0.408,2.144-1.222,2.639
		c-0.812,0.496-1.871,0.744-3.176,0.744h-7.301V410.768z M279.542,430.371v-8.008h7.393c1.292,0.014,2.29,0.184,3.003,0.51
		c1.274,0.584,1.913,1.656,1.913,3.219c0,1.846-0.658,3.098-1.975,3.75c-0.724,0.354-1.74,0.529-3.041,0.529H279.542z"/>
	<g>
		<path fill="#3D3E3E" d="M303.276,433.609c2.259,1.822,4.868,2.732,7.822,2.732c3.583,0,6.368-1.078,8.356-3.24
			c1.281-1.359,1.998-2.697,2.154-4.014h-5.93c-0.345,0.652-0.744,1.16-1.196,1.527c-0.827,0.68-1.901,1.02-3.225,1.02
			c-1.248,0-2.313-0.279-3.2-0.836c-1.459-0.896-2.233-2.459-2.323-4.688h16.177c0.027-1.918-0.035-3.387-0.191-4.408
			c-0.27-1.741-0.859-3.272-1.771-4.591c-1.007-1.496-2.288-2.593-3.839-3.286c-1.547-0.693-3.288-1.04-5.223-1.04
			c-3.254,0-5.901,1.026-7.941,3.08c-2.041,2.052-3.061,5.001-3.061,8.848C299.887,428.822,301.017,431.787,303.276,433.609z
			 M307.424,418.843c0.823-0.845,1.977-1.268,3.467-1.268c1.371,0,2.521,0.399,3.446,1.195c0.925,0.799,1.44,1.97,1.546,3.51
			h-10.005C306.088,420.835,306.604,419.69,307.424,418.843z"/>
		<rect x="303.984" y="407.278" fill="#3D3E3E" width="13.053" height="3.032"/>
	</g>
</g>
</svg>
