<svg id="Layer_1" data-name="Layer 1" xmlns="http://www.w3.org/2000/svg" width="201" height="171" viewBox="0 0 201 171"><defs><style>.cls-1{fill:none;stroke:#5d5d5d;stroke-linecap:round;stroke-linejoin:round;stroke-width:4px;}</style></defs><title>briefcase</title><path class="cls-1" d="M404,685h69V618.5c0-5.52-4.48-9.5-10-9.5H286c-5.52,0-10,4-10,9.5V685" transform="translate(-274 -581)"/><line class="cls-1" x1="2" y1="104" x2="72" y2="104"/><rect class="cls-1" x="77" y="94" width="48" height="19" rx="8.06" ry="8.06"/><path class="cls-1" d="M467,685v54.94A10.44,10.44,0,0,1,457,750H292.56c-5.26,0-9.56-4.8-9.56-10.06V685" transform="translate(-274 -581)"/><path class="cls-1" d="M405,592.5c0-5.5-4.5-9.5-10-9.5H354c-5.5,0-10,4-10,9.5V601h61Z" transform="translate(-274 -581)"/></svg>