<?xml version="1.0" encoding="UTF-8"?>
<svg version="1.1" xmlns="http://www.w3.org/2000/svg" xmlns:xlink="http://www.w3.org/1999/xlink" x="0px" y="0px" viewBox="0 0 16 16" enable-background="new 0 0 16 16" xml:space="preserve">
	<path fill="#F18821" d="M14.5,4.3c0.4,0.4,0.4,1.1,0,1.5l-7.4,7.4c-0.4,0.4-1.1,0.4-1.5,0L4.3,12c-0.4-0.4-0.4-1.1,0-1.5L11.8,3   c0.4-0.4,1.1-0.4,1.5,0L14.5,4.3z"/>
	<path fill="#F18821" d="M6.6,12.7c-0.4,0.4-1.1,0.4-1.5,0L1.7,9.3c-0.4-0.4-0.4-1.1,0-1.5l1.3-1.3c0.4-0.4,1.1-0.4,1.5,0L7.9,10   c0.4,0.4,0.4,1.1,0,1.5L6.6,12.7z"/>
</svg>