<svg class="line-drawing" xmlns="http://www.w3.org/2000/svg" width="1069.38" height="409.25" viewBox="0 0 1069.38 409.25">
	<path d="M900.9,203c2.74,4.82,7.79,9.6,7.86,14.46.62,42.93.36,85.88.36,129.27,33.55,0,66.48,0,99.4,0,8.95,0,18-.59,26.76.85,3,.5,7.35,6.32,7.37,9.73.41,79.14.34,158.28.22,237.42,0,2.84-1.3,5.69-2.09,8.95l3.63,2.66H839.33l2.82-3.39V547.35H707.82L705,585.5l6.87,2.44,3.76,6.35h18.45V604.6H582.61l5.29-2.82.8-7.34h14l7.53-9.18v-38H476.58v47.53H326.21l0,.86H267.16l-2.8-2.18H118.25c-.24-3.15-.62-5.88-.62-8.62,0-72.15-.34-144.31.63-216.45.07-5.18,9.47-14.64,14.61-14.69,89.81-.91,179.62-.67,269.44-.67h7.54c0-42.7-.4-84.81.37-126.89.14-7.75,5-15.42,7.73-23.12ZM432.39,226.37V479.43h456.1V226.37Zm31.15,319.76c-15.67,0-34.28,5.3-44.77-1.65-8.64-5.73-7.67-26-11.2-40.83H907.08v43.24H860.44v34.47h161.93V371.61H909.08V501.48H409.73v-135H130.59v218H463.54Z" transform="translate(-83.48 -203)" />
	<path d="M1152.86,599c-7,4.32-13.69,11.84-20.94,12.38-22.18,1.64-44.56.6-70.44.6-1.57-7.85-4.61-16.16-4.69-24.51-.47-52.37-.7-104.76.36-157.12.1-5.15,9.12-14.06,14.52-14.48a441.21,441.21,0,0,1,65.32,0c5.57.4,10.59,8.59,15.86,13.21V599Zm-89.58-11.47h82.13v-149h-82.13Z" transform="translate(-83.48 -203)" />
	<path d="M510,602.78l8.65-11.24.59,10.42c-5.71,1.64-11.67,4.84-17.63,4.86q-204,.4-407.92.09a15.34,15.34,0,0,1-10.23-4.13Z" transform="translate(-83.48 -203)" />
	<path d="M462.67,598.38l18.87-.89.1,2.76H462.9Z" transform="translate(-83.48 -203)" />
</svg>