<svg class="line-drawing" xmlns="http://www.w3.org/2000/svg" width="100%" height="200" viewBox="-18 -8 200 200">
	<title>doug</title>
	<path d="M-109.44,443.08c35.18.11,65.49,22.55,77.32,55.94,4.05,11.44,6.72,23.32,5.76,35.26-2.73,33.93-16.41,61.9-48.68,76.86-29.55,13.7-61.91,8.84-87-14.47-37.13-34.48-37-97.12.34-131.87C-146.56,450.69-128.62,443.43-109.44,443.08Zm42,113.24a13.66,13.66,0,0,0,3.31,3c1.73.94,4.14,1.87,5.76,1.33,1.24-.42,1.94-3.06,2.47-4.83a46.6,46.6,0,0,0,1.58-7.69c.14-1.18,0-2.89-.79-3.55s-2.3.05-3.5.2c-3,.35-6.22,1.7-8.83.9-5.74-1.74-6.75-5.23-5.93-13.44.29-2.91,1.51-4.49,4.19-4.47a85.16,85.16,0,0,1,11.82.89c3.06.46,4.34-.23,4.21-3.52-.16-4.29.12-8.6.08-12.9-.06-6.52-2.06-11.91-8.15-15.47-7.62-4.46-16-6-24.49-7.38a8.36,8.36,0,0,0-2.46.17c-3.68.52-7.36,1.06-11,1.59l-.29-1.25-2.3,3.31-3.45-3.84c-1.09,3-1.91,5.29-2.72,7.55-1.41,4-2.26,8.25-4.33,11.82-4,6.86-9.11,13.07-8.71,21.73.09,2-1.11,4-1.84,6.43l-1.84-3c-2.86.7-5.11,1.7-7.31,1.58-.88,0-2.64-3.28-2.26-3.79,1.31-1.78,3.37-3,5.34-4.6L-133,524c-4.31,7.21-3.28,14.29-.89,21.29,1.22,3.58,4.13,5.34,8.42,5.22l1.55-10.37c2.3,7.86-3.15,16.84,4.68,22.4l27.34-13.73,1.14.64c-1.36,4.27.7,5.49,4,6,2.94.42,5.8,1.64,8.74,1.81C-74.86,557.35-71.68,556.7-67.45,556.32Zm-80.82,31.3c5.19,10,12.72,17.56,21.59,23.88,2.41,1.71,7.07-.07,7.22-2.82.31-6,4.92-12.56-1.69-18a4,4,0,0,1-1-2.26c-1.83-9.53-5-18.87-3.89-28.82.12-1.12-.43-3.06-1.23-3.43-7.65-3.59-15.64-6.66-24.16-4.3-2.48.69-4.46,3.92-6.18,6.33-.74,1-.92,3.61-.18,4.41,3.25,3.53,6.93,6.68,10.64,10.14l-3.95,2.94c2.55,2.74,9.41,2.91,11.36,0,.81-1.2-.21-3.65-.4-5.53l-1.82-.8,9.14-7.08,1.85,1.09c-.37,3.66-.41,7.39-1.16,11C-133.84,582.73-142.57,583.1-148.27,587.61Zm53.55-2.71.4-2a6.76,6.76,0,0,1,2.21-.77c3.75.1,7.51.59,11.25.41,1.67-.08,3.29-1.42,4.93-2.18a23.76,23.76,0,0,0-4-2.63,56.19,56.19,0,0,0-6.32-1.8l9.08-1.7-.1-1.74c-5.23-1.55-10.44-3.16-15.7-4.56-.51-.14-1.75,1-2,1.7-.16.55.62,1.66,1.27,2.11A41.38,41.38,0,0,0-89.32,574l-.68,1.27-14-7.24c-.42,6-2.25,11.87-.85,16.77,2.47,8.67,9.47,12.09,18.56,10.38l-3,2.18c6.71.54,9.2-3.23,11.57-7.3Z" transform="translate(189.81 -443.08)" />
	<path d="M-100.13,535.43h5.62c-2.92-5.9-8.56-2.92-12.06-4.72-.27-.51-.58-.83-.54-1.08.41-2.46.08-6.22,1.49-7.07a16.44,16.44,0,0,1,9.5-1.93,44.75,44.75,0,0,1,13.31,3.24c5.2,2.22,5.57,4,2.8,8.93C-83.29,538.64-93.9,543.45-100.13,535.43Z" transform="translate(189.81 -443.08)" />
</svg>