<svg class="line-drawing" width="284" height="279" preserveAspectRatio="xMidYMid meet" xmlns="http://www.w3.org/2000/svg" viewBox="-120 -70 550 550" style="">
	<path d="M497.94,1641.9l-4.41-10-11,7.53-8-9.09v12.57l-1.27,0c-2.71-12.85-1.49-25.47,2.1-39,1.92,1.52,2.86,2.37,3.91,3.06s2.14,1.19,3.22,1.78l1.2-1.37-7-7.12c3.82-4.71,4.71-11,4.75-17.2,7.58-31.1,11.84-43.65,39.49-60.91,21.14-13.19,31.78-13.79,56.11-11.77,6.54.54,24,5.81,30,9.3,34.89,20.36,37,32.28,39.51,73-.27,4.64.1,9.28-.71,13.86-1.15,6.51-1.34,12.82-5.85,18.38-3.24,4-4.68,9.47-6.94,14.27-6.32,13.4-7.77,27.91-10.37,42.27-3.12,17.18-10.68,32.83-21,47-1.68,2.29-4.9,3.45-6.6,5.73-3.26,4.37-5.93,9.16-9,14.05,9.69,5,18.35,9.16,26.73,13.83,15.82,8.82,31.47,17.94,47.2,26.94H375v-42a262.63,262.63,0,0,0,75.18-18.53c7.48-3.06,14.85-6.37,22.76-8.56-5.92,2.89-11.75,6-17.8,8.59-3.67,1.56-4.41,3.21-2.37,6.71,8.24,14.15,19.36,25.74,31.86,36.09,2.43,2,5.43,3.92,8.43,4.47,2.59.47,5.65-.78,8.32-1.76,4.06-1.49,3.24-4.66,2.43-7.93-.27-1.08.81-2.44,1-3.72a45,45,0,0,0,.5-4.89c0-.47-.36-1.24-.18-1.38,4.83-3.69,3-7.49.41-11.49-1.61-2.53-2.35-5.82-4.4-7.82-3.67-3.57-3.14-7.33-3.09-11.18-.63-1.87-1.35-3.71-1.86-5.61-.24-.92.27-2.14-.14-2.91-6.17-11.55-3.67-24.08-4.15-36.26-.15-3.84.64-8.08-5.17-8.09l.67-8,6.21.59c0-5.35-.46-10.61.19-15.73.34-2.72,2.59-5.2,4-7.78.35,2.48,1.08,5,1,7.43a138.76,138.76,0,0,1-1.43,17.64c-2.14,12.57.54,16,9.67,20.4l3.54-7.89c2.08,1.37,3.79,3.31,5.71,3.57,3.3.45,3-3,4.23-5,1.77-2.8,4.29-5.88,7.21-7.07,8-3.29,16.47-5.67,24.75-8.38,1.33-.44,2.69-.75,5.16-1.43-3,7.34-8.43,12.44-8.19,20.24h3.46l-8.13,7,24.23,7,.47-1.44c-3.57-1.52-7-3.48-10.74-4.45-5.6-1.46-5.75-1.44-2.93-6.68.69-1.29,2.61-4.1-1.63-2.53l5.47-7.95c2.92.27,7.21.49,11.44,1.14,1.72.26,3.23,1.85,5,2.13,4.52.74,9.25,3.71,13.25-.94l3.83,3.07,1.72-6.8c2.76,2.93,5,5.83,7.77,8.15,8,6.72,11,7.59,15.22,2.67,1.9-2.19,2.25-6.36,2.1-9.57-.2-4.13-.19-7.57,2.57-11.2,1.29-1.7,1-6.14-.42-8-1.93-2.56-5.2-1.79-7.93.5a21.29,21.29,0,0,1-6,3c-5.33,2.09-9.5-1.61-14.22-2.81-4.52-1.15-6-3.62-5.87-7.77.13-5.92.59-11.87.23-17.76-.25-4.16,1.6-5.16,5.09-5.63,8.85-1.2,17.43-.07,26,2.28,5,1.38,5.66.45,5.42-4.75-.38-8.54-.9-17.17-.19-25.66,1.08-12.9-4.64-22.34-14.71-28.1-5.5-3.15-10.07-8.87-17.63-6.89-.37.1-.88-.43-1.35-.58-5-1.68-10-4.18-15.17-4.8-6.69-.8-14.43-5.3-19.92,3.44l-7.76-5.2-2.13,4.49-5.84-5-3.18,8.06-.7-1-3,2.07.47-7.58-1.75-1.05a49.56,49.56,0,0,0-4.44,5c-5,7.31-.55,17.34-7.51,24.52-4.07,4.19-6.23,10.21-9.34,15.34-3.84,6.33-8.73,12.16-8.79,20.16a61.26,61.26,0,0,1-.53,9.88C500.41,1632.05,499.07,1637,497.94,1641.9ZM557,1747.26c4.94,4.23,14.63,2.23,16.94-2.54.65-1.34,1.7-3.15,2.89-3.45,2.8-.7,5.86-1.32,4.68-4.76-.47-1.37-3.88-2.15-6.06-2.43-8.55-1.12-17.12-2.12-24.55-7-1.18-.78-1.77-2.46-2.64-3.72,1.47-.75,2.86-1.87,4.42-2.18a53.79,53.79,0,0,1,7.3-.51c2.21-.12,4.5-.64,6.61-.25,2.53.47,4.94,2.53,7.37,2.49,7.31-.13,11.92-5.22,16.37-10.25.34-.39,0-1.34,0-3.2l-6,5.38-23-4.21.1-1.29c2.38,0,4.76.11,7.13,0a101,101,0,0,0,10.18-1c.84-.13,1.82-1.4,2.12-2.33a3.71,3.71,0,0,0-.89-2.44c-3,.57-4.84-4.47-8.35-1.75-.39.3-1.85-.81-2.83-1.25-1.17-.53-2.85-1.82-3.43-1.44-4.22,2.74-6.74-2.93-10.66-1.93-1.42.36-4.27-1.66-4.67-1.15-1.32,1.66-1.82,4-2.4,5.41l11.86,5.26-.25,1.56c-1.67-.16-3.61.17-5-.56-5.83-3.12-11.46-6.63-17.26-9.84-1.32-.73-3-.85-4.5-1.25-.3,1.36-.67,2.7-.87,4.08-.48,3.23-.21,6.75-1.42,9.66-3.6,8.63-2.16,17.17,3.09,23.63,4.42,5.45,11.75,8.58,17.91,12.54.6.39,2-.52,3.09-.83l-.18-1-3.28-1.15.35-1.86,17.17,2.52-.06,1.43Zm-78-131.76c-1.57,2.81-3.33,5.75-4.83,8.82a3.29,3.29,0,0,0,.63,2.66,2.25,2.25,0,0,0,2.11-.07c2.07-3.15,5.05-3.25,8.33-3,.73.06,1.53-.91,2.3-1.4a13.62,13.62,0,0,0-1.87-2.23C483.78,1618.83,481.79,1617.5,479,1615.51Z" transform="translate(-375 -1509.55)"/><path d="M549.78,1635c-4.26-4.92-9.41-6.38-15.25-6.17a30.73,30.73,0,0,1-5.38.22c-3.65-.53-6.71-1.77-4.25-6.84l1.87.2a70.82,70.82,0,0,1,.77-9.06c.19-.93,1.91-2,3.06-2.21,11.83-1.65,23.75-4.16,35.19,1.74,4.11,2.12,8.15,4.4,12.08,6.84,2.19,1.36,3.07,3.11,1.18,5.8-2.35,3.34-3.93,7.23-6.28,10.57-.8,1.13-2.95,1.31-5.12,2.19-.57,4.54-5.18,5.18-9.36,5.77-10,1.41-17.34-1.77-21.55-9C541,1634.78,545.19,1639.93,549.78,1635Z" transform="translate(-375 -1509.55)"/></svg>