<svg xmlns="http://www.w3.org/2000/svg" width="100%" height="200" viewBox="-18 -8 200 200"><path d="M80.4 0c35.2.1 65.5 22.6 77.3 56 4 11.4 6.7 23.3 5.8 35.3-2.7 34-16.4 62-48.7 77-29.5 13.7-62 8.8-87-14.5a92 92 0 0 1 .3-131.9C43.3 7.6 61.2.4 80.4 0zm42 113.2c1 1.2 2 2.2 3.3 3 1.7 1 4 2 5.8 1.3 1.2-.4 2-3 2.5-4.8.7-2.5 1.3-5 1.6-7.7.1-1.2 0-3-.8-3.5s-2.3 0-3.5.2c-3 .4-6.2 1.7-8.8 1-5.7-1.7-6.7-5.2-6-13.4.3-3 1.5-4.5 4.2-4.5a85 85 0 0 1 11.8.9c3 .5 4.3-.2 4.2-3.5v-13c-.1-6.5-2-12-8.2-15.5-7.6-4.5-16-6-24.5-7.4-.8-.1-1.7 0-2.5.2l-11 1.6-.3-1.2-2.2 3-3.4-3.8-2.7 7.5c-1.4 4-2.3 8.3-4.3 11.8-4 7-9 13-8.7 21.7.1 2-1 4-1.8 6.4l-1.8-3c-3 .7-5 1.7-7.3 1.6-1 0-2.6-3.3-2.3-3.8 1.3-1.8 3.4-3 5.3-4.6l-4-3C52.7 88 53.7 95 56 102c1.2 3.6 4 5.3 8.4 5.2L66 97c2.3 8-3 16.8 4.7 22.4L98 105.7l1 .6c-1.4 4.3.7 5.5 4 6 3 .4 5.8 1.6 8.7 1.8 3.2.1 6.3-.6 10.6-1zm-80.8 31.3c5.2 10 12.7 17.6 21.6 24 2.4 1.7 7-.1 7.2-2.8.3-6 5-12.6-1.7-18a4 4 0 0 1-1-2.3c-1.8-9.5-5-19-4-28.8.1-1-.4-3-1.2-3.4-7.6-3.6-15.6-6.7-24.2-4.3-2.5.7-4.5 4-6.2 6.3-.7 1-1 3.6-.2 4.4l10.6 10-4 3c2.6 2.7 9.4 3 11.4 0 .8-1.2-.2-3.7-.4-5.5l-1.8-.8 9-7 1.8 1c-.4 3.7-.4 7.4-1.2 11-1.7 8.4-10.4 8.7-16.2 13.2zm53.6-2.7l.4-2c.7-.4 1.4-.6 2.2-.8 3.8.1 7.5.6 11.3.4 1.7-.1 3.3-1.4 5-2.2-1.2-1-2.6-2-4-2.6a56 56 0 0 0-6.3-1.8l9-1.7-.1-1.7c-5.2-1.5-10.4-3.2-15.7-4.6-.5-.1-1.7 1-2 1.7-.2.5.6 1.7 1.3 2l4.4 2.2-.7 1.3-14-7.2c-.4 6-2.2 12-.8 16.8 2.5 8.7 9.5 12 18.6 10.4l-3 2.2c6.7.5 9.2-3.2 11.6-7.3zm-5.5-49.5h5.6c-3-6-8.6-3-12-4.7-.3-.5-.6-.8-.5-1 .4-2.5.1-6.2 1.5-7 3-1.6 6.2-2.3 9.5-2a47 47 0 0 1 13.3 3.2c5.2 2.2 5.6 4 2.8 9-3.3 5.8-14 10.6-20 2.6z"/></svg>