<svg xmlns="http://www.w3.org/2000/svg" width="250" height="246"><style><![CDATA[.A{fill:#FFF}]]></style><path d="M241.3 160c0 4.7 7.8 16.5 7.8 21.2l-1.4 24c-6.6-1.6-6.8 3-6.8 7.8H100.5c1 4.6 1.7 8.6 3 12.6 1.3 4.5-.6 6.5-4.7 7.5l-25 6.3c-4.5 1.3-6.6-.3-7.6-4.4-1.5-6-3.4-11.8-4.5-18-.7-3.5-2.3-4-5.4-4l-48 .1c1.2-5.4.5-8.8-5.4-8l-1.4-38 8.7-2.5c-1-1.7-1.8-2.6-2.4-3.6 1-.6 2-1.6 3-1.8 2-.4 4-.5 6-.5l27-.5H17c0-.3-.1-.6-.1-.8l27.4-8.8c41.3 169-10-40.8-15-60.8-1-4.4.4-6.4 4.2-7.3 8.5-2.2 17-4.2 25.6-6.2 5.5-1.3 7-.2 8.4 5.3l15 60.8c1 4.2 39.8 153 1 5.3 4.8-1 68.3 0 99.5-.3 10-.1 19.4 1 28.8 4.5a443 443 0 0 0 29.5 10c3.8 1-142-1.2-154.2 0 3.2 1 151.5-.8 154.2 0zm-165-11.3a12 12 0 0 0-12-12.5c-6.6 0-12.7 5.7-12.8 12-.1 6.6 6 12.7 12.6 13 6.3 0 12.2-6 12.2-12.5zm15 65.3l-22.5 4.5 2 6L93 220c-.6-2.2-1-3.8-1.8-6zm65-48.8c-2 0-4.3-.1-6.4.1-.7.1-1.2 1-1.8 1.6.6.4 1 1.3 1.7 1.3h12.4c.6 0 1.2-1 2-1.6-.7-.4-1.4-1.2-2.2-1.3-2-.3-3.8-.1-5.6-.1zm26.4 2.4c-1-2.8-7.2-3.5-15.6-2 1 2.8 7.4 3.5 15.6 2zm3.4 0c8 1.6 14.7 1 15.7-1.8-8-1.7-14.7-1-15.7 1.8zM45.6 105.2l-7.7 2.4 1.8 4.7L47 110l-1.5-4.8zm14-7l7.7-2.3-1.7-4.7-7.4 2.3 1.4 4.7zm-5-4a227 227 0 0 0-7.7 2.4l1.8 4.8L56 99l-1.5-4.8zm-11.2 2l-7.6 2.3 1.8 4.7 7.6-2.3-1.8-4.7zm16.5 5.2l1.7 4.8L69 104l-1.6-4.7-7.6 2.3zm-3.3.7a227 227 0 0 0-7.7 2.4l1.8 4.7L58 107l-1.5-4.8zm6.8 13.2L71 113l-1.6-4.7a295 295 0 0 1-7.4 2.2l1.3 5zm-12.5-3l1.7 4.8 7.6-2.3-1.7-4.8-7.6 2.3zm-11 3c.6 2 1 3.2 1.7 4.8l7.6-2.3-1.7-4.8-7.6 2.3zm31.7.7c-2.7.8-5 1.6-7.7 2.4l1.8 4.7L73 121l-1.5-4.8zM53 121.5l1.6 4.8 7.7-2.4-1.8-4.6-7.5 2.2zm-3.3.7l-7.7 2.3 1.8 4.8L51 127l-1.5-4.8zm10.7-33.5c1.7-2.2 3.6-2.5 3.5-3.7-.1-1.3-2-2.4-3-3.6-1.2 1-3.2 2-3.4 3.4-.2 1 1.5 1.6 3 4zm-19 1.8c-2.4-1.4-3-3-4-3s-3 2.3-3 3.5 2.2 3 3.4 3c1.3 0 1.6-2 3.7-3.6zM78.7 157c-2.5 1-3.5 2.5-3.4 3.7.1 1.3 1 2.2 3 2.6 2.6-1 3.2-1 3.4-2.4.1-1 0-3-3-4zm-21 5c-1.6 2.2-3.4 2.6-3.3 3.8.1 1.3 2 3.3 3.2 3.3 1.2 0 3.2-2 3.4-3.2.1-1.2-1.7-1.6-3.3-4zm25.8 19.6c-2.3-1.4-2.8-3-4-3-1.3.2-2.2 2.2-3.3 3.5 1.2 1 2.4 3 3.7 3 1.2 0 1.5-2 3.6-3.6zm-13 3c-1-2.7-2.8-3-4-3s-3 2.3-3 3.5 2.2 3 3.4 3 3.3-1 3.6-3.6z"/><path d="M76.2 148.8c0 6.6-5.8 12.5-12.3 12.4-6.6-.1-12.7-6.3-12.6-13a13 13 0 0 1 12.8-12c7 .1 12 5.5 12 12.6zM64 141c-2.8 3.3-5.5 5-6 7.2-.5 3.2 2 6 5.3 5.6 2-.3 5-3 5.2-5 .3-2-2.3-4.2-4.6-7.7zm27.3 73l1.8 6-22.4 4.4-2-6 22.5-4.5zm65-48.7l5.4.1c.8.1 1.5.8 2.2 1.3-.6.6-1.2 1.6-1.8 1.6h-12.4c-.6 0-1-.8-1.7-1.3.6-.6 1.2-1.5 2-1.6 2-.3 4.2-.1 6.4-.1zm26.4 2.4c-8.2 1.6-14.7.8-15.6-2 8.4-1.6 14.7-.8 15.6 2zm3.5 0c1-2.7 7.6-3.5 15.7-1.8-1 2.7-7.7 3.4-15.7 1.8zM45.6 105.2L47 110l-7.4 2.3c-.6-1.5-1-2.8-1.8-4.7l7.7-2.4zm14-7L58 93.5l7.4-2.3 1.8 4.7-7.8 2.4zm-5-4A125 125 0 0 1 56 99l-7.4 2.4-1.8-4.8 7.7-2.3zm-11.2 2l1.8 4.7-7.6 2.4c-.6-1.5-1-3-1.8-4.7l7.6-2.4zm16.6 5.2l7.6-2.3c.5 1.6 1 3 1.6 4.7l-7.4 2.4c-.6-1.5-1-3-1.8-4.8zm-3.4.7c.6 1.8 1 3 1.5 4.8l-7.4 2.3c-.6-1.5-1-3-1.8-4.7l7.7-2.4zm6.8 13.2l-1.4-5 7.4-2.2a54 54 0 0 0 1.7 4.7l-7.7 2.4zm-12.4-3l7.5-2.3 1.5 5c-2.6.8-5 1.5-7.5 2.3l-1.7-4.8zm-11 3l7.6-2.2 1.7 4.8c-2.7.8-5 1.5-7.6 2.3l-1.7-5zm31.6.7l1.4 5-7.4 2.3c-.6-1.5-1-2.8-1.8-4.7l7.8-2.4zM53 121.5l7.5-2.2 1.8 4.6-7.7 2.4-1.6-4.8zm-3.4.7c.6 1.8 1 3 1.5 4.8l-7.4 2.3c-.6-1.5-1-3-1.8-4.7l7.7-2.4zm10.7-33.5c-2.7-1-3.2-2.8-3-4 .2-1.3.8-2.7 3.4-3.4 2 .6 3 2.4 3 3.6 0 1.3-.1 2.4-3.5 3.8zm-19 1.8c-.6 2.3-2.5 3.6-3.7 3.6-1.3 0-3.4-2-3.4-3-.1-1.2 1.8-3.2 3-3.4 1.2-.4 3.5.6 4 2.8zM78.7 157c1.5 2.3 3.2 2.8 3 4-.2 1.3-2.2 1.3-3.4 2.4-1-1.2-3-1.4-3-2.6 0-1.3 1.8-1.6 3.5-3.8zm-21 5c3.2 1 3.3 2.7 3.2 4-.2 1.3-2 3.2-3.3 3.2-1 0-3-2-3.2-3.3-.1-1.2.6-2.7 3.3-3.8zm25.8 19.5c-.8 2.3-2.4 3.6-3.6 3.6-1.3 0-3.7-1-3.7-3 .1-2.2 2-3.2 3.3-3.4 1.2-.4 3-.2 4 2.8zm-13 3c-2 1.7-2.4 3.6-3.6 3.5-1.3 0-3.4-2-3.4-3-.1-1.2 1.8-3.2 3-3.4 1-.3 1.7 1.4 4 3z" class="A"/><path d="M63.5 142.7c5 .6 5.5 4.3 5.2 6.2-.3 2-3 4.8-5.2 5-3.2.5-6-2.4-5.3-5.6.3-2.3-.1-5 5.3-5.7z"/></svg>