<?xml version="1.0" encoding="utf-8"?>
<!-- Generator: Adobe Illustrator 16.0.3, SVG Export Plug-In . SVG Version: 6.00 Build 0)  -->
<!DOCTYPE svg PUBLIC "-//W3C//DTD SVG 1.1//EN" "http://www.w3.org/Graphics/SVG/1.1/DTD/svg11.dtd">
<svg version="1.1" class="line-drawing" xmlns="http://www.w3.org/2000/svg" xmlns:xlink="http://www.w3.org/1999/xlink" x="0px" y="0px"
	 width="250px" height="246px" viewBox="0 0 250 246" enable-background="new 0 0 250 246" xml:space="preserve">
<path fill-rule="evenodd" clip-rule="evenodd" d="M241.25,160.08c0,4.67,7.75,16.53,7.75,21.19c-0.47,7.91-0.94,15.83-1.43,24.05
	c-6.58-1.59-6.82,2.87-6.76,7.83c-46.84,0-93.42,0-140.45,0c1.03,4.56,1.74,8.64,2.9,12.59c1.31,4.5-0.63,6.52-4.72,7.51
	c-8.36,2.02-16.76,3.91-25.01,6.29c-4.51,1.3-6.58-0.26-7.62-4.41c-1.5-5.96-3.36-11.85-4.51-17.88c-0.66-3.46-2.26-4.14-5.4-4.11
	c-14.16,0.13-28.32,0.06-42.48,0.07c-1.74,0-3.47,0-5.62,0c1.22-5.4,0.48-8.82-5.45-7.96c-0.48-7.14-0.94-14.06-1.41-20.99
	c0-5.67,0-11.33,0-17c2.92-0.86,5.84-1.72,8.65-2.55c-1.12-1.66-1.77-2.62-2.41-3.57c1.01-0.64,1.95-1.62,3.05-1.85
	c1.93-0.41,3.96-0.47,5.96-0.48c9.01-0.04,18.02-0.02,27.04-0.02c0-0.18,0-0.36,0-0.54c-8.86,0-17.71,0-26.57,0
	c-0.05-0.28-0.09-0.56-0.14-0.84c9.05-2.92,18.11-5.84,27.37-8.83c41.27,168.93-9.91-40.78-15.11-60.81
	c-1.14-4.4,0.4-6.38,4.15-7.33c8.49-2.16,17.02-4.16,25.55-6.16c5.46-1.28,7.05-0.24,8.42,5.27c5.02,20.26,10.15,40.5,14.95,60.81
	c0.99,4.2,39.81,153.14,1.01,5.33c4.8-0.94,68.33,0.04,99.48-0.29c9.95-0.1,19.43,0.99,28.79,4.5
	C220.09,153.24,232.15,157.47,241.25,160.08c3.84,1.1-142.01-1.18-154.23,0C90.25,160.99,238.56,159.33,241.25,160.08z
	 M76.17,148.76c0.01-7.07-5.21-12.5-12.04-12.53c-6.65-0.02-12.73,5.7-12.82,12.06c-0.09,6.57,5.94,12.74,12.59,12.88
	C70.31,161.3,76.16,155.39,76.17,148.76z M91.33,214.06c-7.56,1.5-14.89,2.95-22.53,4.46c0.74,2.28,1.29,3.96,1.92,5.91
	c7.58-1.48,14.83-2.9,22.37-4.37C92.47,217.94,91.98,216.25,91.33,214.06z M156.36,165.27c-2.15,0-4.3-0.13-6.43,0.08
	c-0.66,0.06-1.24,1.03-1.85,1.59c0.56,0.44,1.1,1.26,1.67,1.27c4.12,0.11,8.25,0.14,12.37,0c0.63-0.02,1.24-1.04,1.85-1.59
	c-0.72-0.45-1.42-1.21-2.18-1.29C160,165.14,158.17,165.27,156.36,165.27z M182.82,167.72c-0.96-2.77-7.21-3.52-15.63-1.88
	C168.14,168.55,174.62,169.32,182.82,167.72z M186.17,167.7c8.03,1.63,14.65,0.85,15.66-1.84
	C193.8,164.23,187.17,165.01,186.17,167.7z M45.58,105.19c-2.71,0.85-5.12,1.61-7.73,2.42c0.73,1.88,1.24,3.21,1.81,4.7
	c2.6-0.81,4.93-1.53,7.39-2.3C46.52,108.28,46.1,106.9,45.58,105.19z M59.45,98.31c2.69-0.82,5.1-1.55,7.69-2.34
	c-0.7-1.86-1.19-3.19-1.75-4.69c-2.6,0.79-4.92,1.51-7.4,2.26C58.53,95.27,58.95,96.65,59.45,98.31z M54.57,94.23
	c-2.71,0.83-5.05,1.54-7.7,2.35c0.68,1.79,1.23,3.23,1.83,4.81c2.69-0.88,4.98-1.63,7.37-2.41C55.54,97.29,55.14,96.05,54.57,94.23z
	 M43.42,96.25c-2.57,0.79-4.9,1.5-7.57,2.32c0.69,1.77,1.24,3.2,1.83,4.73c2.74-0.85,5.04-1.57,7.56-2.35
	C44.53,99.13,44.01,97.79,43.42,96.25z M59.92,101.54c0.63,1.77,1.14,3.22,1.71,4.84c2.7-0.86,5-1.59,7.45-2.37
	c-0.6-1.78-1.06-3.16-1.59-4.74C64.93,100.04,62.59,100.74,59.92,101.54z M56.57,102.23c-2.71,0.83-5.04,1.54-7.7,2.35
	c0.68,1.76,1.22,3.19,1.81,4.72c2.71-0.84,5-1.56,7.41-2.3C57.53,105.27,57.14,104.03,56.57,102.23z M63.4,115.39
	c2.95-0.92,5.25-1.64,7.71-2.41c-0.63-1.8-1.11-3.17-1.65-4.71c-2.58,0.78-4.91,1.48-7.43,2.24
	C62.51,112.21,62.89,113.58,63.4,115.39z M50.9,112.52c0.64,1.83,1.11,3.2,1.66,4.77c2.56-0.77,4.9-1.47,7.55-2.26
	c-0.62-1.77-1.13-3.21-1.68-4.78C55.85,111.02,53.66,111.69,50.9,112.52z M39.88,115.51c0.64,1.85,1.12,3.23,1.66,4.81
	c2.56-0.77,4.9-1.47,7.56-2.27c-0.62-1.77-1.13-3.21-1.68-4.77C44.85,114.04,42.65,114.69,39.88,115.51z M71.59,116.24
	c-2.7,0.82-5.11,1.56-7.73,2.36c0.7,1.86,1.21,3.19,1.78,4.68c2.59-0.8,4.92-1.51,7.39-2.27C72.51,119.3,72.1,117.91,71.59,116.24z
	 M52.92,121.5c0.6,1.8,1.05,3.18,1.6,4.83c2.65-0.82,5.06-1.57,7.66-2.38c-0.72-1.88-1.23-3.2-1.79-4.63
	C57.9,120.04,55.7,120.68,52.92,121.5z M49.56,122.22c-2.72,0.82-5.05,1.53-7.73,2.34c0.69,1.78,1.24,3.21,1.83,4.75
	c2.72-0.85,5.01-1.56,7.41-2.32C50.53,125.27,50.14,124.03,49.56,122.22z M60.29,88.69c1.71-2.21,3.55-2.54,3.47-3.75
	c-0.08-1.28-2-2.43-3.11-3.64c-1.2,1.12-3.18,2.12-3.38,3.4C57.08,85.88,58.79,86.37,60.29,88.69z M41.42,90.46
	c-2.36-1.45-2.88-3.13-4.08-2.92c-1.25,0.21-3.1,2.28-3.04,3.45c0.07,1.15,2.17,2.99,3.44,3.04C38.96,94.07,39.25,92.21,41.42,90.46
	z M78.72,156.91c-2.55,0.99-3.52,2.5-3.44,3.71c0.08,1.27,0.89,2.15,3.1,2.63c2.57-0.86,3.2-1.11,3.39-2.37
	C81.94,159.68,81.78,157.9,78.72,156.91z M57.62,161.9c-1.64,2.21-3.44,2.58-3.35,3.8c0.1,1.26,2.05,3.31,3.18,3.3
	c1.2-0.01,3.19-1.92,3.35-3.2C60.95,164.6,59.18,164.16,57.62,161.9z M83.4,181.45c-2.33-1.44-2.85-3.11-4.05-2.91
	c-1.26,0.21-2.21,2.23-3.29,3.45c1.23,1.08,2.43,2.97,3.69,3.02C80.97,185.05,81.25,183.19,83.4,181.45z M70.38,184.46
	c-1.13-2.7-2.84-3.14-4.04-2.94c-1.25,0.21-3.1,2.28-3.03,3.45c0.06,1.15,2.16,2.99,3.43,3.04
	C67.96,188.05,70.11,187.02,70.38,184.46z"/>
<path fill-rule="evenodd" clip-rule="evenodd" fill="#FFFFFF" d="M76.17,148.76c-0.01,6.63-5.85,12.54-12.27,12.41
	c-6.64-0.14-12.68-6.31-12.59-12.88c0.08-6.36,6.17-12.08,12.82-12.06C70.96,136.26,76.18,141.69,76.17,148.76z M64.01,141.05
	c-2.84,3.32-5.53,5.07-5.89,7.22c-0.55,3.22,2.13,6.08,5.34,5.6c2.05-0.3,4.91-3.08,5.2-5.07
	C68.93,146.93,66.31,144.64,64.01,141.05z"/>
<path fill-rule="evenodd" clip-rule="evenodd" fill="#FFFFFF" d="M91.33,214.06c0.64,2.19,1.14,3.88,1.76,6
	c-7.54,1.47-14.8,2.89-22.37,4.37c-0.63-1.95-1.18-3.63-1.92-5.91C76.44,217.01,83.78,215.56,91.33,214.06z"/>
<path fill-rule="evenodd" clip-rule="evenodd" fill="#FFFFFF" d="M156.36,165.27c1.82,0,3.65-0.13,5.44,0.06
	c0.76,0.08,1.45,0.84,2.18,1.29c-0.62,0.56-1.22,1.57-1.85,1.59c-4.12,0.14-8.25,0.12-12.37,0c-0.57-0.02-1.12-0.83-1.67-1.27
	c0.62-0.56,1.19-1.53,1.85-1.59C152.06,165.14,154.21,165.27,156.36,165.27z"/>
<path fill-rule="evenodd" clip-rule="evenodd" fill="#FFFFFF" d="M182.82,167.72c-8.21,1.6-14.68,0.83-15.63-1.88
	C175.62,164.2,181.86,164.95,182.82,167.72z"/>
<path fill-rule="evenodd" clip-rule="evenodd" fill="#FFFFFF" d="M186.17,167.7c1.01-2.69,7.63-3.47,15.66-1.84
	C200.82,168.56,194.19,169.33,186.17,167.7z"/>
<path fill-rule="evenodd" clip-rule="evenodd" fill="#FFFFFF" d="M45.58,105.19c0.52,1.71,0.94,3.09,1.47,4.82
	c-2.47,0.77-4.79,1.49-7.39,2.3c-0.57-1.48-1.08-2.81-1.81-4.7C40.45,106.79,42.86,106.04,45.58,105.19z"/>
<path fill-rule="evenodd" clip-rule="evenodd" fill="#FFFFFF" d="M59.45,98.31c-0.51-1.66-0.93-3.04-1.45-4.77
	c2.48-0.76,4.8-1.47,7.4-2.26c0.56,1.5,1.06,2.83,1.75,4.69C64.56,96.76,62.15,97.49,59.45,98.31z"/>
<path fill-rule="evenodd" clip-rule="evenodd" fill="#FFFFFF" d="M54.57,94.23c0.58,1.82,0.97,3.06,1.5,4.74
	c-2.4,0.78-4.68,1.53-7.37,2.41c-0.6-1.58-1.15-3.02-1.83-4.81C49.52,95.77,51.85,95.05,54.57,94.23z"/>
<path fill-rule="evenodd" clip-rule="evenodd" fill="#FFFFFF" d="M43.42,96.25c0.59,1.53,1.11,2.87,1.82,4.7
	c-2.52,0.78-4.82,1.5-7.56,2.35c-0.59-1.53-1.15-2.96-1.83-4.73C38.52,97.75,40.85,97.04,43.42,96.25z"/>
<path fill-rule="evenodd" clip-rule="evenodd" fill="#FFFFFF" d="M59.92,101.54c2.67-0.8,5-1.5,7.58-2.27
	c0.53,1.58,0.99,2.96,1.59,4.74c-2.45,0.78-4.75,1.51-7.45,2.37C61.06,104.76,60.55,103.31,59.92,101.54z"/>
<path fill-rule="evenodd" clip-rule="evenodd" fill="#FFFFFF" d="M56.57,102.23c0.57,1.8,0.96,3.04,1.51,4.76
	c-2.4,0.75-4.69,1.46-7.41,2.3c-0.58-1.53-1.13-2.96-1.81-4.72C51.52,103.77,53.85,103.05,56.57,102.23z"/>
<path fill-rule="evenodd" clip-rule="evenodd" fill="#FFFFFF" d="M63.4,115.39c-0.51-1.8-0.89-3.18-1.37-4.87
	c2.52-0.76,4.86-1.47,7.43-2.24c0.54,1.55,1.02,2.91,1.65,4.71C68.65,113.75,66.35,114.47,63.4,115.39z"/>
<path fill-rule="evenodd" clip-rule="evenodd" fill="#FFFFFF" d="M50.9,112.52c2.76-0.83,4.96-1.5,7.53-2.27
	c0.55,1.57,1.06,3.02,1.68,4.78c-2.65,0.79-4.99,1.49-7.55,2.26C52.01,115.72,51.53,114.35,50.9,112.52z"/>
<path fill-rule="evenodd" clip-rule="evenodd" fill="#FFFFFF" d="M39.88,115.51c2.77-0.82,4.97-1.47,7.55-2.23
	c0.55,1.56,1.06,3.01,1.68,4.77c-2.66,0.8-5,1.5-7.56,2.27C41,118.73,40.52,117.36,39.88,115.51z"/>
<path fill-rule="evenodd" clip-rule="evenodd" fill="#FFFFFF" d="M71.59,116.24c0.5,1.67,0.92,3.05,1.44,4.78
	c-2.47,0.76-4.8,1.47-7.39,2.27c-0.57-1.5-1.07-2.83-1.78-4.68C66.48,117.81,68.9,117.07,71.59,116.24z"/>
<path fill-rule="evenodd" clip-rule="evenodd" fill="#FFFFFF" d="M52.92,121.5c2.79-0.82,4.98-1.46,7.47-2.19
	c0.55,1.44,1.06,2.76,1.79,4.63c-2.6,0.81-5.01,1.56-7.66,2.38C53.97,124.67,53.51,123.3,52.92,121.5z"/>
<path fill-rule="evenodd" clip-rule="evenodd" fill="#FFFFFF" d="M49.56,122.22c0.57,1.81,0.97,3.05,1.51,4.77
	c-2.4,0.75-4.7,1.47-7.41,2.32c-0.59-1.54-1.14-2.97-1.83-4.75C44.51,123.75,46.85,123.04,49.56,122.22z"/>
<path fill-rule="evenodd" clip-rule="evenodd" fill="#FFFFFF" d="M60.29,88.69c-2.75-0.92-3.2-2.81-3.02-4
	c0.2-1.28,0.81-2.67,3.38-3.4c1.92,0.6,3.03,2.37,3.11,3.64C63.84,86.15,63.74,87.27,60.29,88.69z"/>
<path fill-rule="evenodd" clip-rule="evenodd" fill="#FFFFFF" d="M41.42,90.46c-0.58,2.3-2.46,3.6-3.68,3.56
	c-1.27-0.05-3.37-1.88-3.44-3.04c-0.07-1.16,1.78-3.24,3.04-3.45C38.54,87.34,40.83,88.27,41.42,90.46z"/>
<path fill-rule="evenodd" clip-rule="evenodd" fill="#FFFFFF" d="M78.72,156.91c1.5,2.29,3.22,2.77,3.04,3.97
	c-0.18,1.26-2.18,1.26-3.39,2.37c-1.11-1.21-3.02-1.36-3.1-2.63C75.2,159.41,77.04,159.08,78.72,156.91z"/>
<path fill-rule="evenodd" clip-rule="evenodd" fill="#FFFFFF" d="M57.62,161.9c3.19,1.12,3.34,2.71,3.18,3.91
	c-0.16,1.27-2.15,3.19-3.35,3.2c-1.13,0.01-3.09-2.04-3.18-3.3C54.18,164.47,54.88,163.02,57.62,161.9z"/>
<path fill-rule="evenodd" clip-rule="evenodd" fill="#FFFFFF" d="M83.4,181.45c-0.77,2.32-2.43,3.6-3.65,3.56
	c-1.27-0.05-3.69-0.99-3.69-3.02c0.11-2.22,2.04-3.24,3.29-3.45C80.55,178.33,82.25,178.52,83.4,181.45z"/>
<path fill-rule="evenodd" clip-rule="evenodd" fill="#FFFFFF" d="M70.38,184.46c-2.13,1.73-2.42,3.59-3.64,3.54
	c-1.27-0.05-3.37-1.89-3.43-3.04c-0.07-1.16,1.78-3.24,3.03-3.45C67.54,181.32,68.06,183.01,70.38,184.46z"/>
<path fill-rule="evenodd" clip-rule="evenodd" d="M63.48,142.66c4.97,0.61,5.45,4.27,5.18,6.15c-0.29,1.99-3.15,4.76-5.2,5.07
	c-3.21,0.48-5.89-2.38-5.34-5.6C58.48,146.13,58.08,143.39,63.48,142.66z"/>
</svg>
