<svg class="line-drawing" xmlns="http://www.w3.org/2000/svg" width="250" height="246" viewBox="0 0 250 246"><path d="M241.3 160.1c0 4.7 7.8 16.5 7.8 21.2 -0.5 7.9-0.9 15.8-1.4 24.1 -6.6-1.6-6.8 2.9-6.8 7.8 -46.8 0-93.4 0-140.4 0 1 4.6 1.7 8.6 2.9 12.6 1.3 4.5-0.6 6.5-4.7 7.5 -8.4 2-16.8 3.9-25 6.3 -4.5 1.3-6.6-0.3-7.6-4.4 -1.5-6-3.4-11.8-4.5-17.9 -0.7-3.5-2.3-4.1-5.4-4.1 -14.2 0.1-28.3 0.1-42.5 0.1 -1.7 0-3.5 0-5.6 0 1.2-5.4 0.5-8.8-5.4-8 -0.5-7.1-0.9-14.1-1.4-21 0-5.7 0-11.3 0-17 2.9-0.9 5.8-1.7 8.7-2.5 -1.1-1.7-1.8-2.6-2.4-3.6 1-0.6 2-1.6 3.1-1.8 1.9-0.4 4-0.5 6-0.5 9 0 18 0 27 0 0-0.2 0-0.4 0-0.5 -8.9 0-17.7 0-26.6 0 0-0.3-0.1-0.6-0.1-0.8 9.1-2.9 18.1-5.8 27.4-8.8 41.3 168.9-9.9-40.8-15.1-60.8 -1.1-4.4 0.4-6.4 4.2-7.3 8.5-2.2 17-4.2 25.6-6.2 5.5-1.3 7.1-0.2 8.4 5.3 5 20.3 10.2 40.5 15 60.8 1 4.2 39.8 153.1 1 5.3 4.8-0.9 68.3 0 99.5-0.3 10-0.1 19.4 1 28.8 4.5C220.1 153.2 232.2 157.5 241.3 160.1c3.8 1.1-142-1.2-154.2 0C90.3 161 238.6 159.3 241.3 160.1zM76.2 148.8c0-7.1-5.2-12.5-12-12.5 -6.6 0-12.7 5.7-12.8 12.1 -0.1 6.6 5.9 12.7 12.6 12.9C70.3 161.3 76.2 155.4 76.2 148.8zM91.3 214.1c-7.6 1.5-14.9 3-22.5 4.5 0.7 2.3 1.3 4 1.9 5.9 7.6-1.5 14.8-2.9 22.4-4.4C92.5 217.9 92 216.3 91.3 214.1zM156.4 165.3c-2.1 0-4.3-0.1-6.4 0.1 -0.7 0.1-1.2 1-1.8 1.6 0.6 0.4 1.1 1.3 1.7 1.3 4.1 0.1 8.3 0.1 12.4 0 0.6 0 1.2-1 1.9-1.6 -0.7-0.4-1.4-1.2-2.2-1.3C160 165.1 158.2 165.3 156.4 165.3zM182.8 167.7c-1-2.8-7.2-3.5-15.6-1.9C168.1 168.6 174.6 169.3 182.8 167.7zM186.2 167.7c8 1.6 14.7 0.9 15.7-1.8C193.8 164.2 187.2 165 186.2 167.7zM45.6 105.2c-2.7 0.9-5.1 1.6-7.7 2.4 0.7 1.9 1.2 3.2 1.8 4.7 2.6-0.8 4.9-1.5 7.4-2.3C46.5 108.3 46.1 106.9 45.6 105.2zM59.5 98.3c2.7-0.8 5.1-1.5 7.7-2.3 -0.7-1.9-1.2-3.2-1.7-4.7 -2.6 0.8-4.9 1.5-7.4 2.3C58.5 95.3 59 96.7 59.5 98.3zM54.6 94.2c-2.7 0.8-5 1.5-7.7 2.4 0.7 1.8 1.2 3.2 1.8 4.8 2.7-0.9 5-1.6 7.4-2.4C55.5 97.3 55.1 96.1 54.6 94.2zM43.4 96.3c-2.6 0.8-4.9 1.5-7.6 2.3 0.7 1.8 1.2 3.2 1.8 4.7 2.7-0.8 5-1.6 7.6-2.3C44.5 99.1 44 97.8 43.4 96.3zM59.9 101.5c0.6 1.8 1.1 3.2 1.7 4.8 2.7-0.9 5-1.6 7.5-2.4 -0.6-1.8-1.1-3.2-1.6-4.7C64.9 100 62.6 100.7 59.9 101.5zM56.6 102.2c-2.7 0.8-5 1.5-7.7 2.4 0.7 1.8 1.2 3.2 1.8 4.7 2.7-0.8 5-1.6 7.4-2.3C57.5 105.3 57.1 104 56.6 102.2zM63.4 115.4c3-0.9 5.3-1.6 7.7-2.4 -0.6-1.8-1.1-3.2-1.6-4.7 -2.6 0.8-4.9 1.5-7.4 2.2C62.5 112.2 62.9 113.6 63.4 115.4zM50.9 112.5c0.6 1.8 1.1 3.2 1.7 4.8 2.6-0.8 4.9-1.5 7.6-2.3 -0.6-1.8-1.1-3.2-1.7-4.8C55.9 111 53.7 111.7 50.9 112.5zM39.9 115.5c0.6 1.9 1.1 3.2 1.7 4.8 2.6-0.8 4.9-1.5 7.6-2.3 -0.6-1.8-1.1-3.2-1.7-4.8C44.9 114 42.7 114.7 39.9 115.5zM71.6 116.2c-2.7 0.8-5.1 1.6-7.7 2.4 0.7 1.9 1.2 3.2 1.8 4.7 2.6-0.8 4.9-1.5 7.4-2.3C72.5 119.3 72.1 117.9 71.6 116.2zM52.9 121.5c0.6 1.8 1.1 3.2 1.6 4.8 2.7-0.8 5.1-1.6 7.7-2.4 -0.7-1.9-1.2-3.2-1.8-4.6C57.9 120 55.7 120.7 52.9 121.5zM49.6 122.2c-2.7 0.8-5 1.5-7.7 2.3 0.7 1.8 1.2 3.2 1.8 4.8 2.7-0.8 5-1.6 7.4-2.3C50.5 125.3 50.1 124 49.6 122.2zM60.3 88.7c1.7-2.2 3.6-2.5 3.5-3.7 -0.1-1.3-2-2.4-3.1-3.6 -1.2 1.1-3.2 2.1-3.4 3.4C57.1 85.9 58.8 86.4 60.3 88.7zM41.4 90.5c-2.4-1.4-2.9-3.1-4.1-2.9 -1.2 0.2-3.1 2.3-3 3.5 0.1 1.2 2.2 3 3.4 3C39 94.1 39.3 92.2 41.4 90.5zM78.7 156.9c-2.5 1-3.5 2.5-3.4 3.7 0.1 1.3 0.9 2.2 3.1 2.6 2.6-0.9 3.2-1.1 3.4-2.4C81.9 159.7 81.8 157.9 78.7 156.9zM57.6 161.9c-1.6 2.2-3.4 2.6-3.3 3.8 0.1 1.3 2.1 3.3 3.2 3.3 1.2 0 3.2-1.9 3.4-3.2C61 164.6 59.2 164.2 57.6 161.9zM83.4 181.5c-2.3-1.4-2.8-3.1-4-2.9 -1.3 0.2-2.2 2.2-3.3 3.5 1.2 1.1 2.4 3 3.7 3C81 185.1 81.3 183.2 83.4 181.5zM70.4 184.5c-1.1-2.7-2.8-3.1-4-2.9 -1.2 0.2-3.1 2.3-3 3.5 0.1 1.2 2.2 3 3.4 3C68 188.1 70.1 187 70.4 184.5z"/><path d="M76.2 148.8c0 6.6-5.8 12.5-12.3 12.4 -6.6-0.1-12.7-6.3-12.6-12.9 0.1-6.4 6.2-12.1 12.8-12.1C71 136.3 76.2 141.7 76.2 148.8zM64 141.1c-2.8 3.3-5.5 5.1-5.9 7.2 -0.5 3.2 2.1 6.1 5.3 5.6 2.1-0.3 4.9-3.1 5.2-5.1C68.9 146.9 66.3 144.6 64 141.1z" class="a"/><path d="M91.3 214.1c0.6 2.2 1.1 3.9 1.8 6 -7.5 1.5-14.8 2.9-22.4 4.4 -0.6-1.9-1.2-3.6-1.9-5.9C76.4 217 83.8 215.6 91.3 214.1z" class="a"/><path d="M156.4 165.3c1.8 0 3.7-0.1 5.4 0.1 0.8 0.1 1.5 0.8 2.2 1.3 -0.6 0.6-1.2 1.6-1.8 1.6 -4.1 0.1-8.2 0.1-12.4 0 -0.6 0-1.1-0.8-1.7-1.3 0.6-0.6 1.2-1.5 1.9-1.6C152.1 165.1 154.2 165.3 156.4 165.3z" class="a"/><path d="M182.8 167.7c-8.2 1.6-14.7 0.8-15.6-1.9C175.6 164.2 181.9 165 182.8 167.7z" class="a"/><path d="M186.2 167.7c1-2.7 7.6-3.5 15.7-1.8C200.8 168.6 194.2 169.3 186.2 167.7z" class="a"/><path d="M45.6 105.2c0.5 1.7 0.9 3.1 1.5 4.8 -2.5 0.8-4.8 1.5-7.4 2.3 -0.6-1.5-1.1-2.8-1.8-4.7C40.5 106.8 42.9 106 45.6 105.2z" class="a"/><path d="M59.5 98.3c-0.5-1.7-0.9-3-1.4-4.8 2.5-0.8 4.8-1.5 7.4-2.3 0.6 1.5 1.1 2.8 1.8 4.7C64.6 96.8 62.2 97.5 59.5 98.3z" class="a"/><path d="M54.6 94.2c0.6 1.8 1 3.1 1.5 4.7 -2.4 0.8-4.7 1.5-7.4 2.4 -0.6-1.6-1.1-3-1.8-4.8C49.5 95.8 51.9 95.1 54.6 94.2z" class="a"/><path d="M43.4 96.3c0.6 1.5 1.1 2.9 1.8 4.7 -2.5 0.8-4.8 1.5-7.6 2.4 -0.6-1.5-1.1-3-1.8-4.7C38.5 97.8 40.9 97 43.4 96.3z" class="a"/><path d="M59.9 101.5c2.7-0.8 5-1.5 7.6-2.3 0.5 1.6 1 3 1.6 4.7 -2.4 0.8-4.7 1.5-7.4 2.4C61.1 104.8 60.6 103.3 59.9 101.5z" class="a"/><path d="M56.6 102.2c0.6 1.8 1 3 1.5 4.8 -2.4 0.8-4.7 1.5-7.4 2.3 -0.6-1.5-1.1-3-1.8-4.7C51.5 103.8 53.9 103.1 56.6 102.2z" class="a"/><path d="M63.4 115.4c-0.5-1.8-0.9-3.2-1.4-4.9 2.5-0.8 4.9-1.5 7.4-2.2 0.5 1.6 1 2.9 1.7 4.7C68.7 113.8 66.4 114.5 63.4 115.4z" class="a"/><path d="M50.9 112.5c2.8-0.8 5-1.5 7.5-2.3 0.6 1.6 1.1 3 1.7 4.8 -2.6 0.8-5 1.5-7.5 2.3C52 115.7 51.5 114.4 50.9 112.5z" class="a"/><path d="M39.9 115.5c2.8-0.8 5-1.5 7.6-2.2 0.6 1.6 1.1 3 1.7 4.8 -2.7 0.8-5 1.5-7.6 2.3C41 118.7 40.5 117.4 39.9 115.5z" class="a"/><path d="M71.6 116.2c0.5 1.7 0.9 3.1 1.4 4.8 -2.5 0.8-4.8 1.5-7.4 2.3 -0.6-1.5-1.1-2.8-1.8-4.7C66.5 117.8 68.9 117.1 71.6 116.2z" class="a"/><path d="M52.9 121.5c2.8-0.8 5-1.5 7.5-2.2 0.6 1.4 1.1 2.8 1.8 4.6 -2.6 0.8-5 1.6-7.7 2.4C54 124.7 53.5 123.3 52.9 121.5z" class="a"/><path d="M49.6 122.2c0.6 1.8 1 3.1 1.5 4.8 -2.4 0.8-4.7 1.5-7.4 2.3 -0.6-1.5-1.1-3-1.8-4.7C44.5 123.8 46.9 123 49.6 122.2z" class="a"/><path d="M60.3 88.7c-2.7-0.9-3.2-2.8-3-4 0.2-1.3 0.8-2.7 3.4-3.4 1.9 0.6 3 2.4 3.1 3.6C63.8 86.2 63.7 87.3 60.3 88.7z" class="a"/><path d="M41.4 90.5c-0.6 2.3-2.5 3.6-3.7 3.6 -1.3 0-3.4-1.9-3.4-3 -0.1-1.2 1.8-3.2 3-3.4C38.5 87.3 40.8 88.3 41.4 90.5z" class="a"/><path d="M78.7 156.9c1.5 2.3 3.2 2.8 3 4 -0.2 1.3-2.2 1.3-3.4 2.4 -1.1-1.2-3-1.4-3.1-2.6C75.2 159.4 77 159.1 78.7 156.9z" class="a"/><path d="M57.6 161.9c3.2 1.1 3.3 2.7 3.2 3.9 -0.2 1.3-2.1 3.2-3.3 3.2 -1.1 0-3.1-2-3.2-3.3C54.2 164.5 54.9 163 57.6 161.9z" class="a"/><path d="M83.4 181.5c-0.8 2.3-2.4 3.6-3.6 3.6 -1.3 0-3.7-1-3.7-3 0.1-2.2 2-3.2 3.3-3.4C80.6 178.3 82.3 178.5 83.4 181.5z" class="a"/><path d="M70.4 184.5c-2.1 1.7-2.4 3.6-3.6 3.5 -1.3 0-3.4-1.9-3.4-3 -0.1-1.2 1.8-3.2 3-3.4C67.5 181.3 68.1 183 70.4 184.5z" class="a"/><path d="M63.5 142.7c5 0.6 5.5 4.3 5.2 6.2 -0.3 2-3.1 4.8-5.2 5.1 -3.2 0.5-5.9-2.4-5.3-5.6C58.5 146.1 58.1 143.4 63.5 142.7z"/></svg>