<svg class="line-drawing" width="100%" preserveAspectRatio="xMidYMid meet" viewBox="0 -100 680 680"><title>galaxy-phone</title><path d="M430.66 260.18l-47.07 39.35-82.35 68.91q-19.72 16.5-39.41 33.05c-2.27 1.92-4.24 2.39-7.17 1.13q-99.23-42.61-198.55-85c-1.32-.56-2.55-1.33-4.35-2.28 10.51-8.3 20.51-16.25 30.56-24.13q54.18-42.53 108.39-85c7.59-6 15.4-11.67 22.7-18 3-2.61 5.49-2.1 8.58-1q46.69 16.32 93.39 32.58l110.42 38.46c1.4.54 2.75 1.09 4.86 1.93z"/><path d="M17.33 334.17c-7.58 8.11-13.68 17.26-9.65 28.67 2.29 6.49 6.32 13.32 11.53 17.62 11.89 9.81 24.39 19.18 37.71 26.9a330.77 330.77 0 0 0 96.58 37.25c13.58 2.92 27.65 4 41.55 4.86 5 .31 10.3-2 15.2-3.87 21.34-8 41.23-18.75 58.82-33.42q52.77-44 105.51-88.09 85.8-71.89 171.58-143.9c35.89-30.3 71.39-61.07 106.94-91.78a100.56 100.56 0 0 0 12.28-13.11c7.91-9.82 7.16-20.65-3.11-27.86-7.5-5.26-16.4-8.51-24.69-12.63-1-.5-2.11-.81-3.85-1.47 8 .18 28.83 9.58 36.76 15.71l-4.32-5.32.86-1c3.3 3 7 5.74 9.82 9.19 8.78 10.92 9.84 22 2.47 33.81a123.46 123.46 0 0 1-16.43 21.28c-14.58 14.86-29.87 29-44.79 43.55-11.73 11.43-22.64 23.79-35.08 34.36-61.89 52.56-123.64 105.24-186.46 156.73-39.18 32.14-79.84 62.31-120.18 92.98-9.1 6.92-19.44 12.21-29.21 18.25-1.21.75-2.44 1.47-4.38 2.63 6.1 2.89 11 1 15.93-.87 13.54-5.13 24.93-13.84 36.7-21.94.75-.51 1.58-.9 3.45-2-41.16 43.64-127.77 59-172.94 31.46l30.26 3.2.12-.37-20.22-5.2.11-.51 21.54 3.75c1.14-3.76-7.13-2.47-1.62-7.29-54.15-12.48-102.12-36-146.25-68.39 2.1 2.42 4.17 4.86 6.3 7.24 1.91 2.14 3.89 4.21 5.84 6.32l-1.12 1.06c-.47 0-1.06.07-1.38-.17C5.4 391.25-8.4 368.19 6.26 345.99c3.57-5.4 7.81-10.36 11.89-15.4.67-.83 2.12-1 3.22-1.52zM673.79 78.92l-1.61-.15c-4.8 4.58-9.37 9.42-14.42 13.7q-53.77 45.47-107.7 90.75-57.68 48.57-115.45 97.2-56.55 47.65-113.05 95.37c-24.43 20.62-48 42.29-75 59.64-2.17 1.4-4.28 2.9-6.41 4.35l.56 1.59c4.1-1 8.3-1.62 12.28-3a73.8 73.8 0 0 0 12.74-5.43c5.19-2.92 10.08-6.38 15-9.76 13-8.94 26.59-16.87 38-28.09 9.68-9.48 20.84-17.46 31.34-26.11q25.19-20.74 50.37-41.49c28.09-23.21 56.27-46.33 84.2-69.73 26.66-22.35 53.08-45 79.53-67.58 4.51-3.86 10.08-7 10.56-14.12.11-1.68 1.95-3.46 3.36-4.8 7.59-7.25 15.32-14.35 23-21.55 2.92-2.75 6.14-3.51 10.11-2.73 1.86.36 4.51.11 5.88-1 8.9-7.19 17.77-14.47 26.3-22.19 7.4-6.67 14.22-14 21.47-20.81 5.34-5 7.81-11.51 9.74-18.24.5-1.69-.49-3.85-.8-5.82zm-97.94 102.45l1.81 1.66c4.51-3.57 10.21-6.37 13.16-10.94 2.66-4.12 3-8.32 9.75-8.46 3.35-.07 6.72-5 9.8-8 .74-.73.81-2.84.31-3.89-.33-.69-2.35-1.05-3.42-.79a9.29 9.29 0 0 0-3.79 2.24c-7.88 7.13-15.78 14.24-23.45 21.58-1.83 1.76-2.8 4.38-4.17 6.6z"/><path d="M397.14 43.67c4.28-3.33 7.6-6.47 11.45-8.68a11.06 11.06 0 0 1 7.46-.88c20 4.9 40 10 60 15.19q75.4 19.5 150.76 39.09c1.54.4 3 1 5.82 1.88-5.63 4.76-10.23 9-15.25 12.65-1.14.83-3.79-.13-5.65-.63q-78-21-156-42.17-26.48-7.17-52.92-14.49c-1.6-.42-3.12-1.06-5.67-1.96zm174.3 43.82c5.7 3.41 10.76 1.39 13.87-5.66-6.57-2.59-9.82 2.37-13.87 5.67zm-9.8-2.36l1 1.36 9.38-7.49-.91-1.16zM17.33 334.17l4-5.14c7.87-7.29 15.31-15.1 23.67-21.77q72.47-57.75 145.33-115 101.26-79.35 202.9-158.21c4.2-3.27 8.54-6.37 12.87-9.48a8.69 8.69 0 0 1 4.35-1.71c-14.15 11-28.33 22-42.43 33q-154.84 121.47-309.64 243c-8.11 6.37-16 13.1-23.61 20-8.93 8.08-17 16.91-22.39 28.14.7-2.16 1.31-4.36 2.13-6.48s1.87-4.22 2.82-6.35zM523.71 25.12c4.51 1.18 9 3.27 13.52 3.29 4.68 0 8 3.93 12.27 3.4 4.68-.59 8.13 2.29 12.26 3 2.86.47 5.8.48 8.67.94 2 .32 4 1.31 6 1.52 1.49.15 3.06-.47 5.34.22-1.83.89-4.5 3-5.34 2.46-3.23-2.19-6.66-.87-9.78-1.56-13.91-3.07-27.67-6.84-41.47-10.41a8.05 8.05 0 0 1-2-1.2zM90.01 446.56c-7.16-3.44-13.84-7.22-20.95-9.85-3.9-1.44-6.67-3.36-8.52-6.85a10.66 10.66 0 0 1-.61-2.36c9.45.74 29.11 12.97 30.08 19.06zM100.38 360.34a14.79 14.79 0 0 1 3.19.65q25.5 11.36 50.92 22.89c1.11.51 1.75 2 2.8 3.31l-57.25-25.91zM488.61 1.3c-13.78-2.13-27.13.45-40.32 3.94-5.91 1.55-11.54 3.87-17.38 5.55 10-5.65 21-8.39 32.33-9.8 6.89-.86 13.9-.84 20.87-1 1.48 0 3 .84 4.48 1.29zM471.2 18.32c.68-6 6.37-9.76 10.23-7.79.66.33.79 3.65.36 3.85-3.22 1.48-6.64 2.54-10.59 3.94zM394.91 75.49c5-7 10.71-10 15.45-7.87-5.46 2.39-7.98 9.17-15.45 7.87z"/><path d="M488.58 1.29c12.61 1.42 25.23 2.8 37.83 4.29 2.61.31 5.19 1 8.09 1.56L488.62 1.3zM400.9 65.41c-3.82 2.65-6.35 7.56-12 7.06 3.84-2.68 6.08-8.06 12-7.06zM503.3 17.79c-2.65 3.9-6.08 4.72-10.5 3.5 2.12-5.12 6.13-6.4 10.5-3.5zM446.72 74.37L432.1 85.43l-.9-1.17 14.27-11.47zM514.33 20.43c-3.42 3.58-6.62 5.22-11.11 3.06 2.91-4.87 6.16-5.79 11.11-3.06zM293.81 191.54l14.76-11.68.73.93-14.71 11.73zM590.62 20.7l-25.89-6 .28-1.21 25.81 6.3zM423.04 82.84l-5.54-3.11 9.19-6.32 1.23 1.74a19.28 19.28 0 0 1-3.84 2.29c-4.13 1.35-3.21 2.91-1.04 5.4zM131.32 399.98l15.81-3.05c-3.14 3.73-10.75 4.99-15.81 3.05zM411.38 78.66l9.21-8.66 1.3 1.55-9.74 8zM89.91 367.19l-4.16 10-1.8-.85c-.57-4.01 1.62-6.6 5.96-9.15zM415.05 69.68l-10.94 7.88-.68-.94 10.76-8.32zM33.79 414.87c-4.46-.94-6.55-4.3-8.36-9.35l9.38 8.13zM300.27 182.93l-9.89 7.79-.73-.91 9.87-7.9zM559.87 110.19l14.62 4.11-.35 1.23-14.6-4.2z"/></svg>