<svg x="0" y="0" width="19" height="19" viewBox="0 0 612.008 612.008"><title>home</title><path class="icon-home" d="M609.208 298.554L313.306 3.315a10.201 10.201 0 0 0-14.433 0L2.961 298.554c-3.988 3.988-3.907 10.354 0 14.433 1.999 2.051 4.61 3.111 7.201 3.132v.021h71.441v285.355a10.09 10.09 0 0 0 2.988 7.17c1.846 1.847 4.396 3.02 7.211 3.02h142.8c5.63 0 10.2-4.59 10.2-10.189V397.719h122.401v203.776c0 5.6 4.569 10.189 10.2 10.189h142.8c5.63 0 10.2-4.59 10.2-10.189V316.14h71.899c2.673.051 5.191-1 6.905-3.152 3.469-4.447 3.99-10.446.001-14.434zm-89.004-3.468v.724c-1.408 0-2.754.286-3.968.785-3.662 1.571-6.232 5.182-6.232 9.405v285.294h-122.4V387.539c0-5.64-4.569-10.199-10.199-10.199H234.603c-5.63 0-10.2 4.56-10.2 10.199v203.756h-122.4V306.001c0-4.213-2.57-7.834-6.232-9.395-1.213-.5-2.56-.785-3.968-.785v-.408l-56.834.031L306.084 24.898l270.719 270.137-56.599.051z"/></svg>