<svg xmlns="http://www.w3.org/2000/svg" width="23.03" height="18.07" viewBox="0 0 23.03 18.07">
	<defs>
		<style>
			.icon-home {
				fill: none;
				stroke: #fff;
				stroke-linecap: round;
				stroke-linejoin: round;
				stroke-width: 1px;
			}
		</style>
	</defs>
	<title>home</title>
	<polygon class="icon-home" points="16.52 1.23 16.51 3.25 18.65 4.53 18.66 1.24 16.52 1.23" />
	<polygon class="icon-home" points="19.68 17.68 3.12 17.62 3.15 6.66 11.45 1.88 19.72 6.72 19.68 17.68" />
	<polygon class="icon-home" points="11.52 0.38 2.09 5.7 2.08 7.29 11.51 1.88 20.91 7.36 20.91 5.77 11.52 0.38" />
	<rect class="icon-home" x="52.97" y="35" width="6.55" height="6.2" transform="translate(-26.83 70.48) rotate(-89.79)" />
	<circle class="icon-home" cx="56.28" cy="29.9" r="2.03" transform="translate(-18.6 62.34) rotate(-89.79)" />
	<rect class="icon-home" x="55.61" y="30" width="1.31" height="8.34" transform="translate(-22.89 66.58) rotate(-89.79)" />
	<line class="icon-home" x1="0.38" y1="17.61" x2="22.66" y2="17.69" />
</svg>