<svg xmlns="http://www.w3.org/2000/svg" width="250" height="299.8" viewBox="0 0 250 299.8"><defs><style>.a{fill:#fff;}</style></defs><title>wa2</title><path class="a" d="M1,274V5.1H251V30c-4.7.1-9.7,1-9.2-6.5.1-.9-2-2.8-3.3-3-6.7-1.3-11.2-5.6-16.1-9.9a18.8,18.8,0,0,0-11.5-4.3,48.4,48.4,0,0,0-17.6,3.9c-4.6,1.9-8.2,6.1-12.2,9.3-.2.1-.1.6-.2.9-.5,1.9-1,3.7-1.6,5.6-6.9-2.3-13.1-1.9-19.6,2.3s-11.4,8.1-8.3,15.3c-3.4,2.8-6,4.9-8.4,7.1s-4.4,6.2-7,6.7c-7.1,1.2-14.4.9-21.6,1.3a37.5,37.5,0,0,0-5.7.9c-1,.2-2.1,1.3-3,1.2-7.8-1.2-15.5-2.5-23.3-3.6-1.3-.2-3.5.3-3.9,1.1-2,3.8-5,3.2-8.2,2.8s-6.3-1.3-9.2-.8-3.9,2.7-4.9,4.6,2.3,2.8,4.2,4.9a41.1,41.1,0,0,1-7.2.4c-4.1-.3-9.1-2.7-11.9-1.1-5.4,3.1-10,1.9-15.2,1.1-1.5-.2-4.1,1.7-4.9,3.3s.1,4.4,3.1,4.9l6.1,1c-.5,2.4-1.7,4.6-1.2,6.4,1.2,4.4-.3,7.2-3.2,10.3s-7.2,9.4-3.6,16.1c1.7,3.1,2.1,7,2.8,9.6l-6.7-.6v-.3l-6.2-1.6c-.6,2.2-2,4.7-1.4,6.5a121.9,121.9,0,0,0,6.4,15.4c2.8,5.6,6.8,10.7,4.7,17.6a7.5,7.5,0,0,0,.4,4.4c1.6,4.8,2.7,10,5.5,14s2.7,10.6,1.8,16.1a23.6,23.6,0,0,0-.3,5.9c1.2,7.6,2.7,15.2,4.1,23.1-2.1.1-4.5.3-7,.3s-3-.8-4.3-.5-4.6,1-5.3,2.4c-2.9,5.3-1.3,7,5.8,6.9,1.5,7,8.1,3.1,11.8,5.4-1.2,6.3-2.4,12.7-3.7,19.4-11.8-1.4-13.4,6.9-13.7,16.1-3-.2-5.6.3-7.6-.6C5.9,270.2,3.4,271.3,1,274Z" transform="translate(-1 -5.1)"/><path d="M1,274c2.4-2.7,4.9-3.8,8.6-2.3,2,.9,4.6.4,7.6.6.3-9.2,1.9-17.5,13.7-16.1,1.3-6.7,2.5-13.1,3.7-19.4-3.7-2.3-10.3,1.6-11.8-5.4-7.1.1-8.7-1.6-5.8-6.9.7-1.4,3.4-2,5.3-2.4s2.9.5,4.3.5,4.9-.2,7-.3c-1.4-7.9-2.9-15.5-4.1-23.1a23.6,23.6,0,0,1,.3-5.9c.9-5.5,1.9-10.7-1.8-16.1s-3.9-9.2-5.5-14a7.5,7.5,0,0,1-.4-4.4c2.1-6.9-1.9-12-4.7-17.6A121.9,121.9,0,0,1,11,125.8c-.6-1.8.8-4.3,1.4-6.5l6.2,1.6v.3l6.7.6c-.7-2.6-1.1-6.5-2.8-9.6-3.6-6.7-.5-11.6,3.6-16.1s4.4-5.9,3.2-10.3c-.5-1.8.7-4,1.2-6.4l-6.1-1c-3-.5-4.3-2.5-3.1-4.9s3.4-3.5,4.9-3.3c5.2.8,9.8,2,15.2-1.1,2.8-1.6,7.8.8,11.9,1.1a41.1,41.1,0,0,0,7.2-.4c-1.9-2.1-4.5-4.2-4.2-4.9s3-4.3,4.9-4.6,6.1.4,9.2.8,6.2,1,8.2-2.8c.4-.8,2.6-1.3,3.9-1.1,7.8,1.1,15.5,2.4,23.3,3.6.9.1,2-1,3-1.2a37.5,37.5,0,0,1,5.7-.9c7.2-.4,14.5-.1,21.6-1.3,2.6-.5,4.6-4.5,7-6.7s5-4.3,8.4-7.1c-3.1-7.2,1.9-11.1,8.3-15.3s12.7-4.6,19.6-2.3c.6-1.9,1.1-3.7,1.6-5.6.1-.3,0-.8.2-.9,4-3.2,7.6-7.4,12.2-9.3a48.4,48.4,0,0,1,17.6-3.9,18.8,18.8,0,0,1,11.5,4.3c4.9,4.3,9.4,8.6,16.1,9.9,1.3.2,3.4,2.1,3.3,3-.5,7.5,4.5,6.6,9.2,6.5v8h-8.1c0,1.8-.1,3.4,0,5.1q3.2,85.5,6.4,171.1c.4,9.9,1.1,19.8,1.7,29.8v4c-2.2,1.4-4.3,3.1-6.6,4.1-11.1,4.6-22.6,8.4-34.8,5.8a15.6,15.6,0,0,0-12.6,1.9c-5,3.1-10.6,5.9-16.3,6.8s-6.1,3.1-7.9,6.7-4.8,8-8.3,10.5-6.6,1.2-10.1,1.2-4.4-1.2-6.7-1.3-6.8.6-10.1,0c-4.9-.8-9.6-3-14.5-3.6a88.7,88.7,0,0,0-17.1.2c-2.4.2-5.7,1.5-6.6,3.3-3.1,6.1-4,6.8-11.2,6.2-2.5-.3-5.9-.6-6.6,3.8,4-.1,5.5,1.9,4.3,5.3s-2.5,5.6-6.5,4.9c-10.9-2-22-3.5-32.7-6.3-5.3-1.3-10.2-4.7-14.6-8.2s-4.9-6.3-7.3-9.6a16.1,16.1,0,0,1-8.2,1.9c-5.2-.3-10.4-1.1-15.6-1.6Zm52.3-66.1-6.5-.4,1.1,7.8,1.2-1.7a19.8,19.8,0,0,1,1.3,4.4c.1,4.6,1,8.7,4.5,11.9a3.6,3.6,0,0,1,.8,2.3c.7,4.6,1.4,9.3,2,14.1h2l.2.9-6.5,2.7-2.7-3.6c-3.8,3.5-3.8,3.5-2.2,8.6s.3,5.9-4.7,5.4L41.9,268l-1.5-1.8a24.9,24.9,0,0,0-2,5.4c-.1.6,1.6,2,2.6,2.1a65.3,65.3,0,0,0,7.5-.3c-.8,8.6,4.3,12.1,11.1,14.2,1.1-6.7,1.5-6.8,16.1-4.2l-4.8,1.2c.8,2.4,1.6,4.5,2.7,7.9,2.5-1.7,4.3-3.4,6.5-4.5s5.4-3.1,7.5-2.5c4.5,1.3,6.2-1,8.3-3.9s6.3-7,12-4.9c1.5.6,3.5.4,5.2.3l19.8-1c-.6-1-1.9-2.5-2.3-4.3s-.1-3.9.9-4.7,3.4-1,5.2-.9,1.8,1.6,2.8,1.8c5.1.8,6.1,3.9,4.6,8.9l14,5.3c.1-.1.7-1,1.4-1,6.3-.1,8.5-4.8,10.4-9.5s4.1-7.3,9.6-8.5,11.5-4.5,17-7.4,7.7-3.5,12.2-1.5a9.7,9.7,0,0,0,4.8.6c6.9-.6,13.9-.8,20.5-2.5,12.8-3.2,13.2-3.8,12.7-17.1-.8-25.6-1.9-51.2-2.9-76.7-.7-15.6-1.4-31.2-2-46.7l-9.2-2.8c2.4-1.2,4-1.7,5-2.7s4-4,3.9-6c-.6-18.8-1.7-37.5-2.4-56.2-.1-4.4-1.6-4.9-4.8-2.6-5.2-8.6-5.7-9.6-3.2-11.3s4.8-1.1,7.7-1.7c.4-4.5,1.4-7.1-10.2-4.1-1.8-8.2-8.5-11.4-14.5-14.8-1.6,1.2-3.6,3.4-4.2,3.1-4.3-2.4-6.1.6-7.6,2.5l-9.5-1,4,6.6-5.5-1.2c.1,1,.1,2,.1,2.3-2.7.3-5,.5-7.3.9-.2,0-.3,1.4-.4,2.1l3.2-.2-3.1,7.6-9.6-3.2L173,30l4,5.2-1.1,3.2,7.2,2.1c-9.1,1.7-16-.9-18.8-10.8l-1.9.5-3,10,3.5.3.9,1.4-4,1.2,8.5,2.4c-.8,1.3-1.5,1.5-2,1.4-8.9-3.1-15.7.4-20.7,7.4a17.9,17.9,0,0,1-12.7,7.6c-6.3.9-12.5,2.7-18.9.3-1.4-.5-3.3.4-4.1.6V72.9l2.9,1.9L99.9,78.3c-.5-4-8-7.6-.3-13.5-7.8,2-14.6,3.7-15.9,13.5-1.8-3.3-2.6-4.9-3.4-6.5-2.8-5.5-4.4-5.6-10.5-3.5s-11,8.5-18.7,6.9c-.4-.1-1.1,1-1.6,1.7L39.3,90.1l-4.7-8.3H33.4l-1.5,21.4c-1.9,2.7-5.8,5.5-5.6,8,.5,5.3,2.8,10.6,5.1,15.6a9.2,9.2,0,0,1-3.2,11.3c-.8-1.8-1.5-3.5-2.3-5.1,1.2,4.1-.1,6.6-4.5,7.6l2.2,4.2c2.4,0,4.7-.7,5.9.1,3.4,2.4,3.2,5.8,1.5,8.3a63.2,63.2,0,0,1,6.6-.4A30.1,30.1,0,0,1,38,156l-3.5-2.4-1.2,2a19.6,19.6,0,0,0,3.3,1.5c1.8.5,3.7.8,5.5,1.2l-.3,1.5-17.2-1.4c1.5,3.4,2.8,6.2,4.2,9.2,3.3-2,3.9-7.3,8.6-5s3,4.7,2.2,6.8c2.1,6,7.8,5.8,12,8.1H31.7c6.1,8.8-1,17.5,2.2,26,4.8.5,10.1.8,15.2,1.6,1.5.2,2.7,1.9,4,2.9ZM20.9,275.3l7.4,2.2-4.8-5.4c.5-2.7,3.6-5.6.9-8.3H22.5Zm11.5-69.5,4.5,7.3,5.3-6.3Z" transform="translate(-1 -5.1)"/><path class="a" d="M1,280c5.2.5,10.4,1.3,15.6,1.6a16.1,16.1,0,0,0,8.2-1.9c2.4,3.3,4.2,7.2,7.3,9.6s9.3,6.9,14.6,8.2c10.7,2.8,21.8,4.3,32.7,6.3,4,.7,5.5-2.1,6.5-4.9s-.3-5.4-4.3-5.3c.7-4.4,4.1-4.1,6.6-3.8,7.2.6,8.1-.1,11.2-6.2.9-1.8,4.2-3.1,6.6-3.3a88.7,88.7,0,0,1,17.1-.2c4.9.6,9.6,2.8,14.5,3.6,3.3.6,6.8-.2,10.1,0s4.5,1.3,6.7,1.3,7.7.5,10.1-1.2,6.3-6.6,8.3-10.5,3.1-5.9,7.9-6.7,11.3-3.7,16.3-6.8a15.6,15.6,0,0,1,12.6-1.9c12.2,2.6,23.7-1.2,34.8-5.8,2.3-1,4.4-2.7,6.6-4.1v56.9H1Z" transform="translate(-1 -5.1)"/><path class="a" d="M251,244c-.6-10-1.3-19.9-1.7-29.8q-3.3-85.5-6.4-171.1c-.1-1.7,0-3.3,0-5.1H251Z" transform="translate(-1 -5.1)"/><path class="a" d="M53.1,208c-1.3-1-2.5-2.7-4-2.9-5.1-.8-10.4-1.1-15.2-1.6-3.2-8.5,3.9-17.2-2.2-26H51.6c-4.2-2.3-9.9-2.1-12-8.1.8-2.1,1.4-5-2.2-6.8s-5.3,3-8.6,5c-1.4-3-2.7-5.8-4.2-9.2l17.2,1.4.3-1.5c-1.8-.4-3.7-.7-5.5-1.2a19.6,19.6,0,0,1-3.3-1.5l1.2-2L38,156a30.1,30.1,0,0,0-.4-3.2,63.2,63.2,0,0,0-6.6.4c1.7-2.5,1.9-5.9-1.5-8.3-1.2-.8-3.5-.1-5.9-.1l-2.2-4.2c4.4-1,5.7-3.5,4.5-7.6.8,1.6,1.5,3.3,2.3,5.1a9.2,9.2,0,0,0,3.2-11.3c-2.3-5-4.6-10.3-5.1-15.6-.2-2.5,3.7-5.3,5.6-8l1.5-21.4h1.2l4.7,8.3L49.5,76.9c.5-.7,1.2-1.8,1.6-1.7,7.7,1.6,12.4-4.7,18.7-6.9s7.7-2,10.5,3.5c.8,1.6,1.6,3.2,3.4,6.5,1.3-9.8,8.1-11.5,15.9-13.5-7.7,5.9-.2,9.5.3,13.5l12.9-3.5-2.9-1.9V62.8c.8-.2,2.7-1.1,4.1-.6,6.4,2.4,12.6.6,18.9-.3a17.9,17.9,0,0,0,12.7-7.6c5-7,11.8-10.5,20.7-7.4.5.1,1.2-.1,2-1.4l-8.5-2.4,4-1.2-.9-1.4-3.5-.3,3-10,1.9-.5c2.8,9.9,9.7,12.5,18.8,10.8l-7.2-2.1,1.1-3.2L173,30l1.2-.9,9.6,3.2,3.1-7.6-3.2.2c.1-.7.2-2.1.4-2.1,2.3-.4,4.6-.6,7.3-.9,0-.3,0-1.3-.1-2.3l5.5,1.2-4-6.6,9.5,1c1.5-1.9,3.3-4.9,7.6-2.5.6.3,2.6-1.9,4.2-3.1,6,3.4,12.7,6.6,14.5,14.8,11.6-3,10.6-.4,10.2,4.1-2.9.6-5.7.5-7.7,1.7s-2,2.7,3.2,11.3c3.2-2.3,4.7-1.8,4.8,2.6.7,18.7,1.8,37.4,2.4,56.2.1,2-2.3,4.2-3.9,6s-2.6,1.5-5,2.7l9.2,2.8c.6,15.5,1.3,31.1,2,46.7,1,25.5,2.1,51.1,2.9,76.7.5,13.3.1,13.9-12.7,17.1-6.6,1.7-13.6,1.9-20.5,2.5a9.7,9.7,0,0,1-4.8-.6c-4.5-2-8.2-.5-12.2,1.5s-11.1,6.2-17,7.4-7.8,3.9-9.6,8.5-4.1,9.4-10.4,9.5c-.7,0-1.3.9-1.4,1l-14-5.3c1.5-5,.5-8.1-4.6-8.9-1-.2-1.8-1.7-2.8-1.8s-4-.1-5.2.9-1.3,3.2-.9,4.7,1.7,3.3,2.3,4.3l-19.8,1c-1.7.1-3.7.3-5.2-.3-5.7-2.1-9,1-12,4.9s-3.8,5.2-8.3,3.9c-2.1-.6-5.1,1.3-7.5,2.5s-4,2.8-6.5,4.5c-1.1-3.4-1.9-5.5-2.7-7.9l4.8-1.2c-14.6-2.6-15-2.5-16.1,4.2-6.8-2.1-11.9-5.6-11.1-14.2a65.3,65.3,0,0,1-7.5.3c-1-.1-2.7-1.5-2.6-2.1a24.9,24.9,0,0,1,2-5.4l1.5,1.8,1.9-7.7c5,.5,6.2-1,4.7-5.4s-1.6-5.1,2.2-8.6l2.7,3.6,6.5-2.7-.2-.9h-2c-.6-4.8-1.3-9.5-2-14.1a3.6,3.6,0,0,0-.8-2.3c-3.5-3.2-4.4-7.3-4.5-11.9a19.8,19.8,0,0,0-1.3-4.4l-1.2,1.7-1.1-7.8,6.4.4c-3.3,4-2.9,6.1,3.3,13.5,1.2-3,2.5-5.4,2.9-7.9s-.1-4.1-1.2-5S54.8,208.1,53.1,208Zm84.1,35.8c1.5-2.9,3.1-5.7,4.6-8.5-5.5,1.8-8.1,5.4-6.7,11.4l2.2-3.1c-1.1,3.8,1.4,4.1,4.1,4.4l10,.8h5.4a4.3,4.3,0,0,0-2.9-2Zm-61.8-8.5c-.9-2.1-1.5-4.7-3-6.5s-3.6.1-4.9,1.1c-3.3,2.2-.7,4.4.3,6.8,1.6,4,6.6,5.5,7.3,10.1a13.1,13.1,0,0,0,1.6,3.4c3.6-2.9,5.7-8.8,3.8-11.6S77.1,236.4,75.4,235.3Zm60.5-16.8c.7-2.5,1.9-4.3,1.4-5.5s-2.5-3.3-3.8-5c-1.5,1.5-3.9,2.8-4.4,4.6s3.8,8.5,7,8.9c5.4.6,10.8,1,16.2,1.4.5,0,1.1-.9,2.2-1.8l-12.6-2.8.2-.8ZM93.7,146.8l-23.5-3.2c.3,1.5,1,2.2,1.8,2.4l16.1,2c7.1.8,9-.4,10.5-7.4.4-1.6-.8-4.2-2.1-5.4s-3.9-.1-4.9,1-.9,3.4-.6,5.1S92.5,144.4,93.7,146.8ZM54.8,196.2v-2.1c-4.9-.8-9.8-1.6-14.7-2.2-.4,0-1,1.6-1.6,2.8Zm93.3-7.7-15.9-1.6-.2,1.4c1.7.4,3.4.6,5.1,1.1,3.9,1.1,9.3-1.1,11,6.1Zm62.2-34.9-.4,1.8,19.4,2.7.3-1.9Zm-44.7,34.6v-2.1l-17.2-1.5-.2,1.7ZM59,189.1c.1,1.2,0,2.6.3,2.6a66,66,0,0,0,9.6,2.1c1.1.1,2.2-1,3.3-1.5l-.3-1.1ZM223.5,72.6l.2-1.6-13.2-2.5a14.2,14.2,0,0,0-.4,2Zm-4.2,156.6c6.6,3.6,11.5,3.6,12.6,1ZM106.9,188l-7.9-.9,1.8,3.8,3.2-2.6-.9,5.9h.6Zm-48.5,1.5-10.5-1.6A6.8,6.8,0,0,0,58.4,189.5Z" transform="translate(-1 -5.1)"/><path class="a" d="M20.9,275.3l1.6-11.5h1.9c2.7,2.7-.4,5.6-.9,8.3l4.8,5.4Z" transform="translate(-1 -5.1)"/><path class="a" d="M32.4,205.8l9.8,1-5.3,6.3Z" transform="translate(-1 -5.1)"/><path d="M75.4,235.3c1.7,1.1,4,1.8,5.1,3.3s-.2,8.7-3.8,11.6a13.1,13.1,0,0,1-1.6-3.4c-.7-4.6-5.7-6.1-7.3-10.1-1-2.4-3.6-4.6-.3-6.8,1.3-1,4.4-1.7,4.9-1.1S74.5,233.2,75.4,235.3Z" transform="translate(-1 -5.1)"/><path d="M135.9,218.5l6.2-1-.2.8,12.6,2.8c-1.1.9-1.7,1.8-2.2,1.8-5.4-.4-10.8-.8-16.2-1.4-3.2-.4-7.8-5.9-7-8.9s2.9-3.1,4.4-4.6c1.3,1.7,3.1,3.1,3.8,5S136.6,216,135.9,218.5Z" transform="translate(-1 -5.1)"/><path d="M93.7,146.8c-1.2-2.4-2.4-3.9-2.7-5.5s-.3-4.1.6-5.1,4-1.7,4.9-1,2.5,3.8,2.1,5.4c-1.5,7-3.4,8.2-10.5,7.4L72,146c-.8-.2-1.5-.9-1.8-2.4Z" transform="translate(-1 -5.1)"/><path d="M53.1,208c1.7.1,4.1-.4,5.1.5s1.5,3.4,1.2,5-1.7,4.9-2.9,7.9c-6.2-7.4-6.6-9.5-3.3-13.5Z" transform="translate(-1 -5.1)"/><path d="M54.8,196.2l-16.2-1.5c.6-1.2,1.2-2.8,1.6-2.8,4.9.6,9.8,1.4,14.7,2.2Z" transform="translate(-1 -5.1)"/><path d="M137.2,243.8l16.7,3a4.3,4.3,0,0,1,2.9,2h-5.4l-10-.8c-2.7-.3-5.2-.6-4.1-4.4Z" transform="translate(-1 -5.1)"/><path d="M148.1,188.5v7c-1.7-7.2-7.1-5-11-6.1-1.7-.5-3.4-.7-5.1-1.1l.2-1.4Z" transform="translate(-1 -5.1)"/><path d="M210.3,153.6l19.3,2.6-.3,1.9-19.4-2.7Z" transform="translate(-1 -5.1)"/><path d="M165.6,188.2l-17.3-1.9.2-1.7,17.2,1.5Z" transform="translate(-1 -5.1)"/><path d="M59,189.1l12.9,2.1.3,1.1c-1.1.5-2.2,1.6-3.3,1.5a66,66,0,0,1-9.6-2.1C59,191.7,59.1,190.3,59,189.1Z" transform="translate(-1 -5.1)"/><path d="M137.3,243.6l-2.2,3.1c-1.4-6,1.2-9.6,6.7-11.4-1.5,2.8-3.1,5.6-4.6,8.5Z" transform="translate(-1 -5.1)"/><path d="M223.5,72.6l-13.4-2.1a14.2,14.2,0,0,1,.4-2L223.7,71Z" transform="translate(-1 -5.1)"/><path d="M219.3,229.2l12.6,1C230.8,232.8,225.9,232.8,219.3,229.2Z" transform="translate(-1 -5.1)"/><path d="M106.9,188l-3.2,6.3h-.6l.9-5.9-3.2,2.6L99,187.1Z" transform="translate(-1 -5.1)"/><path d="M58.4,189.5a6.8,6.8,0,0,1-10.5-1.6Z" transform="translate(-1 -5.1)"/></svg>