<svg xmlns="http://www.w3.org/2000/svg" width="299.94" height="427.97" viewBox="0 0 299.94 427.97"><defs><style>.a{fill:#fff;}</style></defs><title>wa</title><path class="a" d="M.61,194.28V.61H300.55V310.85a40.8,40.8,0,0,1-.6-4.24c-.27-6.65-.41-13.32-.71-20-1.09-25-2.28-50-3.32-75-.87-20.77-1.6-41.55-2.33-62.32q-.94-27.37-1.75-54.75c-.66-23.17-1.23-46.34-1.86-69.52a5.65,5.65,0,0,0-.52-2.79A4.12,4.12,0,0,0,287,20.46c-3.92-.48-7.82-2.33-11.85-.5a1,1,0,0,1-.83-.12,70.33,70.33,0,0,1-5.79-4.18c-2.28-2-4.09-4.65-6.61-6.18S258.45,3,253.91,5a.35.35,0,0,1-.27-.06l-4.4-2.48c-3.8-2.11-6.36-1.52-9.07,2a2.46,2.46,0,0,1-.93.76c-1.4.63-2.82,1.22-4.24,1.8a6.77,6.77,0,0,1-1.48.54c-2.15-3.72-5-1.83-8-1.36-4.72.73-7.95,3.2-8.53,7.91a20.56,20.56,0,0,0,.17,3.64c-1.1,0-2.33-.37-2.83.07a34.22,34.22,0,0,0-4.2,4.63c-1.56,2-.84,5.24-3.62,6.68a10.77,10.77,0,0,0-2.28,2.11c-2,2-3.81,4.35-6.11,6-3.12,2.18-5.13,6.56-3.25,10,1.45,2.65,1.37,4.64-.6,6.83-3.1-.93-6.24-2-9.46-2.8-2.41-.55-5,.36-5.82,2.53-.84,2.34-.86,5-2.72,6.93-.11.12.2.68.37,1,.52.94,1.07,1.87,1.66,2.89l-2.41,1.53c-.51-2.16-4-3.33-1.7-6.15a10,10,0,0,0-.87-1c-.69-.85-1.37-1.72-2.58-3.24-1.17,1.06-2.44,2-3.51,3.2s-1.79,2.48-2.81,3.6c-3.35,3.71-7,7.17-10,11.12a12.85,12.85,0,0,0-2.27,6.91c-.11,2.51.88,5.07,1.42,7.61.46,2.13,1,4.26,1.49,6.66-1.56,1.19-3.53,3.29-5.95,4.41-3.18,1.46-4.51,4.46-5.17,7a37.08,37.08,0,0,1-5.64,12.6,9.92,9.92,0,0,1-2.88,3c-5.06,2.76-10.25,5.31-15.39,8-.3.15-.61.54-.88.5a12.31,12.31,0,0,0-10.42,2.92c-.26.24-1,0-1.48-.09C100,131.3,98,132.1,93.93,138.27a4.89,4.89,0,0,1-2.37,2c-2.82.83-5.83,1.1-8.58,2.09-2.16.78-4.8,1.84-5.92,3.6-2.12,3.36-5.62,3.85-8.61,5.38a3.31,3.31,0,0,1-3-.32c-2.47-2.3-4.21-.78-6,.87-1.56-3.21-2.06-3.33-4.62-1.11-2.94,2.54-5.21,6.15-9.81,6-.15,0-.33.19-.45.32-2.76,3.14-5.5,6.28-8.31,9.49a6,6,0,0,1-1.08-.52c-3-2.32-6.19-2.74-9.41-.63a8,8,0,0,0-3.68,9.23A3.66,3.66,0,0,1,21,177.57c-3.11,2.83-6.4,5.46-9.19,7.81a23.94,23.94,0,0,0-1.55-3.17c-1.37-2-3.21-1.18-4.41-.05A14,14,0,0,0,2.55,187,56.13,56.13,0,0,0,.61,194.28Z" transform="translate(-0.61 -0.61)"/><path class="a" d="M300.55,346.23v82.35H112.22l.89-1.9c3.52,1.48,6.22-.28,8.76-2.22a45.33,45.33,0,0,0,4.72-4.37c.8-.82,1.34-1.9,2.11-2.77,1.27-1.44,2.63-2.81,4.26-4.53a8.08,8.08,0,0,0,8.79-2.23c.92-1.06,3.47-1.42,2.54-3.66-.66-1.58.08-4.74,1.6-5.08a30.74,30.74,0,0,1,6.94-1.08,10.11,10.11,0,0,0,6.7-2.12,4,4,0,0,1,2-.71c3.12-.37,6.39.48,9.32-1.55a4.1,4.1,0,0,1,3.29.05,8.19,8.19,0,0,0,7.61-.4c1.49,2.52,4.82,3.14,5.9,1.87,1.74-2.05,3-1.05,4.4-.87.84-.59,1.62-1.57,2.23-1.48,2.47.35,5.53-2.15,7.39,1.39a.86.86,0,0,0,.79.2c2.46-1,4.9-2,7.33-3a2.16,2.16,0,0,0,.66-.55,26.17,26.17,0,0,0,5.17-6.14c1.24-2.3,2.63-4.3,3-7,.31-2.11.69-4.91,3.51-5.36,4.53-.7,8.13-3,11.75-5.58a109.94,109.94,0,0,1,11.7-7.24,22.18,22.18,0,0,1,7.65-2.6c3.66-.44,7.41-.12,11.13-.12,8.69,0,16.05-4.54,24-7.14C292.62,351,296.49,348.31,300.55,346.23Z" transform="translate(-0.61 -0.61)"/><path class="a" d="M92.45,428.58H.61V269.09c2.84,3.34,4.92,7.43,9.32,9.21a6,6,0,0,1,2.15,1.16,82.12,82.12,0,0,1,5.74,6.77c2.7,3.71,6.11,6.87,5.81,12.37-.16,2.95,2,6.12,5.17,7.81,2.54,1.37,5.31,2.92,5.94,5.76.73,3.31,2.94,5.36,5.07,7.33a13.42,13.42,0,0,1,4.52,8.91c.31,3,.53,6.17,1.62,8.93a98.46,98.46,0,0,0,6.29,12.74A94.43,94.43,0,0,0,58,358.22a25.49,25.49,0,0,0,1.77,2.26,28.17,28.17,0,0,1,6.58,12.3c.64,2.58.86,5.27,1.32,8.21-2,1.17-1.58,3.22-.76,5.44,1.32,3.56,3.11,7,1.8,11.06-1.24,3.84-2.17,4.35-5.36,2.45-3,.66-4.53,2.3-4,5.33.47,2.41.6,4.94,1.47,7.19a25.24,25.24,0,0,0,3.71,6c.61.79,1.81,1.12,2.92,1.76l.76-1.77c4.69.82,9,2.38,12.25,5.84a7.34,7.34,0,0,0,5.21,2.6C88,427,90.21,428,92.45,428.58Z" transform="translate(-0.61 -0.61)"/><path d="M92.45,428.58C90.21,428,88,427,85.72,426.85a7.34,7.34,0,0,1-5.21-2.6c-3.26-3.46-7.56-5-12.25-5.84l-.76,1.77c-1.11-.64-2.31-1-2.92-1.76a25.24,25.24,0,0,1-3.71-6c-.87-2.25-1-4.78-1.47-7.19-.58-3,.92-4.67,4-5.33,3.19,1.9,4.12,1.39,5.36-2.45,1.31-4.09-.48-7.5-1.8-11.06-.82-2.22-1.19-4.27.76-5.44-.46-2.94-.68-5.63-1.32-8.21a28.17,28.17,0,0,0-6.58-12.3A25.49,25.49,0,0,1,58,358.22a94.43,94.43,0,0,1-5.76-8.14A98.46,98.46,0,0,1,46,337.34c-1.09-2.76-1.31-5.92-1.62-8.93a13.42,13.42,0,0,0-4.52-8.91c-2.13-2-4.34-4-5.07-7.33-.63-2.84-3.4-4.39-5.94-5.76-3.13-1.69-5.33-4.86-5.17-7.81.3-5.5-3.11-8.66-5.81-12.37a82.12,82.12,0,0,0-5.74-6.77,6,6,0,0,0-2.15-1.16c-4.4-1.78-6.48-5.87-9.32-9.21v-1.16l4.73-5.46c-2.49-3.6-2.43-6.31.62-8.77a2,2,0,0,1,1.84-.27c1.48,1.2,2.72,2.7,4.22,3.89,2,1.62,4.24,3.05,6.37,4.56l.58-.48a8.29,8.29,0,0,0-1-1.79C14.6,255.8,11.14,252,7.72,248.23a6.77,6.77,0,0,1-1.61-2.35,13.52,13.52,0,0,0-5.5-7.52V219.8a7,7,0,0,1,1-1.36c2.15-1.83,2.84-3.86,1.4-6.52a4,4,0,0,1-.41-3c1.08-2.46-.06-3.73-2-4.81v-9.86A56.13,56.13,0,0,1,2.55,187a14,14,0,0,1,3.29-4.81c1.2-1.13,3-2,4.41.05a23.94,23.94,0,0,1,1.55,3.17c2.79-2.35,6.08-5,9.19-7.81a3.66,3.66,0,0,0,1.08-2.91,8,8,0,0,1,3.68-9.23c3.22-2.11,6.41-1.69,9.41.63a6,6,0,0,0,1.08.52c2.81-3.21,5.55-6.35,8.31-9.49.12-.13.3-.33.45-.32,4.6.17,6.87-3.44,9.81-6,2.56-2.22,3.06-2.1,4.62,1.11,1.79-1.65,3.53-3.17,6-.87a3.31,3.31,0,0,0,3,.32c3-1.53,6.49-2,8.61-5.38,1.12-1.76,3.76-2.82,5.92-3.6,2.75-1,5.76-1.26,8.58-2.09a4.89,4.89,0,0,0,2.37-2c4-6.17,6-7,13.32-5.11.48.12,1.22.33,1.48.09a12.31,12.31,0,0,1,10.42-2.92c.27,0,.58-.35.88-.5,5.14-2.64,10.33-5.19,15.39-8a9.92,9.92,0,0,0,2.88-3,37.08,37.08,0,0,0,5.64-12.6c.66-2.5,2-5.5,5.17-7,2.42-1.12,4.39-3.22,5.95-4.41-.54-2.4-1-4.53-1.49-6.66-.54-2.54-1.53-5.1-1.42-7.61a12.85,12.85,0,0,1,2.27-6.91c3-3.95,6.69-7.41,10-11.12,1-1.12,1.77-2.49,2.81-3.6s2.34-2.14,3.51-3.2c1.21,1.52,1.89,2.39,2.58,3.24a10,10,0,0,1,.87,1c-2.32,2.82,1.19,4,1.7,6.15l2.41-1.53c-.59-1-1.14-1.95-1.66-2.89-.17-.32-.48-.88-.37-1,1.86-2,1.88-4.59,2.72-6.93.79-2.17,3.41-3.08,5.82-2.53,3.22.75,6.36,1.87,9.46,2.8,2-2.19,2.05-4.18.6-6.83-1.88-3.44.13-7.82,3.25-10,2.3-1.61,4.09-4,6.11-6a10.77,10.77,0,0,1,2.28-2.11c2.78-1.44,2.06-4.68,3.62-6.68a34.22,34.22,0,0,1,4.2-4.63c.5-.44,1.73-.07,2.83-.07a20.56,20.56,0,0,1-.17-3.64c.58-4.71,3.81-7.18,8.53-7.91,3-.47,5.81-2.36,8,1.36A6.77,6.77,0,0,0,235,7.1c1.42-.58,2.84-1.17,4.24-1.8a2.46,2.46,0,0,0,.93-.76c2.71-3.56,5.27-4.15,9.07-2L253.64,5a.35.35,0,0,0,.27.06c4.54-2,5.44,2.86,8,4.44s4.33,4.2,6.61,6.18a70.33,70.33,0,0,0,5.79,4.18,1,1,0,0,0,.83.12c4-1.83,7.93,0,11.85.5a4.12,4.12,0,0,1,2.45,1.83,5.65,5.65,0,0,1,.52,2.79c.63,23.18,1.2,46.35,1.86,69.52q.8,27.38,1.75,54.75c.73,20.77,1.46,41.55,2.33,62.32,1,25,2.23,50,3.32,75,.3,6.65.44,13.32.71,20a40.8,40.8,0,0,0,.6,4.24v35.38c-4.06,2.08-7.93,4.72-12.2,6.12-7.92,2.6-15.28,7.15-24,7.14-3.72,0-7.47-.32-11.13.12a22.18,22.18,0,0,0-7.65,2.6,109.94,109.94,0,0,0-11.7,7.24c-3.62,2.58-7.22,4.88-11.75,5.58-2.82.45-3.2,3.25-3.51,5.36-.4,2.73-1.79,4.73-3,7a26.17,26.17,0,0,1-5.17,6.14,2.16,2.16,0,0,1-.66.55c-2.43,1-4.87,2-7.33,3a.86.86,0,0,1-.79-.2c-1.86-3.54-4.92-1-7.39-1.39-.61-.09-1.39.89-2.23,1.48-1.37-.18-2.66-1.18-4.4.87-1.08,1.27-4.41.65-5.9-1.87a8.19,8.19,0,0,1-7.61.4,4.1,4.1,0,0,0-3.29-.05c-2.93,2-6.2,1.18-9.32,1.55a4,4,0,0,0-2,.71,10.11,10.11,0,0,1-6.7,2.12,30.74,30.74,0,0,0-6.94,1.08c-1.52.34-2.26,3.5-1.6,5.08.93,2.24-1.62,2.6-2.54,3.66a8.08,8.08,0,0,1-8.79,2.23c-1.63,1.72-3,3.09-4.26,4.53-.77.87-1.31,1.95-2.11,2.77a45.33,45.33,0,0,1-4.72,4.37c-2.54,1.94-5.24,3.7-8.76,2.22l-.89,1.9h-.58c-3.88-2.2-7.75-1.87-11.63,0ZM214.19,41.27c-1.2-.6-2.73-1.85-3.22-1.53-2.32,1.53-2.73.09-3.72-1.54s-3.3-.88-4.32.75a5.42,5.42,0,0,1-2.58,1.87c-1,.39-1.61.36-2.07,1.88-.69,2.3.24,3.52,1.4,5,2.39-3.62,2.64-3.71,4.56-2.15-.8,1.69-2.54,3.71-2.08,4.75.94,2.09-2.27,3-.14,5.33l8,.9c-1.44.64-2.49,1.46-3.59,1.53a55.17,55.17,0,0,1-6-.2c-.84,1.52-1.36,2.44-1.94,3.5-.87-1-1.35-2-1.74-2-2,.18-2.93-.86-3.93-2.31-.33-.47-1.58-.3-2.41-.43.78,3-2.48,1.54-3,3.12l-2.39-2.88-2.29,6.33,3.78,3.31c2.13-.43,3.71-.83,5.31-1.05,6-.83,10.32,4.12,8.18,9.71-1.78,4.64-4.23,9-6.63,14l-6.24-11.76-6.28,11.91c-2.23-6.7-7.34-11.42-7.16-18.42,0-1.31-.88-2.75-1.65-3.94a57,57,0,0,0-3.65-4.51l-2.7,2.25,1.7,2.81-5.34,1.3c.51,1.12.88,1.94,1.14,2.49a25.31,25.31,0,0,0-4.54,2c-.68.46-.59,2.16-1.27,2.54C155.26,77,155,78.93,155.29,81c.39,2.73,1,5.44,1.67,8.12a2.47,2.47,0,0,0,1.36,1.29c2.5,1,3,2.88.89,4.57-2.85,2.33-5.87,4.45-8.72,6.78a4.71,4.71,0,0,0-1,2.17c-.16.48.05,1.39-.18,1.5-3.4,1.59-2.61,5.42-4.18,8-2.47,4.08-4.81,8-8.71,10.87-8.33,6.13-18.67,7.85-27.61,12.62a.4.4,0,0,1-.28.06c-2.67-.5-5.17-1.13-8.08-.38-1.63.43-2.79.54-3.27,2.14a7,7,0,0,1-5.74,5.17c-2,.45-4.09.93-6.14,1.35-2.7.55-5.3.87-6.77,3.92a7.63,7.63,0,0,1-4.23,3.46c-3.71,1.16-7.34,4.47-11.62,1.22-.38-.29-1.43.27-2.16.46l-5.23,1.38a6.64,6.64,0,0,0-3.06,1.52c-3.42,2.33-7.05,4.41-10.25,7-1.92,1.58-3.2,4-4.74,6-.09.12,0,.38,0,.57.21,6.92-4.71,11.71-7.13,18.18l-5.34-10.06L19,182.57c6,2.54,8,6.12,6,10.91-1.85,4.41-4.2,8.62-6.55,13.36l-5.7-10.72-3.31,2.07-2.1-14a23.54,23.54,0,0,0-2,3.83c-.75,2.45-1,5.06-1.87,7.48-1,2.77-2.55,5.35.78,7.73a4.71,4.71,0,0,1,1.59,3,43.84,43.84,0,0,1,.53,8.08c-.07,1.56-1,3.1-1.58,4.61-.31.79-1,1.47-1.17,2.26-.52,3.11-.55,6.33-1.36,9.34-1,3.85.94,6,3.31,8.46,1.54,1.59,2.37,3.87,3.52,5.84a12.51,12.51,0,0,0,1,1.72c2.5,2.93,5,5.91,7.61,8.72a39.72,39.72,0,0,0,4.42,3.61,27.77,27.77,0,0,0-1.52-5.7,7.06,7.06,0,0,1,3.15-8,6.63,6.63,0,0,1,7.83,0c2.82,1.93,4.31,5,3.1,8-1.95,4.84-4.4,9.48-6.87,14.7l-4.39-8.05-.56.23.54,8.83c-.26,1-1.1,2.65-2.26,2.9s-2.43-1.06-2.91-1.3L15,278c3.6,4.89,7.39,10,11.06,15.11a6.89,6.89,0,0,1,.62,2.92c.17,1.25-.23,2.92.45,3.7,2.94,3.38,6.18,6.49,9.47,9.87.38-.81.52-1,.52-1.13a7.31,7.31,0,0,1,5.08-7.34,6.73,6.73,0,0,1,7.65,2c2.35,2.55,2.5,5.57,1.09,8.63-1.34,2.87-2.89,5.65-4.22,8.53a5.5,5.5,0,0,0-.49,3c.35,2.23,1,4.42,1.5,6.62.75,3,1.41,6.08,2.33,9.06,2.61,8.46,8.41,14.89,14.22,21.5a8,8,0,0,0-.17-4.41c-.79-2.06-2-3.94-2.87-6-1.83-4.48-.5-8.34,3.43-10.34,3.13-1.59,7.49-.28,10,3.81A9.17,9.17,0,0,0,81.29,347c5.91.18,9.72,4.59,7.76,10.15-1.83,5.19-5.09,9.78-5.72,15.54-.3,2.68-2.36,5.18-3.66,7.84,2.7,2.05,4.5,4.8,3.29,8-1.87,5-4.42,9.67-6.92,15l-3.7-6.76c-3.16,6.91-3.16,6.91-8.78,7.76-2,4.28.69,7.67,1.75,10.52,2,.22,3.38.31,4.79.56a22.54,22.54,0,0,1,13,7.13,3.78,3.78,0,0,0,1.65.82c3,1,6.74-1.49,9.07,2.15.09.14.45.3.49.26,1.44-1.37,3.23-.29,4.61-.63,3.74-.92,7.36-1.64,11.18-.74a3.28,3.28,0,0,0,1.49-.3,10.79,10.79,0,0,0,3.41-1.05,5.67,5.67,0,0,0,1.36-2.19c1.31.26,2.32.79,2.7.5,3-2.37,6-4.89,8.9-7.37a1.36,1.36,0,0,0,.32-.46c1.95-4,2.92-4.65,7-4.06,2.1.3,3.09-.91,3.94-2.35.76-1.28,1.12-2.81,2-4,2.1-3.08,4.55-5.67,8.79-5.57a24.41,24.41,0,0,0,6.33-.58,67.48,67.48,0,0,0,7.71-2.65c5.66-2.13,11.76-.08,17.52-1.83,1-.3,2.66,1.56,4.11,2.5a21,21,0,0,1,3.57-2c1.36-.47,3-.14,4.31-.72,4.46-2,9.25.84,13.63-1.09a14.21,14.21,0,0,0,4.23-2.58,20.37,20.37,0,0,0,2.75-4.21,8,8,0,0,0,.91-1.94c.52-2,.66-4.21,1.51-6.08a4.23,4.23,0,0,0-.19-4.22c-2-3.84-4-7.69-5.59-11.7-1.24-3.11.06-6.09,2.85-8.08a6.65,6.65,0,0,1,8.29,0,6.93,6.93,0,0,1,2.75,8.13,44.91,44.91,0,0,1-2.31,5.28c-1,2.18-2.15,4.32-3.31,6.63,5.18-1.21,9.64-2.77,13.68-5.85s8.68-4.66,12.54-7.92a11.14,11.14,0,0,1,9.11-2.42,43.09,43.09,0,0,0,20.25-2.17,74.16,74.16,0,0,0,7-2.67c5.51-2.48,11-5,16.4-7.69a3.48,3.48,0,0,0,1.35-2.69c-.06-4.63-.35-9.26-.56-13.89q-.86-19.23-1.72-38.47c-.78-17.55-1.61-35.1-2.34-52.65-.63-15.34-1.16-30.68-1.74-46-.58-15.73-1.21-31.45-1.74-47.18q-.94-28.25-1.75-56.48C289,69.36,288.7,52.17,288.25,35c-.1-3.64-.45-7.28-.7-11.28-1.56,0-3.07.07-4.56,0-1.13-.07-2.24-.34-3.36-.52-.15,1.26-.29,2.51-.45,3.86-1.73.41-3.62,2.93-5.72-.33l-.46.65L276.31,36l-.74.59c-1-1.53-2.07-3.05-3.11-4.6-1.61,1.35-.28,4.86-3.39,4.61a71.44,71.44,0,0,1,.59-7.65c.38-2.14-1.11-4.88,2.21-6.54a25.1,25.1,0,0,0-2.55-2.25c-.77-.5-1.9-.52-2.55-1.11-3.41-3.09-5.26-7.61-9.9-9.71A10,10,0,0,0,252,8a4.12,4.12,0,0,1-2.87-1c-2.31-2.44-2.23-2.52-5.56-1l3,2c-1.34.76-2.8,1.1-3.38,2-3.09,4.85-3,4.9-6.92.51-.05-.06-.19,0-.52-.07L225.37,31c-1.7-3-3.14-5.71-4.74-8.3-.35-.58-1.48-1.29-1.9-1.12-2.06.86-4,2-6.29,3.22,2.11,1.74,2.83,4.53,6,4.36l.36.73-2.29.74,2.73,1.85-.25.71-9.41-.61,2.28,3.66C208.82,39.28,214.13,39,214.19,41.27Z" transform="translate(-0.61 -0.61)"/><path class="a" d="M.61,238.36a13.52,13.52,0,0,1,5.5,7.52,6.77,6.77,0,0,0,1.61,2.35C11.14,252,14.6,255.8,18,259.61a8.29,8.29,0,0,1,1,1.79l-.58.48c-2.13-1.51-4.33-2.94-6.37-4.56-1.5-1.19-2.74-2.69-4.22-3.89A2,2,0,0,0,6,253.7c-3,2.46-3.11,5.17-.62,8.77L.61,267.93Z" transform="translate(-0.61 -0.61)"/><path class="a" d="M.61,204.14c1.94,1.08,3.08,2.35,2,4.81a4,4,0,0,0,.41,3c1.44,2.66.75,4.69-1.4,6.52a7,7,0,0,0-1,1.36Z" transform="translate(-0.61 -0.61)"/><path class="a" d="M100,428.58c3.88-1.87,7.75-2.2,11.63,0Z" transform="translate(-0.61 -0.61)"/><path class="a" d="M214.19,41.27c-.06-2.31-5.37-2-2.31-5l-2.28-3.66,9.41.61.25-.71-2.73-1.85,2.29-.74-.36-.73c-3.19.17-3.91-2.62-6-4.36,2.3-1.21,4.23-2.36,6.29-3.22.42-.17,1.55.54,1.9,1.12,1.6,2.59,3,5.27,4.74,8.3l10.33-20.5c.33,0,.47,0,.52.07,3.9,4.39,3.83,4.34,6.92-.51.58-.9,2-1.24,3.38-2l-3-2c3.33-1.57,3.25-1.49,5.56,1A4.12,4.12,0,0,0,252,8a10,10,0,0,1,4.92,1.32c4.64,2.1,6.49,6.62,9.9,9.71.65.59,1.78.61,2.55,1.11a25.1,25.1,0,0,1,2.55,2.25c-3.32,1.66-1.83,4.4-2.21,6.54a71.44,71.44,0,0,0-.59,7.65c3.11.25,1.78-3.26,3.39-4.61,1,1.55,2.07,3.07,3.11,4.6l.74-.59L273,27.34l.46-.65c2.1,3.26,4,.74,5.72.33.16-1.35.3-2.6.45-3.86,1.12.18,2.23.45,3.36.52,1.49.09,3,0,4.56,0,.25,4,.6,7.64.7,11.28.45,17.19.77,34.38,1.24,51.57q.78,28.24,1.75,56.48c.53,15.73,1.16,31.45,1.74,47.18.58,15.34,1.11,30.68,1.74,46,.73,17.55,1.56,35.1,2.34,52.65q.85,19.23,1.72,38.47c.21,4.63.5,9.26.56,13.89a3.48,3.48,0,0,1-1.35,2.69c-5.41,2.68-10.89,5.21-16.4,7.69a74.16,74.16,0,0,1-7,2.67,43.09,43.09,0,0,1-20.25,2.17,11.14,11.14,0,0,0-9.11,2.42c-3.86,3.26-8.65,4.95-12.54,7.92s-8.5,4.64-13.68,5.85c1.16-2.31,2.27-4.45,3.31-6.63a44.91,44.91,0,0,0,2.31-5.28,6.93,6.93,0,0,0-2.75-8.13,6.65,6.65,0,0,0-8.29,0c-2.79,2-4.09,5-2.85,8.08,1.6,4,3.6,7.86,5.59,11.7a4.23,4.23,0,0,1,.19,4.22c-.85,1.87-1,4.06-1.51,6.08a8,8,0,0,1-.91,1.94,20.37,20.37,0,0,1-2.75,4.21,14.21,14.21,0,0,1-4.23,2.58c-4.38,1.93-9.17-.91-13.63,1.09-1.28.58-3,.25-4.31.72a21,21,0,0,0-3.57,2c-1.45-.94-3.11-2.8-4.11-2.5-5.76,1.75-11.86-.3-17.52,1.83a67.48,67.48,0,0,1-7.71,2.65,24.41,24.41,0,0,1-6.33.58c-4.24-.1-6.69,2.49-8.79,5.57-.84,1.22-1.2,2.75-2,4-.85,1.44-1.84,2.65-3.94,2.35-4.05-.59-5,.07-7,4.06a1.36,1.36,0,0,1-.32.46c-2.95,2.48-5.87,5-8.9,7.37-.38.29-1.39-.24-2.7-.5a5.67,5.67,0,0,1-1.36,2.19,10.79,10.79,0,0,1-3.41,1.05,3.28,3.28,0,0,1-1.49.3c-3.82-.9-7.44-.18-11.18.74-1.38.34-3.17-.74-4.61.63,0,0-.4-.12-.49-.26-2.33-3.64-6.11-1.18-9.07-2.15a3.78,3.78,0,0,1-1.65-.82,22.54,22.54,0,0,0-13-7.13c-1.41-.25-2.84-.34-4.79-.56-1.06-2.85-3.7-6.24-1.75-10.52,5.62-.85,5.62-.85,8.78-7.76l3.7,6.76c2.5-5.32,5-10,6.92-15,1.21-3.2-.59-5.95-3.29-8,1.3-2.66,3.36-5.16,3.66-7.84.63-5.76,3.89-10.35,5.72-15.54,2-5.56-1.85-10-7.76-10.15a9.17,9.17,0,0,1-6.57-3.54c-2.53-4.09-6.89-5.4-10-3.81-3.93,2-5.26,5.86-3.43,10.34.84,2,2.08,3.92,2.87,6a8,8,0,0,1,.17,4.41c-5.81-6.61-11.61-13-14.22-21.5-.92-3-1.58-6-2.33-9.06-.54-2.2-1.15-4.39-1.5-6.62a5.5,5.5,0,0,1,.49-3c1.33-2.88,2.88-5.66,4.22-8.53,1.41-3.06,1.26-6.08-1.09-8.63a6.73,6.73,0,0,0-7.65-2,7.31,7.31,0,0,0-5.08,7.34c0,.16-.14.32-.52,1.13-3.29-3.38-6.53-6.49-9.47-9.87-.68-.78-.28-2.45-.45-3.7a6.89,6.89,0,0,0-.62-2.92C22.42,287.91,18.63,282.85,15,278l3.18-7.53c.48.24,1.86,1.53,2.91,1.3s2-1.91,2.26-2.9L22.84,260l.56-.23,4.39,8.05c2.47-5.22,4.92-9.86,6.87-14.7,1.21-3-.28-6.07-3.1-8a6.63,6.63,0,0,0-7.83,0,7.06,7.06,0,0,0-3.15,8,27.77,27.77,0,0,1,1.52,5.7,39.72,39.72,0,0,1-4.42-3.61c-2.64-2.81-5.11-5.79-7.61-8.72a12.51,12.51,0,0,1-1-1.72c-1.15-2-2-4.25-3.52-5.84-2.37-2.45-4.35-4.61-3.31-8.46.81-3,.84-6.23,1.36-9.34.13-.79.86-1.47,1.17-2.26.61-1.51,1.51-3,1.58-4.61a43.84,43.84,0,0,0-.53-8.08,4.71,4.71,0,0,0-1.59-3c-3.33-2.38-1.74-5-.78-7.73.84-2.42,1.12-5,1.87-7.48a23.54,23.54,0,0,1,2-3.83l2.1,14,3.31-2.07,5.7,10.72c2.35-4.74,4.7-9,6.55-13.36,2-4.79,0-8.37-6-10.91l5.74-3.66L30.08,189c2.42-6.47,7.34-11.26,7.13-18.18,0-.19-.08-.45,0-.57,1.54-2,2.82-4.41,4.74-6,3.2-2.62,6.83-4.7,10.25-7a6.64,6.64,0,0,1,3.06-1.52l5.23-1.38c.73-.19,1.78-.75,2.16-.46,4.28,3.25,7.91-.06,11.62-1.22a7.63,7.63,0,0,0,4.23-3.46c1.47-3,4.07-3.37,6.77-3.92,2-.42,4.09-.9,6.14-1.35a7,7,0,0,0,5.74-5.17c.48-1.6,1.64-1.71,3.27-2.14,2.91-.75,5.41-.12,8.08.38a.4.4,0,0,0,.28-.06c8.94-4.77,19.28-6.49,27.61-12.62,3.9-2.87,6.24-6.79,8.71-10.87,1.57-2.61.78-6.44,4.18-8,.23-.11,0-1,.18-1.5a4.71,4.71,0,0,1,1-2.17c2.85-2.33,5.87-4.45,8.72-6.78,2.06-1.69,1.61-3.53-.89-4.57A2.47,2.47,0,0,1,157,89.07c-.66-2.68-1.28-5.39-1.67-8.12-.29-2,0-3.91,2.15-5.13.68-.38.59-2.08,1.27-2.54a25.31,25.31,0,0,1,4.54-2c-.26-.55-.63-1.37-1.14-2.49l5.34-1.3-1.7-2.81,2.7-2.25A57,57,0,0,1,172.1,67c.77,1.19,1.68,2.63,1.65,3.94-.18,7,4.93,11.72,7.16,18.42l6.28-11.91,6.24,11.76c2.4-5,4.85-9.39,6.63-14,2.14-5.59-2.21-10.54-8.18-9.71-1.6.22-3.18.62-5.31,1.05l-3.78-3.31,2.29-6.33,2.39,2.88c.51-1.58,3.77-.14,3-3.12.83.13,2.08,0,2.41.43,1,1.45,2,2.49,3.93,2.31.39,0,.87,1,1.74,2,.58-1.06,1.1-2,1.94-3.5a55.17,55.17,0,0,0,6,.2c1.1-.07,2.15-.89,3.59-1.53l-8-.9c-2.13-2.36,1.08-3.24.14-5.33-.46-1,1.28-3.06,2.08-4.75-1.92-1.56-2.17-1.47-4.56,2.15-1.16-1.46-2.09-2.68-1.4-5,.46-1.52,1.05-1.49,2.07-1.88A5.42,5.42,0,0,0,202.93,39c1-1.63,3.35-2.32,4.32-.75s1.4,3.07,3.72,1.54C211.46,39.42,213,40.67,214.19,41.27Zm-6.35,115.9c2.48-5,4.76-9.26,6.65-13.64a6.93,6.93,0,0,0-2.4-8.94,6.77,6.77,0,0,0-8.52,0,6.94,6.94,0,0,0-2.38,9C203.07,148,205.36,152.16,207.84,157.17Zm-86,209.9c2.47-4.93,4.71-9.06,6.61-13.34a7.12,7.12,0,0,0-2.12-9.06,6.79,6.79,0,0,0-8.75-.11,7,7,0,0,0-2.37,9C117.06,357.91,119.35,362.12,121.79,367.07Zm6.53,42.2.85.09c2.15-4.48,4.52-8.87,6.32-13.48a8.53,8.53,0,0,0-.24-5.78,7.14,7.14,0,0,0-9-3.74c-3.64,1.37-5.88,5.46-4.41,9.16C123.75,400.22,126.15,404.7,128.32,409.27Zm-35,12.36c2.48-5,4.76-9.26,6.65-13.64a6.93,6.93,0,0,0-2.4-8.94,6.76,6.76,0,0,0-8.51,0,6.94,6.94,0,0,0-2.39,9C88.56,412.4,90.85,416.61,93.33,421.63Z" transform="translate(-0.61 -0.61)"/><path d="M207.84,157.17c-2.48-5-4.77-9.22-6.65-13.6a6.94,6.94,0,0,1,2.38-9,6.77,6.77,0,0,1,8.52,0,6.93,6.93,0,0,1,2.4,8.94C212.6,147.91,210.32,152.13,207.84,157.17Z" transform="translate(-0.61 -0.61)"/><path d="M121.79,367.07c-2.44-4.95-4.73-9.16-6.63-13.54a7,7,0,0,1,2.37-9,6.79,6.79,0,0,1,8.75.11,7.12,7.12,0,0,1,2.12,9.06C126.5,358,124.26,362.14,121.79,367.07Z" transform="translate(-0.61 -0.61)"/><path d="M128.32,409.27c-2.17-4.57-4.57-9-6.44-13.75-1.47-3.7.77-7.79,4.41-9.16a7.14,7.14,0,0,1,9,3.74,8.53,8.53,0,0,1,.24,5.78c-1.8,4.61-4.17,9-6.32,13.48Z" transform="translate(-0.61 -0.61)"/><path d="M93.33,421.63c-2.48-5-4.77-9.23-6.65-13.61a6.94,6.94,0,0,1,2.39-9,6.76,6.76,0,0,1,8.51,0A6.93,6.93,0,0,1,100,408C98.09,412.37,95.81,416.59,93.33,421.63Z" transform="translate(-0.61 -0.61)"/></svg>