<svg xmlns="http://www.w3.org/2000/svg" width="225" height="295.7" viewBox="0 0 251.4 295.7" class="line-drawing"><path d="M251.4,28.8l-11.2-1.5h-1c0,4.1,0,8,.1,12s.3,7,.4,10.5c.4,10.3.7,20.6,1.1,30.9l.9,24.1c.4,8.8.7,17.7,1,26.6l.6,15.7c.4,8.8.7,17.6,1,26.3.2,5.4.5,10.7.7,16.1l.9,25.9c.3,5.5.5,11,.7,16.5.1,2.6.1,5.2.3,7.9s-.3,1.9-1.7,2.3-2.6,1.6-4,2.1a62.8,62.8,0,0,1-6.9,2.4c-2.8.7-5.7,1.1-8.4,1.7s-3.2,1.1-4.9,1.3-5.4.1-8.1.1l-5.7-.5a6.2,6.2,0,0,1-1.9-.7,6.4,6.4,0,0,0-6.4.3,79.4,79.4,0,0,1-7,4c-2.1,1.1-4.6,1.7-6.8,2.6s-2.2,1.5-3.4,2.1a10.1,10.1,0,0,1-3,.7l-4.6.4a4.4,4.4,0,0,0-3.3,3,53.9,53.9,0,0,0-2.2,6.8c-.4,1.6-2,1.7-2.9,2.8s-1,.8-1,1.2a2.7,2.7,0,0,1-1.9,2.5c-.7.3-1.1,1.1-1.8,1.4a5.4,5.4,0,0,1-2.2,0c-.3-.1-.5-.5-.6-.6l-3.2,1.8a1.3,1.3,0,0,1-2.1-1.2c0-1.4-.4-1.8-1.8-1.6a21.7,21.7,0,0,1-3.6-.2c-.7,0-1.5.4-2.2.4h-3.1c-.6,0-1.5-.3-1.7,0s-2.7,1.2-4.2,1-.7-.9-.9-1.4-.2-1.6-.4-2.5a6.2,6.2,0,0,1-7,0,9.2,9.2,0,0,0-3.8-.7,13.7,13.7,0,0,0-1.9.2c-2.3,0-4.6.2-6.8,0a8.7,8.7,0,0,0-5.5.9,2.5,2.5,0,0,1-1.9,0c-2.3-1.1-4.6-1-7.1-.6a8,8,0,0,0-6.5,4.9c-.2.2-.1.6,0,.9s.2,2.1-1,2.6l-2.9,1h-.3c-1.9,2-3.3.1-4.9-.4a4.1,4.1,0,0,0-1.9.1,29.1,29.1,0,0,1-3.9,1.2c-1.1.1-1.4.6-1.5,1.5a1.5,1.5,0,0,1-1.6,1.6c-.8,0-1.5.7-2.3,1.1,1.5,2.7,3.7,2.3,5.8,2.3s2.5.8,1.8,2.4a23.1,23.1,0,0,1-2.7,4.2c-.7.9-1.6.8-2.6-.1a4.4,4.4,0,0,0-2.7-1.1c-2.8-.3-5.6-.4-8.4-.5a1.2,1.2,0,0,0-.8.2c-1.3.8-1.8.5-1.9-1s-1-1.3-1.7-2.1c-.9,1.8-1.8,1.6-3.2,1s-3.8-2.3-6.4-1.5-3.6-.3-5.4-.5H43.9a9.4,9.4,0,0,1-6.3-3,6.9,6.9,0,0,0-4.3-2.2,3.5,3.5,0,0,1-2.3-2,12.3,12.3,0,0,0-3-5.2,41.8,41.8,0,0,0-5.3-5c-.8-.5-2.9-.7-3.4-.2s-3.8,1.3-5.7,1.1-3.6-.5-5.4.3a2.2,2.2,0,0,1-2.1,0c-1.9-1.4-4-1.5-6.1-1.5v-3.2l.7-1.1c1.1-1.8,1.4-1.7,3.6-1.1a21.8,21.8,0,0,0,5.7.8c2.1.2,4.2.1,6.3.1.2-1.8.2-3.9.5-5.9a55.9,55.9,0,0,1,1.5-7.1c.2-.7,1-1.1,1.8-1.9a3.9,3.9,0,0,1,3.9-4.5c2.6-.1,4.2,1.9,4.1,5.1.8-1.3,1.7-2.5,2.5-3.7s0-1-.2-1.4c-1.1-2.2-1.7-4.4.4-6.5.2-.2.1-.6.2-.9a7.2,7.2,0,0,1,1.1-1.9,5.9,5.9,0,0,1,1.7-4.4c.5-.5.1-2-.1-3a17.3,17.3,0,0,0-1.4-3.1,2.5,2.5,0,0,0-1.4-.8H27.2a2.6,2.6,0,0,1-1.3-.8c-1.1.2-2.2.7-2.8.3s-.4-2.5-.6-3.8-3.3-1.3-5.1-.3-1.8-.1-2.7-.2a25.1,25.1,0,0,0,.4-2.7l.7-2.1a1.7,1.7,0,0,1,2.7-1.1,8.4,8.4,0,0,0,3,.8,17.5,17.5,0,0,0,5.6,0c1.3-.3,2.8.5,4.4.3s1.6.7,2.4,1.1l.6-.5c-.6-1.9-1.3-3.8-1.8-5.7s-.9-3.7-1.4-5.5a9.4,9.4,0,0,0-.7-2.2c-1.4-2.5-1.6-5.4-2.1-8.1s.1-3.6.1-5.4-.3-2.2-.1-3.3.1-4.5,1-6.3.3-4.7.1-7-1.2-2.8-2.2-3.9a4.3,4.3,0,0,1-1-3.5,6.7,6.7,0,0,0-1.3-5.3,29.7,29.7,0,0,1-3-4.8c-1.1-2.2-1.6-4.6-.5-6.9a5.9,5.9,0,0,0,.1-4.5,45.7,45.7,0,0,0-2.2-6.2,50.6,50.6,0,0,0-3.8-7.3,19.3,19.3,0,0,1-3.4-6.3c-.6-2.2-1.6-4.3-2.3-6.5a17.6,17.6,0,0,1-.6-4,3.4,3.4,0,0,1,.9-1.8,1.8,1.8,0,0,1,1.6-.4c.4.1.8.8.9,1.3a58.6,58.6,0,0,0,1,5.8c.4,1.1,1.7,1.9,2.6,2.8s.7.6.8.9c.5,2,1.2,4,1.5,6s.2,1.2,1.2.9,1.6-.6,1.8-1.7-.5-1.5-1.3-2.1a5.1,5.1,0,0,1-2.4-3.9,19.3,19.3,0,0,0-1.2-4.1c-.5-1.3.6-4,2-4.3s1.2.4,1.5.8a37.2,37.2,0,0,1,1.9,3.4c.5,1.1,1.2,2.2.4,3.4l-.3.9c.8-.1,2-.5,2-.4a7.4,7.4,0,0,1,.8,2.8c.2.8,0,1.6.2,2.3s.8.8,1,.7a1.5,1.5,0,0,0,.8-1.1,12.2,12.2,0,0,1,1.6-5.4c-2.3-2.7-3.4-6-4.4-9.4a6.4,6.4,0,0,0-1.4-2.2c-1.3-1.3-.7-3-.8-4.5a5.5,5.5,0,0,0-1.4-3.4,4.3,4.3,0,0,1-.8-3.8,20.3,20.3,0,0,1,4.9-9.8l1.2-.8c1.9-.6,2.1-2,2.2-3.7a4.6,4.6,0,0,1,.5-2.3,3.2,3.2,0,0,0,.1-3.9c-1.2-1.6-.9-2.9.5-4.3a48.4,48.4,0,0,0,3.1-3.9L22,68.8c-1.1-.1-2.4-.1-2.2-1.8s1-3.2,3-2.8l7.4,1.4c1,.2,2.1,0,3.1.1s1.6.3,2.3.3,1.4-.4,1.4-.7c.2-2.3,2-3.3,4.1-2.4a20.7,20.7,0,0,0,3.7.5h.9l6.1,1.5a7.2,7.2,0,0,0,6.3-1.2A20.1,20.1,0,0,1,61.4,62l.9-.4L65,59.4c-1.6-.9-4.6.7-5.5-1.8a22.5,22.5,0,0,1-3.3.8c-.3.1-.9-.6-1-1s2.2-3.5,3.4-3.1.8,1,1,1.3.8-1.3,1.5-1.5a3.4,3.4,0,0,1,2.6.3c2.5,1.3,5,1.3,7.6,1.2h4.9q.3-1.1.6-2.4c.3-1.8,1.2-2.5,2.8-1.7s4.4.7,6.6.7a4.7,4.7,0,0,1,1.7.3,69.2,69.2,0,0,0,7.7,1.4c1.3.2,2.7,1.1,4.1.2a2,2,0,0,1,1.5.2c2.3,1.5,3.5,1.6,5.3-.1s3.6-2.3,5.8-1.1a17.9,17.9,0,0,0,3.2,1.3h.7c1.9-.2,3.8-.6,5.8-.7,5.3-.3,10.6-.8,15.5-3.4a9.5,9.5,0,0,0,5.1-5.7c.6-1.9,2.6-2.3,3-4.1,0-.2.5-.5.8-.4,2.4.2,4-1.8,6.3-2.5-2.3-1.7-1.2-4.3-2.1-6.3s-.3-1.5-.6-2.2c-1-2.4-.8-4.2.7-5.5s3.1-1.4,5.3,0a10.3,10.3,0,0,0,2.1-.7,15.5,15.5,0,0,0,2.7-2.4,7.6,7.6,0,0,0,1.3-2.3,4.2,4.2,0,0,1,3.5-2.7c1.9-.1,3.2.8,4.2,3a12.3,12.3,0,0,0,1.9-.2c1-.3,1.5.1,2.2.8s1.7.7,2.6,1.1l2.8,1.3a11.4,11.4,0,0,0,1.2-2.2c.2-.3,0-.7-.1-1s-.2-2.5-.1-3.7A7.7,7.7,0,0,1,181,12a1.7,1.7,0,0,1,2.7-.9,1.7,1.7,0,0,0,1.5.2L188.1,9a3.9,3.9,0,0,1,1.7-.4l-.9-2c-.7-1.3,0-2.1.9-2.8s1.4.1,2.1.7,1.8.4,2.8.6-.9-2.5.7-2.8a2.8,2.8,0,0,1,3,1.7,5.4,5.4,0,0,0,1,1.6h.5c0-.9,0-1.9.1-2.9a4.7,4.7,0,0,1,.6-1.5L201.9,0h1l1.6,1.5c2.1-.6,2.6-.4,3.9,1.3L209,0h4.2a3.9,3.9,0,0,0,3.3,2,4.1,4.1,0,0,1,2.4,1.3c2.5,2.3,4.9,4.8,7.4,7.2.8.8,1.9,2.2,2.6,2.1,3-.3,5.3,1.4,7.9,1.8a1.8,1.8,0,0,1,1.7,2.1c-.1,2.2-.1,4.4-.1,6.6l13,1.8ZM69.1,292.1c.2-.4.6-.7.6-1.1s.4-2.2.6-3.5-1.7.6-2.2.4-2,.6-2.4,1.7l.5-.6.9-1a3.5,3.5,0,0,1,.8,1.3c.2,1,.3,2,.4,3l.9-.3ZM38.8,253.9c-1.7,1.5-4.1,1.7-5.3.5-.3.8-.5,1.7-1.6.9.7-1.6,1.1-3.1-.4-4.7l-5.4,6.5a7.6,7.6,0,0,1,2.1-.7c.8,1.1,1.3.2,1.8-.1l2-1.1c.6,1,1,1.8.1,3s-.1,1.5,1.1,1.6.8.6,1,1,.1,1.1.3,1.5a2.3,2.3,0,0,1-.9,3.3c1.6-.1,3.5.1,3.5,1.9s-1.2,2.7-2,4.2l.4.7-2.2,1.3a3,3,0,0,0-.3-.6H29.6a22.1,22.1,0,0,0,2.3,1.7,3.8,3.8,0,0,1,1.6,3.4,3,3,0,0,0,.6,1.8c0,.1.7.1,1,0s2-1.1,3-1.5,2.8.2,2.9,1.9a57,57,0,0,0,.6,5.8c.2,1.3.4,1.3,1.7.6-2-1.4-1.8-3.6-1.8-5.5a4,4,0,0,0-1.2-3.5,18.7,18.7,0,0,1-2.6-3,5.3,5.3,0,0,1-.1-1.8,7.8,7.8,0,0,1,2.1.4,5.8,5.8,0,0,1,2.1,1c1.5.9,3.7.9,4.3,3.1,1.1-.4,2.1-1,2.9.6s0,2.5-1,3.2l.6,3.2c.8-.1,1.3-.5.8-1.6s.3-.7.4-1.1a7.6,7.6,0,0,1,.9.9,2.3,2.3,0,0,1-.1,1.1l1.9-2.2-2.6-1.2,1.1-1.8,4.5,2c-.2.6-.5,1.1-.4,1.5s.6,1.2,1.1,1.3a2.5,2.5,0,0,0,1.9-.2c.2,0,.1-1-.1-1.5s-.7-1.6-.9-2.4a4.1,4.1,0,0,1,6.7-4.3c.6.6,1,1.3,1.8,2.3a4.4,4.4,0,0,1,.6-1c.2-.1.8.2.9.5a10.6,10.6,0,0,1,.6,1.9c.3,1.1.7,2.2.9,3.3s1.1,2.9,2.1,3.1a5.3,5.3,0,0,0,2.5.2c.8-.2,1.4-1.1,2.2-1.3s2-.9,1.8-2.3.1-1.6,1.1-1.2a2.3,2.3,0,0,0,2.4-.5,4.6,4.6,0,0,1,4.4-1.2,14.4,14.4,0,0,1,3.3,1.6c.2-1.6,1.3-1.1,2.4-.9l-.3-1.9,2.6.7c-1.3-2.5,1.8-3.8,1.7-5.9a5,5,0,0,0,1.3-.3l7-3a6.3,6.3,0,0,0,1.5,1,19.9,19.9,0,0,0,3.4.5,13.2,13.2,0,0,0,2.8-.2c1.1-.2,2.3-1.1,3.3-.9s3.9,0,5.9.2a19.1,19.1,0,0,0,2.1-.4l1.5.2,5.3,1.2,2.2.4-1.4-3.2c-.7-1.6-1.7-3.2-2.3-4.9a4.1,4.1,0,0,1,4-5.3c2.1,0,3.2,1.3,4,3,3.4-.3,4.6.3,5.5,2.3s-.4,4.1-1,6.1c2.7.4,2.7.5,1.6,3.2-1.9-.3-3.4,0-4.1,2.4.7-.2,1.4-.3,1.7-.7a2.8,2.8,0,0,1,3.6-.7,3,3,0,0,0,1.6.2c.9-.1,1.6-.5,2.4-.5s3.1.4,4.5.1a2.3,2.3,0,0,1,2.5,1.1,12.1,12.1,0,0,1,.8,1.9,4.8,4.8,0,0,0,1.6-.9c.8-1.1,1.7-1.2,3-.8s3.8-.9,4.3-2A9.1,9.1,0,0,1,165,270c.7-.9,1.9-1.6,2.3-2.6s1.4-4.4,2.3-6.4a6.4,6.4,0,0,1,5.2-4c1.3-.2,2.6,0,3.7-.3a22.3,22.3,0,0,0,4.5-1.8c2.3-1.1,4.4-2.6,6.8-3.2a13.9,13.9,0,0,0,5.2-2.5c3.5-2.4,7.1-3.9,11.3-1.7l.9.2c2.4.3,4.7.7,7,.8a35.9,35.9,0,0,0,7.3-.5c1.7-.2,3.3-1,4.9-1.2a35.4,35.4,0,0,0,9.6-2.3c3.3-1.3,6.4-2.8,9.7-4.2a2.5,2.5,0,0,1-.4-1.1l-.3-8.7c0-3.4-.1-6.8-.1-10.2,0-1.4-.1-2.7-.2-4.1s-.3-4.3-.3-6.4.1-3.3,0-4.9-.5-6.2-.7-9.3-.1-6.5-.2-9.7c-.1-1.3-.1-2.5-.1-3.8s-.3-3.7-.4-5.5-.1-6-.2-9-.3-5.1-.4-7.7l-.3-8.2-.3-8.3c-.1-2.8-.2-5.5-.4-8.3l-.3-8.2c0-2.5.1-5.1,0-7.6s-.5-5.3-.6-8,0-4.9,0-7.3a.7.7,0,0,0-.3-.6.9.9,0,0,0-.7,0c-.7,1.4-1.6.6-2.4.3a21.2,21.2,0,0,0-4-1.4c-1.9-.2-1.9-1.3-1.8-2.7.9,1,1.8,1.1,1.8.2s.9-.9,1.5-1c2.4-.1,5.4-1.7,5.3-4.9a28.1,28.1,0,0,1-.1-2.9l-.3-7.8c-.1-2.7-.1-5.3-.2-8s0-4.1-.1-6.2-.5-7-.7-10.6-.1-8.3-.3-12.5-.6-10.4-.8-15.6c-.1-3.7-.1-7.3-.1-11s-.1-3.3-2.9-4.4l-1.1-.4-2.7-.7.4.4-1.1,2.2-1.9-.7a10.8,10.8,0,0,0,0,1.8,6.5,6.5,0,0,0,.8,1.7l-2.1-2c-.1,1.1-.1,1.9-.2,2.7H226c.5-2.1-.7-4.5.9-6.6.2-.1-.2-.8-.5-1.1s-1.8-1.3-2.7-2.1-3.7-3.4-5.4-5.3-.8-1.2-1.8-1.3a3.9,3.9,0,0,1-2.5-.5c-1.9-1.7-1.8-1.8-3.9-1.6l1.2,1.2L207.8,5l-2.2-2.6-1,1.7c-.8.1-1.9-.2-2.5.3s-.7,1.5-1.1,2.4l-1.6,1.1-1.6-2.2-1.2,1.4c-.1-1.3-.2-2.4-.2-3.5h-.5a13.4,13.4,0,0,1,0,2c-.1.3-.5.8-.7.8s-3.1-.2-4.3,1.2l1.9,2.2-.2.3,1,.3.7,2c-1.3-.3-2.7-.2-3.7-.9s-2.3-.3-3.5-.1H189l.2.5-2,.7v.3h2.9a6.5,6.5,0,0,1-.9,1.7.9.9,0,0,1-1,.1,24.9,24.9,0,0,1-2.4-2.3c-.6.6-.8,1.1-1.3,1.3a6.7,6.7,0,0,1-1.5.6h-1.4a6.7,6.7,0,0,0-.3,2.8c.1.4.7.8,1.1,1.3,1.1-1.6,1.5-1.8,2.3-1.3s-1.1,2-1.6,3l.4.3c-.4.2-.8.6-1.2.6s-1.5,0-1.2,1.2l3.5.8v.6l-3.5-.2v.2l1,.4-1,.7a21,21,0,0,1-2.7-1.9,3.4,3.4,0,0,0-2.9-1.6l.3.9-1.9.3a23.9,23.9,0,0,1-1.3-2.1c-.2-.3-.5-.8-.8-.8s-.7.2-1.3.5c3.4,1.6,0,2.8.2,3.9l2.8,3.1,1.7-.3c-1.1,1.3-2,2.4-1,4l-.6.3-.4-.4-2.5-2.2a1.3,1.3,0,0,0,.2,1.1,1.8,1.8,0,0,1-.4,2.5c-.3.2-.3.8-.3,1.2a3.6,3.6,0,0,0,.2,1h-.5c-2.6-4.3-5.3-8.5-8-12.8-.6.5-2.6.6-1.2,2.6h-2.7l-1.8,7.3h.5l1.8.7c-.4.5-.8,1.1-1.3,1.3L154,34.9c1.9.7,2,1.5.5,2.7a13.2,13.2,0,0,1-2.5,1.6c-1.7.8-3.4,1.3-5.1,2s-.7.6-.7.8c.7,1.8-.7,1.6-1.7,1.8s.1.7-.1.9c-1.7,2-3.3,4.3-5.3,5.9-4.5,3.5-10,3.5-15.3,4.3l-7.4.7a5.3,5.3,0,0,1-1.8-.4c-2-1-4.1-1.8-6.3-.8a3.7,3.7,0,0,0-2,1.7c-.3.3.3,1.1.4,1.6a9.4,9.4,0,0,1,0,2.9,21.9,21.9,0,0,1-1.3,3.5h1.1l1.4.4c-.2.5-.3,1.3-.7,1.6a18.7,18.7,0,0,1-3.9,2.2c-.2.2-.8,0-1.1-.2a2,2,0,0,0-2.7.1l-2.6,2c-1.2-2.5-2.5-5-3.6-7.6s-.1-4,1.9-5.2A6.1,6.1,0,0,0,96.5,56l-.5-.3v1.1a10.3,10.3,0,0,0-3.3,1.7c-2.1,1.6-4.5.9-6.7,1.3a8.1,8.1,0,0,1-2.2,0c-.5,1.4-1.2,2.9-1.8,4.3l1.6.8-4,3c-.2-.3-.4-.8-.7-1.2-1.7-2.4-1.8-5.7-4.4-7.5-.1,0,0-.4,0-.7s.1-.6.1-.8h-.3l-.4,1.6h-.3l-.4-1.4-.8,1.6-.5-1.7h-.3l.2,1.2-.5.2-.7-2-.6,2.3-1.3-.7-.4,1.4c-1.6.5-3.2.6-4.3,1.4a10.8,10.8,0,0,1-3.1,1.9c-2.3.9-4.5,2.2-6.7,3.3a4.5,4.5,0,0,1-4.6.4,2.1,2.1,0,0,0-2.6,1.6c0,.2-.3.5-.5.7-2.4,2.3-4.9,4.6-5.9,8L38,77.2v.4l1.5.9-4,3.1-4-8.2a4.9,4.9,0,0,1-1,1.3c-1.2,1-1.5,2-.4,3.4s1,3.8.3,4.4a2.5,2.5,0,0,0-.9,2.4,4.8,4.8,0,0,1-2.8,4.6c-1.5.8-2.6,2.7-3.6,4.2a39.2,39.2,0,0,0-1.6,3.6c-.8,1.7-.7,3.5.4,4.5.4-1.6.8-3.4,1.3-5.1s.5-3.7,2.8-4.3,2-2.8,3.9-3l.6.5L27.7,94c1.8-.4,2.1.7,2.2,1.7l-2.1,2.5-.6-1.1-4.3,5.3c.3,2.3.4,4.1.7,5.8a7.3,7.3,0,0,0,.7,1.9,13.4,13.4,0,0,1,1.5,2.9c.7,3.1,1.7,5.9,4,8.2a1.5,1.5,0,0,1,.1,1.3c-.4,1.5-1.6,3.1-1.4,4.5s-1.6,2.7-2.8,3.5c-2-1.5-1.9-3.7-2.2-6.1l-1.7,2.1c1.8,1.1,1.3,2.9.7,4s-2.3,1.7-3.4,2.5l-1.9-1.5V129l-1,.8v-5H16l-1.4,2.5-.4-1.9c-.8,1.6.6,4.4,3,6s2.2,4.3,3.2,6.4l.8-.3c1.9-1.3,3.5-1.4,5-.2a4.1,4.1,0,0,1,1.4,5c-.3.8-.7,1.7-1,2.6l2.5,1.4.2-.3-.9-1c1.3-.6,2.3-.7,3.1.6-2,.1-1,3.2-3.3,2.8v-.8a7.7,7.7,0,0,1-1.9.5c-1.3.1-3.9,2.6-3.8,3.8a6.3,6.3,0,0,0,.2,2.4c.9,1.9,2,3.8,3,5.8a25.5,25.5,0,0,0,2.3-3.4c1.2-2.3,3.4-3.4,5.4-2.5a4.2,4.2,0,0,1,2.3,5.6l-1.3,3.1a10.9,10.9,0,0,0,2.9.3c1.4,0,1.3.8,1.1,1.6s-1.6,1.6-2.8,1.8-1.4.1-1.5,1.3-.9,2.2-2.8.5l-1.6,1.4-1.3-2.5c-.9.6-1,1.2-.2,2.1a13.1,13.1,0,0,1,3.3,7.8,17.1,17.1,0,0,1,0,3.2c-.2,1.1-.7,2.2-.9,3.3s.3,2.5-.2,3.4-.3,3.8-.3,5.8.6,3.2.4,4.5c-.4,3.3.9,5.7,2.4,8.5,1.6-1.8,3.4-2.6,5.3-1.4l4.7,2.9c2.3,1.3,2.2,3.6,1.2,6a15.3,15.3,0,0,1,2.5.6c.6.2,1.5.7,1.6,1.3a5.3,5.3,0,0,1-.6,2.3l-1.4,4c1.5-.4,2.6-.2,2.9,1.3s-1,1.9-2.1,2.2a5.2,5.2,0,0,1,.6,1.9c0,1.6.3,2,1.8,1.9,3.4-.2,5.5,2.5,4.4,5.7-.3,1-.8,2.1-1.2,3.2h.6l1.9.9a10,10,0,0,1-1.5,1.4,21.4,21.4,0,0,1-3,1.7c-.2.2-.9-.2-1.1-.5s-1.1-2.1-1.9-3.6l-2.2,2.9c-.6-.8-1.1-.9-1.4.1a8.5,8.5,0,0,1-.6,1.7,15.3,15.3,0,0,1-1.4,2.1l-1.2-.8c.8,2.4,1,2.6,2.9,3.3s2.7,1.9,2.2,3.3-3,2.5-4.2,2.1-2.3-.4-2.9,1.5Zm-18.7,12-.4-.3c.3-.2.7-.2.9-.4s1.5-1.3,1.7-2.1A18.5,18.5,0,0,0,23,259a1.3,1.3,0,0,0-.3-.5c-.9-1.3-1.9-2.5-2.8-3.7-.5,1.1-1.2,2-1.2,2.9-.1,2.9-1.6,5.8-.5,8.8.1.3-.1.7-.2,1.1s-.5,2-.7,3l3-2.1v.5l8.7,4.5.5-.5c-.7-.6-1.3-1.4-2-1.9s-1.3-.8-1.9-1.3l-2.4-2.2h2c.7,0,1.6.4,1.8-1.1C24.4,268.1,22.4,265.9,20.1,265.9Zm36.6,23.8h6.1c1.3-1.7-.2-2.5-.8-3.7l-.8,1.1a7.6,7.6,0,0,1-.9-.9L59,283.8l-1.1,2.6-.6-.2a11.4,11.4,0,0,0-7.5-.5c-1.3.3-2.4.5-3.5-.5s-1.4.3-2.1.5.5,1.5.8,1.5a15.5,15.5,0,0,0,3.8.1c1.3,1.3,3.8,1.5,6,.4a7.4,7.4,0,0,1,2.1,0ZM34.9,235l-.5.5c1.4,1.3,1.3,1.9-.6,2.7l.2,1.5,2.9,2.4a5.9,5.9,0,0,0,1.7,1c.3,0,.7-.5,1-.8l-.9-.5h-.6c.5-5.4.1-4.5-.8-6ZM39.6,75.5l1.1-1.1c.9-1.5,1.2-3.4,2.9-4.3a1.8,1.8,0,0,0,.8-.7,1.4,1.4,0,0,0,.5-1c0-.2-.5-.5-.8-.5a22,22,0,0,0-3.6-.4,2.9,2.9,0,0,0-1.9.7c-.2.4.2,1.2.3,1.9l.6,3.4A11.5,11.5,0,0,1,39.6,75.5ZM19.7,124.7l.4-.2c.2-.4.3-1,.7-1.3a2.5,2.5,0,0,0,.5-2.9c-.7-1.4-1.6-2.6-2.4-3.9l-.8.9ZM168.1,24.5c-1.6,2.4-1.5,3.3,1.1,6.5.7-1.3-1.1-4.3,2.5-3.6v-.5ZM91.1,58v-.4l-8-1c.5,2.2,2.1,2.1,3.8,1.9h2.5A4.7,4.7,0,0,0,91.1,58ZM11.8,121h.6l-1-6.5h-.5C10.3,116.8,11.2,118.9,11.8,121ZM24.1,98l.6.4,2.1-2.7-1.2-2.2ZM42.3,210.8c-.8-.7-1.3-1.3-1.7-1.3a1.9,1.9,0,0,0-1.1,1.2c-.1.3.6,1.1,1,1.1S41.4,211.3,42.3,210.8ZM153,27.9h.6c.3-.4.8-.9.8-1.4s-.6-.8-1-1.2-1.1.7-1.2,1.2S152.7,27.4,153,27.9ZM79.6,57c-.5.9-1.1,1.4-1,1.9s.7.8,1.2,1.1.9-.8.9-1.2S80.2,57.9,79.6,57Zm23,3.6h.6c.3-.5.8-1,.8-1.5s-.7-.8-1-1.2-1.1.8-1.2,1.2S102.3,60.1,102.6,60.6Zm-3.8.4c-.8-.5-1.4-1.2-1.8-1.1a1.9,1.9,0,0,0-1,1.3,1.6,1.6,0,0,0,1.1,1C97.5,62.2,98,61.7,98.8,61Zm68.9-41.7c-.9-.5-1.5-1.1-1.9-1.1a2.4,2.4,0,0,0-1,1.4c0,.3.8,1,1.1,1S166.8,20,167.7,19.3ZM36.1,224.6c-.6.9-1.2,1.4-1.1,1.9s.7.8,1,1.2,1.1-.7,1.1-1.1S36.7,225.6,36.1,224.6ZM37.5,72.5c-.9-.7-1.4-1.3-1.8-1.3a2.1,2.1,0,0,0-1.1,1.3,1.7,1.7,0,0,0,1,1C36.1,73.6,36.6,73,37.5,72.5ZM30,159.1c-.6.8-1.2,1.3-1.2,1.8s.7.8,1.1,1.2,1-.7,1.1-1.1S30.5,160,30,159.1Zm12,72.7c-.8-.7-1.3-1.3-1.7-1.3a1.2,1.2,0,0,0-.2,2.3C40.5,232.9,41.1,232.3,42,231.8Zm9.7,1.3c-.9-.7-1.3-1.3-1.8-1.3a1.7,1.7,0,0,0-1,1,1.5,1.5,0,0,0,1,1.3C50.2,234.2,50.8,233.6,51.7,233.1Zm79.6,26.8c-.6.9-1.1,1.5-1,1.9s.8.8,1.2,1.1.9-.8.9-1.2S131.9,260.8,131.3,259.9ZM33.5,242.7c-.6,1-1.2,1.5-1.1,1.9s.7.8,1.1,1.2,1-.7,1-1.1S34,243.7,33.5,242.7ZM23.4,142H24c.3-.5.8-1,.8-1.4s-.6-.9-.9-1.3-1.1.7-1.2,1.2S23.1,141.5,23.4,142Zm8.2,120.9c-.8-.5-1.4-1.1-1.8-1.1a2.4,2.4,0,0,0-1,1.4,1.6,1.6,0,0,0,1.1,1C30.4,264.1,30.8,263.6,31.6,262.9Zm107.3,1.8c-.8-.7-1.4-1.3-1.7-1.2s-1,.7-1.1,1.2.6,1.1,1,1.1S138,265.3,138.9,264.7ZM66.2,281.2c-.8-.7-1.3-1.3-1.7-1.3a1.8,1.8,0,0,0-1.1,1.3c-.1.3.6,1,1,1.1S65.3,281.7,66.2,281.2Zm-23-65.6c-.6.9-1.2,1.4-1.1,1.9s.7.8,1.1,1.2,1-.8,1-1.2S43.7,216.5,43.2,215.6Zm-3.5,1.1c-.9-.5-1.4-1.1-1.8-1.1a1.7,1.7,0,0,0-1,1.2A2.2,2.2,0,0,0,38,218C38.4,218,38.9,217.4,39.7,216.7ZM23.8,253.1h.6c.3-.5.8-1,.8-1.5s-.7-.8-1.1-1.2-1,.9-1.1,1.3S23.5,252.7,23.8,253.1Zm20.4-28.7c-.8-.7-1.3-1.4-1.7-1.3s-1,.7-1.1,1.2.6,1.1,1,1.1S43.4,224.9,44.2,224.4ZM101.7,66.6l-1.2-2.7-1.2,2.7ZM37.8,207.8c-.6-.4-1.1-1-1.4-.9a1.9,1.9,0,0,0-1.1,1.2c-.1.3.6.8.9,1.2Zm23.4,71.6.5-2.4c-.5,0-1.3-.2-1.5,0S59.6,278.6,61.2,279.4ZM8.8,271.7H9v-1.4c.1-.6.4-1.1.5-1.6h.4l.2,1.7h.3l.5-1.8H9.3a8.9,8.9,0,0,0-.9,1.6A9.4,9.4,0,0,0,8.8,271.7Zm126.3-1c-.6-1.8-1.7-1.9-3.1-.4ZM242.9,25.4c-.3.3-.6.8-.8.8l-2.2-1-.4.7c-.2-.6-.2-1-.4-1.8l-.3,1.9,4.1.5Zm6.6.8-.2-.2-1.2,1.1-.5-1.1-.7.9-.2-.7-.6.8,2.9.4ZM31.1,218.8l-.4,3.1H31l.5-2.3h.3l.3,1.6h.4l.2-1.3Zm-5.9,2.9.2-2.6h-.2l-.6,2.2h-.4v-1.6h-.5c0,.5-.2,1.3.1,1.5S24.9,221.6,25.2,221.7Zm8.7-1.9-1.8,3.1h1.3l.7-3.2Zm-4.3,6,.2-2.8h-.5v1.5H27.7Z"/><path d="M173.5,31.1c0,.5.2,1.1,0,1.5s-1.1.2-1.3,0a1.7,1.7,0,0,1-.3-1.4c.1-.3.8-.4,1.2-.5Z"/><path d="M69.5,229.4a14.3,14.3,0,0,0,2.3-.3,4.2,4.2,0,0,1,4.6,1,4.1,4.1,0,0,1,.8,4.7l-.9,2.2a15.8,15.8,0,0,0-.4,2.1c.7-.5.9-.8,1.2-.8l1.5.3c-.2.4-.3.9-.6,1.1l-2.1,1-2.7,1.4-4.4-9.7a6.8,6.8,0,0,0-.9.6c-.6.7-1,.5-1.4-.1-1.1-2.4-2.3-4.7-3.3-7.2a4,4,0,0,1,1.5-4.8,4.1,4.1,0,0,1,4.7,0,4.1,4.1,0,0,1,1.5,4.9C70.5,226.8,70,227.9,69.5,229.4Zm4,1.7c-.5.9-1.1,1.4-1.1,1.9s.8.8,1.2,1.2,1-.8,1-1.2S74.1,232,73.5,231.1Zm-6.8-5.5h.6c.3-.5.8-1,.8-1.4s-.6-.9-.9-1.3-1.1.7-1.2,1.2S66.4,225.1,66.7,225.6Z"/><path d="M49.7,198.8l-.8.5c1.7.1,3.3-.1,4.7.4a3.3,3.3,0,0,1,2.3,3.8,21.4,21.4,0,0,1-1.5,4.7l.3.2,2.3.6-1.9,1.6a22.6,22.6,0,0,1-2.6,1.6,1.3,1.3,0,0,1-1.1-.3c-1.2-2.4-2.3-4.9-3.4-7.4a4.6,4.6,0,0,1-.2-2,15.3,15.3,0,0,0,.3-3C48.1,198.2,48.7,198.3,49.7,198.8Zm3.9,4.4c-.9-.6-1.4-1.2-1.8-1.1a1.9,1.9,0,0,0-1,1.3,1.6,1.6,0,0,0,1.1,1C52.3,204.4,52.8,203.8,53.6,203.2Z"/><path d="M236.9,23.8l.2,1.6c-1-.5-1.6-.2-1.9.9s-1.6,2.3-.2,3.5-.1.8-.3,1l-3,2a.8.8,0,0,1-.4-.4c-1.1-2.5-2.3-4.9-3.3-7.3a4.1,4.1,0,0,1,2.6-5.4,4.3,4.3,0,0,1,5.3,3c.1.5.5.8.7,1.2ZM231.4,25h.6c.3-.4.9-.9.9-1.3s-.6-.9-.9-1.3-1.1.7-1.2,1.1S231.2,24.5,231.4,25Z"/><path d="M93.6,136.3l1.2-.3.2.4-1.5.9c-.9.5-1.7.9-1.5,2.2s-.4.7-.6,1.1a3.4,3.4,0,0,1-.7-1.1c-.2-.6-.2-1.2-.4-1.8s-2-3.9-2.8-5.9a4.1,4.1,0,1,1,7.6,0l-1.6,4A4.3,4.3,0,0,1,93.6,136.3Zm-.6-6c-.8-.7-1.4-1.3-1.7-1.2s-1,.7-1.1,1.2.7,1.1,1,1.1S92.2,130.8,93,130.3Z"/><path d="M131.8,211.3l-1.4,2.2h-.6c-1.3-3-2.8-5.8-3.8-8.9s.6-3.2,2.2-4.1a3.8,3.8,0,0,1,4.3.4,4.1,4.1,0,0,1,1.5,4.5,15.4,15.4,0,0,1-.8,1.9c-.2.6-.5,1.3-.8,2l1,.6-1.6,1.4Zm0-7.1c-.9-.6-1.4-1.2-1.8-1.2a1.7,1.7,0,0,0-1,1.3c-.1.3.6,1.1,1,1.1S130.9,204.8,131.8,204.2Z"/><path d="M97.9,181.7l-3.6-.9v-.2l4.3-.3h.5c1-1.7,1.9-1.2,3.2-.2s2.6.3,3.5-1.3a4.2,4.2,0,0,0,.4-1l1.7.6h1.6a33.7,33.7,0,0,0-3.7,2.4c-.4.3-.4,1.3-.3,1.9s1.2,3.7.8,5.8a4.3,4.3,0,0,0-.4.7l-1.5-.7,1.3-1.3a14.2,14.2,0,0,1-1.3-1.2,2,2,0,0,1-.3-1.1c0-.4.4-.8.3-1.1a6.6,6.6,0,0,0-.8-1.3c-.3.4-.7.7-.8,1.1s-.7,2.5-1,3.7-1,1.3-1.9.7l1.5-5.6a1.4,1.4,0,0,0-.5-.9c-.1-.1-.7.2-.7.3,0,1.8-1.7,2-3,2.7Z"/><path d="M147.5,140.2l-.2,1.5-2.4-2.2a4.5,4.5,0,0,1,1-1.8,1.7,1.7,0,0,1,1.4-.3,22.4,22.4,0,0,1,2.6,1v2l2.1-.5,6.5,2.9c.1,2,.3,3.2.4,4.5s-1.3-.3-1.6-3l-1.2.2c.3-2.1-.2-2.6-2.3-2.4a8.6,8.6,0,0,1-1.7.3,5.9,5.9,0,0,1-2.4-.9l-.6.3-.8.3C148.1,141.4,149.2,140.1,147.5,140.2Z"/><path d="M73.2,187.3l-1.5-.5L70,190c.7.9,2.5-.8,2.3,1.2-.1.4-1.3.6-2.2,1.1s-.2,3.2-.4,5-.6.7-1,1c-1.2-1.3-.8-2.4-.2-3.8s.2-1.9.4-2.9a23.7,23.7,0,0,1,.9-3.6c.4-1.4,1.6-2.7,0-4.3l.5-.2,1.3.5c1.1.4,2.3.8,2.6-1.1.1-.2.7-.4,1.1-.6s.2.8,0,1.2-.6.6-.8.9Z"/><path d="M134.9,235.2l-.4-2c-.4.9-1.2,1.3-.2,2.1s1.5,1.4-.2,1.9c-.1,0-.2.6-.2.9s.2,1.2.1,1.3a7,7,0,0,1-1.4.3,26,26,0,0,0-.1-4.9c-.3-1.9.8-2.7,2.2-3.3l-.3-.3c.4-.5.8-1.5,1.2-1.5s2.4-1,3.5-1.5.9,0,1.4,0a4.5,4.5,0,0,1-.6,1.2l-2.6,2c-.3.3-.7.9-.6,1.1S136,234.4,134.9,235.2Z"/><path d="M43.9,274.6l-6.7-3.7.3-.4h.8a1,1,0,0,1,.1-.3c-1.3-.8-.5-1.9-.3-2.8a2.4,2.4,0,0,1,2-.9,4.2,4.2,0,0,1,2.6,1.2c.8.8-.3,2.1-1.9,2.4a21.3,21.3,0,0,1,.7,2.7l3.5-2.1Z"/><path d="M155.9,100.8l2.1.3c.1,1.3.3,2.6.3,3.9a2.5,2.5,0,0,1-1.1,1.4,2.1,2.1,0,0,1-1.5-.4,7.7,7.7,0,0,1-1.8-1.8c-.2-.4.1-1.1.3-1.5A9.7,9.7,0,0,1,155.9,100.8Z"/><path d="M127.8,191h-4.1c.1-1.1-.5-1.4-1.8-1.4a8.9,8.9,0,0,1-3.1-1.1c-.3-.1-.4-1-.3-1s1.6-.9,2.1-.7l7.2,3.6Z"/><path d="M109.6,170.3h-1.9a2.6,2.6,0,0,0-2.7,1.1c-.7.9-2.2,1.3-3.3,1.8s-2.2.1-2,1.7-.4.4-.5.4l-2.4-3.7a1.5,1.5,0,0,1,.9.1,6.9,6.9,0,0,0,7.3-1.6c.3-.4,1-.5,1.4-.6s2.1.2,3.2.3Z"/><path d="M143.3,183.4l3.1.7c-.4,3.7,2.3,5.3,5,7-1.2-.3-2.7.2-3.2-1.5s-.6-.4-.9-.6l-3.6-3.8C143.4,184.8,143.5,184.1,143.3,183.4Z"/><path d="M36.2,259.9l-2.7-1.2.8-.3a13,13,0,0,1,1.8-1.5,3.3,3.3,0,0,1,1.7-.4,6.7,6.7,0,0,1,1,2.9c0,.6-.9,1.2-1.4,1.8l-.4-.3.5-1.3-1.8.7Z"/><path d="M117.8,234.5v7.1h-.5l-.8-1.7-1,1.2c-1.1-1.8-1.1-2.8-.1-3.8l.7,2.1h.5l-.3-2.9Z"/><path d="M134.6,249l-1.6-.6c-.2-1.2-.3-2.2-.4-3.2,2.2.2-.2-2.4.9-2.8l1.7,1.4C135,245.2,134.8,247,134.6,249Z"/><path d="M35.7,276.6l-1.1.6c-1.6-2-1.6-2,1.5-3.4l2.4,3.5C37.3,277.9,36.3,278.3,35.7,276.6Z"/><path d="M82.7,138.9c.7-.2,1.3-.5,1.4-.4a2.4,2.4,0,0,1,.5,1.4c0,.2-.8.6-1,.5s-2.2.2-2-1a11.8,11.8,0,0,1-2,.4,4.1,4.1,0,0,1-.5-1.5c0-.4,1.8-.9,2.3-.6Z"/><path d="M146,240.4c.4-.4.9-1.1,1.3-1s2.4-.4,2.4,1.1l1.5-.8a6.3,6.3,0,0,1,.3,1.9c0,.2-1,.4-1.5.3a5.9,5.9,0,0,1-1.7-1.2l-.5,1.2-.5-1.8-.6,1.5h-.4l-.3-1.3Z"/><path d="M181,174.4c-2.5-1.8-5.2-3.3-8.4-3.2v-.6c1.6,0,3.4-.4,4.9.1s2.5,2.1,3.7,3.1Z"/><path d="M65.6,185.4a4.5,4.5,0,0,1,.3-1.1,3,3,0,0,1,1.5-.7,5.9,5.9,0,0,1,2.1.4c-.1.5.1,1.5-.2,1.8a5.8,5.8,0,0,1-2.6.9c-.8.1-1.4-.4-1.1-1.3Z"/><path d="M146,240.3l-.6,1.1-3.1-.2-.4-1.8h-.5L141,241h-.3v-2.5c.8,1.1,2.8-1,2.9,1.5,1.3-1.5,1.8-1.4,2.4.4Z"/><path d="M225.2,223.6l3-.4h1.2a1.7,1.7,0,0,1,.6,1,2.7,2.7,0,0,1,.2,1.2h-2.7v-1.1l-1.1,1c-.8,0-1.4-.5-1.2-1.8Z"/><path d="M63.3,184.9c-1.7,1.1-.5-.9-1.3-1l-.7,1.2v-.4l-2.8.9V184c.1-1.2.7-1.3,1.9-1s1.8,0,3,0v2Z"/><path d="M98.8,207.8H96.1c.7-1.3,1.8-1.6,2.9-.8s1.6,1.2.6,2.5a10.8,10.8,0,0,0-1.1,3.2c-.6-.2-1-.4-.4-1.5S99.7,209.1,98.8,207.8Z"/><path d="M34.4,152.2l-4.1-.6.4-2.9,2.7,2.5-.2-1.1c.5.2,1.2.2,1.3.4a3.3,3.3,0,0,1-.1,1.7Z"/><path d="M181,32.2l-1.5,2.2h-.3V33.2c-1.4.7-1.8.5-2.2-.3h-2.6c-.1,0-.3-.6-.2-.8a1.2,1.2,0,0,1,.8-.4c1.6.3,3.4-.3,4.8,1S180.3,32.5,181,32.2Z"/><path d="M48.3,183.8v-1.7l-.9,1.6H47v-2.1h-.4l-.7,2h-.3l-.4-2.8c1.5-.5,2.8.2,3.9,1.3s0,1.2,0,1.8Z"/><path d="M218.1,223.9v-2.3h2l-1.3,1.1H220a4.3,4.3,0,0,1,1.7.4c.2.1-.1.9-.2,1.4l-1.5-.5Z"/><path d="M42.9,187.1h-.8l.6.6v.3l-2.8-.5-.2-1.4-.8,1.6h-.4l.4-2.1,2.4.6a1.2,1.2,0,0,1,1.1-.2c.3.1.4.8.6,1.3Z"/><path d="M54.8,184.6l-2-.8v.3c-.5,0-1.3.2-1.5-.1a1.6,1.6,0,0,1-.1-1.5c0-.3.8-.3,1.3-.3h1.1l1.4.4a4.1,4.1,0,0,0-.5.9c0,.2.2.4.4.7Z"/><path d="M162.4,152.1a15.9,15.9,0,0,0-2.4-2,7.2,7.2,0,0,0-2.1-.5l-1.2-.9C160.5,148.5,161.9,149.5,162.4,152.1Z"/><path d="M175.1,162.8c-.1,3.8-3.2,2.4-5,3.1Z"/><path d="M117.4,144.9c1.5,0,3,1.6,3.5,3.6C119,147.9,117.4,146.2,117.4,144.9Z"/><path d="M140.4,212.4l-.6,2.4.4.5-2,.2a8.6,8.6,0,0,0-.1-1.6c-.3-2.3,1.1-1.7,2.3-1.5Z"/><path d="M76.7,138l-.2.8.3.2,1.2-1.7,1.1,2-.3.5-4-.6.5-2.5Z"/><path d="M77.1,255.9c0-1.6-2.3-2.9-.6-4.7C77.9,252.8,78.1,254.1,77.1,255.9Z"/><path d="M110.4,241.3l-1.1-1.8.6-.5.2.8,3.7-1.2C113.7,239.4,113.7,239.4,110.4,241.3Z"/><path d="M216.6,146.9l2.2,1.1.2-.3.3,1.6.6-1.4h.4v1.7c-1.2-.1-2.4.2-3.2-.3s-.7-1.5-1-2.3Z"/><path d="M136.1,239.6l-.6.9H135l.2-2.9h.5l1.2,1.4.5-1h.2v2.8l-.6.5Z"/><path d="M161.2,37.8c.2-.8.7-1.1,1.6-1s1.8,1,2.9.4l.7,1.5-.5.4-2.7-1.2c.1,0-.1.3-.3.9l-.6-1.3c-.3.2-.4,1.7-1.1.3Z"/><path class="a" d="M131.8,204.2c-.9.6-1.3,1.2-1.8,1.2s-1.1-.8-1-1.1a1.7,1.7,0,0,1,1-1.3C130.4,203,130.9,203.6,131.8,204.2Z"/></svg>