<svg xmlns="http://www.w3.org/2000/svg" width="250" height="296" viewBox="0 0 250 295.6"><style><![CDATA[.A{fill:#fff}]]></style><path class="A" d="M0 268V0h208.2c.2 1.4-.7 2.2-1.7 3-.7-1.7-1.7-1.8-3.2-.8-.7-.6-1.5-1.8-1.8-1.6a6.9 6.9 0 0 0-2.3 1.9l-2 2.8c-.5-2.3-1.6-3-3.4-2.4-.2 2-.4 2.2-2.8 2.5-.6-.6-1-1.3-1.5-1.4s-1 .5-1.3 1 .1 1 .1 1.7.3 1 .1 1.3l-5.3 4.4v-.5c-.6-.2-1.3-1-1.7-.7s-.8 1-1 1.6a3.2 3.2 0 0 0-.3.9l-5 6.2-1.8.6-1-2-3 .3c-1-2.5-2.3-3.5-4.4-3.3s-3 1.4-3.6 3.7a5.9 5.9 0 0 1-1.2 2 19.9 19.9 0 0 1-2.1 1.9l-2.2.5a8.7 8.7 0 0 0-2.4-1A3.9 3.9 0 0 0 149 28c.4 1.2.4 2-.5 2.7a2.4 2.4 0 0 0-.9.8c-1.2 1.4-2.4 3-1.8 5s1 3-.8 4.4a36.3 36.3 0 0 0-4.1 4.6c-1 1-2.4 1.8-2.5 3a2.7 2.7 0 0 1-1.7 2.2c-4.2 2.3-8.8 2.7-13.4 3.2l-6.7.3a4.3 4.3 0 0 1-2.5-.1c-2.7-1-5.5-2.8-8 .3a2.9 2.9 0 0 1-3.1.8c-1-.3-2 .1-2.5-1s-1-.2-1 0-1.5.3-2.3.1-2.6-1-4-1a11.2 11.2 0 0 1-5.5-.8L86 52c-2.2.1-4.4.4-6.5-.7s-2.3-.2-2.6 1.4l-.6 2.8c-1.7 0-3-.2-4.4-.1a16.7 16.7 0 0 1-8.3-1c-1-.4-2.4-1.2-3.4.2s-.6 3 1.4 3.6l5.3.7c-1.7.8-3.7.7-4.6 2.6-.1.2-.5.3-.7.4a23.7 23.7 0 0 0-3.6 1.7 7.7 7.7 0 0 1-6.6 1l-2.2-.5a56.7 56.7 0 0 0-7.2-.9c-.3 0-.6-.3-1-.3s-2-.4-2.8 0-.8 1.5-1.3 2.3l.4.4a5.8 5.8 0 0 1-1.9.2l-2.3-.3c-1-.1-2 .1-3 0-2.6-.4-5-1-7.6-1.5s-2 0-2.4 2.3S21 68 22 68l10.4 1.4a.7.7 0 0 1-.1.5l-7.5 9.4a1.9 1.9 0 0 0-.1 2.8 4.2 4.2 0 0 1 0 5 2.1 2.1 0 0 0-.4 1c.3 2.2-1.3 3.3-2.5 4.7a36.8 36.8 0 0 0-3.1 3.8c-1 1.4-1.3 3-2 4.4s-1.4 3.7.2 5.6a6.9 6.9 0 0 1 1.4 3 18.4 18.4 0 0 1 .3 4.1 4 4 0 0 1 0 1.1l-4.8 5.8-1-6.5c-.1-.5-.4-1.3-.7-1.3a1.8 1.8 0 0 0-1.5.6l-4 4.8c-1.3 1.6-1 1-.8 1.6a15.4 15.4 0 0 0 2.8 8l1-.8a4.8 4.8 0 0 1-.5 1.9c-.1.3-.4.7-.3 1a9.9 9.9 0 0 0 2.3 5.2c4 4.5 5.7 10 7.2 15.7a7 7 0 0 1-.6 4 8.2 8.2 0 0 0 .1 4.9c.8 2 2.3 3.7 3.5 5.6a6.8 6.8 0 0 1 1.3 5.5 3.3 3.3 0 0 0 .9 3.1c2 2.3 2.7 5.2 2.8 8.2a12.1 12.1 0 0 1 .1 1.9l-1.8 8.4a4.1 4.1 0 0 0 0 1.1l.2 4a51.6 51.6 0 0 0 1.2 8.9c.8 3.5 2.3 6.8 3.4 10.2-.8-.2-1.7-.7-2-.5s-2.6.3-3.8.3-3.5.2-5.2-1-1.7-.3-2 1a14.2 14.2 0 0 1-.7 2.2 15.5 15.5 0 0 0-.4 2.1c.7.1 1.7.6 2.2.3 2-1.2 3.8-.2 5.8.2a11.8 11.8 0 0 0-.4 2.5c0 .5.3 1.3.6 1.3a2.5 2.5 0 0 0 1.7-.2c.3-.1.4-.5.6-1 1.3 2.5 3.4 1.6 5 1.7s1.2.4 1 1.2a25 25 0 0 0-.7 2.6c-.2 1.7.7 3.5-1 4.8a4.3 4.3 0 0 1 .1.5c.3 1.7.2 3.3-1.4 4.5v.3l1 .3-1.4 1.2c.7 1.7-.7 2.6-1 3.8a13.9 13.9 0 0 0 0 2.9c-2-1.5-3.6-1.8-5.4-.5a3.8 3.8 0 0 0-1.5 4.1l-1.7 1.8a11.3 11.3 0 0 0-1 1.3c-1 1.7-3.7 2.4-3.4 5 0 .2-.4.4-.5.7a15.5 15.5 0 0 0-.4 1.5c-.3 1.5-.5 3-.8 4.6l-.8-.2-8.2-1.3a2.2 2.2 0 0 0-1.8.8A19.4 19.4 0 0 0 0 268zM56.2 58a2.3 2.3 0 0 0 2.6-2.5c0-.4-.5-.8-.8-1a33.1 33.1 0 0 0-2.7 2.6zM250 28.2v267.4H0V270l8.5 1.4 4-.5-.7 1.7c.8.7 1.5 2 2.7.5 0 0 .2-.1.2 0 1.6.8 3.5 1.3 4.8 2.5a43.7 43.7 0 0 1 5.5 5.9 5.4 5.4 0 0 1 1.5 2.6c.3 1.5 1 2 2.4 2.3a16.6 16.6 0 0 1 3.3 1.6c1.4 1 2.7 2.3 4.2 2.8s4 .3 6 1 2 0 3 .1l.7.2 4.8-.6c-.3.8 0 1.5 1 2l2.2 1c1.8-1.5 1.8-1.5 3.7 0s1.7 1 2.3-.1 3.4-1.6 5-2.6a2.3 2.3 0 0 1 1.5-.5 41.4 41.4 0 0 1 6 .9c1.5.3 3.4-.1 4.4 1.6.1.2 1.2.1 1.6-.2s2.3-2.8 2.8-4.6-.5-1.3-1-1.3a50.9 50.9 0 0 0-5.4-.4l-1.2-2c3.2-3 6-3.4 9.2-1l3.6-2.2s.2-.1.3 0 1.4-.4 2-1 2-2.5 4-2.8 1.4-1 .8-2.4.3-1.7.8-2a8.4 8.4 0 0 1 3.2-.8c.2.1.5.5.8.6l4.7.8a2.3 2.3 0 0 0 1.8-.4c2-1.5 4.3-.4 6.4-.8s3.5.6 5 .1c3-1 5.8.6 8.5 1.4 1 .3 2 .6 2.8.1s2-.8 2.8.8a11 11 0 0 1 .8 2.7l2.8-1c.4-.2 1-1 1.3-.7 1.8 1 3.4.4 5.2-.1h.4c1.5.1 3 .6 4.3.2s2.2.5 2.7 1.6a7.8 7.8 0 0 1 .3 1.4 23.5 23.5 0 0 0 2.2-1c1.7-1.5 2-1.5 3.7 0l7.4-5.5c2.5-1.7 2-1.3 2-3s.6-.7 1-1 2.7-1.3 3-3.2a25.9 25.9 0 0 1 1.4-4.5 1.5 1.5 0 0 1 1.7-1.1 11 11 0 0 0 5.9-1.4 29.3 29.3 0 0 1 7.1-3.5 26.2 26.2 0 0 0 5.8-2.9c3.2-2 6.6-3.8 10.5-1.6.2.2.6.2 1 .3l6 .6a60.9 60.9 0 0 0 7.4 0c2.2-.3 4.2-1.3 6.4-1.6a43.5 43.5 0 0 0 12.2-3.4 51.2 51.2 0 0 0 5.3-2.5 8.2 8.2 0 0 0 2-1.2 17.4 17.4 0 0 1 3.8-2.9c1-.5 1.4-1 1.4-2L239 26.6z"/><path d="M250 28.2l-12.3-1.4.4 22.8 7.2 189c0 1-.3 1.5-1.4 2a17.4 17.4 0 0 0-3.8 2.9 8.2 8.2 0 0 1-2 1.2 51.2 51.2 0 0 1-5.3 2.5 43.5 43.5 0 0 1-12.2 3.4c-2.2.3-4.2 1.3-6.4 1.6a60.9 60.9 0 0 1-7.4 0l-6-.6c-.3-.1-.7-.1-1-.3-4-2.2-7.3-.5-10.5 1.6a26.2 26.2 0 0 1-5.8 2.9 29.3 29.3 0 0 0-7.1 3.5 11 11 0 0 1-5.9 1.4 1.5 1.5 0 0 0-1.7 1.1 25.9 25.9 0 0 0-1.4 4.5c-.2 2-2 2.2-3 3.2s-1 .8-1 1-1 2-2 3L154 279c-1.8-1.5-2-1.5-3.7 0a23.5 23.5 0 0 1-2.2 1 7.8 7.8 0 0 0-.3-1.4c-.5-1-1-2-2.7-1.6s-2.8-.1-4.3-.2h-.4c-1.8.5-3.4 1-5.2.1-.2-.2-1 .5-1.3.7l-2.8 1a11 11 0 0 0-.8-2.7c-.8-1.6-1.3-1.6-2.8-.8s-1.7.2-2.8-.1c-2.7-.8-5.4-2.3-8.5-1.4-1.5.5-3.4-.3-5-.1s-4.4-.7-6.4.8a2.3 2.3 0 0 1-1.8.4l-4.7-.8c-.3-.1-.6-.5-.8-.6a8.4 8.4 0 0 0-3.2.8c-.5.3-1 1.6-.8 2s.2 2.2-.8 2.4-2.8 1.8-4 2.8-1 1.4-2 1-.3 0-.3 0l-3.6 2.2c-3.3-2.5-6-2-9.2 1l1.2 2a50.9 50.9 0 0 1 5.4.4c.4 0 1 1 1 1.3s-1 3.5-2.8 4.6-1.5.4-1.6.2c-1-1.7-3-1.3-4.4-1.6a41.4 41.4 0 0 0-6-.9 2.3 2.3 0 0 0-1.5.5c-1.6 1-4 .6-5 2.6s-1.5.7-2.3.1-2-1.5-3.7 0l-2.2-1c-1-.4-1.3-1-1-2l-4.8.6-.7-.2c-1-.1-2 .2-3-.1s-4-.4-6-1-2.8-2-4.2-2.8a16.6 16.6 0 0 0-3.3-1.6c-1.3-.4-2-.8-2.4-2.3a5.4 5.4 0 0 0-1.5-2.6 43.7 43.7 0 0 0-5.5-5.9c-1.3-1.2-3.2-1.7-4.8-2.5 0-.1-.2 0-.2 0-1.2 1.5-2 .2-2.7-.5l.7-1.7-4 .5L0 270v-2a19.4 19.4 0 0 1 1.5-2.4 2.2 2.2 0 0 1 1.8-.8c2.7.3 5.5.8 8.2 1.3l.8.2.8-4.6a15.5 15.5 0 0 1 .4-1.5c.1-.3.5-.5.5-.7-.3-2.7 2.3-3.4 3.4-5a11.3 11.3 0 0 1 1-1.3l1.7-1.8a3.8 3.8 0 0 1 1.5-4.1c1.8-1.3 3.5-1 5.4.5a13.9 13.9 0 0 1 0-2.9c.4-1.2 1.8-2 1-3.8l1.4-1.2-1-.3v-.3c1.6-1.2 1.7-2.8 1.4-4.5a4.3 4.3 0 0 0-.1-.5c1.8-1.3 1-3 1-4.8a25 25 0 0 1 .7-2.6c.2-.8.1-1.2-1-1.2s-3.8.8-5-1.7c-.2.4-.3.8-.6 1a2.5 2.5 0 0 1-1.7.2c-.3 0-.6-.8-.6-1.3a11.8 11.8 0 0 1 .4-2.5c-2-.4-3.8-1.4-5.8-.2-.5.3-1.5-.2-2.2-.3a15.5 15.5 0 0 1 .4-2.1 14.2 14.2 0 0 0 .7-2.2c.3-1.3 1.3-1.5 2-1s3.4 1 5.2 1 2.5.6 3.8-.3 1.2.3 2 .5l-3.4-10.2a51.6 51.6 0 0 1-1.2-8.9l-.2-4a4.1 4.1 0 0 1 0-1.1L26 184a12.1 12.1 0 0 0-.1-1.9c-.1-3-.7-6-2.8-8.2a3.3 3.3 0 0 1-.9-3.1 6.8 6.8 0 0 0-1.3-5.5c-1.2-2-2.7-3.6-3.5-5.6a8.2 8.2 0 0 1-.1-4.9 7 7 0 0 0 .6-4c-1.5-5.7-3.2-11.2-7.2-15.7a9.9 9.9 0 0 1-2.3-5.2c-.1-.2.2-.6.3-1a4.8 4.8 0 0 0 .5-1.9l-1 .8a15.4 15.4 0 0 1-2.8-8c-.1-.5.4-1 .8-1.6l4-4.8a1.8 1.8 0 0 1 1.5-.6c.3 0 .6.8.7 1.3l1 6.5 4.8-5.8a4 4 0 0 0 0-1.1 18.4 18.4 0 0 0-.3-4.1 6.9 6.9 0 0 0-1.4-3c-1.6-2-1-3.6-.2-5.6s1.2-3 2-4.4a36.8 36.8 0 0 1 3.1-3.8c1.2-1.4 2.8-2.5 2.5-4.7a2.1 2.1 0 0 1 .4-1 4.2 4.2 0 0 0 0-5 1.9 1.9 0 0 1 .1-2.8L32 70a.7.7 0 0 0 .1-.5L21.8 68c-1-.1-2-.2-1.7-1.7s.7-2.6 2.4-2.3l7.6 1.5c1 .1 2-.1 3 0l2.3.3a5.8 5.8 0 0 0 1.9-.2l-.4-.4c.5-.8.7-2 1.3-2.3s2 0 2.8 0 .6.3 1 .3a56.7 56.7 0 0 1 7.2.9l2.2.5a7.7 7.7 0 0 0 6.6-1 23.7 23.7 0 0 1 3.6-1.7c.2-.1.6-.2.7-.4 1-2 3-1.8 4.6-2.6l-5.3-.7c-2-.5-2.6-2-1.4-3.6s2.4-.6 3.4-.2a16.7 16.7 0 0 0 8.3 1c1.3-.1 2.7.1 4.4.1l.6-2.8c.2-1 1-2 2.6-1.4s4.3.8 6.5.7l1.7.3a11.2 11.2 0 0 0 5.5.8c1.3-.2 2.6.5 4 1s1.5.5 2.3-.1 1-.1 1 0 1.6.7 2.5 1a2.9 2.9 0 0 0 3.1-.8c2.6-3 5.4-1.4 8-.3a4.3 4.3 0 0 0 2.5.1c2.2-.3 4.5-.1 6.7-.3 4.6-.5 9.2-1 13.4-3.2a2.7 2.7 0 0 0 1.7-2.2c.1-1 1.6-2 2.5-3a36.3 36.3 0 0 1 4.1-4.6c1.7-1.4 1.3-2.8.8-4.4s.6-3.5 1.8-5a2.4 2.4 0 0 1 .9-.8c1-.8 1-1.5.5-2.7a3.9 3.9 0 0 1 4.2-5.5 8.7 8.7 0 0 1 2.4 1l2.2-.5a19.9 19.9 0 0 0 2.1-1.9 5.9 5.9 0 0 0 1.2-2c.6-2.3 1.8-3.6 3.6-3.7s3.4.8 4.4 3.3l3-.3 1 2 1.8-.6 5-6.2a3.2 3.2 0 0 1 .3-.9c.3-.6.6-1.4 1-1.6s1 .5 1.7.7v.5l5.3-4.4c.2-.2 0-1-.1-1.3s-.3-1.2-.1-1.7 1-1 1.3-1 1 .8 1.5 1.4c2.4-.3 2.6-.4 2.8-2.5 1.8-.5 3 .1 3.4 2.4l2-2.8a6.9 6.9 0 0 1 2.3-1.9c.3-.2 1 1 1.8 1.6 1.5-1 2.5-1 3.2.8 1-.7 2-1.5 1.7-3h3.3c1 1.2 2 2.5 4 2.3s1 .4 1.6.7l4 4a54 54 0 0 0 4.2 4.1c2 1.6 2 1.5.7 3.5-.1.1 0 .2.1.3s1.4-.4 1.5-1 2-1 3.2-.8 3 1 4.7 1.5a1.6 1.6 0 0 1 1.4 1.9v6.7l13 1.8zM23.6 65.4c-1-.8-1 .7-1.6 1l.3.8-.3.2-1-1.2v1.3c1.3.2 2.4.1 2.2-1.6s.3-.3.4-.5l1 .8-.2 1.2-1-.3v.5l2.6.3v-1.3l-1 1-.3-.2.8-1.7zM8.7 267l-2-.3-1 3 1 .7H8l1.4-.7-.4-.2.3-2.3h.5v1.4c.4 0 .6-.3.8-.5l1-1-1 3 3-.3a10.8 10.8 0 0 1 0-1.8 1 1 0 0 1 .5-.7c0-.1.4.1.5.2v3c1.4-.1 3 .6 2.8-1.6 0-.1.3-.3.5-.4l1.6-1 8.3 4.2c.1.8.1.8 1.2-.2l-5-4.6-1.8-.2v-.7l2.4.4c1 .2 1.4 0 1.6-.8h-2.4l-4.5-1a7.3 7.3 0 0 0 1-.9 19.1 19.1 0 0 0 1.8-2.3c-1.4-1.4-.1-2.3.7-3.4l-3.8-5a10.7 10.7 0 0 1-.4 2.3l-1.3 5a19.3 19.3 0 0 0-.1 2.4 11.5 11.5 0 0 1 .2 3.7 4.2 4.2 0 0 0-.6 2.5c.1.4-.1 1.3-.4 1.4s-1.2-.1-1.8-.1v-.6l1.2-1-1.6-2c-1.7 1-1.4 2.2-1.2 3.4l-2.2-.3 1-.6-.6-2-3-.2zM29 221.7l-1.4-.3-.6-.4v-.3h2.8a32.5 32.5 0 0 1 .2-3.3c1 .1.8.8.7 1.5s-.3 1-.4 1.7l.8.2.7 1 1.5.3.4-3a23.3 23.3 0 0 0-2.8-1.7 1.5 1.5 0 0 0-.9.1l-1 .7h.1l-1.6-1-2 .7a3.4 3.4 0 0 0-.9.8c-.2.4-.2.8-.4 1.3H24l-.3-2-.4.8c-.3 1.2-.5 2.2 1.4 1.8s2 .8 1.3 2 .1 1.4.8 2l3 .7a2.3 2.3 0 0 1 .9-3.4zm214.7-195l5.8.8v-1.8h-.2v1.5l-1.8-.7 1-.4-.2-.4-1.6 1-.4-1-.7.7-.3-1.4h-.3l.2 1.4-1.5.3-.3-2h-.3a12.8 12.8 0 0 0 .2 1.7l-1.8-1.2c-1 1.3-1.5 1-2-.7l-.3 1-.5-1-.6 1-.3-1.4h-.2l-.3 1.8zM77.4 292.3c1.4-.1 2.3-1.3 2.6-3.5l-8.3-1-1.3-1.3a12.8 12.8 0 0 0-4.2-.7 19.9 19.9 0 0 0-.9 2.6c-.7 1.3-.7 1.4.3 1.6l.7-.4c.6.4 1 1 1.6 1l8.6.4zm94.7-262h.1l-2.5-2.2-.3.2.8 2.7-1.7 2-4-5.6L161 21c-.3 1-3 1-1.4 3.2L157 24l-1.4 5.6c-.6 1.8-1.6 3.5-2.3 5s1.2.6 1.3 1a1.9 1.9 0 0 1-.7 1.5 57 57 0 0 1-6.9 3.7c-1 .4-2-.1-1.3 1.6l-.6.6-1.5.3.3.2a13.7 13.7 0 0 1-1.3 2 47.9 47.9 0 0 1-4.3 4.7c-2.4 2-5.5 2.7-8.6 3.2l-13 1.2a7.1 7.1 0 0 1-2 .4c-1.3-.4-2.5-1.2-4-1.5a3.9 3.9 0 0 0-2.6.1 19.5 19.5 0 0 0-3.2 2.1 3.8 3.8 0 0 1 1.1 4.5l-1.4 3a6.1 6.1 0 0 0 0 1.9c.2.2.1.5-.2.6s-1 .7-1.5 1-.4.6-.6 1l-.6-1-1.8-3.7-3.4 6.7c-1.4-2.7-2.7-5-3.7-7.5s-.2-4 2-5.6c.5-.3.7-1.2 1-2H95.5v1.5l-.3-.4a15.2 15.2 0 0 1-11.8 3.3l-4 8.5c-1.4-2.6-2.5-5-3.7-7.2-.4-.7-1-1.3-1.5-2.2v-1h-.4l-.2 1.5h-.3l-.5-1.5-.7 1.5h-.2l-.2-1.7-1.7-.5c.5 1.7-.4 2-1.7 2l-.5 1.5c-2 .4-4 .2-5 2.2a1.5 1.5 0 0 1-1.2.7c-2.8.4-4.6 3.3-7.6 3h-.1c-.7 1.4-2 1.4-3.3 1a14.5 14.5 0 0 1-2.9-1.1l-1.3.6 1.5.3-1.6.6c.1.3.5 1 .4 1L43 72l-3 5-2-.5-2.5 4.7-4-8.2a9 9 0 0 0-1.6 2 4.4 4.4 0 0 0-.2 2.3c.2 1.4.6 2.7 1 4s0 .7-.2.7-1 1.8-1 3a4.1 4.1 0 0 1-2 3.7 9.4 9.4 0 0 0-4.5 5.1 13 13 0 0 1-1 2.5c-1.2 2.2-1.6 4.3.5 6.2h-.1c1.3 1.6 1 3.5 1.2 5.3a6.8 6.8 0 0 0 .7 2c.5 1 1.4 1.8 1.6 2.8a15.5 15.5 0 0 0 3.8 8.3 1.5 1.5 0 0 1 .2 1.2c-.2.6-.8 1-1 1.7s-.2 3-.8 4.4-1.7 1.3-3 2.2l-1.7-6.4-1.8 2c2 1 1.5 3 1 4S20 131.5 19 132c-2-1-2-2.6-1.6-4.6l-1 2-.4-5.6-1.6 3V124c-1.4 1.4-.5 3 .1 4l6.2 9.2c2-1.7 3.5-2 5.4-.4s2 3.3 1 5.7l-1.3 2.5.3.2.8-.7c.7 1.2.2 2.8-.4 2.7s-2 .4-2.4 1.7-.5.2-.8.4-.6.3-.7.6-.1 4.4.5 5.3l2.6 4a27.5 27.5 0 0 0 2.3-3.3c1-2.2 3-3.3 5.2-2.5a3.9 3.9 0 0 1 2.3 5.1c-.5 1.5-1.2 2.8-1.8 4.3s1-.1 1.3.1a2.8 2.8 0 0 1 1.3 1.1c.1.1-.4.8-.7 1l-2 .7a6.1 6.1 0 0 1-1.3.3l-.7 1-1.6 2.2-1.7-3c-1 .8-1 1.4-.2 2.4a13 13 0 0 1 3.2 7.7 10.1 10.1 0 0 1 .1 3c-.2 1.2-.8 2.3-1 3.5s.3 2.4-.2 3a5.3 5.3 0 0 0-.4 4.7c.5 1.8-1 3.8.8 5.3a1.1 1.1 0 0 1-.1.5c-1.2 1.8.3 3.4.4 5.2s1.2 2.4 1.8 3.5l3-2.2a4.3 4.3 0 0 1 1.6-4c.3-.3.1-1 .1-1.7s-.3-.2-.5-.3l-.6 1-.7.4.5-2.5 2.4 1.2.6-.7.2.2-.5 1.5 2-1.5 1 2 .4-2c.6.2 1.3.2 1.5.6s.1 1 .1 1.8h-.4l-.3-1.7c-1 1-1 1.6-.2 2.5a2.9 2.9 0 0 1 .8 3.4c-.4 1.4-1 2.7-1.3 3.6a27.9 27.9 0 0 1 1.5 3 30.1 30.1 0 0 1 .5 4.2l2.7-.6v.6l-2.2.8 1.5 1.8-.4.2a50.3 50.3 0 0 1 4 4 3.8 3.8 0 0 1-.6 5.9l-1.4.8a2.1 2.1 0 0 0 1.2.4c3.2-.3 5.4 2.2 4.3 5.3-.4 1.2-1 2.3-1.5 3.5a2.2 2.2 0 0 0-.2 1.1 4.2 4.2 0 0 1-.3 1.2l-1.8 1.8-2.4-4.5-.4 1-.5-.4L45 240h-.3l.2-1.5a3.9 3.9 0 0 0-1.2 4.4l-2.2 1c-.2 1.6.6 2.2 2 2.5a2.8 2.8 0 0 1 1.7 1.8c.2 1-2.7 3.2-3.8 3l-2.8-.4.3.4c-.4.8-.7 2-1.3 2.4a16.7 16.7 0 0 1-3.9.6v-1.3h-.3l-1.3 2c-.6-2 1.3-4-1-5.2-1.2.5-5.7 6.4-5.8 8.6l6-4.2 1.2 1.5c-1.5 1.4-1.5 1.6-.3 3.3 1-.6 1.4-.4 1.6.7a16.6 16.6 0 0 0 .6 2.1A1.9 1.9 0 0 1 33 264c.5.2 1 .5 1 .4s1.2.4 1.8.6.8 1.5.6 2-1 .5-1.7.6l-1 .2v.4l1.7.4-.8 1 1 1-3 1.7.2-1.3c-1.2.3-2.3 1.5-3.4-.1a3.8 3.8 0 0 0 2.7 2.3l1.5 2.4-2.6 2 1.5 1.3.3-2.5.6 1c.3 1 1 1 1.8.5l3.2-1.6a1.9 1.9 0 0 1 1.7.6c1 1 .2 2.2.4 3.3l1 4.7 6 1 .3-.6a7.7 7.7 0 0 1 2.2.9c1 1 1.6-.3 2.4-.1a2.4 2.4 0 0 0 2.4-.4c.4-.3 1.4.1 2 .1v.5l-1 .8c2 2.2 4.7-.5 6.8 1 .5-1.8.3-2.6-1.2-4.4l-.6 2-2-4a7.1 7.1 0 0 0-.8 1.9c.4 1.7-.5 1-1.2.7a10 10 0 0 0-7-.5 3.3 3.3 0 0 1-4.2-1.1l-2.4 2c-1.3-.5-2.5-3-2-5.2s-.1-2-1-3l-3-4c-1-1.3-.3-1-.1-1a1.1 1.1 0 0 1 1.2-.3 48.1 48.1 0 0 1 5.1 2.5 6 6 0 0 1 1.1.6c.1.7.5 1.8 1 1.8a7.3 7.3 0 0 0 2.5-1c1 1.6 2 3 .3 4.5l-.7-.6-.4.3a7.1 7.1 0 0 1 1.2 1.8 5.1 5.1 0 0 1-.3 1.7l1.6-.3-1-2.5 2 .2-.5 2 2-2.5-2.8-1 1-2 4.7 2c-.2.5-.7 1-.5 1.4a1.7 1.7 0 0 0 1.1 1.2 3.5 3.5 0 0 0 2-.2 1.1 1.1 0 0 0 .1-1c-.3-1-1-2-1.3-3a4.1 4.1 0 0 1 3.7-5.2c2-.1 3.3 1 4.2 2.8s.4.3.7.6l.4-1.3 1.3.4-.8 1.2c2 1.7 2.4 3.4 1.4 6l1.8 1.4-1.7 1.5 2 .4 1.3-2 1.2 1.2-.2-.4 4.8-2.5v-2c0-.8.5-1.3 1.2-1s1.3-.1 2-.2 1.8-1.8 3-1.5l5 1.4c0-1 .1-1 2-.8.2-.5.4-1.3.8-1.4s1 .3 2 .6c-1.8-2.7 1.8-4 1.4-6.4 1.5.7 2.4-.6 3.5-1s1-.8 1.6-1a18.7 18.7 0 0 1 3.7-.7l.3.6c1.4.1 2.8-.1 3.7.5s2.2.2 3.4-.3 2.4-1 3-.7 3-.3 4.6.3 2.7-1 4.2.1h.4c1.8-1.2 3.4.3 5 .6a9 9 0 0 1 2.1.8l.4-.5c-.3-.6-.4-1.2-.7-1.7a78.1 78.1 0 0 1-2.8-6 4 4 0 0 1 3.7-5.2c2.3-.1 3.3 1.3 4.2 3 2-.3 4-.4 5.2 1.8s.5 3.3-.3 5-1.6 2-.7 3l-2.6 3.7c1 .1 1.8.2 2.2-.3s2-1.5 3.5-.7 1.4.7 2-.2.5-.2 1-.2c2-.1 4.2 1 6.4.1.3-.1 1 .5 1.3 1a10.4 10.4 0 0 1 1 2.1c.7-.3 1.5-.5 1.8-1a1.8 1.8 0 0 1 2.6-.5 2 2 0 0 0 2.4-.4 13 13 0 0 0 2.2-1.9c.5-.6.8-1.4 1.3-2s2-1.7 2.6-2.7a48.3 48.3 0 0 0 2.2-6.4c.7-2 3.3-4 5.2-4s2.3 0 3.4-.2a10.5 10.5 0 0 0 4-1.3 23.6 23.6 0 0 1 7.5-3.6 17.9 17.9 0 0 0 5.5-2.8c3-2 6-3.4 10-2a8.5 8.5 0 0 0 1.7.6 46 46 0 0 0 5.2.6 57.5 57.5 0 0 0 8.3 0 67.4 67.4 0 0 0 7.5-1.7 20.2 20.2 0 0 0 3.4-.6l14.3-5.4a7.1 7.1 0 0 1-.7-1.8l-4.5-134c0-.4-.2-1-.5-1s-.6.3-1 .4a2.5 2.5 0 0 1-1.4.3 28.1 28.1 0 0 1-3.1-1L230 101l2.5-2.3a1.4 1.4 0 0 1 1.2-.4 5.3 5.3 0 0 0 5.3-6.1l-2.4-66.6c-.2-3-.5-6-.6-9 0-1-.2-1.2-1-1.4l-6.3-2c1.8 1.4.6 2-.5 2.8-1.3-2.6-2 1.2-3.5 0a30 30 0 0 0 1.1-2.9c.1-.3.6-.8-.3-1.2a15.9 15.9 0 0 1-3.3-2.5c-.7-.7-1.3-1.7-2-2.5L217 3.7c-1-1-.8-.3-1.3-.5s-3 .3-3.7-1.5-1-.7-1.7-1a4.2 4.2 0 0 0-1.5.1l1.6 2-1-.2-2.6 2.3-2-2.6c-1 .1-1.6.5-1 1.7s-1.2.2-1.5 0-1.3 1.3-2.3 1l.2 1.6H199l-.2 1.5-2-3-1 2c.3-2.6.1-3.5-.6-4s-.1 1.8-.3 3.3c-1-1.7-1.3-.4-1.5-.2l-2-.6v.5l-1.5 1 3.8 4.6a1.2 1.2 0 0 1-.8.1c-1.2-.7-3-.4-3.8-1.7h-.6l-2.4.6c.3.1.5.4.8.4l1.4-.3v.5l-2 .7v.4h2.2a19.5 19.5 0 0 1-.2 2.3l-3.2-2.6-1.2 1.5a2.2 2.2 0 0 1-1.3.4 7.6 7.6 0 0 1-1.6-.1c-1 2-.5 3.5 1 4.4a6.9 6.9 0 0 1 1.4-1.5c.1-.1.5.1 1 .1l-.4.8a14.7 14.7 0 0 0-1 1.3 17.7 17.7 0 0 0-.8 2.2l-1.3-1.4c-.1.8-.5 1.4-.3 2s1 .4 1.4.5l2.2.8v.3l-3.4-.3v1.4h-.5v-1l-.3.3c-.7-.5-1.6-.8-2-1.4s-1.8-1.4-3.2-1.7l.6 1.2c-.6-.8-1.6 1.3-2-.3a11.2 11.2 0 0 0-1.3-2.2c-1.2-.4-1.2-.4-1.7 1 1.7.4 1.8.6.8 2a8.5 8.5 0 0 0-.9 1.5l3 3 1.5-.3a19.8 19.8 0 0 1-1.1 2h-.4a6.1 6.1 0 0 1 .3 1.7zm-127 37a36.3 36.3 0 0 0-5.1-.7 2.4 2.4 0 0 0-1.9 1c-.3.3 0 1.2.4 1.7a4.3 4.3 0 0 1 .7 3.8 5.8 5.8 0 0 0-.3 1.4l.5.3c.4-.6 1.3-1.2 1.2-1.6s1.2-2.3 2-3.2zm-27.4 49.4l2.6 8a7.8 7.8 0 0 1 .2-2.2c1.2-2 1.2-2.7-.1-4.4a14.8 14.8 0 0 1-1.6-2.7zm64.6-61c1 2.7 1.5 3 4.2 2.5.8-.1 1.6.1 2.3 0l2.4-.8-.2-.6zm-71 58c-1.4 1-.6 5 2 9zm123.5 155.5l-2-3.8-1.8 3.6zm32-250c-1-.7-1.3-1.2-1.7-1.3a1 1 0 0 0-1.2 1.3c.2.5.7 1 1 1s1-.5 1.8-1zm-12.5 7.2c-1-.7-1.4-1.4-1.8-1.4s-1 .7-1 1.2.2 1.4 1 1.3 1-.6 1.8-1zM81 58.4c-1-.6-1.4-1.2-1.7-1a2 2 0 0 0-1.1 1.3c-.1.3.7 1 1 1s1-.6 1.8-1.3zm23 .5c-.8-.7-1.2-1.3-1.7-1.3a.9.9 0 0 0-1.1 1.2 1.8 1.8 0 0 0 1 1.2c.4 0 1-.6 1.8-1zM45.3 225.6c-1-.6-1.3-1.3-1.8-1.2s-1 .7-1 1.2.2 1.4 1 1.2 1-.6 1.7-1.2zM37.3 72c-1-.6-1.4-1.3-1.7-1a2 2 0 0 0-1.1 1.3c-.1.3.6 1 1 1s1-.5 1.8-1.2zm4.2 130.3c-1-.7-1.4-1.3-1.8-1.3s-1 .7-1 1.2.3 1.4 1.2 1.2a8.7 8.7 0 0 0 1.7-1.1zm-16-62.4c-.8-.7-1.2-1.2-1.7-1.3s-1.4.4-1 1.3a1.8 1.8 0 0 0 1 1.2c.4 0 1-.6 1.8-1.2zM28 160c.8.6 1.2 1 1.7 1s1.3-.4 1-1.2-.6-1.2-1-1.2-1 .6-1.8 1.3zm66.8-99.3a6.5 6.5 0 0 0 1.8 1.1c1 .2 1.3-.4 1-1.2s-.7-1.2-1-1.2-1 .6-1.8 1.3zM37.6 225.5c-1-.6-1.4-1.3-1.7-1a2 2 0 0 0-1.1 1.3 1.7 1.7 0 0 0 1 1c.5.1 1-.5 1.8-1.2zm4.2 5c-1-.6-1.3-1.2-1.7-1.2s-1.4.4-1.2 1.2a2.2 2.2 0 0 0 1.1 1.2c.4 0 1-.6 1.8-1.2zm-8.4 5c1 .7 1.3 1.3 1.8 1.3s1-.6 1-1a1 1 0 0 0-1-1.4c-.5 0-1 .5-2 1zm-2 8c1 .6 1.3 1 1.7 1.2s1.4-.5 1.2-1.3-.7-1.2-1-1.2-1 .6-1.8 1.3zm-5.8 7c-.8-.7-1.3-1.3-1.7-1.3s-1 .7-1 1.2.1 1.4 1 1.2a6.4 6.4 0 0 0 1.7-1.1zm5.8 11c-1-.6-1.4-1.3-1.7-1.2a2.2 2.2 0 0 0-1.1 1.4 1.7 1.7 0 0 0 1 1c.5 0 1-.6 1.8-1.2zm103.2 1.8a8.7 8.7 0 0 0 1.7 1.1c1 .2 1.3-.5 1-1.3s-.7-1.2-1-1-1 .6-1.7 1.3zM51 232v-.6c-.5-.3-1-1-1.4-1s-1 .7-1 1.2a1.7 1.7 0 0 0 1 1.2c.4 0 1-.6 1.4-1zm15 47.8c-1-.8-1.3-1.4-1.7-1.4s-1 .6-1 1 0 1.4 1 1.3a8.8 8.8 0 0 0 1.8-1zm63-19.5c1 .6 1.4 1.2 1.8 1.2a1.8 1.8 0 0 0 1-1.2c.3-1-.4-1.3-1-1.3s-1 .6-1.7 1.3zM45.2 66h-.5l.3-2-1.7.4v2h2l1-1.7h-1zm-4.7 155.3c-1-.6-1.3-1.2-1.8-1.2s-1 .8-1 1a2.4 2.4 0 0 0 1.2 1.4c.2.1.8-.6 1.6-1.2zm-6-14l1.4 1a4.7 4.7 0 0 0 1.3-1.5c.1-.1-.7-1-1-1s-1 .7-1.7 1.3zm24.4 69a9.4 9.4 0 0 1 1.4 1.3l1.4-1.6c-.4-.3-.8-1-1.2-1s-.8.6-1.6 1.2zm3.5-218.8v.2l2.8.4 1.2-2h-1.7l-.2 1.5zM42.8 220.3h.5a6.6 6.6 0 0 0-.1-2c-.1-.3-1-.3-2-.5zm-22.4-.3h1.8l1.5-3c-.4.3-1.4.6-1.3 1s-.6 2-2 2zM37.8 66.8v-.3l-3 .4 1.3 1.2zm.6 143.4l.4.4 2-.3v-.5c-.4-.2-1-.6-1.4-.5s-.6.6-1 1zm-21.7 6.2v.5l.8-.4v2.7L19 217l-1-.4z"/><path class="A" d="M250 25h-.8L237 23.2v-6.7a1.6 1.6 0 0 0-1.4-1.9c-1.6-.4-3-1.2-4.7-1.5s-2.5-1.2-3.2.8-1 .6-1.5 1-.2-.2-.1-.3c1.3-2 1.3-2-.7-3.5a54 54 0 0 1-4.2-4.1l-4-4c-.5-.3-1-.8-1.6-.7s-3-1-4-2.3H250z"/><path d="M56.2 58l-1-1a33.1 33.1 0 0 1 2.7-2.6c.3.3.8.7.8 1a2.3 2.3 0 0 1-2.6 2.5z"/><path class="A" d="M22.3 102.3c-2-2-1.7-4-.5-6.2a13 13 0 0 0 1-2.5 9.4 9.4 0 0 1 4.5-5.1 4.1 4.1 0 0 0 2-3.7c0-1-.4-2.3 1-3s.3-.5.2-.7-.7-2.6-1-4a4.4 4.4 0 0 1 .2-2.3 9 9 0 0 1 1.6-1.9l4 8.2 2.5-4.7 2 .5 3-5 3.5-3.4c1-1-.3-.7-.4-1l1.6-.6-1.5-.3 1.3-.6a14.5 14.5 0 0 0 2.9 1.1c1.3.3 2.6.3 3.3-1h.1c3 .2 4.8-2.7 7.6-3a1.5 1.5 0 0 0 1.2-.7c1-2 3.2-1.8 5-2.2l.5-1.6c1.3.1 2.2-.2 1.7-2l1.7.5.2 1.7h.2l.7-1.5.5 1.5h.3l.2-1.5h.4v1l1.5 2.2 3.7 7.2 4-8.5A15.2 15.2 0 0 0 95.2 56l.3.4V55H96c-.3.7-.5 1.6-1 2-2.3 1.6-3 3-2 5.6s2.3 4.8 3.7 7.5l3.4-6.7 2.4 4.7c.2-.4.3-.8.6-1l1.5-1c.5-.4.4-.4.2-.6a6.1 6.1 0 0 1 0-1.9c.4-1 1-2 1.4-3a3.8 3.8 0 0 0-1.1-4.5 19.5 19.5 0 0 1 3.2-2.1 3.9 3.9 0 0 1 2.6-.1c1.4.3 2.6 1 4 1.5a7.1 7.1 0 0 0 2-.4l13-1.2s6.2-1.2 8.6-3.2a47.9 47.9 0 0 0 4.3-4.7 13.7 13.7 0 0 0 1.3-2l-.3-.2 1.5-.3.6-.6c-.8-1.7.4-1.2 1.3-1.6a57 57 0 0 0 6.9-3.7 1.9 1.9 0 0 0 .7-1.5c-.1-.5-.8-.7-1.3-1s1.7-3.3 2.3-5 1-3.8 1.4-5.6l2.8.2c-1.7-2.3 1-2.2 1.4-3.2l3.4 6.4 4 5.6 1.7-2-.8-2.7.3-.2 2.5 2.3H171v1.8h2l-1-2h.6a6.1 6.1 0 0 0-.3-1.7h.4a19.8 19.8 0 0 0 1.1-2l-1.5.3-3-3a8.5 8.5 0 0 1 .9-1.5c1-1.4 1-1.6-.8-2 .5-1.3.5-1.3 1.7-1a11.2 11.2 0 0 1 1.3 2.2c.5 1.6 1.5-.5 2 .3l-.6-1.2c1.4.3 2.5.4 3.2 1.7s1.3 1 2 1.4l.3-.3v1h.4v-1.4l3.4.3v-.3l-2.2-.8c-.5-.1-1.3-.2-1.4-.5s.2-1 .3-2l1.3 1.4a17.7 17.7 0 0 1 .8-2.2 14.7 14.7 0 0 1 1-1.3l.4-.8c-.4 0-.8-.2-1-.1a6.9 6.9 0 0 0-1.4 1.5c-1.4-1-1.8-2.4-1-4.4a7.6 7.6 0 0 0 1.6.1 2.2 2.2 0 0 0 1.3-.4l1.2-1.5L188 15a19.5 19.5 0 0 0 .2-2.3H186v-.4l2-.7v-.5l-1.4.3c-.3 0-.5-.3-.8-.4l3-.6c1 1.3 2.6 1 3.8 1.7a1.2 1.2 0 0 0 .8-.1l-3.7-4.6 1.5-1V6l2 .6c.2-.2.4-1.5 1.5.2l.3-3.3s1 1.3.6 4l1-2 2 3L199 7h1.4l-.2-1.6c1 .2.6-2.6 2.3-1s1 0 1.5 0 0-1.6 1-1.7l1.8 2.4 2.6-2.3 1 .2-1.6-2a4.2 4.2 0 0 1 1.5-.1c.6.2 1.6.4 1.7 1s2.5 1 3.7 1.5 1 .2 1.3.5l5.3 6a15.9 15.9 0 0 0 3.3 2.5c1 .4.4 1 .3 1.2a30 30 0 0 1-1.1 2.9c1.5 1.2 2.2-2.6 3.5 0 1-.7 2.3-1.4.5-2.8l6.3 2c.7.2 1 .5 1 1.4l1 33a98.5 98.5 0 0 0 .3 8.5l1.6 34a5.3 5.3 0 0 1-5.3 6.1 1.4 1.4 0 0 0-1.2.4L230 101l3.5 1.2a28.1 28.1 0 0 0 3.1 1 2.5 2.5 0 0 0 1.4-.3c.4-.1.8-.5 1-.4s.5.6.5 1l4.5 134a7.1 7.1 0 0 0 .7 1.8l-14.3 5.4a20.2 20.2 0 0 1-3.4.6 67.4 67.4 0 0 1-7.5 1.7 57.5 57.5 0 0 1-8.3 0 46 46 0 0 1-5.2-.6 8.5 8.5 0 0 1-1.7-.6c-3.8-1.5-7-.1-10 2a17.9 17.9 0 0 1-5.5 2.8 23.6 23.6 0 0 0-7.5 3.6 10.5 10.5 0 0 1-4 1.3c-1 .2-2.2.1-3.4.2s-4.5 2.2-5.2 4a48.3 48.3 0 0 1-2.2 6.4c-.5 1-1.8 1.7-2.6 2.7s-.8 1.4-1.3 2a13 13 0 0 1-2.2 1.9 2 2 0 0 1-2.4.4 1.8 1.8 0 0 0-2.6.5c-.3.5-1 .7-1.8 1a10.4 10.4 0 0 0-1-2.1c-.3-.4-1-1-1.3-1-2.2.8-4.3-.2-6.4-.1-.4 0-.8 0-1 .2s-1.3.6-2 .2-2.4-.4-3.5.7-1.3.4-2.2.3l2.6-3.7c-1-1 .2-2 .7-3s1.3-3.2.3-5-3.2-2-5.2-1.8c-1-1.7-2-3-4.2-3a4 4 0 0 0-3.7 5.2c.8 2 2 4 2.8 6s.4 1 .7 1.7l-.4.5a9 9 0 0 0-2.1-.8c-1.7-.3-3.3-1.8-5-.6h-.4c-1.5-1-3 .4-4.2-.1s-3 .8-4.6-.3-2 .4-3 .7-2 1-3.4.3-2.3-.4-3.7-.5l-.3-.6a18.7 18.7 0 0 0-3.7.7c-.6.1-1 .7-1.6 1s-2 1.8-3.5 1c.4 2.4-3.2 3.7-1.4 6.4-.8-.3-1.5-.7-2-.6s-.6 1-.8 1.4c-2-.1-2-.1-2 .8l-5-1.4c-1.3-.3-2 1-3 1.5s-1 .8-2 .2-1.2.1-1.2 1v2l-4.8 2.5.2.4-1.2-1.2-1.3 2-2-.4 1.7-1.5-1.8-1.4c1-2.6.7-4.3-1.4-6l.8-1.2-1.3-.4-.4 1.3c-.3-.3-.6-.4-.7-.6s-2-3-4.2-2.8a4.1 4.1 0 0 0-3.7 5.2c.4 1 1 2 1.3 3a1.1 1.1 0 0 1-.1 1 3.5 3.5 0 0 1-2 .2 1.7 1.7 0 0 1-1.1-1.2c-.2-.4.3-1 .5-1.4l-1.5-1-3.2-1.2-1 2 2.8 1-2 2.5.5-2-2-.2 1 2.5-1.6.3a5.1 5.1 0 0 0 .3-1.7 7.1 7.1 0 0 0-1.2-1.8l.4-.3.7.6c1.6-1.6.6-3-.3-4.5a7.3 7.3 0 0 1-2.5 1c-.4 0-.8-1-1-1.8a6 6 0 0 0-1.1-.6 48.1 48.1 0 0 0-5.1-2.5 1.1 1.1 0 0 0-1.2.3c-.2.1-.1.8.1 1a91.4 91.4 0 0 0 3 3.9c1 1.2 1.3 1.8 1 3s.6 4.7 2 5.2l2.4-2a3.3 3.3 0 0 0 4.2 1.1 10 10 0 0 1 7 .5c.7.4 1.6 1 1.2-.7a7.1 7.1 0 0 1 .8-1.9l2 4 .6-2c1.5 1.8 1.7 2.6 1.2 4.4-2-1.4-4.8 1.3-6.8-1l1-.8v-.5c-.7 0-1.7-.4-2-.1a2.4 2.4 0 0 1-2.4.4c-.8-.2-1.5 1-2.4.1a7.7 7.7 0 0 0-2.2-.9l-.3.6-6-1c-.2-1.2-.7-3-1-4.7s.7-2.4-.4-3.3a1.9 1.9 0 0 0-1.7-.6c-1 .4-2 1-3.2 1.6s-1.5.5-1.8-.5l-.6-1-.3 2.5L31 278l2.7-2-1.5-2.4a3.8 3.8 0 0 1-2.7-2.3c1 1.6 2.2.4 3.4.1l-.2 1.3 3-1.7-1-1 .8-1-1.7-.4v-.4l1-.2c.6-.1 1.5-.2 1.7-.6s1-1.6-.6-2-1-1-1.8-.6-.6-.2-1-.4a1.9 1.9 0 0 0 1.6-2.5 16.6 16.6 0 0 1-.6-2.1c-.2-1-.6-1.3-1.6-.7-1.2-1.7-1.2-2 .3-3.3l-.6-.7-.6-.8-6 4.2c.1-2.2 4.6-8 5.8-8.6 2.2 1.3.3 3.2 1 5.2l1.3-2h.3v1.3a16.7 16.7 0 0 0 3.9-.6c.6-.4 1-1.6 1.3-2.4l-.3-.4 2.8.4c1 .3 4-1.8 3.8-3a2.8 2.8 0 0 0-1.7-1.8c-1.5-.3-2.3-1-2-2.5l2.2-1a3.9 3.9 0 0 1 1.2-4.4l-.3 1.5h.4l1.2-3.3.5.4.4-1 2.4 4.5 1.8-1.8a4.2 4.2 0 0 0 .3-1.2 2.2 2.2 0 0 1 .2-1.1c.5-1.2 1-2.3 1.5-3.5 1-3-1-5.6-4.3-5.3a2.1 2.1 0 0 1-1.2-.4l1.4-.8a3.8 3.8 0 0 0 .6-5.9 50.3 50.3 0 0 0-4-4l.4-.2-1.5-1.8 2.2-.8v-.6l-2.7.6a30.1 30.1 0 0 0-.5-4.2 27.9 27.9 0 0 0-1.5-3l1.3-3.6a2.9 2.9 0 0 0-.8-3.4c-.8-1-.7-1.6.2-2.5l.3 1.7h.4c0-.7.2-1.4-.1-1.8s-1-.4-1.5-.6l-.4 2-1-2-2 1.5.5-1.5-.2-.2-.6.7-2.5-1-.5 2.5.7-.4.6-1c.2.1.5.2.5.3s.2 1.4-.1 1.7a4.3 4.3 0 0 0-1.6 4l-3 2.2c-.6-1-1.8-2.3-1.8-3.5s-1.6-3.4-.4-5.2a1.1 1.1 0 0 0 .1-.5c-1.8-1.5-.3-3.5-.8-5.3a5.3 5.3 0 0 1 .4-4.7c.5-.7 0-2 .2-3s.8-2.3 1-3.5a10.1 10.1 0 0 0-.1-3 13 13 0 0 0-3.2-7.7c-1-1-.8-1.6.2-2.4l1.7 3 1.6-2.2 1.3 1.5.8-.6-1-.2 1-1-1.3-.6h-.3a6.1 6.1 0 0 0 1.3-.3l2-.7c.3-.2.8-1 .7-1a2.8 2.8 0 0 0-1.3-1.1c-.3-.2-.8-.1-1.3-.1s1.3-2.8 1.8-4.3a3.9 3.9 0 0 0-2.3-5.1c-2-.8-4.2.3-5.2 2.5a27.5 27.5 0 0 1-2.3 3.3l-2.6-4c-.6-1-1-4.4-.5-5.3s.5-.5.7-.6.8-.2.8-.4.6-2 2.4-1.7 1-1.5.4-2.7l-.8.7-.3-.2 1.3-2.6c1-2.4.8-4.4-1-5.7s-3.4-1.3-5.4.4l-6.2-9.2c-.6-1-1.5-2.5-.1-4v2.7l1.6-3h.4v5.6l1-2c-.5 2-.5 3.6 1.6 4.6 1-.6 2.6-1.2 3.3-2.3s1-3-1-4l1.8-2 1.7 6.4c1.3-1 2.6-1.4 3-2.2s.5-3 .8-4.4.7-1 1-1.7a1.5 1.5 0 0 0-.2-1.3 15.5 15.5 0 0 1-3.8-8.3c-.2-1-1-1.8-1.6-2.8a6.8 6.8 0 0 1-.7-2c-.3-1.8.1-3.7-1.2-5.3.2-.1.5-.2.6-.4a20.1 20.1 0 0 1 1.4-2.5 40 40 0 0 1 3.1-2.7l.4 1-.5-.8 2.6-1.5c-.1-1.6-1-2-2.4-1.7a9.9 9.9 0 0 1 1.7-2.5 1.6 1.6 0 0 0 .7-2.1h-.6a1 1 0 0 0-.5.4 8.1 8.1 0 0 1-4.1 3.2c-.5.2-1 1-1 1.5a22.1 22.1 0 0 1-.5 2.5c-.5 2-1.2 3.7-.7 5.7zm18.3 83.3l-2-1-.4 1.8.4.2.8-1.6.3 2 1-1.4c-.2 1.2.5 1.5 1.5 1.5l.4-.4-.8-.4 1-.6c-.8-1.3-1.5-1-2 0zM224 222.4c.4 1.5.4 1.5 1.2 1.4s1-1 .8-1.2-1.3-.6-2-.1c-.4-1.4-1.6-1-2.4-.8s-.3 1.2-.4 1.8h.5l.3-1.5h.4l.6 1.8zm-90.2-9.7l-1-1.4 1-1.4-1.6.7-.7-1v3h.3V212l1.6.6c.6.5 1.4.8 2 .1s-.1-1.3-.3-2H134l.6.6zm-68.5-28.3c.1-2 0-2-1.8-1.7v2l.8-1.3 1 1c.2.4.4 1 .8 1.2s1-.3 1.6-.6l-1-.8 1-1.2c-1.3-.7-1.8-.6-2 .7zm-15.8 13.3v-.3h-1c-.2.2-.2.7-.3 1s-.1 1.5-.1 2.3a5.3 5.3 0 0 0 0 2.5c1 2.6 2.3 5 3.5 7.6h.2a9.3 9.3 0 0 0 1.9-2.2 37.5 37.5 0 0 0 1.7-4.7c.5-1.6.7-3.2-.7-4.7a3.8 3.8 0 0 0-4.7-.7c-.3.1-.8-.3-1.4-.5zm186-174h-.2a11 11 0 0 1-.9-1.4 4.2 4.2 0 0 0-5.1-2.7c-1.6.5-3.3 3-2.7 4.6a88.6 88.6 0 0 0 4 8.2h.2l3.4-6.8c.2-.4 1-.5 1.5-.8zM73 241c.7-2 2.5-2.7 2.5-4.8s1-2.3 1.3-3.5a3.5 3.5 0 0 0-1.6-4.4 4.2 4.2 0 0 0-4.9.2 4.1 4.1 0 0 0-1.1 4.4c1 2.6 2.4 5 3.8 8zm18-101.4l1-3.4 2.4-5.7a3.2 3.2 0 0 0-1.6-4.4 5.5 5.5 0 0 0-4-.1 3.3 3.3 0 0 0-1.9 4.4c1 2.3 2 4.6 3 7 .1.3.4.8.3 1s.3 1 .7 1.2zm-24.6 92.5a16.9 16.9 0 0 0 2-2.3 19.5 19.5 0 0 0 .6-2.3l1.4-3.5c.4-1.2.1-3-1.6-4.4a3.9 3.9 0 0 0-3.9-.3c-1.6.8-2.8 2.6-2.3 4.2s2.5 5.7 3.8 8.6zm62.6-20c.6-.4 1.2-.6 1.3-1l2.8-7c.8-2.4-.1-3.2-1.7-4.4a4.5 4.5 0 0 0-4.2 0c-1.7 1.2-2.4 2.7-1.8 4.4l3.6 8zm-32.4-28.6c1.2-1 2.8-1.3 3-3 0 0 .7-.3 1-.2a1 1 0 0 1 .4 1l-1.4 6c.5-.2 1.4-.2 1.5-.5s.7-2.8 1-4.2a2.3 2.3 0 0 1 .7-.9c.5.1 1.2.5 1.2.8a5.8 5.8 0 0 1-.5 2.1c2.2 1.4 2.2 1.4 1.2 3.2.5-.1 1-.4 1-.7-.3-2-.7-3.8-1-5.7s-.2-1.2.1-1.4a36.4 36.4 0 0 1 3.5-2.4l-2.7-.3c.3-.3.2-.3.2-.3-1.5 3-2.4 3.3-5.2 1.3a1.1 1.1 0 0 0-1 0c-.6 1.2-1.5 1.3-2.7 1s-1 .2-1.3.4v.4l2 .5a52.7 52.7 0 0 0-1 3zm-24 2.5l1.7-3.3c.5-1 .6-.4.7-.7s-.2-.5-.2-.8-.8.1-.8.3c-.5 2.6-2 2-3.7 1.2l-.8-.2 1 1.8a46.1 46.1 0 0 0-1.7 4.7c-.4 1.6.5 3.4-.7 5l-.7 1 1 2c2-2 .3-4.5 1.3-6.7l1 .3a2.1 2.1 0 0 0 1.1-.4c.1-.1.1-.7 0-.7a2 2 0 0 0-1.1-.2h-1.5c.3-.6.3-1 .6-1.4s.7-.5.8-1 .7-1.8 2-1zm61.8 42.5c-.4 1-.4 1.6-.8 1.8-2.2 1.4-2.7 3.6-1.2 6l2-1a3.1 3.1 0 0 0-.5-1c-1-1-1.2-1 0-2.6l.3 2.2 2-1.6c-1-1-.2-1.8.4-2.4s1.8-1 2.6-1.8a3.9 3.9 0 0 0 .6-1.3l-.5-.3-3 2zm-93.2 40c1.5-1.2 1.8-2 1-3s-3.4-1-4.2-.1-.2 2.5.8 3.3l-1.6 1.2 3.8.8c0-.5.2-1.3 0-1.4s-.1-1.5.4-2.4zm115.5-168l-1.3-.2c-.3 0-.5.2-.8.3s-.6.7-.7 1-1.6.6-1 1.6a30.8 30.8 0 0 0 2.4 2.7c1-.3 2.2-.7 2-2s-.5-2-.7-3.3zm1 42c-1.5-1.4-6-3.3-8.8-2.7v-2.2l-1.5-.2c2 1.2 0 2.6.2 4 1-.5 1.6-1.4 2.3-.1h.5c1-.7 2-.2 3-.2a2.7 2.7 0 0 1 2.6 1.2 21.4 21.4 0 0 1 1 2.2l.3 1a2.1 2.1 0 0 0 .4-1.1 10.3 10.3 0 0 0 .1-1.8zm-34.6 47.3l3.4.3s.3-.4.4-.4a39.8 39.8 0 0 0-3.8-2.4l-1.2-.6a5.3 5.3 0 0 0-2-.7 4.4 4.4 0 0 0-2 .3c-.1 0 0 1 .1 1a12.1 12.1 0 0 0 3.7 1.1c1 .1 1.7.4 1.4 1.4zM34 257.5l1.7 1.3 2-.5-1 1.7c2.3-.8 2.8-1.3 2-4.2-.5-1.4-1.4-.6-2.2-.6l.2.4zm96.5-35.2c2.5-.3 2.3 1 1.8 2.3 2-1 1-2 .1-3l3.7-1.5c-.6-1.7-2-2.3-3-1.2s-1.5 2-2.7 3.4zM33 274l1.5 1.7 1.8-.7v.4l-.8.6v.4l3-.3-2.8-3.8zm63.5-103.3l2.5 4V172.7l.4-.2 4-1.3a1.7 1.7 0 0 0 1.2-2.1c-2.6 2.3-5.4 3-8.4 1.5zm35.8 76.2l1.6.8.6-5.8c-2.5 1-1.7 3.2-2.2 5zm-102-96c1 .6 2.3-.5 3 .6s1-.2 1-.4.2-1-.1-1.4-.8-.1-1.2-.2v.3l.5.3-.3.3-2.6-2zm103.7 43.7l-4-3.2.6 5c.3-1.6 1.6-1.8 3.4-2zm-81-11.6l1.7.8.3-.4-.7-.6 1-.3c-.6-.8-1-1.6-2-.8s-.5-.2-.8-.2l-1.3.2a4.5 4.5 0 0 0 .3 1.6zm-7.8-3.2l.4 2.8 1.3-2 .3.2-.2 2 .3.2 1-1.6v1.7h.6c0-.5.3-1.3.1-1.6a4.5 4.5 0 0 0-3.9-1.5zm72.2 54l-1.4 1.8 1 5h.5zM43.8 271l1-.5v-1.6l-3.7 2.7 3 2zm98.8-32.2v-1.2c-2.5-.1.3 2-1 2.2h3l-.3-.2 1-.7c-.2-.3-.5-1-.6-1zm3.5-98.2l1-1.4c.1-.3.4-.7.3-1a10.1 10.1 0 0 0-1.3-1.6c-.1-.1-.5.2-.7.3s-1 1-1.2 1.4zm-7 70.6c-.3.1-1 0-1.2.2s-.6 1.8-1 3h2.4zm4.2-29c-1 2.5 1 2.8 1.4 4.2h.5l.1-3.3-.6 1 1-1zm86.7-110a10.2 10.2 0 0 0-.8-1.5h-.5c-.6.6-.5.5-1 0s-1-.6-1.3-1l-.5.5c.3.6.5 1.5 1 1.7a9.6 9.6 0 0 0 3 .2zm-65-33.5c.4-1.6.3-1.6-1.2-1.4s-.3 0-.5-.1l-2.6-.8v2l.7-1 .5 1.2.8-1.4.2 1zm-95 99.4l-.3-2.5-1.2 1-.8-1.4h-.4l-.3 2.4h.5l.3-1c-.2 2.2 1.4.6 2.2 1.5zm-28.5 28.3c-2.5 1.2-2.8 1.6-2.4 2a6.3 6.3 0 0 0 2 1zm96-42.2h-.5l.8 2.8h.4l.8-1.6.7 2h.4l1-2.7h-.4l-.8 1.8-.8-2.3-1 2zM135 236h-.4l-.4 2.8h.5l.4-1.2 1.7 2v-3.3l-.8 1zm75-89l1 1 .7-2.6h-.3l-.8 1-.5-1-1 1.2-.4-1.2h-.4l.6 2.5zm-63.5 91.5l.5 1.6.7-1.4h.2v1.3l.5.2c.1-.4.4-.8.4-1-.4-2-2-.8-3.2-1.4l-.2 2.3h.4zM44.5 167c-.5.8-1 1.3-1 1.8s.6.8 1 1.2 1-1 1-1.5-.6-.8-1-1.5zM145 213c-.8-.6-1.3-1.2-1.7-1.2s-.8.6-1.2 1 .8 1 1.2 1 1-.4 1.7-1zm-28.3-69.2c.3 2.4 2.4 2.7 3.6 3.8-1-1.3-1.4-3.2-3.6-3.8zm25.7 68.7c-.8-.5-1.2-1-1.5-1s-1.2.6-1.2 1 .6 1.3 1 1.3 1-.6 1.7-1.3zm-96.8-28l-.5 3c.8-.3 1.6-.3 2-.7s-1.5-1.2-1.5-2.3zm2 3.4c1-.4 1.7-.5 2-1s-.8-1.5-1.7-2.5zm92.5 50.4c-.8-.5-1.3-1-1.7-1s-1 .8-1 1.2a2.2 2.2 0 0 0 1.1 1.2c.4 0 1-.7 1.6-1.3zm-82-54l.4.2c.7-.5 2.3-.3 1.8-2s-.8-.5-1.2-.7zM160 87l.3-1.6-2-1.2V84l-1.4.4zm16.6 84l-.2.3 1.7.2c-1-.3-1-2.3-2.7-1.6a11.4 11.4 0 0 1-3.2 0v.6c1.3-.7 2.5.8 4-.1zM37 185.6l.8-.5-.6-.5 1-.7h-2l-.3 2.4 2 .3zm-12.3-35.8l1.6.4.4-2.3c-1.7-.2-2.6.4-2 2zm12 16.7a11.5 11.5 0 0 1-.8 1c-.1.3-.3.7-.2 1s.5.3.8.4h1c.6-1.2.7-2.2-.7-2.4zm61.6 40l.7 1.3.6-.3c-.6-.6-1-1.6-1.6-1.8s-2-.8-2.4 1zm120.2 15a20.9 20.9 0 0 0 1 2.1c.4-.3 1-.7 1-1s-.7-1.4-2-1zm-80.8-41l-1.7-1.3c-.1 0-.8.7-.7 1a1.6 1.6 0 0 0 .8 1.2c.2.1.8-.4 1.6-1zm1.4 15.5l3.8 3.2.4-.4c-1.7-.3-1.3-3.4-4.2-2.8zm-2.8-64.3l2.4.3-1-3zm38.4-99l.5.3.4-1a4.9 4.9 0 0 0 1.3 1.2.8.8 0 0 0 .8-.2.8.8 0 0 0 .1-.7c-.5-1-1.5-1-2.3-.7s-.5.6-.8 1zm41 113.2l-.4.2v2.6l1.7-.7zm-106.3 93.3l.2.5 3.3-1.2c.2 0 .1-.6.1-1.3zm49.8-62c-.4.8-1 1.2-.8 1.5s.6.8 1 1.2 1-.7 1-1-.5-1-1-1.7zm-9.6 37l1-1c-.4-.3-1-.8-1.3-.8a2.7 2.7 0 0 0-.9 1 10 10 0 0 0 1.4 1.5l.4-.4zm-9.8-3l.7-1.5-1.7-.8v1.2l-1.3-.4-.2.6zm-89.4-25.5l-.5 1c0 .4 0 1 .2 1s1 .1 1.2-.2a1.7 1.7 0 0 0 .2-1.4c-.1-.3-.8-.4-1-.6zm170-38l1 2c.2-1.8-.1-3-2.2-2v1.6h.3zm-65 30.2l.2 1.8 1-1.6.8 1.8c1-2.4-.3-2.5-2-2zM47 199.5l.3-.4-.5-.3 1-1-1.3-.7a12.7 12.7 0 0 0-.6 1.8c0 .2.8.4 1.2.6zm93.8-20c-.4.8-1 1.2-.8 1.5s.6.6 1 1 .8-.7 1-1-.5-.8-1-1.5zm69-116.7c-.5-1.2-.5-2.5-2-1.8v1.7zm-133 191l.5-.2-.8-3.8c-1.2 1.2-1 1.8-.3 2zM148.5 132l-1.2 1.2a2.5 2.5 0 0 0 1.4.4 1.8 1.8 0 0 0 .6-1.3c-.1-.4-.8-.7-1.2-1l-.3.5zM56 183.3c.3.1.3.1 1.2-1.7h.7v-.5h-1.2l.2 2zm-10.7 3L44 185l-1 1.4a2.2 2.2 0 0 0 1.1.5c.3.1.6-.3 1.3-.7zm-12 9v-.4c-.6.2-1.4.2-1.7.6a2.2 2.2 0 0 0-.2 1.8c.1.3 1 .4 1.7.7s-1.2-1.4-1-1.6 1-.7 1.3-1zm1.6 3l.4-.5-.5-.3.7-1c-.3-.1-.7-.6-1-.5s-1 .8-.8 1a5.3 5.3 0 0 0 1.2 1.4zM149.4 127l.2-.4a5.6 5.6 0 0 0-1.6-.7c-.2 0-.7 1-.6 1.2a4.7 4.7 0 0 0 1.4 1.4l.3-.4-1.2-.8zm-61 132.3l.5.2a10.3 10.3 0 0 0 .7-2.5c.1-.2-.4-.4-.6-.7s-.6.5-.6.7a17.7 17.7 0 0 0 0 2.3zm64-127.3l1 .7-1.4.4v.5l2.2.8c-.4-1.2.3-2.5-1.7-2.4zM46 170h.3l1-2 .5 2h.4c-.1-.6.1-1.4-.2-1.8s-1-.3-1.7-.5zm103 70.4l.4.4h1.4v-2l-.5-.3zm2.5-1.4v2h.3l.7-1.7.5 2c.7-2.2.5-2.5-1.5-2.3zm10-88c-.1-1.7-2-3-3.3-2.6zm-75-10.5l.5-1.3.7-.8c-3.3-.4-3.3-.4-2.6 1.5l1-1.8.2 1.2a5.5 5.5 0 0 1 .2 1.2zm-57 9c-.6-.4-1-.8-1.4-.8s0 1.2-1 1 0 .6.1.6 1 .5 1 .4.6-.7 1-1.3zm201.6-76h2c-.6-1-1-1.8-1.3-2.4l-.4.2zM88.8 138l-.6.3c-.1.2-.1.5-.2.8l-.6.6c.3.2.6.5.8.5a1.9 1.9 0 0 0 1.1-.4 12.1 12.1 0 0 0-.5-1.8zm49 50.2c.8 2.5 1.4 3 2.6 2.4zm-78.5 2l1.5.6.8 2c-.2-1.3.6-3.7-2.3-2.6zm95-13c-.5.5-1 1-1 1a3.8 3.8 0 0 0 1 1.2 4.2 4.2 0 0 0 .8-1.2c0-.3-.5-.6-1-1zm-16 3.3h.3l.4 1.7c.7-2.2.4-2.5-1.6-2.2v1.7h.4zm12.8-1.3c-.3-1 .4-2.4-1-2.3l-1.3 1.8zm-89 29.6c2 2 2.5-1 3.7-.7-1.3-.8-2 .8-3.7.7zM79 138.8l-1.4-2.2-1 2.2zm2.5.6c1-1.4 1-1.4-1-2.5l-.3 2h.3l.7-1.2h.3zm-10-1.6l1-.8c-.2-.3-.6-.8-.7-.7l-1.2.8 1 1c.1.1.4 0 1-.1zm86-6.7l.2-3.4-1.2-.2a1.4 1.4 0 0 0-.1.9zm-83 7.2l1.6.3.2-1.5-1.3-1zm142.5 82v2.6l1.6-1-1.2-.6 1-.6-.5-.3zm-135-81a6.5 6.5 0 0 0 1.9.1 1.3 1.3 0 0 0 .3-1.1 1.3 1.3 0 0 0-.8-.6zm52.2 41.3l.8-.7c-.3-.3-.6-.7-1-.7s-.7.5-1 .7l1 1.4.3-.3zm19.3-52h.3c0-.5.2-1.2-.1-1.4s-1-.6-2-1l.2 2.2h.4l.3-1.6h.4zM162 180h.3c.1-.5.3-1.3.1-1.6s-1-.4-2-.6l.2 2h.3l.7-1.7zM13.4 270c-.2-1.2-.5-2.5 1.2-3.4l1.6 2-1.2 1v.6c.6 0 1.3.3 1.8.1s.5-1 .4-1.4a4.2 4.2 0 0 1 .6-2.5 11.5 11.5 0 0 0-.2-3.7 19.3 19.3 0 0 1 .1-2.4l1.3-5a10.7 10.7 0 0 0 .4-2.3l3.8 5c-.8 1-2 2-.7 3.4a19.1 19.1 0 0 1-1.8 2.3 7.3 7.3 0 0 1-1 .9l7 1c-.2.8-.5 1-1.6.8l-2.4-.4v.7l1.8.2-.2.3 5 4.3c-1 1-1 1-1.2.2l-8.3-4.2-1.6 1c-.2.1-.5.3-.5.4.2 2.2-1.4 1.5-2.8 1.6v-3c-.1-.1-.5-.3-.5-.2a1 1 0 0 0-.5.7 10.8 10.8 0 0 0 0 1.8zM45.2 67.4L42.8 70c-1 1-2.3 1.4-2 3.2s-.8 1-1.2 1.6l-.5-.3a5.8 5.8 0 0 1 .3-1.4 4.3 4.3 0 0 0-.7-3.8c-.4-.5-.7-1.4-.4-1.7a2.4 2.4 0 0 1 1.9-1 36.3 36.3 0 0 1 5.1.7zM76.5 291l-8.6-.4c-.5 0-1-.6-1.6-1l-.7.4c.6-2.2 1.4-.1 2.3 0s-.3-1.8-.5-2.7-.4-.5-.6-.8l-.8.7a7.5 7.5 0 0 0-.7 1.2 19.9 19.9 0 0 1 .9-2.6 12.8 12.8 0 0 1 4.2.7c-1.2 1-1 2.4-1 4.3l2.5-1.4c.2 1.4 1 1.4 2.5 1.2a18.3 18.3 0 0 0-.6-2.5c0-.1-.7 0-1.4 0l.8.8-1.4.6-.2-1.7 5 .3c-.6.1-1.5.1-1.8.5s0 1.4 0 2h.3l.7-2 .5.2v2zM17.8 116.8l1-1.3a14.8 14.8 0 0 0 1.6 2.7c1.3 1.7 1.3 2.5.1 4.4a7.8 7.8 0 0 0-.2 2.2H20zm64.6-61l8.7 1 .2.6-2.4.8c-.7.1-1.5-.1-2.3 0-2.7.4-3 .2-4.2-2.5zM30 217.4V220.7H27v.3l.6.4c-.7.8-1.4 1.7-.6 2.8-.7-.5-1-1.4-.8-2s0-2-1.3-2-1.7-.6-1.4-1.8l.4-.8.3 2h.2c.2-.5.2-1 .4-1.3a3.4 3.4 0 0 1 .9-.8.9.9 0 0 0-.3.5 3.3 3.3 0 0 0-.1 1.4c.2.2 1 .5 1.2.3a1.4 1.4 0 0 0 .8-1.1 9.5 9.5 0 0 0 .4-1.8l1.6 1c-2-.3-1.4 1-1.6 2 2 .2 2.3-.3 1.5-2.2l1-.7zM11.3 113.8l2 9c-2.5-4-3.3-8-2-9z"/><path class="A" d="M134.8 269.3l-4-.2 1.8-3.6zM30 217.4a1.5 1.5 0 0 1 .9-.1 23.3 23.3 0 0 1 2.8 1.7l-.4 3-1.5-.3-.7-1h2v-2h-.4l-.7 1.8-.3-2h-.5v2.3l-1-.2c.1-.6.3-1 .4-1.7s.3-1.4-.7-1.5z"/><path d="M72 289.5l-2.5 1.4c-.1-1.9-.3-3.3.9-4.3l1.3 1.3.2 1.7zm-63.9-19H6.7c-.9-1.1.5-2 .2-3.1l1.8-.4zm70.3 18l1.6.3c-.3 2.2-1.2 3.4-2.6 3.5a4.7 4.7 0 0 0 .4-3.5zm-13.1 0a7.5 7.5 0 0 1 .7-1.2l.8-.7c.2.3.6.5.6.8s.3 1.8.5 2.7-1.7-2.2-2.3 0c-1-.2-1-.3-.3-1.6z"/><path class="A" d="M243.7 26.8l-6.3-1 .3-1.8h.2l.3 1.4.6-1 .5 1 .3-1c.4 1.6 1 2 2 .7l1.8 1.2a12.8 12.8 0 0 1-.2-1.7h.3l.3 2z"/><path d="M27 224.2c-.8-1-.1-2 .6-2.8l1.4.3.3 1.5-1.8.2 1 1zm.7-7a9.5 9.5 0 0 1-.4 1.8 1.4 1.4 0 0 1-.8 1.1c-.3.2-1-.1-1.2-.3a3.3 3.3 0 0 1 .1-1.4.9.9 0 0 1 .3-.5z"/><path class="A" d="M166.8 19.3c-1 .6-1.4 1.2-1.8 1s-1-.6-1-1a1 1 0 0 1 1.2-1.3c.4.1.8.6 1.7 1.3zm-12.5 7.2c-1 .5-1.3 1-1.8 1s-1.3-.5-1-1.3.7-1.2 1-1.2 1 .7 1.8 1.4zM81 58.4c-1 .7-1.3 1.3-1.8 1.3s-1-.8-1-1a2 2 0 0 1 1.1-1.3c.3-.1.8.5 1.7 1zm23 .5c-1 .5-1.4 1-1.8 1a1.8 1.8 0 0 1-1-1.2.9.9 0 0 1 1.1-1.2c.5 0 1 .6 1.7 1.3zM45.3 225.6c-.8.6-1.2 1-1.7 1.2s-1.3-.4-1-1.2.6-1.2 1-1.2 1 .6 1.8 1.2zM37.3 72c-1 .7-1.3 1.3-1.8 1.2s-1-.7-1-1a2 2 0 0 1 1.1-1.3c.3-.2.8.5 1.7 1zm4.2 130.3a8.7 8.7 0 0 1-1.7 1.1c-1 .2-1.4-.4-1.2-1.2s.7-1.2 1-1.2 1 .6 1.8 1.3zm-16-62.4c-1 .6-1.4 1.2-1.8 1.2a1.8 1.8 0 0 1-1-1.2c-.3-1 .3-1.4 1-1.3s1 .6 1.7 1.3zM28 160c1-.7 1.3-1.3 1.8-1.3s1 .7 1 1.2-.2 1.4-1 1.2-1-.5-1.7-1zm66.8-99.3c1-.7 1.4-1.3 1.8-1.3s1 .7 1 1.2-.2 1.4-1 1.2a6.5 6.5 0 0 1-1.8-1.1zM37.6 225.5c-1 .7-1.3 1.3-1.8 1.2a1.7 1.7 0 0 1-1-1 2 2 0 0 1 1.1-1.3c.3-.2.8.5 1.7 1zm4.2 5c-1 .6-1.4 1.2-1.8 1.2a2.2 2.2 0 0 1-1.1-1.2c-.2-.8.4-1.3 1.2-1.2s.8.6 1.7 1.2zm-8.4 5c1-.6 1.4-1 2-1a1 1 0 0 1 1 1.4c-.2.4-.8 1-1 1s-1-.6-1.8-1.3zm-2 8c1-.7 1.4-1.3 1.8-1.3s1 .7 1 1.2-.2 1.5-1.2 1.3-.8-.6-1.7-1.2zm-5.8 7a6.4 6.4 0 0 1-1.7 1.1c-1 .2-1.3-.4-1-1.2s.7-1.2 1-1.2 1 .6 1.7 1.3zm5.8 11c-1 .6-1.3 1.2-1.8 1.2a1.7 1.7 0 0 1-1-1 2.2 2.2 0 0 1 1.1-1.4c.3-.1.8.6 1.7 1.2zm103.2 1.8c.8-.7 1.3-1.3 1.7-1.3s1 .6 1 1-.1 1.5-1 1.3a8.7 8.7 0 0 1-1.7-1.1zM51 232c-.5.3-1 1-1.4 1a1.7 1.7 0 0 1-1-1.2c0-.5.6-1.2 1-1.2s1 .6 1.4 1zm15 47.8a8.8 8.8 0 0 1-1.8 1c-1 .1-1.3-.6-1-1.3s.7-1.2 1-1 .8.6 1.7 1.4zm63-19.5c.8-.7 1.2-1.2 1.7-1.3s1.4.4 1 1.3a1.8 1.8 0 0 1-1 1.2c-.4 0-1-.6-1.8-1.2zM45.2 66l.2-1.4h1l-1 1.7h-2v-2L45 64l-.3 2zm198.5-39.3l1.5-.3-.2-1.4h.3l.3 1.4.7-.7.4 1 1.6-1 .2.4-1 .4 1.8.7v-1.5h.2v1.8l-5.8-.8zM40.5 221.4c-.8.6-1.4 1.3-1.6 1.2a2.4 2.4 0 0 1-1.2-1.4c-.1-.2.7-1 1-1s1 .6 1.8 1.2zm-6-14c.8-.6 1.2-1.2 1.7-1.3s1 .8 1 1a4.7 4.7 0 0 1-1.3 1.5c-.1.1-.7-.5-1.4-1zm24.4 69c.8-.6 1.2-1 1.6-1.2s.8.6 1.2 1l-1.4 1.6zM8 270.5l.6-3.5 3 .2-1 1c-.2.2-.4.5-.8.5v-1.4h-.5l-.3 2.3.4.2zm54.3-213h2l.2-1.5h1.7l-1.2 2-2.8-.4z"/><path d="M32.2 166h.3l1.3.6-1 1.2 1 .2-.8.6-1.3-1.5z"/><path class="A" d="M28.6 224.5l-1-1 1.8-.2-.3-1.5 2-.2a2.3 2.3 0 0 0-.9 3.4zm49.8 64l-.6.3a4.7 4.7 0 0 1-.4 3.5l-1-1.2c1.4-.8.6-2 .3-3zm-54.8-223l2 .2-.8 1.7.3.2 1-1v1.3l-2.6-.3V67l1 .3.2-1.2-1-.8zm19.2 155l-1.5-2.5c1 .2 1.8.2 2 .5a6.6 6.6 0 0 1 .1 2z"/><path class="A" d="M23.6 65.3c-.1.2-.4.3-.4.5s-1 1.8-2.2 1.6V66l1 1.2.3-.2-.3-.8c.6-.2.5-1.7 1.6-1zM20.4 220c1.4 0 2-.4 2-2s1-.6 1.3-1l-1.5 3zM8.7 267l-1.8.4c.3 1-1 2-.2 3l-1-.7 1-3zm4.7 3l-2.6.3 1-3 .6 2-1 .6 2.2.3zM37.8 66.8L36 68 34.8 67l3-.4zm.6 143.4c.4-.3.7-1 1-1s1 .3 1.4.5v.5l-2 .3zm-21.7 6.2H18l1 .4-1.4 2.3v-2.7l-.8.4z"/><path d="M49.4 197.7l-1 .5c.6.2 1 .6 1.4.5a3.8 3.8 0 0 1 4.7.7c1.4 1.5 1.2 3 .7 4.7a37.5 37.5 0 0 1-1.7 4.7 9.3 9.3 0 0 1-1.9 2.2h-.2l-3.5-7.6a5.3 5.3 0 0 1 0-2.5l.1-2.3c0-.7.1-1 .3-1h1zm.5 4.4c.8.6 1.2 1 1.6 1.2s1.2-.3 1.2-1.2-.4-1.3-1.2-1.2-.8.6-1.6 1.2zM235.5 23.7l.2 1c-.6.3-1.3.4-1.5.8l-3.4 6.8h-.2a88.6 88.6 0 0 1-4-8.2c-.6-1.6 1-4 2.7-4.6a4.2 4.2 0 0 1 5.1 2.7 11 11 0 0 0 .9 1.4zm-6.7-.1a6.5 6.5 0 0 0 1.8 1.1 1 1 0 0 0 1.1-1.3c-.2-.5-.8-1.2-1-1.2s-1 .7-1.8 1.4zM73 241l-3.8-8a4.1 4.1 0 0 1 1.1-4.4 4.2 4.2 0 0 1 4.9-.2 3.5 3.5 0 0 1 1.6 4.4c-.4 1.2-1.3 2.4-1.3 3.5S73.8 239 73 241zm1.8-9.5c-1-.6-1.5-1.2-1.7-1a2 2 0 0 0-1.1 1.3c-.1.3.6 1 1 1s1-.6 1.8-1.3zm16.2-92c-.4-.1-1.6.4-.7-1.2s-.2-.8-.3-1l-3-7a3.3 3.3 0 0 1 1.9-4.4 5.5 5.5 0 0 1 4 .1 3.2 3.2 0 0 1 1.6 4.4l-2.4 5.7c-.8 2-.6 2-1 3.4zm-2-10.2c.8.6 1.2 1 1.6 1.2s1.2-.3 1.2-1.2-.4-1.3-1.2-1.2-.8.6-1.6 1.2zM66.5 232.2l-3.8-8.6c-1-3 .7-3.4 2.3-4.2a3.9 3.9 0 0 1 3.9.3c1.7 1.3 2.2 2.5 1.6 4.4s-1 2.3-1.4 3.5a19.5 19.5 0 0 1-.6 2.3 16.9 16.9 0 0 1-2 2.3zm2-9.2c-1-.7-1.5-1.3-1.7-1.2a1.8 1.8 0 0 0-1.1 1.3c-.1.3.6 1 1 1s1-.6 1.8-1.2zm60.6-10.8l-3.6-8c-1-2.6.1-3.2 1.8-4.4a4.5 4.5 0 0 1 4.2 0c1.6 1.2 2.3 2.7 1.7 4.4l-2.8 7c-.1.4-.7.6-1.3 1zm2-9c-.8-.7-1.2-1.2-1.7-1.3s-1.4.5-1 1.3a1.8 1.8 0 0 0 1 1.2c.5 0 1-.6 1.8-1.2zM22.3 102.3c-.5-2 .2-3.8.7-5.7a22.1 22.1 0 0 0 .5-2.5c.2-.5.6-1.3 1-1.5a8.1 8.1 0 0 0 4.1-3.2 1 1 0 0 1 .5-.4h.6a1.6 1.6 0 0 1-.7 2.1 9.9 9.9 0 0 0-1.7 2.5c1.4-.3 2.3.1 2.4 1.7l-2.6 1.5.5.8-.4-1a40 40 0 0 0-3.1 2.7 20.1 20.1 0 0 0-1.4 2.5c-.1.2-.4.3-.6.4zm74.4 81.3l1-3-2-.5v-.4c.4-.2 1-.5 1.3-.4s2 .1 2.7-1a1.1 1.1 0 0 1 1 0c2.8 2 3.7 1.8 5.2-1.3 0 0 .1 0-.2.3l2.7.3a36.4 36.4 0 0 0-3.5 2.4c-.3.2-.2 1-.1 1.4l1 5.7c0 .3-.5.6-1 .7 1-1.8 1-1.8-1.2-3.2a5.8 5.8 0 0 0 .5-2.1c0-.3-.7-.7-1.2-.8a2.3 2.3 0 0 0-.7.9l-1 4.2c-.5 1.3-1 .3-1.5.5l1.4-6a1 1 0 0 0-.4-1c-.2-.1-1 .2-1 .2-.1 1.8-1.7 2.2-3 3zm-24 2.5c-1.3-.7-1.3-.7-2 1s-.6.6-.8 1-.3.8-.6 1.4h1.5a2 2 0 0 1 1.1.2c.1 0 .1.6 0 .7a2.1 2.1 0 0 1-1.1.4l-1-.3c-1 2.2.6 4.8-1.3 6.7l-1-2 .7-1c1.2-1.6.3-3.4.7-5a46.1 46.1 0 0 1 1.7-4.7l-1-1.8.8.2c1.6.7 3.2 1.4 3.7-1.2 0-.2.5-.2.8-.3s.2.6.2.8-.5.5-.7.7-1 2.2-1.7 3.3zm61.8 42.5l2-.2 3-2 .5.3a3.9 3.9 0 0 1-.6 1.3c-.8.7-1.8 1-2.6 1.8s-1.5 1.3-.4 2.4l-2 1.6-.3-2.2c-1.2 1.5-1 1.5 0 2.6a3.1 3.1 0 0 1 .5 1l-2 1c-1.5-2.3-1-4.5 1.2-6 .4-.2.4-1 .8-1.8zm-93.2 40l.2-1.5c-.5 1-1.8 1.4-.4 2.4s0 1 0 1.4l-3.8-.8L39 269c-1-.8-1.4-2.5-.8-3.3s3.5-.8 4.2.1.5 1.7-1 3zm115.5-168l.7 3.3c.2 1-1 1.8-2 2a30.8 30.8 0 0 1-2.4-2.7c-.7-1 .8-1 1-1.6s1.2-.1.7-1 .5-.3.8-.3zm1 42a10.3 10.3 0 0 1-.1 1.9 2.1 2.1 0 0 1-.4 1.1l-.3-1a21.4 21.4 0 0 0-1-2.2 2.7 2.7 0 0 0-2.6-1.2c-1 0-2-.5-3 .2h-.5c-.7-1.3-1.4-.4-2.3.1-.2-1.4 1.8-2.8-.2-4l1.5.2v2.2c2.8-.7 7.3 1.2 8.8 2.6zm-34.6 47.3c.3-1-.3-1.3-1.4-1.4a12.1 12.1 0 0 1-3.7-1.1c-.1-.1-.2-1-.1-1a4.4 4.4 0 0 1 2-.3 5.3 5.3 0 0 1 2 .7l1.2.6a39.8 39.8 0 0 1 3.8 2.4c-.1 0-.4.4-.4.4zM34 257.5l2.4-2-.2-.4c.8 0 1.7-.8 2.2.6 1 3 .4 3.4-2 4.2l1-1.7-2 .5zm96.5-35.2l2.7-3.4c.8-1 2.3-.5 3 1.2l-3.7 1.5c1 1 1.8 2-.1 3 .5-1.4.7-2.6-1.8-2.3zM33 274l3-1.7 2.8 3.8-3 .3v-.4l.8-.6v-.4l-1.8.7zm63.5-103.3c3 1.6 5.8.8 8.4-1.5a1.7 1.7 0 0 1-1.2 2.1l-4.5 1.5V174.5zm35.8 76.2c.5-1.8-.3-4 2.2-5l-.6 5.8zm-102-96l.5-2.6 2.6 2 .3-.3-.5-.3v-.3c.4.1 1 0 1.2.2s.2 1 .1 1.4-1 .5-1 .4-2 0-3-.6zm103.7 43.7c-1.8.1-3 .3-3.4 2l-.6-5zm-81-11.6l-1.4.3a4.5 4.5 0 0 1-.3-1.6l1.3-.2c.3 0 .7.3.8.2s1.4 0 2 .8l-1 .3.7.6-.3.4zm-7.8-3.2a4.5 4.5 0 0 1 3.9 1.5c.2.3-.1 1-.1 1.6h-.5V181l-1 1.6-.3-.2.2-2-.3-.2-1.3 2zm72.2 54l-.5 6.7-1-5zM43.8 271l.4 2.6-3-2 3.7-2.7v1.6zm98.8-32.2l2-.8c.1 0 .4.6.6 1l-1 .7.3.2h-3c1.3-.1-1.5-2.3 1-2.2zm3.5-98.2l-2-2.2c.3-.5 2-.1 1.2-1.4s.6-.4.7-.3a10.1 10.1 0 0 1 1.3 1.6c.1.2-.2.6-.3 1zm-7 70.6l.2 3H137l1-3c.4-1 1 0 1.2-.1zm4.2-29l2.4.8-1 1 .6-1h.3l-.4 3.3h-.5c-.3-1.3-2.5-1.6-1.4-4zm86.7-110a9.6 9.6 0 0 1-3-.1c-.5-.2-.7-1-1-1.7l.5-.5c.4.3 1 .5 1.3 1s.3.6 1 0h.5a10.2 10.2 0 0 1 .8 1.4zm-65-33.5l-2-.6-.2-1-.8 1.4-.5-1.2-.7 1v-2l2.6.8c.2.1.4.2.5.1s1.6-.2 1.2 1.4zm-95 99.4c-.8-1-2.4.7-2.2-1.3l-.3 1h-.5l.3-2.4h.4l.8 1.4 1.2-1zm-28.5 28.3l-.4 3a6.3 6.3 0 0 1-2-1c-.4-.5-.1-1 2.4-2zm23.5 18l.4-.7c.2-1.3.7-1.4 2-.7l-1 1.2 1 .8c-.7.3-1.2.7-1.6.6s-.6-.8-.8-1.2zm72.4-60.2l.6 1.7 1-2 .8 2.3.8-1.8h.4l-1 2.7h-.4l-.7-2-.8 1.6h-.4l-.8-2.8zM135 236l1 1.5.8-1v3.3l-1.7-2-.4 1.2h-.5l.4-2.8zm75-89l-1 .8-.6-2.5h.4l.4 1.2 1-1.2.5 1 .8-1h.3l-.7 2.6zm-63.5 91.5l-.7 1.7h-.4l.2-2.3c1.2.6 2.8-.5 3.2 1.4 0 .3-.3.7-.4 1l-.5-.2V239h-.2l-.7 1.4zM44.5 167c.5.7 1.2 1.2 1 1.5s-.7 1-1 1.5-1-.8-1-1.2.5-1 1-1.8zM145 213c-.8.5-1.4 1-1.7 1s-.8-.7-1.2-1 .8-1 1.2-1 1 .6 1.7 1.2z"/><path d="M116.6 143.8c2.2.6 2.5 2.5 3.6 3.8-1.2-1-3.3-1.4-3.6-3.8zm25.7 68.7c-.8.7-1.3 1.3-1.7 1.3s-1-.8-1-1.3.7-1 1.2-1 .7.5 1.5 1zm-96.8-28c0 1 2.6.8 1.5 2.3s-1.2.4-2 .7zm2 3.4l.2-3.4c1 1 2.3 1.2 1.7 2.5s-1 .5-2 1zm92.5 50.4c-.7.6-1.2 1.3-1.6 1.3a2.2 2.2 0 0 1-1.1-1.2c0-.4.6-1.2 1-1.2s1 .6 1.7 1zm-82-54l1-2.4c.4.2 1 .3 1.2.7s-1 1.4-1.8 2zm75.8 28.3l-1.6-.5-.2.6h-.3v-3l.7 1 1.6-.7-1 1.4 1 1.4zm0 .1l.8-1.3-.6-.6h1.4c.2.7.6 1.6.3 2s-1.3.4-2-.1zM160 87l-3-2.7 1.4-.4v.3l2 1.2zm16.6 84l-.5-.6c-1.4 1-2.6-.6-4 .1v-.6a11.4 11.4 0 0 0 3.2 0c1.7-.7 1.7 1.3 2.7 1.6l-1.7-.2zM37 185.6l1 1-2-.3.3-2.4h2l-1 .7.6.5zm-12.3-35.8c-.6-1.5.3-2 2-2l-.4 2.3zm12 16.7c1.4.2 1.3 1.2.7 2.3h-1c-.3-.1-.7-.2-.8-.4s.1-.7.2-1a11.5 11.5 0 0 0 .8-.9zm61.6 40l-2.7.2c.5-1.8 1.7-1.2 2.4-1s1 1.2 1.6 1.8l-.6.3zm120.2 15c1.4-.3 2 0 2 1s-.7.7-1 1a20.9 20.9 0 0 1-1-2.1zm-80.8-41c-.8.5-1.4 1-1.6 1a1.6 1.6 0 0 1-.8-1.2c-.1-.3.6-1 .7-1zm1.4 15.5c3-.6 2.5 2.5 4.2 2.8l-.4.4zm-2.8-64.3l1.4-2.7 1 3zm38.4-99c.3-.4.5-1 .8-1s1.8-.4 2.3.7a.8.8 0 0 1-.1.7.8.8 0 0 1-.8.2 4.9 4.9 0 0 1-1.3-1.2l-.4 1zm41 113.2l1.3 2-1.7.7V146zm-106.3 93.3l3.6-2c0 .7.1 1.3-.1 1.3l-3.3 1.2zm49.8-62c.5.8 1 1.3 1 1.7s-.6.7-1 1-.8-.7-1-1.2.4-.7.8-1.5zm-9.6 37l.6.3-.4.4a10 10 0 0 1-1.4-1.5 2.7 2.7 0 0 1 .9-1c.4 0 1 .5 1.3.8zm-9.8-3l-2.5-1 .2-.6 1.3.4v-1.2l1.7.8zm84 11.3l-1 1.4-.6-1.8h-.4l-.3 1.5h-.5c.1-.6.2-1.7.4-1.8s2-.6 2.4.8zM50.5 185.6c.3.2 1 .3 1 .6a1.7 1.7 0 0 1-.2 1.4c-.2.3-.8.3-1.2.2s-.2-.7-.2-1zm170-38l-.7 1.5h-.3v-1.6c2-1 2.4.2 2.2 2zm-65 30.2c1.8-.5 3-.4 2 2l-.8-1.8-1 1.6zM172 30.4l1 2h-2v-1.8h1zM47 199.5c-.4-.2-1.2-.4-1.2-.6a12.7 12.7 0 0 1 .6-1.8l1.3.7-1 1 .5.3zm93.8-20c.5.7 1 1 1 1.5s-.6.6-1 1-1-.6-1-1 .4-.7.8-1.5zm-100 6.2c.6-1 1.3-1.3 2 0l-1 .6.8.4-.4.4c-1 0-1.7-.3-1.5-1.5z"/><path d="M209.7 62.7h-2V61c1.6-.7 1.6.6 2 1.8zm-133 191l-.6-2c-.8-.3-1-1 .3-2l.8 3.8zM148.5 132l-.7-.2.3-.5c.4.3 1 .6 1.2 1a1.8 1.8 0 0 1-.6 1.3 2.5 2.5 0 0 1-1.4-.4zM56 183.3l1-.2-.2-2H58v.5h-.7c-1 1.7-1 1.7-1.3 1.6zm-10.7 3c-.7.4-1 .8-1.3.7a2.2 2.2 0 0 1-1.1-.5l1-1.4zm-12 9c-.4.4-1 .6-1.2 1s.5.8 1 1.6-1.6-.4-1.7-.7a2.2 2.2 0 0 1 .2-1.8c.3-.4 1-.4 1.7-.6zm1.6 3a5.3 5.3 0 0 1-1.2-1.4c-.1-.2.5-.8.8-1s.7.4 1 .5l-.7 1 .5.3zM149.4 127l-1.5.3 1.2.8-.3.4a4.7 4.7 0 0 1-1.4-1.4c-.1-.2.4-1.2.6-1.2a5.6 5.6 0 0 1 1.6.7zm-61 132.3a17.7 17.7 0 0 1 0-2.3c0-.2.4-.4.6-.7s.7.5.6.7a10.3 10.3 0 0 1-.7 2.5zm64-127.3c2-.1 1.3 1.2 1.6 2.4l-2.2-.8v-.5l1.4-.4zM46 170l.3-2.3c.7.2 1.5.1 1.7.5s.1 1.2.2 1.8h-.4l-.5-2-1 2zm103 70.4l1.3-2 .5.3v2h-1.4zm2.5-1.4c2-.2 2.2.1 1.5 2.3l-.5-2-.7 1.7h-.3zM40.6 185.5l-1 1.4-.3-2-.8 1.6-.4-.2.4-1.8 2 1zM161.3 151l-3.3-2.6c1.3-.5 3.2 1 3.3 2.6zm-75-10.5a5.5 5.5 0 0 0-.2-1.2c0-.2-.1-.5-.2-1.2l-1 1.8c-.7-2-.7-2 2.6-1.5l-.7.8zm-57 9c-.5.6-.7 1-1 1.3s-.7-.2-1-.4 0-.4-.1-.6.4-1 1-1 .8.4 1.4.8zm201.6-76l.3-2 .4-.2c.4.6.7 1.3 1.3 2.4zM88.8 138a12.1 12.1 0 0 1 .5 1.8 1.9 1.9 0 0 1-1.1.4c-.2 0-.5-.3-.8-.5l.6-.6c.1-.3.1-.6.2-.8zm49 50.2l2.6 2.4c-1.2.7-1.8.1-2.6-2.4zm-78.5 2c3-1 2 1.3 2.3 2.6l-.8-2zm95-13c.4.5 1 .8 1 1a4.2 4.2 0 0 1-.8 1.2 3.8 3.8 0 0 1-1-1.2c-.1-.1.4-.6 1-1zm-16 3.3l-.4 1.2h-.4v-1.7c2-.3 2.3 0 1.6 2.2l-.4-1.7zm12.8-1.3l-2.2-.5 1.3-1.8c1.3-.1.6 1.2 1 2.3zm-89 29.6c1.6.1 2.4-1.5 3.7-.7-1.2-.2-1.6 2.6-3.7.7zM79 138.8h-2.5l1-2.2zm145 83.7c.7-.5 1.4-1 2 .1s-.5.7-.8 1.2-.8.1-1.2-1.4zm-142.5-83V138H81l-.7 1.2H80l.3-2c2 1 2 1 1 2.3zm-10-1.6l1 .3c-.7.1-1 .2-1 .1l-1-1 1.2-.8c.1-.1.5.4.7.7zm86-6.7l-1-2.7a1.4 1.4 0 0 1 .1-.9l1.2.2-.2 3.4zm-83 7.2l.5-2 1.3 1-.2 1.5zm142.5 82h1l.5.3-1 .6 1.2.6-1.6 1zm-151.7-36l-1-1-.8 1.3v-2c1.8-.4 2-.3 1.8 1.7zm16.7-45l1.4-1.6a1.3 1.3 0 0 1 .8.6 1.3 1.3 0 0 1-.3 1.1 6.5 6.5 0 0 1-1.9-.1zm52.2 41.3l.3.4-.3.3-1-1.4c.3-.2.6-.6 1-.7s.6.4 1 .7zm19.3-52l-.6-1.8h-.4l-.3 1.6h-.4l-.2-2.2c1 .4 1.7.5 2 1s.1 1 .1 1.4zM162 180l-.3-2-.7 1.7h-.3l-.2-2c.8.2 1.5.2 2 .6s0 1-.1 1.6zM72 289.6l1.4-.6-.8-.8c.7 0 1.4-.1 1.4 0a18.3 18.3 0 0 1 .6 2.5c-1.4.2-2.3.2-2.5-1.2zm5-1.4c.3 1 1 2-.3 3v-2l-.5-.2-.7 2H75c0-.7-.3-1.6 0-2s1.2-.3 1.8-.4zm-47.6-70c.8 2 .5 2.4-1.5 2.2.2-1-.3-2.4 1.6-2zm2 2.7v-2.3h.4l.3 2 .7-1.8h.3v2h-1.7z"/><path class="A" d="M50 202c.8-.6 1.2-1.2 1.6-1.2s1.3.3 1.2 1.2-.3 1.4-1.2 1.2-.8-.6-1.6-1.2zm179-178.5c1-.7 1.3-1.3 1.8-1.4s1 .7 1 1.2a1 1 0 0 1-1.1 1.3 6.5 6.5 0 0 1-1.8-1.1zm-154 208c-1 .7-1.3 1.3-1.8 1.3s-1-.8-1-1a2 2 0 0 1 1.1-1.3c.2-.1.8.5 1.7 1zm14.2-102c.8-.6 1.2-1.2 1.6-1.2s1.3.3 1.2 1.2-.3 1.4-1.2 1.2-.8-.6-1.6-1.2zM68.5 223c-1 .6-1.4 1.2-1.8 1.2s-1-.8-1-1a1.8 1.8 0 0 1 1.1-1.3c.2-.1.8.5 1.7 1.2zm62.6-20c-1 .6-1.3 1.2-1.8 1.2a1.8 1.8 0 0 1-1-1.2c-.3-.8.4-1.3 1-1.3s1 .6 1.7 1.3z"/></svg>