<svg xmlns="http://www.w3.org/2000/svg" width="250" height="300" viewBox="0 0 250 299.8"><style><![CDATA[.A{fill:#fff}]]></style><path class="A" d="M0 269V0h250v25c-4.7.1-9.7 1-9.2-6.5.1-1-2-2.8-3.3-3-6.7-1.3-11.2-5.6-16-10-3.2-2.7-7.3-4.2-11.5-4.3-6 .2-12 1.5-17.6 4-4.6 2-8.2 6-12.2 9.3-.2.1-.1.6-.2 1l-1.6 5.6c-7-2.3-13-2-19.6 2.3s-11.4 8-8.3 15.3c-3.4 2.8-6 5-8.4 7s-4.4 6.2-7 6.7c-7 1.2-14.4 1-21.6 1.3-2 .2-3.8.5-5.7 1-1 .2-2 1.3-3 1.2L81.4 52c-1.3-.2-3.5.3-4 1-2 3.8-5 3.2-8.2 2.8s-6.3-1.3-9.2-.8-4 2.7-5 4.6 2.3 2.8 4.2 5a41 41 0 0 1-7.2.4c-4-.3-9-2.7-12-1-5.4 3-10 2-15.2 1-1.5-.2-4 1.7-5 3.3s.1 4.4 3 5l6 1c-.5 2.4-1.7 4.6-1.2 6.4C29.4 85 28 88 25 91s-7.2 9.4-3.6 16c1.7 3 2 7 2.8 9.6l-6.7-.6v-.3l-6.2-1.6c-.6 2.2-2 4.7-1.4 6.5l6.4 15.4c2.8 5.6 6.8 10.7 4.7 17.6-.3 1.5-.2 3 .4 4.4C23 163 24 168 27 172s2.7 10.6 1.8 16c-.3 2-.4 4-.3 6l4 23-7 .3c-2.5 0-3-.8-4.3-.5s-4.6 1-5.3 2.4c-3 5.3-1.3 7 5.8 7 1.5 7 8 3 11.8 5.4L29.8 251c-11.8-1.4-13.4 7-13.7 16-3-.2-5.6.3-7.6-.6-3.6-1.5-6-.4-8.5 2.3z"/><path d="M0 269c2.4-2.7 5-3.8 8.6-2.3 2 1 4.6.4 7.6.6.3-9.2 2-17.5 13.7-16l3.7-19.4c-3.7-2.3-10.3 1.6-11.8-5.4-7 .1-8.7-1.6-5.8-7 .7-1.4 3.4-2 5.3-2.4s3 .5 4.3.5l7-.3c-1.4-8-3-15.5-4-23-.1-2 0-4 .3-6 1-5.5 2-10.7-1.8-16s-4-9.2-5.5-14c-.6-1.4-.7-3-.4-4.4 2-7-2-12-4.7-17.6L10 120.7c-.6-1.8.8-4.3 1.4-6.5l6.2 2 6.7.6c-.7-2.6-1-6.5-2.8-9.6-3.6-6.7-.5-11.6 3.6-16s4.4-6 3.2-10.3c-.5-1.8.7-4 1.2-6.4l-6-1c-3-.5-4.3-2.5-3-5s3.4-3.5 5-3.3c5.2.8 9.8 2 15.2-1 2.8-1.6 7.8.8 12 1a41 41 0 0 0 7.2-.4c-2-2-4.5-4.2-4.2-5s3-4.3 5-4.6 6 .4 9.2.8 6.2 1 8.2-2.8c.4-.8 2.6-1.3 4-1 7.8 1 15.5 2.4 23.3 3.6 1 .1 2-1 3-1.2l5.7-1c7.2-.4 14.5-.1 21.6-1.3 2.6-.5 4.6-4.5 7-6.7l8.4-7c-3-7.2 2-11 8.3-15.3s12.7-4.6 19.6-2.3l1.6-5.6c.1-.3 0-.8.2-1 4-3.2 7.6-7.4 12.2-9.3 5.6-2.4 11.5-3.7 17.6-4 4.2.1 8.3 1.6 11.5 4.3 5 4.3 9.4 8.6 16 10 1.3.2 3.4 2 3.3 3-.5 7.5 4.5 6.6 9.2 6.5v8h-8v5q3.2 85.5 6.4 171L250 243c-2.2 1.4-4.3 3-6.6 4-11 4.6-22.6 8.4-34.8 5.8-4.3-1.2-9-.5-12.6 2-5 3-10.6 6-16.3 6.8s-6 3-8 6.7a30 30 0 0 1-8.3 10.5c-3.5 2.5-6.6 1.2-10 1.2s-4.4-1.2-6.7-1.3-6.8.6-10 0c-5-.8-9.6-3-14.5-3.6-5.7-.5-11.4-.4-17 .2-2.4.2-5.7 1.5-6.6 3.3-3 6-4 6.8-11.2 6.2-2.5-.3-6-.6-6.6 3.8 4-.1 5.5 2 4.3 5.3s-2.5 5.6-6.5 5l-32.7-6.3a40 40 0 0 1-14.6-8.2c-4.4-3.5-5-6.3-7.3-9.6-2.5 1.3-5.3 2-8.2 2-5.2-.3-10.4-1-15.6-1.6zm52.3-66l-6.5-.4 1 7.8 1.2-1.7c.6 1.4 1 3 1.3 4.4.1 4.6 1 8.7 4.5 12 .5.7.8 1.5.8 2.3l2 14h2l.2 1-6.5 2.7-2.7-3.6c-3.8 3.5-3.8 3.5-2.2 8.6s.3 6-4.7 5.4l-2 7.7-1.5-1.8a25 25 0 0 0-2 5.4c-.1.6 1.6 2 2.6 2l7.5-.3c-.8 8.6 4.3 12 11 14.2 1-6.7 1.5-6.8 16-4.2l-4.8 1.2 2.7 8C75 285.7 77 284 79 283s5.4-3 7.5-2.5c4.5 1.3 6.2-1 8.3-4s6.3-7 12-5c1.5.6 3.5.4 5.2.3l19.8-1c-.6-1-2-2.5-2.3-4.3s-.1-4 1-4.7 3.4-1 5.2-1 1.8 1.6 2.8 1.8c5 .8 6 4 4.6 9l14 5.3c.1-.1.7-1 1.4-1 6.3-.1 8.5-4.8 10.4-9.5s4-7.3 9.6-8.5 11.5-4.5 17-7.4 7.7-3.5 12.2-1.5c1.5.6 3.2.8 4.8.6l20.5-2.5c12.8-3.2 13.2-3.8 12.7-17l-5-123.4-9.2-2.8c2.4-1.2 4-1.7 5-2.7s4-4 4-6L238 39c-.1-4.4-1.6-5-4.8-2.6-5.2-8.6-5.7-9.6-3.2-11.3s4.8-1 7.7-1.7c.4-4.5 1.4-7-10.2-4C225.8 11 219 8 213 4.5c-1.6 1.2-3.6 3.4-4.2 3-4.3-2.4-6 .6-7.6 2.5l-9.5-1 4 6.6-5.5-1.2.1 2.3-7.3 1c-.2 0-.3 1.4-.4 2l3.2-.2-3 7.6-9.6-3.2-1.2 1 4 5.2-1 3.2 7.2 2c-9 1.7-16-1-18.8-10.8l-2 .5-3 10 3.5.3 1 1.4-4 1.2 8.5 2.4c-.8 1.3-1.5 1.5-2 1.4-9-3-15.7.4-20.7 7.4-3 4.2-7.6 7-12.7 7.6-6.3 1-12.5 2.7-19 .3-1.4-.5-3.3.4-4 .6v10l3 2-13 3.5c-.5-4-8-7.6-.3-13.5-7.8 2-14.6 3.7-16 13.5l-3.4-6.5c-2.8-5.5-4.4-5.6-10.5-3.5s-11 8.5-18.7 7c-.4-.1-1 1-1.6 1.7L38.3 85l-4.7-8.3h-1.2L31 98c-2 2.7-5.8 5.5-5.6 8a50 50 0 0 0 5.1 15.6c1.8 4 .4 8.8-3.2 11.3l-2.3-5c1.2 4-.1 6.6-4.5 7.6l2.2 4.2c2.4 0 4.7-.7 6 .1 3.4 2.4 3.2 5.8 1.5 8.3l6.6-.4.4 3.2-3.5-2.4-1.2 2c1 .6 2.2 1 3.3 1.5 1.8.5 3.7.8 5.5 1.2l-.3 1.5-17.2-1.4c1.5 3.4 2.8 6.2 4.2 9.2 3.3-2 4-7.3 8.6-5s3 4.7 2.2 6.8c2 6 7.8 5.8 12 8h-20c6 8.8-1 17.5 2.2 26L48 200c1.5.2 2.7 2 4 3zM20 270.2l7.4 2.2-4.8-5.4c.5-2.7 3.6-5.6 1-8.3h-2zm11.5-69.5L36 208l5.3-6.3z"/><path class="A" d="M0 275l15.6 1.6c3 .1 5.7-.6 8.2-2 2.4 3.3 4.2 7.2 7.3 9.6a46 46 0 0 0 14.6 8.2c10.7 2.8 21.8 4.3 32.7 6.3 4 .7 5.5-2 6.5-5s-.3-5.4-4.3-5.3c.7-4.4 4-4 6.6-3.8 7.2.6 8-.1 11.2-6.2 1-1.8 4.2-3 6.6-3.3a88 88 0 0 1 17-.2c5 .6 9.6 2.8 14.5 3.6 3.3.6 6.8-.2 10 0s4.5 1.3 6.7 1.3 7.7.5 10-1.2 6.3-6.6 8.3-10.5 3-6 8-6.7a51 51 0 0 0 16.3-6.8c3.7-2.4 8.3-3 12.6-2 12.2 2.6 23.7-1.2 34.8-5.8 2.3-1 4.4-2.7 6.6-4v57H0zm250-36l-1.7-29.8Q245 123.6 242 38v-5h8zM52 203c-1.3-1-2.5-2.7-4-3l-15-1.6c-3.2-8.5 4-17.2-2.2-26h20c-4.2-2.3-10-2-12-8 .8-2 1.4-5-2.2-6.8s-5.3 3-8.6 5l-4.2-9.2 17.2 1.4.3-1.5c-1.8-.4-3.7-.7-5.5-1.2-1-.4-2.2-1-3.3-1.5l1.2-2L37 151a30 30 0 0 0-.4-3.2l-6.6.4c1.7-2.5 2-6-1.5-8.3-1.2-.8-3.5-.1-6-.1l-2.2-4.2c4.4-1 5.7-3.5 4.5-7.6l2.3 5c3.6-2.5 5-7.3 3.2-11.3a50 50 0 0 1-5.1-15.6c-.2-2.5 3.7-5.3 5.6-8l1.5-21.4h1.2l4.7 8.3 10.2-13.2C49 71 49.7 70 50 70c7.7 1.6 12.4-4.7 18.7-7s7.7-2 10.5 3.5l3.4 6.5c1.3-9.8 8-11.5 16-13.5-7.7 6-.2 9.5.3 13.5l13-3.5-3-2v-10c.8-.2 2.7-1 4-.6 6.4 2.4 12.6.6 19-.3 5-.6 9.8-3.4 12.7-7.6 5-7 11.8-10.5 20.7-7.4.5.1 1.2-.1 2-1.4l-8.5-2.4 4-1.2-1-1.4-3.5-.3 3-10 2-.5c2.7 10 9.7 12.6 18.7 11l-7.2-2 1-3.2-4-5.2 1.2-1 9.6 3.2 3-7.6-3.2.2c.1-.7.2-2 .4-2 2.3-.4 4.6-.6 7.3-1v-2.3l5.5 1.2-4-6.6 9.5 1c1.5-2 3.3-5 7.6-2.5.6.3 2.6-2 4.2-3 6 3.4 12.7 6.6 14.5 14.8 11.6-3 10.6-.4 10.2 4-3 .6-5.7.5-7.7 1.7s-2 2.7 3.2 11.3c3.2-2.3 4.7-1.8 4.8 2.6l2.4 56.2c.1 2-2.3 4.2-4 6s-2.6 1.5-5 2.7l9.2 2.8 5 123.4c.5 13.3.1 14-12.7 17-6.6 1.7-13.6 2-20.5 2.5-1.6.2-3.3 0-4.8-.6-4.5-2-8.2-.5-12.2 1.5s-11 6.2-17 7.4-7.8 4-9.6 8.5-4 9.4-10.4 9.5c-.7 0-1.3 1-1.4 1l-14-5.3c1.5-5 .5-8-4.6-9-1-.2-1.8-1.7-2.8-1.8s-4-.1-5.2 1-1.3 3.2-1 4.7 1.7 3.3 2.3 4.3l-19.8 1c-1.7.1-3.7.3-5.2-.3-5.7-2-9 1-12 5s-3.8 5.2-8.3 4c-2-.6-5 1.3-7.5 2.5s-4 2.8-6.5 4.5l-2.7-8 4.8-1.2c-14.6-2.6-15-2.5-16 4.2-6.8-2-12-5.6-11-14.2l-7.5.3c-1-.1-2.7-1.5-2.6-2a25 25 0 0 1 2-5.4L41 263l2-7.7c5 .5 6.2-1 4.7-5.4s-1.6-5 2.2-8.6l2.7 3.6 6.4-3-.2-1h-2l-2-14a4 4 0 0 0-.8-2.3c-3.5-3.2-4.4-7.3-4.5-12-.3-1.5-.7-3-1.3-4.4L47 210l-1-7.8 6.4.4c-3.3 4-3 6 3.3 13.5 1.2-3 2.5-5.4 3-8s-.1-4-1.2-5-3.4-.4-5-.5zm84 35.8l4.6-8.5c-5.5 1.8-8 5.4-6.7 11.4l2.2-3c-1 3.8 1.4 4 4 4.4l15.4.8c-.6-1-1.7-1.8-3-2zm-61.8-8.5c-1-2-1.5-4.7-3-6.5s-3.6.1-5 1c-3.3 2.2-.7 4.4.3 6.8 1.6 4 6.6 5.5 7.3 10 .4 1.2 1 2.3 1.6 3.4 3.6-3 5.7-8.8 3.8-11.6s-3.4-2.2-5-3.3zm60.5-16.8c.7-2.5 2-4.3 1.4-5.5s-2.5-3.3-3.8-5c-1.5 1.5-4 2.8-4.4 4.6s3.8 8.5 7 9l16 1.4c.5 0 1-1 2.2-1.8l-12.4-3.6zm-42.2-71.7L69 138.6c.3 1.5 1 2.2 1.8 2.4l16 2c7 .8 9-.4 10.5-7.4.4-1.6-.8-4.2-2-5.4s-4-.1-5 1-1 3.4-.6 5 1.5 3 2.7 5.5zm-39 49.4v-2L39 186.8c-.4 0-1 1.6-1.6 2.8zm93.3-7.7l-16-1.6-.2 1.4 5 1c4 1 9.3-1 11 6zm62.2-35l-.4 1.8L228 153l.3-2zM164.6 183v-2l-17.2-1.5-.2 1.7zM58 184c.1 1.2 0 2.6.3 2.6a66 66 0 0 0 9.6 2.1c1 .1 2.2-1 3.3-1.5l-.3-1zM222.5 67.5l.2-1.6-13.2-2.5-.4 2zM218.3 224c6.6 3.6 11.5 3.6 12.6 1zM106 183l-8-1 1.8 3.8 3.2-2.6-1 6h.6zm-48.5 1.5L47 182.8c1 1.8 2.8 3 5 3.3s4-.3 5.6-1.7zM20 270.2l1.6-11.5h2c2.7 2.7-.4 5.6-1 8.3l4.8 5.4zm11.4-69.5l9.8 1L36 208z"/><path d="M74.4 230.2c1.7 1 4 1.8 5 3.3s-.2 8.7-3.8 11.6c-.7-1-1.2-2.2-1.6-3.4-.7-4.6-5.7-6-7.3-10-1-2.4-3.6-4.6-.3-6.8 1.3-1 4.4-1.7 5-1s2 4.4 3 6.5zm60.6-16.8l6.2-1-.2.8 12.6 2.8c-1 1-1.7 1.8-2.2 1.8l-16.2-1.4c-3.2-.4-7.8-6-7-9s3-3 4.4-4.6c1.3 1.7 3 3 3.8 5s-.7 3-1.4 5.5zm-42.3-71.7c-1.2-2.4-2.4-4-2.7-5.5s-.3-4 .6-5 4-1.7 5-1 2.5 3.8 2 5.4c-1.5 7-3.4 8.2-10.5 7.4l-16-2c-.8-.2-1.5-1-1.8-2.4zM52 203c1.7.1 4-.4 5 .5s1.5 3.4 1.2 5-1.7 5-3 8C49 209 48.6 207 52 203zm1.8-12l-16.2-1.5c.6-1.2 1.2-2.8 1.6-2.8L54 189zm82.4 47.7l16.7 3c1.2.2 2.3 1 3 2h-5.4l-10-.8c-2.7-.3-5.2-.6-4-4.4zm10.8-55.3v7c-1.7-7.2-7-5-11-6l-5-1 .2-1.4zm62.3-35l19.3 2.6-.3 2-19.4-2.7zM164.6 183l-17.3-2 .2-1.7 17.2 1.5zM58 184l13.2 3.2c-1 .5-2.2 1.6-3.3 1.5a66 66 0 0 1-9.6-2.1c-.3 0-.2-1.4-.3-2.6zm78.3 54.5l-2.2 3c-1.4-6 1.2-9.6 6.7-11.4l-4.6 8.5zm86.2-171l-13.4-2 .4-2 13.2 2.5zM218.3 224l12.6 1c-1 2.6-6 2.6-12.6-1zM106 183l-3.2 6.3h-.6l1-6-3.2 2.6-1.8-4zm-48.6 1.4c-1.5 1.4-3.6 2-5.6 1.7s-3.8-1.5-5-3.3z"/></svg>