<svg xmlns="http://www.w3.org/2000/svg" viewBox="0 0 32 32" fill="#fff"><path d="M20.7 3.7c-.5-.5-1.1-.7-1.8-.7s-1.3.3-1.8.7l-1.4 1.4c-.5.5-.7 1.1-.7 1.8 0 .5.1.9.4 1.3L1.8 13.7a3 3 0 0 0-1.7 2.2 3 3 0 0 0 .8 2.7l12.7 12.6c.5.5 1.3.9 2 .9h.1c.2 0 .4 0 .6-.1 1-.2 1.8-.9 2.2-1.8l5.3-13.4c.4.3.9.4 1.4.4.7 0 1.3-.3 1.8-.7l1.4-1.4c.5-.5.7-1.1.7-1.8s-.3-1.3-.7-1.8l-7.7-7.7zm-4 25.6a1 1 0 0 1-.7.6h-.2c-.3 0-.5-.1-.7-.3L2.3 17.1a1 1 0 0 1 .3-1.6L8.8 13c4.2 1.4 8.4.1 12.6 4.5l-4.7 11.8zM27 13.6L25.6 15c-.2.2-.5.2-.7 0l-1.8-1.8-1.3 3.3c-3-3-6.1-3.4-8.8-3.7l-2.6-.4L18.9 9l-1.7-1.7c-.2-.2-.2-.5 0-.7l1.4-1.4c.2-.2.5-.2.7 0l7.7 7.7c.2.2.2.5 0 .7zM16.5 21c1.4 0 2.5-1.1 2.5-2.5S17.9 16 16.5 16 14 17.1 14 18.5s1.1 2.5 2.5 2.5zm0-4c.8 0 1.5.7 1.5 1.5s-.7 1.5-1.5 1.5-1.5-.7-1.5-1.5.7-1.5 1.5-1.5zm13-17C28.1 0 27 1.1 27 2.5S28.1 5 29.5 5 32 3.9 32 2.5 30.9 0 29.5 0zm0 4c-.8 0-1.5-.7-1.5-1.5S28.7 1 29.5 1s1.5.7 1.5 1.5S30.3 4 29.5 4zM8 17a2 2 0 1 0 4 0 2 2 0 1 0-4 0zm2-1a1 1 0 1 1 0 2 1 1 0 1 1 0-2z"/><circle cx="13" cy="23" r="1"/><circle cx="29" cy="8" r="1"/></svg>