<svg id="Layer_1" data-name="Layer 1" xmlns="http://www.w3.org/2000/svg" width="20" height="20" viewBox="0 0 20 20"><defs><style>.cls-1{fill:#fff;}</style></defs><title>lab</title><g id="lab"><path class="cls-1" d="M12.93,2.33a1.56,1.56,0,0,0-2.21,0l-.88.88a1.56,1.56,0,0,0-.23,1.93L1.12,8.54a1.87,1.87,0,0,0-.57,3L8.5,19.45A1.86,1.86,0,0,0,9.78,20h0a1.93,1.93,0,0,0,.38,0,1.87,1.87,0,0,0,1.36-1.14l3.34-8.36a1.56,1.56,0,0,0,2-.2l.88-.88a1.56,1.56,0,0,0,0-2.21Zm-2.51,16a.63.63,0,0,1-.45.38H9.81a.62.62,0,0,1-.43-.18l-8-7.87a.62.62,0,0,1,.19-1L5.51,8.13c2.62.87,5.24,0,7.86,2.83Zm6.46-9.87L16,9.37a.31.31,0,0,1-.44,0l-1.1-1.1-.89,2.24.07-.19A8.31,8.31,0,0,0,8.1,8C7.55,7.93,7,7.85,6.48,7.74l5.31-2.13L10.72,4.54a.31.31,0,0,1,0-.44l.88-.88a.31.31,0,0,1,.44,0L16.87,8A.31.31,0,0,1,16.87,8.49Z" transform="translate(0)"/><path class="cls-1" d="M10.31,13.13a1.56,1.56,0,1,0-1.56-1.56A1.56,1.56,0,0,0,10.31,13.13Zm0-2.5a.94.94,0,1,1-.94.94A.94.94,0,0,1,10.31,10.63Z" transform="translate(0)"/><path class="cls-1" d="M18.44,0A1.56,1.56,0,1,0,20,1.56,1.56,1.56,0,0,0,18.44,0Zm0,2.5a.94.94,0,1,1,.94-.94A.94.94,0,0,1,18.44,2.5Z" transform="translate(0)"/><path class="cls-1" d="M5,10.63A1.25,1.25,0,1,0,6.25,9.38,1.25,1.25,0,0,0,5,10.63ZM6.25,10a.63.63,0,1,1-.62.63A.62.62,0,0,1,6.25,10Z" transform="translate(0)"/><circle class="cls-1" cx="8.13" cy="14.37" r="0.62"/><circle class="cls-1" cx="18.13" cy="5" r="0.62"/></g></svg>