<?xml version="1.0" encoding="utf-8"?>
<!-- Generator: Adobe Illustrator 16.0.3, SVG Export Plug-In . SVG Version: 6.00 Build 0)  -->
<!DOCTYPE svg PUBLIC "-//W3C//DTD SVG 1.1//EN" "http://www.w3.org/Graphics/SVG/1.1/DTD/svg11.dtd">
<svg version="1.1" id="Layer_1" xmlns="http://www.w3.org/2000/svg" xmlns:xlink="http://www.w3.org/1999/xlink" x="0px" y="0px"
	 width="595.28px" height="841.89px" viewBox="0 0 595.28 841.89" enable-background="new 0 0 595.28 841.89" xml:space="preserve">
<g>
	<g>
		<g>
			<rect x="276.385" y="413.342" fill="#3D3E3E" width="8.878" height="28.681"/>
			<ellipse fill="#3D3E3E" cx="280.781" cy="404.294" rx="5.249" ry="5.292"/>
		</g>
		<path fill="#3D3E3E" d="M299.453,426.967c0-4.031,1.856-6.434,5.41-6.434c3.264,0,4.833,2.305,4.833,6.434
			c0,4.131,0,15.056,0,15.056h8.836c0,0,0-10.478,0-18.159c0-7.683-4.354-11.397-10.436-11.397c-6.083,0-8.644,4.739-8.644,4.739
			v-3.863h-8.516v28.681h8.516C299.453,442.022,299.453,431.385,299.453,426.967z"/>
	</g>
</g>
</svg>
