<svg class="line-drawing" width="100%" preserveAspectRatio="xMidYMid meet" viewBox="175 -40 390 390"><path d="M478 163.6c.2.5.7 1.1.7 1.6-.1 3.6-.4 7.2-.6 10.8 0 .2-.3.3-.8.7l-.9-2.2h-.6l-.9 22.2-1-.5c1.1 3.3 2.5 6.8 3.5 10.5.4 1.7.8 2.6 2.7 2l.7 3 4.8-1.5-.6-12.5.9-.1 2.2 7.2.4-.1-.8-14.1c2 5.1.7 11.2 5.7 14.8.2-.4.4-.6.3-.7-3.2-8.7-2.1-17.9-3.3-26.9-.2-1.4-1.1-3.3-2.1-3.8-2.2-.8-3-2.2-3.5-4.3l-.9 7.4h-.6c0-1.1-.2-2.2 0-3.2.7-3.2 1.7-6.4 2.4-9.7.4-1.7-.3-3.9.5-5.3 1.8-3.1-.1-6 .2-8.9.4-3.2.6-6.5.5-9.7-.2-4.3-.7-8.6-1.1-12.9-.1-.9 0-1.8.5-2.6l1.5 9h.3v-1.9c.1-1.1-.8-2.7 1.3-3.2.4-.1.7-1.5.6-2.3-.5-3.7-1.3-7.5-1.9-11.2-.1-.7-.1-1.4 0-2.1l.7-.1 3.7 12.8.9-.2-1.5-8.9 2.9 5 .8-.1.7-4 2.1 1-2.9-6.4 2.5-1.9c.6.9 1.6 1.9 2 3 1.1 3.1 3.1 5.7 5.7 7.7 1.2.9 2.4 1.5 2.5 3.6.1 1.2 2.5 2.3 3.9 3.4l.5-.6-2.8-2.9c5.4 2.1 9.8 5.4 12.9 10.5l-9.7-1.2 1.9 1.6c-7.5 4.1-10.3 10.8-11.1 18.6-.3 2.8-.5 5.8 1.7 8.6.3-3.4.3-6.5.8-9.4.6-3.1 1.5-6.1 2.6-9.1 2.2-5.3 7.8-8.5 13.5-7.7.3.1.7.1 1 .1 6.8-1 10.7 3.5 14.1 8 2.7 3.7 4.5 8.1 6.6 12.3.2.5-.2 1.2-.2 1.8-.1 1.2-.3 2.4-.1 3.6 1 4.6-1.2 7.6-4.8 10.9-.1-1.5-.3-2.4-.2-3.3.1-4.5.4-9 .5-13.5 0-4.8-2-8.5-6.4-10.7-.2-.1-.4-.2-.6-.4-3-5.7-8.6-3.7-13.1-4.2-3.5-.4-7 3.9-7.5 8.1-.2 1.5-.5 2.9-.9 4.3-.9 2.5-1 5.3-.3 7.8.4 1.4 0 3 .1 4.4.1 1.2.4 2.3.4 3.4 0 .8 0 1.8-.5 2.5-1.6 2.2-1.6 4.6 0 6.7.6.8.8 2 1.2 3 .6 1.6.9 3.4 1.8 4.8 1 1.8 1.7 3.5.7 5.6-.7 1.6-.2 3 1.3 4.1.8.6 1.1 1.8 1.5 2.8.5 1.4.9 2.9 1.4 4.6-.7.5-1.8 1-2.5 1.7-1.2 1.3-2.4 2.6-.8 4.5 1.2 1.5.3 2.1-1.2 2.9-8.4 4.9-17.5 3.9-26.5 3.5-6.1-.2-12.1-.8-18.1-1.8-2.6-.5-4.9-2.5-7.3-4-.4-.2-.6-1.5-.4-1.7 2.3-2.1.5-3.1-1-4.1 4.3-4 .7-8.2 1.2-12.7-4.3 3.4-4.7 4.6-2.4 6.2-1-.4-2-.7-3.1-.9-.8-.2-2.2-.4-2.5.1-.9 1.3-1.7 2.8-2.2 4.3-.1.3.8 1.2 1.4 1.5 1.6.8 3.2 1.3 5.5 2.2h-7.7l.9-1.7-.4-.4-3.1 2.3c-1.6-5.7-2.7-11.5-6.4-16.6-2.2 2.4-.4 4.4.2 6.3.7 2.1 1.6 4.1 1.8 6.5-2-3.8-4-7.6-5.9-11.4-.4-.7-.1-1.8-.2-2.7-.1-.7-.6-1.3-1.2-1.7l.3 1.5c-.4-.3-.7-.3-.8-.5-.9-1.4-1.9-2.8-2.7-4.2-1-1.7-2.4-2.8-4.4-2.8h-9l-4.2-14.5c-2.7 2.4-3.3 3.9-2.1 5.5l-3.5.8c-2.5-2-.8-4.4-.4-6.4.9-4.3.9-8.7-.1-13-.3-1.2-.4-2.4-.3-3.6.2-6.8-.7-13.6-2.7-20.2l2-2.3c-3.2 1.1-3.5 2.2-2.8 5.1 2.1 8.1 3 16.4 1.1 24.5-2.9 1.1-5.7 2.1-8.4 3.4-1.5.7-2.7 2.1-4.1 3.1-.9.6-1.9 1-2.9 1.3-1.7.7-3.5 1.3-5.3 1.9l1 2.2c3.2-.7 6.2-1.1 9.1-2.1 2.6-.9 4.9-2.4 7.3-3.7.9-.5 1.8-1.1 2.8-1.8l2.8 20.6c-3.9.2-7.2.3-10.5.5s-6.7.1-10 .5c-1.3.3-2.5.9-3.3 1.9-1.2 1.3-.5 2.7.5 4.1 3.3 4.8 6.5 9.7 9.7 14.6.7 1.1.8 2.5 1.4 4.2 2.9.8 4.1 3.7 5 6.2-1 .8-2.2 1.3-2.3 1.9-.3 2 2.5 5.2 4.7 5.6l-1 1.1 2.6 3.1c-.7.2-1.3.3-1.8.4-2.5 1.9-3.6 4.6-4.5 7.6-.5 1.9-1.3 3.7-2.3 5.4-2.3 3.8-4.9 7.5-7.3 11.3-.4.5-.6 1.2-.7 1.8.2 3.3-1.4 5.7-3.1 8.2-1.9 2.8-1.4 5.3 1.3 7.2 1.6 1.1 2.6 2.9 2.7 4.8.3 2.3.6 4.6 1.1 6.9.1.6 1 1.4 1.5 1.4s1.4-.9 1.5-1.5c.2-1.5.2-2.9 0-4.4-.3-4.3-1.5-6.9-5.6-7.8-2.2-.5-2.5-2.2-1.1-4 1.2-1.5 2.5-2.9 3.6-4.5.5-.8 1-2.1.8-2.9-.6-2.3.2-4.1 1.6-5.8 1-1.3 2.1-2.6 3-3.9 1.1-1.6 2.2-3.2 3.2-4.9 1-1.8 1.9-3.6 2.6-5.5.7-1.7.7-3.8 1.7-5.1 1.3-1.8 1-2.9-.2-4.3 1.1 1.5 2.4 2.9 3.3 4.5s2.1 1.9 3.3 1c2.1-1.5 3.9-3.4 6-5 1-.7 2.1-1.4 3.1-2-1.3 1.8-2.4 3-3.2 4.4s-.3 2.4 1.2 2.5c2.7.2 5.4.1 8.1 0 1.3 0 2.6-.4 4-.4 4.2-.1 5.4-2 3.1-6.1 1.2.3 2.1.5 3 .8 4.4 1.6 8.8 3.4 13.3 4.9 2.4.7 4.9 1.3 7.4 1.7.9.2 1.8.1 2.7-.1 7.8-2.1 15.6-1 23.4 0 9.9 1.2 19.7 3 29.6 4.7.8.1 1.5.7 2.3 1.1.5.3 1.1.5 1.7.7.4.1 1.1-.1 1.2.1 1.9 3.2 5.4 2 8.1 3 .8.3 2 0 2.8-.4 2.2-1 4.2-2.3 6.4-3.4 1.5-.8 2.9-.9 3.5 1.2.8 2.4 1.6 4.7 2.4 7.1 1.1 3.6 2.1 7.3 3.3 10.9.5 1.7 1.5 1.9 3 1 2.3-1.4 3.5-3.4 4.4-5.8 2.2-6.5 6.3-11.9 11.4-16.4.3-.2.7-.4 1.1-.5.3 1.1.5 2.2.9 3.1.5 1.3.3 2.2-1 3.1-1.8 1.4-3.4 3-3.4 6.3l6.4-4.5v57h-44.5c3.1-2.2 2.6-5.5 2.2-8.7l2.5-.5.2-.6c-2.8-1.5-4.5-4.9-8.4-4.7-2.2.1-4.3.3-6.5.2-.8-.1-1.6-.6-2.1-1.3-.8-1.1-1.1-2.9-2.2-3.5-1.7-1-2.2-2.4-2.6-4-.9-3.5-1.4-7-2.6-10.4-1.1-3.1-2.9-5.9-4.5-8.8-.4-.8-1.2-1.3-1.9-2-.5 1-1.1 2-1.6 3s-.8 3-1.5 3.2c-4.6 1.2-9.3 2-14 2.9l-.4-.8 2.3-2c.5-1.4-3.1-1.6-1-3.5-.4-.3-.8-.6-1.2-.8-6.2-3.2-12.4-6.5-18.7-9.5-2.2-1-4.8-1.1-7.3-1.5-.2 0-.5.1-.7.2l-4.3 1.6c7.7 9 17.4 14.6 29.1 17.5l-35.9 13.8-2-4-1.3 5.3-1.1-1.4c-.6.9-1 2-1.7 2.5-2.4 1.7-4.9 3.1-7.4 4.6-4.5 2.6-7.9 6.2-9.8 11.2-.4.8-1.2 1.3-2 1.4-4.9-.1-9.8-.3-14.7-.5-.7-.1-1.3-.2-1.9-.4 3.4-4.1 2.9-8.7 2.8-12.8-3.2 0-6.3.5-9.1-.1-5-1-9.8-2.5-15-1.9h-.5c-1.6-.2-2-.9-.9-2.3.7-.9 1.3-1.9 2.2-3.3-1.6.4-2.7.8-3.7.8s-2.1-.5-3.2-.5c-.7 0-1.4.6-2 .9.5.7 1 1.6 1.7 2.1.5.3 1.3 0 1.9.3.7.3 1.3.7 1.9 1.1-6.9-.7-9.8-2.4-13.5-7.6-1.7-2.4-3.4-4.9-5.1-7.4-.1-.1-.1-.3-.1-.7l1.1-.3c-.2-.4-.4-.9-.5-1.4-.1-.5-.2-1-.1-1.5-.1-9.3 2.8-17.1 10.4-22.9 1.4-1 2.7-2.2 4-3.4 1.4-1.5 1.7-3.1-.3-4.4-1.7-1.1-2.2-2.8-2.4-4.7-.1-2.1-.5-4.1-1-6.1-1.3-4 .1-5 3.5-6.3s6.9-2 10.3-2.9c7.3-2 9.7-6.7 6.9-13.6-.9-2.1-1.8-4.1-2.7-6.2-3.1-7.6-6.2-15.2-9.4-22.8-.3-.6-.8-1.2-1.3-1.7.1 3.9.5 8.2.3 12.4 0 1.2-1.6 3.5-2.4 3.4-2.2-.1-4.6-.7-6.4-2-2.1-1.5-2.8-1.7-4.4.5-1 1.6-2.3 3-3.8 4.2-.8.6-2.3.4-4.1.7-1.3 2.8-4.8 3-8.1 3.3-4.2.4-8.3.8-12.4 2.3-3.5 1.2-7.1 1.9-10.7 2-9.3.6-17.9-1.8-25.9-6.8-1.5-1-2.9-1.3-3.9.6.6-1 1.2-1.9 2-2.8 2.2-2.7 3.7-3.2 7.2-2.1-.3.7-.5 1.7-1 2.2-.5.5-1.5.8-2.6 1.3.6.4 1.2.8 1.8 1.1 4.2 1.5 8.5 2.9 12.7 4.3 5.2 1.7 10.3 1.4 15.4-.5 2.5-.9 5.3-1.4 7.9-2.3 3.8-1.3 5.2-3.8 4.3-7.5-.5-1.9 0-4.3-2.4-5.4.9-2.7-1.1-4.6-1.9-6.7-.7-1.7-2.2-3.2-3.4-4.7 1-.8 2.1-1.5 3.3-2.2 2.9-1.4 4.3-3.6 4.9-6.7 1.1-5.7 7.5-9.9 13.4-8.9.4-1 .9-2.1 1.4-3.1 1.1-2.3 2.1-4.5 4.7-5.8 1.6-.8 3.6-2.2 3-4.9-.1-.6.5-1.6 1-2 2.9-2.1 5.6-4.4 8.8-6 8.2-4.2 16.6-8.1 25-11.8 1.6-.7 4 .5 6 .8v.7l-1.9 1.1c1.7 3.1 5.1 4.4 7.6 2.4 3.3-2.6 6.7-5 9.6-8.2 1.3-1.4 2.1-3.1 2.5-5 .3-1.3 1.9-2.3 3-3.4.3-.1.6 0 .9.2.2.4.3.9.2 1.3-1 2.2-2.2 4.2-3.2 6.4-.3.7-.5 1.8-.2 2.3 1 1.4.5 2-.7 2.8-.8.4-1.5 1-2 1.7-.7 1.2-1 2.5-1.5 3.8 1.2.3 2.4.6 3.6.8 2.7.2 5.2 2.3 5.7 4.9.3 1.7.5 3.4.6 5.2-1.1-2.5-.7-5.9-4.6-6.5-2.6-.4-5.1-2.6-7.9-.4l-3.6-3.2-.4.4 3.9 4.6-3.3-1.2c-1.1 10.9 1.6 20.7 7.2 29.7-.1.2-.2.5-.2.7.5 2.3 1.6 4.5 1.5 6.8-.1 2.1-1.4 4.2-2.2 6.3 4.1-.2 2.9-3.7 3.9-6l3.3 1.7c1.8-1.1 3.5-2.4 5.3-3.3 1.8-.9 1.6-.6.5-2.2-.7-1.1-.9-2.8-.8-4.2.1-3.6.6-7.3.7-10.9.1-3.5 0-7-.3-10.5-2.6 3.9-.6 8.7-2.5 13.1l-.3-2.2-.7 1.4-.7-.2c0-2.1-.6-4.4.1-6.3 1.1-3 3.1-5.8 4.7-8.7.4-.9.8-1.9 1.1-2.9l-.8-.4-2.2 3.4c.3-6.3-2-11.7-.4-17.6s2.2-12 3.3-18.2c.3 1.6.8 3.3.8 4.9.1 4.3-.1 8.7-.1 13 0 3.4 0 3.4 2.3 5.9l-1 2.5 1.9-1.3 1.7 1.2.3-.5c.2.8.5 1.6.7 2.4.6 2.8 1.2 5.6 1.7 8.4.1.7 0 1.3-.4 1.9-2.6 3.8-.6 8-1.4 12l.9.1 2.5-13c4.5 4 8.6.8 12.8-1.4 2.3-1.3 2.9-1 3 1.6.3 3.8.6 7.6.8 11.4.3 6.3.6 12.6.9 19 .1.6.2 1.2.4 1.8l.8.1c.2-1.4.7-2.7.6-4.1-.1-6.7-.4-13.3-.6-20v-4.9h.9l.5 4.9h.5l.8-3.2h.5l2.3 37.5 1.9-3.4c.8 1.2 1.4 2.2 2 3.1.2 3.7.5 7.5.7 11.4l-2.3-.8 2.5 6c1.8-8.1 3.4-16.3 3.3-24.5l-.7-.1-1.8 10h-.8l-.8-2-1-6.8-1.4 1c-.1-.4-.1-.7-.1-1.1.2-2.3.5-4.7.6-7l.3-15.4c0-.3.2-.5.7-.8l.8 8.6h.8c0-2.3.2-4.7 0-7-.7-8.7-1.7-17.3-2.4-26-.3-3.6 0-7.3.2-11 2.5 11.9 3.7 24 3.4 36.2l2.2-1.9c0 1 .1 1.7 0 2.4-.3 2.5-.5 5.1-.9 7.6-.3 2.4-.9 4.7-1.2 7.1-.1 1.1.2 2.2.4 3.9 3.4-2.7.9-6.1 2.2-8.4l1.6 7.5zm-57.9 69.9l-.7.4v1.6c-3.8-4.4-3.8-4.4-5.8-4.4-1 5 1.1 9.7 3.2 13.7 2.1 3.9 5.9 6.9 9 10.4l.3-1.5c2.5 1.8 4.1 5.1 8 4 .3-.1.8.6 1.1.9 1.4 1.3 2.8 2.6 4.3 3.8.7.6 1.8 1.2 2.6 1 4.5-1.1 9.8-1.2 10.9-7.4-3.2-3.6-9.4-8-13.5-9.3-1.7-.4-3.4-.8-5.1-1-4.2-.7-8-1.8-10.1-6.2-1.1-2.1-2.8-4-4.2-6zm28.2-59.5l-6.8-4.5.2-.3 3.2.7c-2.9-2.5-5.1-4.7-7.5-6.6-.9-.7-2.8-1.5-3.4-1-1.1.8-1.6 2.4-2.3 3.7-.1.1.2.4.3.7h2.6c-1.9.8-3 1.4-1.5 3.1.2.2-.1.9-.1 1.3 0 2.8-.1 5.6 0 8.4 0 .6 1.2 1.4 1.9 1.5 1.9.3 3.9.3 5.8.5 3.3.3 6.7.5 10 .8 2.4.3 2.3-1 2.1-2.4h-4.4l-.1-5.9zm11.3 70.4l-.3.6c.3.3.6.5 1 .7 5.7 2.9 11.4 5.9 17.1 8.8 3.9 1.9 7.8 3.7 11.8 5.5 1.2.5 2.8 1.2 3.3-1 .3-1.5.6-3.1 1-5-1.8.8-3.5 1-4.3-1.3.2-.2.3-.4.4-.5.2-.1.5-.1.7-.2 1.6-.8 2.2-3.1 1.3-4.5-1.2-2-2.8-2.2-4.6-.8-2.4 1.9-2.8 3.7-1.4 7.5l-4 .5-5.6-7.7-.5 2.5-9.6-4.3-.9 1.5-5.4-2.3zm64.5 28.6l.9-.8-3.5-.2c.1 1 .2 2 .5 3.1.8 2.8 1.8 5.5 2.5 8.3.3 1.4 1.1 2.4 2.3 1.8 1.9-.9 3 .1 4.3 1 .9.6 1.8 1.3 2.9 2-.4-3.1-1.8-4.4-4.3-4.7-.7-.1-1.7-.3-2.1-.8-1.3-1.7-2.6-3.5-3.4-5.4-.7-1.3-.2-2.9-.1-4.3zm18.7-14.5l-18.2 2.9c3.1 3 13.9 1.2 18.2-2.9zm-90-107.4c-2.9-2.6-6.3-2.6-9.7-2.6-.3 0-.8.6-.8 1 0 .5.2.9.6 1.1 4.1 1.5 8.1 3 12.2 4.5l.4-.7-3.8-2.7 1.1-.6zm57.6 108.6c-2.2-3-4.8-5.9-6.4-9.2s-2.2-7.1-3.2-10.6c-2.8 4.8 4.3 19.2 9.6 19.8zm39.3-2.2c.4 2.3 2 3.3 3 1.9 1.6-2.2 3.1-4.5 4.3-6.9.2-.4-.6-1.3-.9-2-.6.4-1.3.6-1.7 1.1s-.3 1.3-.5 1.9c-.5 2.2-1.1 4.5-4.2 4zm-120 3c1.8 1.8 3.4 3.5 5.3 4.9.3.3 2.5-.9 2.6-1.5 0-2.2-5.2-4.8-7.9-3.4zm-20.1-123.9l3 14.9c1.7-5.1-.5-14.7-3-14.9zm28.8 15.4l-1.7 1.5c.4-3.5-.3-7-1.9-10.1v12c2 .6 2.8-.9 3.6-3.4zm80.5 126.4l-.1-1.1c-2.8-.2-5.6.1-8.2 1.1-.3.1-.6 1-.5 1.4 0 .3.8.7 1.1.6 2.6-.6 5.1-1.3 7.7-2zm-68.8-132.1c-1.4-.4-2.5-.6-3.6-1s-2.1-1.8-3 .2c2.7 2.4 4.6 2.6 6.6.8zm-12.2-21.4c-2.3 4.8-2.3 4.8-1.3 6.8 2.6-1.7 1.8-4 1.3-6.8zm70.5 50.8H507c-.1 1.7-.2 3.5-.2 5.2 0 .3.6.8.8.7.4-.1 1-.6 1-.9.1-1.7-.1-3.4-.2-5zm17 90.9c.1.6.2 1.3.3 1.9 0 .7-.2 1.3-.1 2 .1.4.5 1.1.7 1.1.5 0 1.1-.2 1.4-.6.9-1.2-.4-3.8-2.3-4.4zm-84.2-106.5l-.4.8 3.8 1.8.5-1.1-3.9-1.5zM190.9 125.6c3.1.4 7.1 4.2 9.2 6 9.3 7.8 16.9 13 28.2 17.6 2.3.9 4.6 1.8 7 2.7 2.9-3.6 6.8-4.2 11-4.4 9-.4 15.3 3.9 20.4 10.7.8 1.1 1.7 1.9.8 3.7-.6 1.3.3 3.2.5 4.9.2 2.2.7 4.3-1.5 6.1-.7.6-.1 2.9-.1 4.7-3.2.8-7.1 1.8-11 2.9-.6.2-1.1.7-1.2 1.3.1.6.5 1.1 1.1 1.4 1.3.3 2.6.3 3.9.1 5.8-1.3 11.7-1.2 17.5-.7.6.1 1.1.5 1.4 1.1.6 1.3 1.1 2.7 1.5 3.8-2.7 3.1-5.9.9-9 1.2l2.8-2-.2-.4-2.2.5 2.4-3.1c-2.3-1.2-5.6-.9-7 .9-.7.9-1 2.1-.9 3.3.6 3.4 2 6.6 5.3 9.3V193c.5 1.1.7 2.8 1.4 3.1 1.1.5 2.6 0 3.9-.3 1.8-.5 3.6-1.2 5.4-1.8-1.3.7-2.7 1.3-3.9 2.3-5.5 4.7-8.1 10.6-7.4 17.8 1.6 15.3 5.7 30 10.1 44.7.4 1.4.8 2.8 1.3 4.4-2.7 2-5 3.8-8.8 2.2-2-.8-4.7-.3-7.1-.3-1.2 0-2.7-.4-3.7.1-1.7.8-3.2 2-4.7 3.2-.5.4-.6 1.1-1.1 2-1-.9-1.9-1.8-2.8-2.5-.3-.3-.9-.7-1.1-.6-.4.2-.7.7-.7 1.1-.4 2.4-.9 2.5-3 1.5-5.3-2.5-6-7.8-8.4-12.2-.3-.6.3-1.6.4-2.1-2.1-2 .8-4.2-.6-6.3l-1.9 4.8h-.7v-2.4c.1-.7.3-1.4.6-2-.5-.1-1.2-.4-1.3-.2-.6.7-1.6 1.8-1.4 2.3 1.1 2.6-.1 4.2-1.7 6-1.3 1.4-2 1.2-3.2 0-1.3-1.3-2.9-2.3-4.7-3.8-.1-3.2-1.6-4.8-4.5-4.9l-3.1-2.2c0 1.3-.1 2.6 0 4 0 .3.6.6.8.9 1.1 1.8 1.1 2.5.2 6.5l-6.6-7.4c-.1 1.1 0 1.7-.2 1.8-2.4 1.6-2.4 1.8.1 3.4l-2.5 3.2c3.2 0 3.4 1.4 4.8 3.4 1.5 2.3 4.1 3.8 6.3 5.6s4.5 3.3 6.6 5.1c-6.5-2.5-12.1-5.5-17.6-10.7l-20-1m42-109.4c-1.9 1.5-4.6 2.8-6 5-2.8 4.3-1.2 9 .1 13.4.7 2.3 2 4.5 3.1 6.7.4.7.9 1.3 1.4 1.9.5-.7 1.4-1.3 1.6-2.1.4-2.5.9-5.1.7-7.6-.2-3 1.6-4.6 3.6-6 3.2-2.3 3.2-5.3 0-7.6-1.5-.8-2.7-2-4.7-3.6l.2-.1zM212.8 174c-1.1 1.8-1.6 3.3-2.6 4.1-1.7 1.4-1.5 2.8-1.4 4.7.1 3.2 2.4 3.7 4.3 4.7 1.1.6 2.6.3 3.2-.8.8-1.4-.4-2.8-1.1-4.2-.4-.9-1.1-1.8-1.4-2.7-.6-1.5-.8-3.3-1.2-5.7l.2-.1zm37.6 81.2l-.6-.4-1.1.8-2.4-2.7 1.7-1.2c-1.4-1.1-2.5 1.6-3.9-.1-.2.4-.7.9-.5 1.2.6 1.5 1.4 3 2 4.6 1.2 3.1 5.2 4.3 5.2 8.2 0 .2.9.4 1.3.7.2-.5.6-1.1.5-1.5-.5-1.3-1.2-2.5-1.7-3.8-.5-1-.8-2-1-3.1-.2-.8.2-1.6.4-2.5l.1-.2zm-32.6-73.7l-.5.2 2.3 14.4.6-.1-1.3-9.8 3.6 3.5.7-.6-5.4-7.6zm-4.5-18.5c-2.4.5-2.6 2-2 4.1 1.2-1.3 3.7-1.5 2-4.1zm-.2 27.4l-1.2-1.1-2.7 3.5.7.7 3.2-3.1zm4.4 33.2l2.3.4v-3.3c-2-.5-2.5.8-2.3 2.9zM412.1 76.6l5.6 3.3c-.8-2.2-1.4-3.6-3.6-3.9-2.8-.4-4.2-2.2-4.5-5-3.4-.7-6 .7-8.8 2.4-3.4 2.1-7 3.6-10.6 5.3-1.1.5-2.3 1.3-2.4-1-2.5 1.4-4.6.1-4.5-2.5.2-5.2 2.7-9.2 6.3-12.8.9-.9 1.4-2.2 2.3-2.9 10.4-7.3 19.6-10.1 32.2-2.7 5.2 3 7.5 8.3 9.3 13.7 2.3 7 2 14.1.2 21.1-.1.2-.3.4-.8 1.1-.2-1.3-.4-2.1-.4-2.9.1-1.7.3-3.5.6-5.2.6-2.5-.7-3.9-2.6-5.1-2-1.3-3.5-.1-4.8 1.2-1.1 1-2.1 2.1-3.2.7l-5.1 3.1-.7-3.1-.4.4-4.8-4.3.7-.9z"/><path d="M457.2 91.5h-2.8c5.4 4.9 3.1 11.2 4.5 16.8l-.7.2c-.2-.4-.7-.9-.7-1.3.2-2.3-1.2-3.4-3-4.3-3.9-1.9-7.6-4.1-11.4-6.1-1.5-.8-3.6-1.3-4.2-2.5-1-2.1-1.2-4.6-1.3-7-.1-2.1 1-3.8 3.1-4.6.6-.2 1.1-.5 1.5-.9 5.4-6.3 13.1-7.5 20.5-9.3 3.2-.7 6.4-1 9.6-.9 1.7 0 3.4.5 4.9 1.5 7 4.7 10.8 11.8 14.1 19.3.1.2 0 .5 0 1.6l-3.1-4.1-1.4 1.4-2.6-2.2-.6 4.3-2.2-3-.6 3.2-.7.1-2.6-5.1-5.7 6.1-1-.8-.8 3.6c-.4-1.5-.3-3.4-1.2-4.3-.7-.7-2.6-.1-3.9-.1l-.8 5.1H463l-3.2-7-1.1 3.1h-.7l-.8-2.8zM561.3 209.4c-4.3-5-9.8-9.2-10.1-16.6-.3-6.5-.9-12.9-1.4-19.4l.7-.2 10.8 36.2zM282.8 175.5l-8.8-.6-1.9-7c3.9-.7 8.5 2.3 10.7 7.6zM481.9 162.6l2.2-25.7.7.1c1.9 8.7 1.3 17.2-2.9 25.6zM306.1 175.7v-1.4l13.5-2.7c.2 0 .6-.2.7-.1.5.3.9.7 1.2 1.2.1.2-.4.7-.7 1.1l-1.3-1.5c-1.6.9-3.9 1.6-5.2 3.2-1.9 2.3-3.6 1.7-5.7 1-.8-.3-1.7-.6-2.5-.8zM405 94.4c-.5.5-1.1 1-1.7 1.4-.5.3-1.7.6-1.8.4-1.5-2.3-4.2-1.5-6.1-2.5-.5-.3-1-.7-1.5-1.1 2.6-.6 5.2-1.3 7.8-1.7.6-.1 1.5.6 2.1 1.2.5.3.6 1.1 1.2 2.3zM482.9 202.8c-1.4-2.2-1.8-18.1 0-22.5v22.5zM479 151.9v-19.2c.9 6.5 2.2 12.8 1 19.2h-1zM422.9 129.3c4 .6 2.8 3.8 3.2 6 .3 2.1.1 4.4.1 6.6l-.6.1-2.7-12.7zM398.2 111.4l7.7-1.1v-.6l-1.6-.5c1.5-2.5 3.5.3 5.1-.5l1.2 2.4-.4.5c-2.7-2.1-5 .2-7.5.4-1.5 0-3 1.4-4.5-.6zM392.2 96c-3.9-4-5.8-8.1-4.4-13.3.1.9.2 1.8.2 2.7-.1 2.8.5 5.1 3.3 6.3 1.7.9 1.6 2.3.9 4.3zM460.9 118.2c.6 2.6 1.4 5.2 1.7 7.9s.1 5.4.1 8.1h-.9l-1.1-16.1.2.1zM478.1 163.7V153c2.6 2.6.5 6.5 2 9.5-.7.4-1.4.8-2 1.2zM395.1 162.4l10.7-5.1.4.7-10.4 5.8-.7-1.4zM394.8 107.6l5.7-1.9.2.4-2 1.2 1.7 2.8c-1.1-.1-2.3 0-3.2-.4s-1.7-1.4-2.4-2.1zM467.6 147.7l-1.4-10.7 1-.1 1.4 10.7-1 .1zM427.3 219.6l9 2.1-.1.4-9-1.3.1-1.2zM329.8 170c3.8 1.3 5.5 4.3 6 8.2-1.8-3-2.4-6.8-6-8.2zM306 175.6h-8l.1-.8 7.9.8zM458.4 200.2l-.3 3-3.2-2 .3-.8 3.2-.2zM426.1 215.8l7.8 1.6-.1.7-7.6-1.6-.1-.7zM419.7 155.4c-.2-1.5-1.3-3 .1-4.7 2.2 1.8.6 3.2-.1 4.7zM292.2 190c-1.3 2.9-4.2 1.9-6.3 2.8l6.3-2.8zM438.5 102.7c2.4 0 1.8 2.9 3 4l-3.6-3.3.6-.7zM442.8 111.7l-2.7-3.1c3.2.1 3.9.8 2.7 3.1zM422.3 135.8c-.9.6-1.4 1.2-2 1.3-.4 0-.8-.7-1.2-1.1.5-.4 1-.9 1.6-1.1.3-.2.8.4 1.6.9zM524.6 261.4l18.2-2.9M412.5 151.5l-3-14.9M236.8 277.5c1.2-.7 3.5-1.3 3.9-2.4.7-2.3-1.4-3.5-3.2-4.7-1.9-1.2-3.7-2.6-5.6-3.9l.4-1c1.5.7 3.1 1.2 4.5 2 1.2.8 2.4 1.7 3.6 2.6l.5-.6-6-6.7c.1-.4.2-1.2.7-1.7.5-.5 1.2-.9 1.9-1 .6-.1 1 .1 1.4 1.2.8 2.4 2.7 4.5 3.7 6.9.7 1.8 1.1 3.7 1 5.6 0 2.8 1.1 5.6 3 7.7 1.1 1.3 1.8 2.8 3 4 .7.7 1.7 1.6 2.9.1.3-.4 1.9-.1 2.8.1 3 .7 5.9 1.6 8.7 2.7-3.1 0-6.3.2-9.4-.1-4-.4-7.6-2.2-9.8-5.7-1.7-2.8-3.9-4.4-7.1-4.8-.3 0-.6-.1-.9-.3zM273.5 281l-1.9 4.8c-.8-1.6-1.1-2.8-1.8-3.7-1.8-2-1.9-3.9-.3-6.1.5-.6.4-1.6.8-2.3.7-1.3 1.5-2.5 2.4-3.8l4.4 9.8-.4.2c-.8-.9-1.5-2-2.4-2.7-.6-.4-1.6-.2-2.5-.3.1.8.1 1.6.4 2.2.3.8.8 1.4 1.3 1.9zM281.3 277.1l2 1.4 1.5-3.8c.4 6.2-1.1 7.8-9.5 10.8.8-1 1.3-1.6 1.8-2.2.7-.8 1.7-1 1.3-2.8-.2-.8 1.8-2.2 2.9-3.4zM241.9 202.1c-3.2.3-3.9 1-4 3.7-1.7-2.7-.7-5.3 2.3-5.6 2.4-.2 4.8-.1 7.2.2 1.1.2 2 1.2 3.6 2.2-2.2 2.2-3.9 4.4-6 5.9-.6.4-2.5-.6-3.6-1.3s-2.2-1.8-1.1-3.3c.5-.7 1-1.3 1.6-1.8zM240.6 208.2l5.1 2.1-.3.8-5.1-2 .3-.9z"/></svg>