<svg class="line-drawing" width="100%" height="300" preserveAspectRatio="xMidYMid meet" xmlns="http://www.w3.org/2000/svg" viewBox="176 -40 360 360" style="">
<path d="M478,163.6c0.2,0.5,0.7,1.1,0.7,1.6c-0.1,3.6-0.4,7.2-0.6,10.8c0,0.2-0.3,0.3-0.8,0.7l-0.9-2.2l-0.6,0l-0.9,22.2l-1-0.5
	c1.1,3.3,2.5,6.8,3.5,10.5c0.4,1.7,0.8,2.6,2.7,2l0.7,3l4.8-1.5l-0.6-12.5l0.9-0.1l2.2,7.2l0.4-0.1l-0.8-14.1
	c2,5.1,0.7,11.2,5.7,14.8c0.2-0.4,0.4-0.6,0.3-0.7c-3.2-8.7-2.1-17.9-3.3-26.9c-0.2-1.4-1.1-3.3-2.1-3.8c-2.2-0.8-3-2.2-3.5-4.3
	l-0.9,7.4h-0.6c0-1.1-0.2-2.2,0-3.2c0.7-3.2,1.7-6.4,2.4-9.7c0.4-1.7-0.3-3.9,0.5-5.3c1.8-3.1-0.1-6,0.2-8.9
	c0.4-3.2,0.6-6.5,0.5-9.7c-0.2-4.3-0.7-8.6-1.1-12.9c-0.1-0.9,0-1.8,0.5-2.6l1.5,9h0.3c0-0.6,0-1.3,0-1.9c0.1-1.1-0.8-2.7,1.3-3.2
	c0.4-0.1,0.7-1.5,0.6-2.3c-0.5-3.7-1.3-7.5-1.9-11.2c-0.1-0.7-0.1-1.4,0-2.1l0.7-0.1l3.7,12.8l0.9-0.2l-1.5-8.9l2.9,5l0.8-0.1l0.7-4
	l2.1,1l-2.9-6.4l2.5-1.9c0.6,0.9,1.6,1.9,2,3c1.1,3.1,3.1,5.7,5.7,7.7c1.2,0.9,2.4,1.5,2.5,3.6c0.1,1.2,2.5,2.3,3.9,3.4l0.5-0.6
	l-2.8-2.9c5.4,2.1,9.8,5.4,12.9,10.5l-9.7-1.2l1.9,1.6c-7.5,4.1-10.3,10.8-11.1,18.6c-0.3,2.8-0.5,5.8,1.7,8.6
	c0.3-3.4,0.3-6.5,0.8-9.4c0.6-3.1,1.5-6.1,2.6-9.1c2.2-5.3,7.8-8.5,13.5-7.7c0.3,0.1,0.7,0.1,1,0.1c6.8-1,10.7,3.5,14.1,8
	c2.7,3.7,4.5,8.1,6.6,12.3c0.2,0.5-0.2,1.2-0.2,1.8c-0.1,1.2-0.3,2.4-0.1,3.6c1,4.6-1.2,7.6-4.8,10.9c-0.1-1.5-0.3-2.4-0.2-3.3
	c0.1-4.5,0.4-9,0.5-13.5c0-4.8-2-8.5-6.4-10.7c-0.2-0.1-0.4-0.2-0.6-0.4c-3-5.7-8.6-3.7-13.1-4.2c-3.5-0.4-7,3.9-7.5,8.1
	c-0.2,1.5-0.5,2.9-0.9,4.3c-0.9,2.5-1,5.3-0.3,7.8c0.4,1.4,0,3,0.1,4.4c0.1,1.2,0.4,2.3,0.4,3.4c0,0.8,0,1.8-0.5,2.5
	c-1.6,2.2-1.6,4.6,0,6.7c0.6,0.8,0.8,2,1.2,3c0.6,1.6,0.9,3.4,1.8,4.8c1,1.8,1.7,3.5,0.7,5.6c-0.7,1.6-0.2,3,1.3,4.1
	c0.8,0.6,1.1,1.8,1.5,2.8c0.5,1.4,0.9,2.9,1.4,4.6c-0.7,0.5-1.8,1-2.5,1.7c-1.2,1.3-2.4,2.6-0.8,4.5c1.2,1.5,0.3,2.1-1.2,2.9
	c-8.4,4.9-17.5,3.9-26.5,3.5c-6.1-0.2-12.1-0.8-18.1-1.8c-2.6-0.5-4.9-2.5-7.3-4c-0.4-0.2-0.6-1.5-0.4-1.7c2.3-2.1,0.5-3.1-1-4.1
	c4.3-4,0.7-8.2,1.2-12.7c-4.3,3.4-4.7,4.6-2.4,6.2c-1-0.4-2-0.7-3.1-0.9c-0.8-0.2-2.2-0.4-2.5,0.1c-0.9,1.3-1.7,2.8-2.2,4.3
	c-0.1,0.3,0.8,1.2,1.4,1.5c1.6,0.8,3.2,1.3,5.5,2.2h-7.7l0.9-1.7l-0.4-0.4l-3.1,2.3c-1.6-5.7-2.7-11.5-6.4-16.6
	c-2.2,2.4-0.4,4.4,0.2,6.3c0.7,2.1,1.6,4.1,1.8,6.5c-2-3.8-4-7.6-5.9-11.4c-0.4-0.7-0.1-1.8-0.2-2.7c-0.1-0.7-0.6-1.3-1.2-1.7
	l0.3,1.5c-0.4-0.3-0.7-0.3-0.8-0.5c-0.9-1.4-1.9-2.8-2.7-4.2c-1-1.7-2.4-2.8-4.4-2.8h-9l-4.2-14.5c-2.7,2.4-3.3,3.9-2.1,5.5
	l-3.5,0.8c-2.5-2-0.8-4.4-0.4-6.4c0.9-4.3,0.9-8.7-0.1-13c-0.3-1.2-0.4-2.4-0.3-3.6c0.2-6.8-0.7-13.6-2.7-20.2l2-2.3
	c-3.2,1.1-3.5,2.2-2.8,5.1c2.1,8.1,3,16.4,1.1,24.5c-2.9,1.1-5.7,2.1-8.4,3.4c-1.5,0.7-2.7,2.1-4.1,3.1c-0.9,0.6-1.9,1-2.9,1.3
	c-1.7,0.7-3.5,1.3-5.3,1.9l1,2.2c3.2-0.7,6.2-1.1,9.1-2.1c2.6-0.9,4.9-2.4,7.3-3.7c0.9-0.5,1.8-1.1,2.8-1.8l2.8,20.6
	c-3.9,0.2-7.2,0.3-10.5,0.5s-6.7,0.1-10,0.5c-1.3,0.3-2.5,0.9-3.3,1.9c-1.2,1.3-0.5,2.7,0.5,4.1c3.3,4.8,6.5,9.7,9.7,14.6
	c0.7,1.1,0.8,2.5,1.4,4.2c2.9,0.8,4.1,3.7,5,6.2c-1,0.8-2.2,1.3-2.3,1.9c-0.3,2,2.5,5.2,4.7,5.6l-1,1.1l2.6,3.1
	c-0.7,0.2-1.3,0.3-1.8,0.4c-2.5,1.9-3.6,4.6-4.5,7.6c-0.5,1.9-1.3,3.7-2.3,5.4c-2.3,3.8-4.9,7.5-7.3,11.3c-0.4,0.5-0.6,1.2-0.7,1.8
	c0.2,3.3-1.4,5.7-3.1,8.2c-1.9,2.8-1.4,5.3,1.3,7.2c1.6,1.1,2.6,2.9,2.7,4.8c0.3,2.3,0.6,4.6,1.1,6.9c0.1,0.6,1,1.4,1.5,1.4
	s1.4-0.9,1.5-1.5c0.2-1.5,0.2-2.9,0-4.4c-0.3-4.3-1.5-6.9-5.6-7.8c-2.2-0.5-2.5-2.2-1.1-4c1.2-1.5,2.5-2.9,3.6-4.5
	c0.5-0.8,1-2.1,0.8-2.9c-0.6-2.3,0.2-4.1,1.6-5.8c1-1.3,2.1-2.6,3-3.9c1.1-1.6,2.2-3.2,3.2-4.9c1-1.8,1.9-3.6,2.6-5.5
	c0.7-1.7,0.7-3.8,1.7-5.1c1.3-1.8,1-2.9-0.2-4.3c1.1,1.5,2.4,2.9,3.3,4.5s2.1,1.9,3.3,1c2.1-1.5,3.9-3.4,6-5c1-0.7,2.1-1.4,3.1-2
	c-1.3,1.8-2.4,3-3.2,4.4s-0.3,2.4,1.2,2.5c2.7,0.2,5.4,0.1,8.1,0c1.3,0,2.6-0.4,4-0.4c4.2-0.1,5.4-2,3.1-6.1c1.2,0.3,2.1,0.5,3,0.8
	c4.4,1.6,8.8,3.4,13.3,4.9c2.4,0.7,4.9,1.3,7.4,1.7c0.9,0.2,1.8,0.1,2.7-0.1c7.8-2.1,15.6-1,23.4,0c9.9,1.2,19.7,3,29.6,4.7
	c0.8,0.1,1.5,0.7,2.3,1.1c0.5,0.3,1.1,0.5,1.7,0.7c0.4,0.1,1.1-0.1,1.2,0.1c1.9,3.2,5.4,2,8.1,3c0.8,0.3,2,0,2.8-0.4
	c2.2-1,4.2-2.3,6.4-3.4c1.5-0.8,2.9-0.9,3.5,1.2c0.8,2.4,1.6,4.7,2.4,7.1c1.1,3.6,2.1,7.3,3.3,10.9c0.5,1.7,1.5,1.9,3,1
	c2.3-1.4,3.5-3.4,4.4-5.8c2.2-6.5,6.3-11.9,11.4-16.4c0.3-0.2,0.7-0.4,1.1-0.5c0.3,1.1,0.5,2.2,0.9,3.1c0.5,1.3,0.3,2.2-1,3.1
	c-1.8,1.4-3.4,3-3.4,6.3l6.4-4.5v57h-44.5c3.1-2.2,2.6-5.5,2.2-8.7l2.5-0.5l0.2-0.6c-2.8-1.5-4.5-4.9-8.4-4.7
	c-2.2,0.1-4.3,0.3-6.5,0.2c-0.8-0.1-1.6-0.6-2.1-1.3c-0.8-1.1-1.1-2.9-2.2-3.5c-1.7-1-2.2-2.4-2.6-4c-0.9-3.5-1.4-7-2.6-10.4
	c-1.1-3.1-2.9-5.9-4.5-8.8c-0.4-0.8-1.2-1.3-1.9-2c-0.5,1-1.1,2-1.6,3s-0.8,3-1.5,3.2c-4.6,1.2-9.3,2-14,2.9l-0.4-0.8l2.3-2
	c0.5-1.4-3.1-1.6-1-3.5c-0.4-0.3-0.8-0.6-1.2-0.8c-6.2-3.2-12.4-6.5-18.7-9.5c-2.2-1-4.8-1.1-7.3-1.5c-0.2,0-0.5,0.1-0.7,0.2
	l-4.3,1.6c7.7,9,17.4,14.6,29.1,17.5l-35.9,13.8l-2-4l-1.3,5.3l-1.1-1.4c-0.6,0.9-1,2-1.7,2.5c-2.4,1.7-4.9,3.1-7.4,4.6
	c-4.5,2.6-7.9,6.2-9.8,11.2c-0.4,0.8-1.2,1.3-2,1.4c-4.9-0.1-9.8-0.3-14.7-0.5c-0.7-0.1-1.3-0.2-1.9-0.4c3.4-4.1,2.9-8.7,2.8-12.8
	c-3.2,0-6.3,0.5-9.1-0.1c-5-1-9.8-2.5-15-1.9c-0.2,0-0.3,0-0.5,0c-1.6-0.2-2-0.9-0.9-2.3c0.7-0.9,1.3-1.9,2.2-3.3
	c-1.6,0.4-2.7,0.8-3.7,0.8s-2.1-0.5-3.2-0.5c-0.7,0-1.4,0.6-2,0.9c0.5,0.7,1,1.6,1.7,2.1c0.5,0.3,1.3,0,1.9,0.3
	c0.7,0.3,1.3,0.7,1.9,1.1c-6.9-0.7-9.8-2.4-13.5-7.6c-1.7-2.4-3.4-4.9-5.1-7.4c-0.1-0.1-0.1-0.3-0.1-0.7l1.1-0.3
	c-0.2-0.4-0.4-0.9-0.5-1.4c-0.1-0.5-0.2-1-0.1-1.5c-0.1-9.3,2.8-17.1,10.4-22.9c1.4-1,2.7-2.2,4-3.4c1.4-1.5,1.7-3.1-0.3-4.4
	c-1.7-1.1-2.2-2.8-2.4-4.7c-0.1-2.1-0.5-4.1-1-6.1c-1.3-4,0.1-5,3.5-6.3s6.9-2,10.3-2.9c7.3-2,9.7-6.7,6.9-13.6
	c-0.9-2.1-1.8-4.1-2.7-6.2c-3.1-7.6-6.2-15.2-9.4-22.8c-0.3-0.6-0.8-1.2-1.3-1.7c0.1,3.9,0.5,8.2,0.3,12.4c0,1.2-1.6,3.5-2.4,3.4
	c-2.2-0.1-4.6-0.7-6.4-2c-2.1-1.5-2.8-1.7-4.4,0.5c-1,1.6-2.3,3-3.8,4.2c-0.8,0.6-2.3,0.4-4.1,0.7c-1.3,2.8-4.8,3-8.1,3.3
	c-4.2,0.4-8.3,0.8-12.4,2.3c-3.5,1.2-7.1,1.9-10.7,2c-9.3,0.6-17.9-1.8-25.9-6.8c-1.5-1-2.9-1.3-3.9,0.6c0.6-1,1.2-1.9,2-2.8
	c2.2-2.7,3.7-3.2,7.2-2.1c-0.3,0.7-0.5,1.7-1,2.2c-0.5,0.5-1.5,0.8-2.6,1.3c0.6,0.4,1.2,0.8,1.8,1.1c4.2,1.5,8.5,2.9,12.7,4.3
	c5.2,1.7,10.3,1.4,15.4-0.5c2.5-0.9,5.3-1.4,7.9-2.3c3.8-1.3,5.2-3.8,4.3-7.5c-0.5-1.9,0-4.3-2.4-5.4c0.9-2.7-1.1-4.6-1.9-6.7
	c-0.7-1.7-2.2-3.2-3.4-4.7c1-0.8,2.1-1.5,3.3-2.2c2.9-1.4,4.3-3.6,4.9-6.7c1.1-5.7,7.5-9.9,13.4-8.9c0.4-1,0.9-2.1,1.4-3.1
	c1.1-2.3,2.1-4.5,4.7-5.8c1.6-0.8,3.6-2.2,3-4.9c-0.1-0.6,0.5-1.6,1-2c2.9-2.1,5.6-4.4,8.8-6c8.2-4.2,16.6-8.1,25-11.8
	c1.6-0.7,4,0.5,6,0.8l0,0.7l-1.9,1.1c1.7,3.1,5.1,4.4,7.6,2.4c3.3-2.6,6.7-5,9.6-8.2c1.3-1.4,2.1-3.1,2.5-5c0.3-1.3,1.9-2.3,3-3.4
	c0.3-0.1,0.6,0,0.9,0.2c0.2,0.4,0.3,0.9,0.2,1.3c-1,2.2-2.2,4.2-3.2,6.4c-0.3,0.7-0.5,1.8-0.2,2.3c1,1.4,0.5,2-0.7,2.8
	c-0.8,0.4-1.5,1-2,1.7c-0.7,1.2-1,2.5-1.5,3.8c1.2,0.3,2.4,0.6,3.6,0.8c2.7,0.2,5.2,2.3,5.7,4.9c0.3,1.7,0.5,3.4,0.6,5.2
	c-1.1-2.5-0.7-5.9-4.6-6.5c-2.6-0.4-5.1-2.6-7.9-0.4l-3.6-3.2l-0.4,0.4l3.9,4.6l-3.3-1.2c-1.1,10.9,1.6,20.7,7.2,29.7v0
	c-0.1,0.2-0.2,0.5-0.2,0.7c0.5,2.3,1.6,4.5,1.5,6.8c-0.1,2.1-1.4,4.2-2.2,6.3c4.1-0.2,2.9-3.7,3.9-6l3.3,1.7
	c1.8-1.1,3.5-2.4,5.3-3.3c1.8-0.9,1.6-0.6,0.5-2.2c-0.7-1.1-0.9-2.8-0.8-4.2c0.1-3.6,0.6-7.3,0.7-10.9c0.1-3.5,0-7-0.3-10.5
	c-2.6,3.9-0.6,8.7-2.5,13.1l-0.3-2.2l-0.7,1.4l-0.7-0.2c0-2.1-0.6-4.4,0.1-6.3c1.1-3,3.1-5.8,4.7-8.7c0.4-0.9,0.8-1.9,1.1-2.9
	l-0.8-0.4l-2.2,3.4c0.3-6.3-2-11.7-0.4-17.6s2.2-12,3.3-18.2c0.3,1.6,0.8,3.3,0.8,4.9c0.1,4.3-0.1,8.7-0.1,13c0,3.4,0,3.4,2.3,5.9
	l-1,2.5l1.9-1.3l1.7,1.2l0.3-0.5c0.2,0.8,0.5,1.6,0.7,2.4c0.6,2.8,1.2,5.6,1.7,8.4c0.1,0.7,0,1.3-0.4,1.9c-2.6,3.8-0.6,8-1.4,12
	l0.9,0.1l2.5-13c4.5,4,8.6,0.8,12.8-1.4c2.3-1.3,2.9-1,3,1.6c0.3,3.8,0.6,7.6,0.8,11.4c0.3,6.3,0.6,12.6,0.9,19
	c0.1,0.6,0.2,1.2,0.4,1.8l0.8,0.1c0.2-1.4,0.7-2.7,0.6-4.1c-0.1-6.7-0.4-13.3-0.6-20c0-1.6,0-3.2,0-4.9h0.9l0.5,4.9h0.5l0.8-3.2h0.5
	l2.3,37.5l1.9-3.4c0.8,1.2,1.4,2.2,2,3.1c0.2,3.7,0.5,7.5,0.7,11.4l-2.3-0.8l2.5,6c1.8-8.1,3.4-16.3,3.3-24.5l-0.7-0.1l-1.8,10h-0.8
	l-0.8-2l-1-6.8l-1.4,1c-0.1-0.4-0.1-0.7-0.1-1.1c0.2-2.3,0.5-4.7,0.6-7c0.1-5.1,0.2-10.3,0.3-15.4c0-0.3,0.2-0.5,0.7-0.8l0.8,8.6
	l0.8,0c0-2.3,0.2-4.7,0-7c-0.7-8.7-1.7-17.3-2.4-26c-0.3-3.6,0-7.3,0.2-11c2.5,11.9,3.7,24,3.4,36.2l2.2-1.9c0,1,0.1,1.7,0,2.4
	c-0.3,2.5-0.5,5.1-0.9,7.6c-0.3,2.4-0.9,4.7-1.2,7.1c-0.1,1.1,0.2,2.2,0.4,3.9c3.4-2.7,0.9-6.1,2.2-8.4L478,163.6L478,163.6z
	 M420.1,233.5l-0.7,0.4v1.6c-3.8-4.4-3.8-4.4-5.8-4.4c-1,5,1.1,9.7,3.2,13.7c2.1,3.9,5.9,6.9,9,10.4l0.3-1.5c2.5,1.8,4.1,5.1,8,4
	c0.3-0.1,0.8,0.6,1.1,0.9c1.4,1.3,2.8,2.6,4.3,3.8c0.7,0.6,1.8,1.2,2.6,1c4.5-1.1,9.8-1.2,10.9-7.4c-3.2-3.6-9.4-8-13.5-9.3
	c-1.7-0.4-3.4-0.8-5.1-1c-4.2-0.7-8-1.8-10.1-6.2C423.2,237.4,421.5,235.5,420.1,233.5z M448.3,174l-6.8-4.5l0.2-0.3l3.2,0.7
	c-2.9-2.5-5.1-4.7-7.5-6.6c-0.9-0.7-2.8-1.5-3.4-1c-1.1,0.8-1.6,2.4-2.3,3.7c-0.1,0.1,0.2,0.4,0.3,0.7h2.6c-1.9,0.8-3,1.4-1.5,3.1
	c0.2,0.2-0.1,0.9-0.1,1.3c0,2.8-0.1,5.6,0,8.4c0,0.6,1.2,1.4,1.9,1.5c1.9,0.3,3.9,0.3,5.8,0.5c3.3,0.3,6.7,0.5,10,0.8
	c2.4,0.3,2.3-1,2.1-2.4h-4.4L448.3,174z M459.6,244.4l-0.3,0.6c0.3,0.3,0.6,0.5,1,0.7c5.7,2.9,11.4,5.9,17.1,8.8
	c3.9,1.9,7.8,3.7,11.8,5.5c1.2,0.5,2.8,1.2,3.3-1c0.3-1.5,0.6-3.1,1-5c-1.8,0.8-3.5,1-4.3-1.3c0.2-0.2,0.3-0.4,0.4-0.5
	c0.2-0.1,0.5-0.1,0.7-0.2c1.6-0.8,2.2-3.1,1.3-4.5c-1.2-2-2.8-2.2-4.6-0.8c-2.4,1.9-2.8,3.7-1.4,7.5l-4,0.5L476,247l-0.5,2.5
	l-9.6-4.3l-0.9,1.5L459.6,244.4z M524.1,273l0.9-0.8l-3.5-0.2c0.1,1,0.2,2,0.5,3.1c0.8,2.8,1.8,5.5,2.5,8.3c0.3,1.4,1.1,2.4,2.3,1.8
	c1.9-0.9,3,0.1,4.3,1c0.9,0.6,1.8,1.3,2.9,2c-0.4-3.1-1.8-4.4-4.3-4.7c-0.7-0.1-1.7-0.3-2.1-0.8c-1.3-1.7-2.6-3.5-3.4-5.4
	C523.5,276,524,274.4,524.1,273z M542.8,258.5l-18.2,2.9C527.7,264.4,538.5,262.6,542.8,258.5L542.8,258.5z M452.8,151.1
	c-2.9-2.6-6.3-2.6-9.7-2.6c-0.3,0-0.8,0.6-0.8,1c0,0.5,0.2,0.9,0.6,1.1c4.1,1.5,8.1,3,12.2,4.5l0.4-0.7l-3.8-2.7L452.8,151.1z
	 M510.4,259.7c-2.2-3-4.8-5.9-6.4-9.2s-2.2-7.1-3.2-10.6C498,244.7,505.1,259.1,510.4,259.7z M549.7,257.5c0.4,2.3,2,3.3,3,1.9
	c1.6-2.2,3.1-4.5,4.3-6.9c0.2-0.4-0.6-1.3-0.9-2c-0.6,0.4-1.3,0.6-1.7,1.1s-0.3,1.3-0.5,1.9C553.4,255.7,552.8,258,549.7,257.5
	L549.7,257.5z M429.7,260.5c1.8,1.8,3.4,3.5,5.3,4.9c0.3,0.3,2.5-0.9,2.6-1.5C437.6,261.7,432.4,259.1,429.7,260.5L429.7,260.5z
	 M409.6,136.6l3,14.9C414.3,146.4,412.1,136.8,409.6,136.6L409.6,136.6z M438.4,152l-1.7,1.5c0.4-3.5-0.3-7-1.9-10.1v12
	C436.8,156,437.6,154.5,438.4,152z M518.9,278.4l-0.1-1.1c-2.8-0.2-5.6,0.1-8.2,1.1c-0.3,0.1-0.6,1-0.5,1.4c0,0.3,0.8,0.7,1.1,0.6
	C513.8,279.8,516.3,279.1,518.9,278.4L518.9,278.4z M450.1,146.3c-1.4-0.4-2.5-0.6-3.6-1s-2.1-1.8-3,0.2
	C446.2,147.9,448.1,148.1,450.1,146.3z M437.9,124.9c-2.3,4.8-2.3,4.8-1.3,6.8C439.2,130,438.4,127.7,437.9,124.9L437.9,124.9z
	 M508.4,175.7l-1.4,0c-0.1,1.7-0.2,3.5-0.2,5.2c0,0.3,0.6,0.8,0.8,0.7c0.4-0.1,1-0.6,1-0.9C508.7,179,508.5,177.3,508.4,175.7z
	 M525.4,266.6c0.1,0.6,0.2,1.3,0.3,1.9c0,0.7-0.2,1.3-0.1,2c0.1,0.4,0.5,1.1,0.7,1.1c0.5,0,1.1-0.2,1.4-0.6
	C528.6,269.8,527.3,267.2,525.4,266.6L525.4,266.6z M441.2,160.1l-0.4,0.8l3.8,1.8l0.5-1.1L441.2,160.1z"/>
<path d="M190.9,125.6c3.1,0.4,7.1,4.2,9.2,6c9.3,7.8,16.9,13,28.2,17.6c2.3,0.9,4.6,1.8,7,2.7l0,0c2.9-3.6,6.8-4.2,11-4.4
	c9-0.4,15.3,3.9,20.4,10.7c0.8,1.1,1.7,1.9,0.8,3.7c-0.6,1.3,0.3,3.2,0.5,4.9c0.2,2.2,0.7,4.3-1.5,6.1c-0.7,0.6-0.1,2.9-0.1,4.7l0,0
	c-3.2,0.8-7.1,1.8-11,2.9c-0.6,0.2-1.1,0.7-1.2,1.3c0.1,0.6,0.5,1.1,1.1,1.4c1.3,0.3,2.6,0.3,3.9,0.1c5.8-1.3,11.7-1.2,17.5-0.7
	c0.6,0.1,1.1,0.5,1.4,1.1c0.6,1.3,1.1,2.7,1.5,3.8l0,0c-2.7,3.1-5.9,0.9-9,1.2l2.8-2l-0.2-0.4l-2.2,0.5l2.4-3.1
	c-2.3-1.2-5.6-0.9-7,0.9c-0.7,0.9-1,2.1-0.9,3.3c0.6,3.4,2,6.6,5.3,9.3V193c0,0,0,0,0,0c0.5,1.1,0.7,2.8,1.4,3.1
	c1.1,0.5,2.6,0,3.9-0.3c1.8-0.5,3.6-1.2,5.4-1.8c-1.3,0.7-2.7,1.3-3.9,2.3c-5.5,4.7-8.1,10.6-7.4,17.8c1.6,15.3,5.7,30,10.1,44.7
	c0.4,1.4,0.8,2.8,1.3,4.4l0,0c-2.7,2-5,3.8-8.8,2.2c-2-0.8-4.7-0.3-7.1-0.3c-1.2,0-2.7-0.4-3.7,0.1c-1.7,0.8-3.2,2-4.7,3.2
	c-0.5,0.4-0.6,1.1-1.1,2c-1-0.9-1.9-1.8-2.8-2.5c-0.3-0.3-0.9-0.7-1.1-0.6c-0.4,0.2-0.7,0.7-0.7,1.1c-0.4,2.4-0.9,2.5-3,1.5
	c-5.3-2.5-6-7.8-8.4-12.2c-0.3-0.6,0.3-1.6,0.4-2.1l0,0c-2.1-2,0.8-4.2-0.6-6.3l-1.9,4.8l0,0h-0.7l0,0c0-0.8,0-1.6,0-2.4
	c0.1-0.7,0.3-1.4,0.6-2l0,0c-0.5-0.1-1.2-0.4-1.3-0.2c-0.6,0.7-1.6,1.8-1.4,2.3c1.1,2.6-0.1,4.2-1.7,6c-1.3,1.4-2,1.2-3.2,0
	c-1.3-1.3-2.9-2.3-4.7-3.8l0,0c-0.1-3.2-1.6-4.8-4.5-4.9l0,0l-3.1-2.2c0,1.3-0.1,2.6,0,4c0,0.3,0.6,0.6,0.8,0.9
	c1.1,1.8,1.1,2.5,0.2,6.5l-6.6-7.4c-0.1,1.1,0,1.7-0.2,1.8c-2.4,1.6-2.4,1.8,0.1,3.4l-2.5,3.2c3.2,0,3.4,1.4,4.8,3.4
	c1.5,2.3,4.1,3.8,6.3,5.6s4.5,3.3,6.6,5.1c-6.5-2.5-12.1-5.5-17.6-10.7l-20-1 M232,152.3L232,152.3c-1.9,1.5-4.6,2.8-6,5
	c-2.8,4.3-1.2,9,0.1,13.4c0.7,2.3,2,4.5,3.1,6.7c0.4,0.7,0.9,1.3,1.4,1.9l0,0c0.5-0.7,1.4-1.3,1.6-2.1c0.4-2.5,0.9-5.1,0.7-7.6
	c-0.2-3,1.6-4.6,3.6-6c3.2-2.3,3.2-5.3,0-7.6c-1.5-0.8-2.7-2-4.7-3.6L232,152.3z M212.8,174c-1.1,1.8-1.6,3.3-2.6,4.1
	c-1.7,1.4-1.5,2.8-1.4,4.7c0.1,3.2,2.4,3.7,4.3,4.7c1.1,0.6,2.6,0.3,3.2-0.8c0.8-1.4-0.4-2.8-1.1-4.2c-0.4-0.9-1.1-1.8-1.4-2.7
	c-0.6-1.5-0.8-3.3-1.2-5.7L212.8,174z M250.4,255.2l-0.6-0.4l-1.1,0.8l0,0l-2.4-2.7l0,0l1.7-1.2c-1.4-1.1-2.5,1.6-3.9-0.1
	c-0.2,0.4-0.7,0.9-0.5,1.2c0.6,1.5,1.4,3,2,4.6c1.2,3.1,5.2,4.3,5.2,8.2c0,0.2,0.9,0.4,1.3,0.7l0,0c0.2-0.5,0.6-1.1,0.5-1.5
	c-0.5-1.3-1.2-2.5-1.7-3.8c-0.5-1-0.8-2-1-3.1c-0.2-0.8,0.2-1.6,0.4-2.5L250.4,255.2z M217.8,181.5l-0.5,0.2l2.3,14.4l0.6-0.1
	l-1.3-9.8l3.6,3.5l0.7-0.6L217.8,181.5z M213.3,163c-2.4,0.5-2.6,2-2,4.1C212.5,165.8,215,165.6,213.3,163z M213.1,190.4l-1.2-1.1
	l0,0l-2.7,3.5l0.7,0.7L213.1,190.4L213.1,190.4z M217.5,223.6l2.3,0.4l0,0v-3.3l0,0C217.8,220.2,217.3,221.5,217.5,223.6
	L217.5,223.6z"/>
<path d="M412.1,76.6l5.6,3.3c-0.8-2.2-1.4-3.6-3.6-3.9c-2.8-0.4-4.2-2.2-4.5-5c-3.4-0.7-6,0.7-8.8,2.4c-3.4,2.1-7,3.6-10.6,5.3
	c-1.1,0.5-2.3,1.3-2.4-1c-2.5,1.4-4.6,0.1-4.5-2.5c0.2-5.2,2.7-9.2,6.3-12.8c0.9-0.9,1.4-2.2,2.3-2.9c10.4-7.3,19.6-10.1,32.2-2.7
	c5.2,3,7.5,8.3,9.3,13.7c2.3,7,2,14.1,0.2,21.1c-0.1,0.2-0.3,0.4-0.8,1.1c-0.2-1.3-0.4-2.1-0.4-2.9c0.1-1.7,0.3-3.5,0.6-5.2
	c0.6-2.5-0.7-3.9-2.6-5.1c-2-1.3-3.5-0.1-4.8,1.2c-1.1,1-2.1,2.1-3.2,0.7l-5.1,3.1l-0.7-3.1l-0.4,0.4l-4.8-4.3L412.1,76.6z"/>
<path d="M457.2,91.5h-2.8c5.4,4.9,3.1,11.2,4.5,16.8l-0.7,0.2c-0.2-0.4-0.7-0.9-0.7-1.3c0.2-2.3-1.2-3.4-3-4.3
	c-3.9-1.9-7.6-4.1-11.4-6.1c-1.5-0.8-3.6-1.3-4.2-2.5c-1-2.1-1.2-4.6-1.3-7c-0.1-2.1,1-3.8,3.1-4.6c0.6-0.2,1.1-0.5,1.5-0.9
	c5.4-6.3,13.1-7.5,20.5-9.3c3.2-0.7,6.4-1,9.6-0.9c1.7,0,3.4,0.5,4.9,1.5c7,4.7,10.8,11.8,14.1,19.3c0.1,0.2,0,0.5,0,1.6l-3.1-4.1
	l-1.4,1.4l-2.6-2.2l-0.6,4.3l-2.2-3l-0.6,3.2l-0.7,0.1l-2.6-5.1l-5.7,6.1l-1-0.8l-0.8,3.6c-0.4-1.5-0.3-3.4-1.2-4.3
	c-0.7-0.7-2.6-0.1-3.9-0.1l-0.8,5.1H463l-3.2-7l-1.1,3.1h-0.7L457.2,91.5z"/>
<path d="M561.3,209.4c-4.3-5-9.8-9.2-10.1-16.6c-0.3-6.5-0.9-12.9-1.4-19.4l0.7-0.2L561.3,209.4z"/>
<path d="M282.8,175.5l-8.8-0.6l-1.9-7C276,167.2,280.6,170.2,282.8,175.5z"/>
<path d="M481.9,162.6l2.2-25.7l0.7,0.1C486.7,145.7,486.1,154.2,481.9,162.6z"/>
<path d="M306.1,175.7v-1.4l13.5-2.7c0.2,0,0.6-0.2,0.7-0.1c0.5,0.3,0.9,0.7,1.2,1.2c0.1,0.2-0.4,0.7-0.7,1.1l-1.3-1.5
	c-1.6,0.9-3.9,1.6-5.2,3.2c-1.9,2.3-3.6,1.7-5.7,1C307.8,176.2,306.9,175.9,306.1,175.7L306.1,175.7z"/>
<path d="M405,94.4c-0.5,0.5-1.1,1-1.7,1.4c-0.5,0.3-1.7,0.6-1.8,0.4c-1.5-2.3-4.2-1.5-6.1-2.5c-0.5-0.3-1-0.7-1.5-1.1
	c2.6-0.6,5.2-1.3,7.8-1.7c0.6-0.1,1.5,0.6,2.1,1.2C404.3,92.4,404.4,93.2,405,94.4z"/>
<path d="M482.9,202.8c-1.4-2.2-1.8-18.1,0-22.5V202.8z"/>
<path d="M479,151.9v-19.2c0.9,6.5,2.2,12.8,1,19.2L479,151.9z"/>
<path d="M422.9,129.3c4,0.6,2.8,3.8,3.2,6c0.3,2.1,0.1,4.4,0.1,6.6l-0.6,0.1L422.9,129.3z"/>
<path d="M398.2,111.4l7.7-1.1v-0.6l-1.6-0.5c1.5-2.5,3.5,0.3,5.1-0.5l1.2,2.4l-0.4,0.5c-2.7-2.1-5,0.2-7.5,0.4
	C401.2,112,399.7,113.4,398.2,111.4z"/>
<path d="M392.2,96c-3.9-4-5.8-8.1-4.4-13.3c0.1,0.9,0.2,1.8,0.2,2.7c-0.1,2.8,0.5,5.1,3.3,6.3C393,92.6,392.9,94,392.2,96z"/>
<path d="M460.9,118.2c0.6,2.6,1.4,5.2,1.7,7.9s0.1,5.4,0.1,8.1l-0.9,0l-1.1-16.1L460.9,118.2z"/>
<path d="M478.1,163.7V153c2.6,2.6,0.5,6.5,2,9.5C479.4,162.9,478.7,163.3,478.1,163.7L478.1,163.7z"/>
<path d="M395.1,162.4l10.7-5.1l0.4,0.7l-10.4,5.8L395.1,162.4z"/>
<path d="M394.8,107.6l5.7-1.9l0.2,0.4l-2,1.2l1.7,2.8c-1.1-0.1-2.3,0-3.2-0.4S395.5,108.3,394.8,107.6z"/>
<path d="M467.6,147.7l-1.4-10.7l1-0.1l1.4,10.7L467.6,147.7z"/>
<path d="M427.3,219.6l9,2.1l-0.1,0.4l-9-1.3L427.3,219.6z"/>
<path d="M329.8,170c3.8,1.3,5.5,4.3,6,8.2C334,175.2,333.4,171.4,329.8,170z"/>
<path d="M306,175.6h-8l0.1-0.8L306,175.6L306,175.6z"/>
<path d="M458.4,200.2l-0.3,3l-3.2-2l0.3-0.8L458.4,200.2z"/>
<path d="M426.1,215.8l7.8,1.6l-0.1,0.7l-7.6-1.6L426.1,215.8z"/>
<path d="M419.7,155.4c-0.2-1.5-1.3-3,0.1-4.7C422,152.5,420.4,153.9,419.7,155.4L419.7,155.4z"/>
<path d="M292.2,190c-1.3,2.9-4.2,1.9-6.3,2.8L292.2,190z"/>
<path d="M438.5,102.7c2.4,0,1.8,2.9,3,4l-3.6-3.3L438.5,102.7z"/>
<path d="M442.8,111.7l-2.7-3.1C443.3,108.7,444,109.4,442.8,111.7z"/>
<path d="M422.3,135.8c-0.9,0.6-1.4,1.2-2,1.3c-0.4,0-0.8-0.7-1.2-1.1c0.5-0.4,1-0.9,1.6-1.1C421,134.7,421.5,135.3,422.3,135.8z"/>
<path d="M524.6,261.4l18.2-2.9"/>
<path d="M412.5,151.5l-3-14.9"/>
<path d="M437.9,124.9"/>
<path d="M236.8,277.5c1.2-0.7,3.5-1.3,3.9-2.4c0.7-2.3-1.4-3.5-3.2-4.7c-1.9-1.2-3.7-2.6-5.6-3.9l0.4-1c1.5,0.7,3.1,1.2,4.5,2
	c1.2,0.8,2.4,1.7,3.6,2.6l0.5-0.6l-6-6.7c0.1-0.4,0.2-1.2,0.7-1.7c0.5-0.5,1.2-0.9,1.9-1c0.6-0.1,1,0.1,1.4,1.2
	c0.8,2.4,2.7,4.5,3.7,6.9c0.7,1.8,1.1,3.7,1,5.6c0,2.8,1.1,5.6,3,7.7c1.1,1.3,1.8,2.8,3,4c0.7,0.7,1.7,1.6,2.9,0.1
	c0.3-0.4,1.9-0.1,2.8,0.1c3,0.7,5.9,1.6,8.7,2.7c-3.1,0-6.3,0.2-9.4-0.1c-4-0.4-7.6-2.2-9.8-5.7c-1.7-2.8-3.9-4.4-7.1-4.8
	C237.4,277.8,237.1,277.7,236.8,277.5z"/>
<path d="M273.5,281l-1.9,4.8c-0.8-1.6-1.1-2.8-1.8-3.7c-1.8-2-1.9-3.9-0.3-6.1c0.5-0.6,0.4-1.6,0.8-2.3c0.7-1.3,1.5-2.5,2.4-3.8
	l4.4,9.8l-0.4,0.2c-0.8-0.9-1.5-2-2.4-2.7c-0.6-0.4-1.6-0.2-2.5-0.3c0.1,0.8,0.1,1.6,0.4,2.2C272.5,279.9,273,280.5,273.5,281z"/>
<path d="M281.3,277.1l2,1.4l1.5-3.8c0.4,6.2-1.1,7.8-9.5,10.8c0.8-1,1.3-1.6,1.8-2.2c0.7-0.8,1.7-1,1.3-2.8
	C278.2,279.7,280.2,278.3,281.3,277.1z"/>
<path d="M241.9,202.1c-3.2,0.3-3.9,1-4,3.7c-1.7-2.7-0.7-5.3,2.3-5.6c2.4-0.2,4.8-0.1,7.2,0.2c1.1,0.2,2,1.2,3.6,2.2
	c-2.2,2.2-3.9,4.4-6,5.9c-0.6,0.4-2.5-0.6-3.6-1.3s-2.2-1.8-1.1-3.3C240.8,203.2,241.3,202.6,241.9,202.1z"/>
<path d="M240.6,208.2l5.1,2.1l-0.3,0.8l-5.1-2L240.6,208.2z"/>
</svg>
