<svg xmlns="http://www.w3.org/2000/svg" width="100%" preserveAspectRatio="xMidYMid meet" viewBox="175 -40 390 390"><path d="M478 163.6c.2.5.7 1 .7 1.6L478 176c0 .2-.3.3-.8.7l-1-2.2h-.6l-1 22.2-1-.5 3.5 10.5c.4 1.7.8 2.6 2.7 2l.7 3 4.8-1.5-.6-12.5 1-.1 2.2 7.2.4-.1-.8-14c2 5 .7 11.2 5.7 14.8.2-.4.4-.6.3-.7-3.2-8.7-2-18-3.3-27-.2-1.4-1-3.3-2-3.8-2.2-.8-3-2.2-3.5-4.3l-1 7.4h-.6c0-1-.2-2.2 0-3.2.7-3.2 1.7-6.4 2.4-9.7.4-1.7-.3-4 .5-5.3 1.8-3-.1-6 .2-9a63 63 0 0 0 .5-9.7c-.2-4.3-.7-8.6-1-13-.1-1 0-1.8.5-2.6l1.8 9v-2c.1-1-.8-2.7 1.3-3.2.4-.1.7-1.5.6-2.3l-2-11.2c-.1-.7-.1-1.4 0-2l.7-.1 3.7 12.8 1-.2-1.5-9 3 5 .8-.1.7-4 2 1-3-6.4 2.5-2c.6 1 1.6 2 2 3a16 16 0 0 0 5.7 7.7c1.2 1 2.4 1.5 2.5 3.6.1 1.2 2.5 2.3 4 3.4l.5-.6-2.8-3c5.4 2 9.8 5.4 13 10.5l-9.7-1.2 2 1.6c-7.5 4-10.3 10.8-11 18.6-.3 2.8-.5 5.8 1.7 8.6l.8-9.4a59 59 0 0 1 2.6-9.1c2.2-5.3 7.8-8.5 13.5-7.7.3.1.7.1 1 .1 6.8-1 10.7 3.5 14 8 2.7 3.7 4.5 8 6.6 12.3.2.5-.2 1.2-.2 1.8-.1 1.2-.3 2.4-.1 3.6 1 4.6-1.2 7.6-4.8 11-.1-1.5-.3-2.4-.2-3.3l.5-13.5c0-4.8-2-8.5-6.4-10.7-.2-.1-.4-.2-.6-.4-3-5.7-8.6-3.7-13-4.2-3.5-.4-7 4-7.5 8-.2 1.5-.5 3-1 4.3a13 13 0 0 0-.3 7.8c.4 1.4 0 3 .1 4.4.1 1.2.4 2.3.4 3.4 0 .8 0 1.8-.5 2.5-1.6 2.2-1.6 4.6 0 6.7.6.8.8 2 1.2 3 .6 1.6 1 3.4 1.8 4.8 1 1.8 1.7 3.5.7 5.6-.7 1.6-.2 3 1.3 4 .8.6 1 1.8 1.5 2.8a50 50 0 0 1 1.4 4.6c-.7.5-1.8 1-2.5 1.7-1.2 1.3-2.4 2.6-.8 4.5 1.2 1.5.3 2-1.2 3-8.4 5-17.5 4-26.5 3.5a137 137 0 0 1-18.1-1.8c-2.6-.5-5-2.5-7.3-4-.4-.2-.6-1.5-.4-1.7 2.3-2 .5-3-1-4 4.3-4 .7-8.2 1.2-12.7-4.3 3.4-4.7 4.6-2.4 6.2l-3-1c-.8-.2-2.2-.4-2.5.1-1 1.3-1.7 2.8-2.2 4.3-.1.3.8 1.2 1.4 1.5 1.6.8 3.2 1.3 5.5 2.2H451l1-1.7-.4-.4-3 2.3c-1.6-5.7-2.7-11.5-6.4-16.6-2.2 2.4-.4 4.4.2 6.3.7 2 1.6 4 1.8 6.5l-6-11.4c-.4-.7-.1-1.8-.2-2.7-.1-.7-.6-1.3-1.2-1.7l.3 1.5c-.4-.3-.7-.3-.8-.5-1-1.4-2-2.8-2.7-4.2-1-1.7-2.4-2.8-4.4-2.8h-9l-4.2-14.5c-2.7 2.4-3.3 4-2 5.5l-3.5.8c-2.5-2-.8-4.4-.4-6.4a30 30 0 0 0-.1-13 11 11 0 0 1-.3-3.6 63 63 0 0 0-2.7-20.2l2-2.3c-3.2 1-3.5 2.2-2.8 5a51 51 0 0 1 1.1 24.5L399 158c-1.5.7-2.7 2-4 3a13 13 0 0 1-3 1.3l-5.3 2 1 2.2 9-2c2.6-1 5-2.4 7.3-3.7 1-.5 1.8-1 2.8-1.8l2.8 20.6-20.5 1c-1.3.3-2.5 1-3.3 2-1.2 1.3-.5 2.7.5 4l9.7 14.6c.7 1 .8 2.5 1.4 4.2 3 .8 4 3.7 5 6.2-1 .8-2.2 1.3-2.3 2-.3 2 2.5 5.2 4.7 5.6l-1 1 2.6 3-1.8.4c-2.5 2-3.6 4.6-4.5 7.6a20 20 0 0 1-2.3 5.4l-7.3 11.3a4 4 0 0 0-.7 1.8c.2 3.3-1.4 5.7-3 8.2-2 2.8-1.4 5.3 1.3 7.2 1.6 1 2.6 3 2.7 4.8l1 7c.1.6 1 1.4 1.5 1.4s1.4-1 1.5-1.5c.2-1.5.2-3 0-4.4-.3-4.3-1.5-7-5.6-7.8-2.2-.5-2.5-2.2-1-4l3.6-4.5c.5-.8 1-2 .8-3-.6-2.3.2-4 1.6-5.8l3-4 3.2-5 2.6-5.5c.7-1.7.7-3.8 1.7-5 1.3-1.8 1-3-.2-4.3l3.3 4.5c1 1.6 2 2 3.3 1 2-1.5 4-3.4 6-5l3-2-3.2 4.4c-.8 1.4-.3 2.4 1.2 2.5a73 73 0 0 0 8.1 0c1.3 0 2.6-.4 4-.4 4.2-.1 5.4-2 3-6a62 62 0 0 1 3 .8c4.4 1.6 8.8 3.4 13.3 5a61 61 0 0 0 7.4 1.7c1 .2 1.8.1 2.7-.1 7.8-2 15.6-1 23.4 0 10 1.2 19.7 3 29.6 4.7.8.1 1.5.7 2.3 1 .5.3 1 .5 1.7.7.4.1 1-.1 1.2.1 2 3.2 5.4 2 8 3 .8.3 2 0 2.8-.4 2.2-1 4.2-2.3 6.4-3.4 1.5-.8 3-1 3.5 1.2l2.4 7 3.3 11c.5 1.7 1.5 2 3 1 2.3-1.4 3.5-3.4 4.4-5.8 2.2-6.5 6.3-12 11.4-16.4.3-.2.7-.4 1-.5l1 3c.5 1.3.3 2.2-1 3-1.8 1.4-3.4 3-3.4 6.3l6.4-4.5v57h-44.5c3-2.2 2.6-5.5 2.2-8.7l2.5-.5.2-.6c-2.8-1.5-4.5-5-8.4-4.7l-6.5.2c-.8-.1-1.6-.6-2-1.3-.8-1-1-3-2.2-3.5-1.7-1-2.2-2.4-2.6-4l-2.6-10.4c-1-3-3-6-4.5-8.8-.4-.8-1.2-1.3-2-2-.5 1-1 2-1.6 3s-.8 3-1.5 3.2l-14 3-.4-.8 2.3-2c.5-1.4-3-1.6-1-3.5-.4-.3-.8-.6-1.2-.8l-18.7-9.5c-2.2-1-4.8-1-7.3-1.5-.2 0-.5.1-.7.2l-4.3 1.6a54 54 0 0 0 29.1 17.5l-36 13.8-2-4-1.3 5.3-1-1.4c-.6 1-1 2-1.7 2.5-2.4 1.7-5 3-7.4 4.6-4.5 2.6-8 6.2-9.8 11.2-.4.8-1.2 1.3-2 1.4l-14.7-.5c-.7-.1-1.3-.2-2-.4 3.4-4 3-8.7 2.8-12.8-3.2 0-6.3.5-9-.1-5-1-9.8-2.5-15-2h-.5c-1.6-.2-2-1-1-2.3l2.2-3.3-3.7.8c-1 0-2-.5-3.2-.5-.7 0-1.4.6-2 1 .5.7 1 1.6 1.7 2 .5.3 1.3 0 2 .3s1.3.7 2 1c-7-.7-9.8-2.4-13.5-7.6l-5-7.4c-.1-.1-.1-.3-.1-.7l1-.3c-.2-.4-.4-1-.5-1.4s-.2-1-.1-1.5c-.1-9.3 2.8-17 10.4-23 1.4-1 2.7-2.2 4-3.4 1.4-1.5 1.7-3-.3-4.4-1.7-1-2.2-2.8-2.4-4.7a31 31 0 0 0-1-6.1c-1.3-4 .1-5 3.5-6.3s7-2 10.3-3c7.3-2 9.7-6.7 7-13.6l-12-29a7 7 0 0 0-1.3-1.7l.3 12.4c0 1.2-1.6 3.5-2.4 3.4-2.2-.1-4.6-.7-6.4-2-2-1.5-2.8-1.7-4.4.5-1 1.6-2.3 3-3.8 4.2-.8.6-2.3.4-4 .7-1.3 2.8-4.8 3-8 3.3l-12.4 2.3a36 36 0 0 1-10.7 2 43 43 0 0 1-26-6.8c-1.5-1-3-1.3-4 .6l2-2.8c2.2-2.7 3.7-3.2 7.2-2-.3.7-.5 1.7-1 2.2s-1.5.8-2.6 1.3c.6.4 1.2.8 1.8 1l12.7 4.3c5.2 1.7 10.3 1.4 15.4-.5l8-2.3c3.8-1.3 5.2-3.8 4.3-7.5-.5-2 0-4.3-2.4-5.4 1-2.7-1-4.6-2-6.7-.7-1.7-2.2-3.2-3.4-4.7a27 27 0 0 1 3.3-2.2c3-1.4 4.3-3.6 5-6.7 1-5.7 7.5-10 13.4-9 .4-1 1-2 1.4-3 1-2.3 2-4.5 4.7-5.8 1.6-.8 3.6-2.2 3-5-.1-.6.5-1.6 1-2 3-2 5.6-4.4 8.8-6a474 474 0 0 1 25-11.8c1.6-.7 4 .5 6 .8v.7l-2 1c1.7 3 5 4.4 7.6 2.4 3.3-2.6 6.7-5 9.6-8.2 1.3-1.4 2-3 2.5-5 .3-1.3 2-2.3 3-3.4.3-.1.6 0 1 .2a2 2 0 0 1 .2 1.3c-1 2.2-2.2 4.2-3.2 6.4-.3.7-.5 1.8-.2 2.3 1 1.4.5 2-.7 2.8-.8.4-1.5 1-2 1.7-.7 1.2-1 2.5-1.5 3.8l3.6.8c2.7.2 5.2 2.3 5.7 5 .3 1.7.5 3.4.6 5.2-1-2.5-.7-6-4.6-6.5-2.6-.4-5-2.6-8-.4l-3.6-3.2-.4.4 4 4.6-3.3-1.2a46 46 0 0 0 7.2 29.7c-.1.2-.2.5-.2.7.5 2.3 1.6 4.5 1.5 6.8-.1 2-1.4 4.2-2.2 6.3 4-.2 3-3.7 4-6l3.3 1.7c1.8-1 3.5-2.4 5.3-3.3s1.6-.6.5-2.2c-.7-1-1-2.8-.8-4.2l.7-11a92 92 0 0 0-.3-10.5c-2.6 4-.6 8.7-2.5 13l-.3-2.2-.7 1.4-.7-.2c0-2-.6-4.4.1-6.3 1-3 3-5.8 4.7-8.7l1-3-.8-.4-2.2 3.4c.3-6.3-2-11.7-.4-17.6s2.2-12 3.3-18.2c.3 1.6.8 3.3.8 5 .1 4.3-.1 8.7-.1 13 0 3.4 0 3.4 2.3 6l-1 2.5 2-1.3 1.7 1.2.3-.5.7 2.4 1.7 8.4c.1.7 0 1.3-.4 2-2.6 3.8-.6 8-1.4 12l1 .1 2.5-13c4.5 4 8.6.8 12.8-1.4 2.3-1.3 3-1 3 1.6l3 32.3c.2-1.4.7-2.7.6-4l.3-25 .5 5h.5l.8-3.2h.5l2.3 37.5 2-3.4 2 3 .7 11.4-2.3-.8 2.5 6 3.3-24.5-.7-.1-1.8 10h-.8l-.8-2-1-6.8-1.4 1c-.1-.4-.1-.7-.1-1l1-22.4c0-.3.2-.5.7-.8l.8 8.6h.8c0-2.3.2-4.7 0-7l-2.4-26c-.3-3.6 0-7.3.2-11a157 157 0 0 1 3.4 36.2l2.2-2c0 1 .1 1.7 0 2.4l-1 7.6c-.3 2.4-1 4.7-1.2 7-.1 1 .2 2.2.4 4 3.4-2.7 1-6 2.2-8.4l1.6 7.5zm-58 70l-.7.4v1.6c-3.8-4.4-3.8-4.4-5.8-4.4-1 5 1 9.7 3.2 13.7 2 4 6 7 9 10.4l.3-1.5c2.5 1.8 4 5 8 4 .3-.1.8.6 1 1l4.3 3.8c.7.6 1.8 1.2 2.6 1 4.5-1 9.8-1.2 11-7.4-3.2-3.6-9.4-8-13.5-9.3l-5-1c-4.2-.7-8-1.8-10-6.2-1-2-2.8-4-4.2-6zm28.2-59.5l-6.8-4.5.2-.3 3.2.7-7.5-6.6c-1-.7-2.8-1.5-3.4-1-1 .8-1.6 2.4-2.3 3.7-.1.1.2.4.3.7h2.6c-2 .8-3 1.4-1.5 3 .2.2-.1 1-.1 1.3v8.4c0 .6 1.2 1.4 2 1.5l15.8 1.3c2.4.3 2.3-1 2-2.4h-4.4l-.1-6zm11.3 70.4l-.3.6c.3.3.6.5 1 .7l17 8.8a425 425 0 0 0 11.8 5.5c1.2.5 2.8 1.2 3.3-1l1-5c-1.8.8-3.5 1-4.3-1.3.2-.2.3-.4.4-.5.2-.1.5-.1.7-.2 1.6-.8 2.2-3 1.3-4.5-1.2-2-2.8-2.2-4.6-.8-2.4 2-2.8 3.7-1.4 7.5l-4 .5-5.6-7.7-.5 2.5-9.6-4.3-1 1.5-5.4-2.3zM524 273l1-.8-3.5-.2c.1 1 .2 2 .5 3l2.5 8.3c.3 1.4 1 2.4 2.3 1.8 2-1 3 .1 4.3 1l3 2c-.4-3-1.8-4.4-4.3-4.7-.7-.1-1.7-.3-2-.8-1.3-1.7-2.6-3.5-3.4-5.4-.7-1.3-.2-3-.1-4.3zm18.7-14.5l-18.2 3c3 3 14 1.2 18.2-3zm-90-107.4c-3-2.6-6.3-2.6-9.7-2.6-.3 0-.8.6-.8 1 0 .5.2 1 .6 1L455 155l.4-.7-3.8-2.7 1-.6zm57.6 108.6l-6.4-9.2c-1.6-3.2-2.2-7-3.2-10.6-2.8 4.8 4.3 19.2 9.6 19.8zm39.3-2.2c.4 2.3 2 3.3 3 2 1.6-2.2 3-4.5 4.3-7 .2-.4-.6-1.3-1-2-.6.4-1.3.6-1.7 1s-.3 1.3-.5 2c-.5 2.2-1 4.5-4.2 4zm-120 3l5.3 5c.3.3 2.5-1 2.6-1.5 0-2.2-5.2-4.8-8-3.4zm-20-124l3 15c1.7-5-.5-14.7-3-15zm28.8 15.4l-1.7 1.5c.4-3.5-.3-7-2-10v12c2 .6 2.8-1 3.6-3.4zM519 278.4l-.1-1a19 19 0 0 0-8.2 1.1c-.3.1-.6 1-.5 1.4 0 .3.8.7 1 .6 2.6-.6 5-1.3 7.7-2zm-68.8-132l-3.6-1c-1-.4-2-1.8-3 .2 2.7 2.4 4.6 2.6 6.6.8zM438 125c-2.3 4.8-2.3 4.8-1.3 6.8 2.6-1.7 1.8-4 1.3-6.8zm70.5 50.8H507l-.2 5.2c0 .3.6.8.8.7.4-.1 1-.6 1-1 .1-1.7-.1-3.4-.2-5zm17 91l.3 2c0 .7-.2 1.3-.1 2 .1.4.5 1 .7 1 .5 0 1-.2 1.4-.6 1-1.2-.4-3.8-2.3-4.4zM441.2 160l-.4.8 3.8 1.8.5-1-4-1.5zM191 125.6c3 .4 7 4.2 9.2 6 9.3 7.8 17 13 28.2 17.6l7 2.7c3-3.6 6.8-4.2 11-4.4 9-.4 15.3 4 20.4 10.7.8 1 1.7 2 .8 3.7-.6 1.3.3 3.2.5 5 .2 2.2.7 4.3-1.5 6-.7.6-.1 3-.1 4.7l-11 3c-.6.2-1 .7-1.2 1.3.1.6.5 1 1 1.4 1.3.3 2.6.3 4 .1a57 57 0 0 1 17.5-.7c.6.1 1 .5 1.4 1 .6 1.3 1 2.7 1.5 3.8-2.7 3-6 1-9 1.2l2.8-2-.2-.4-2.2.5 2.4-3c-2.3-1.2-5.6-1-7 1-.7 1-1 2-1 3.3.6 3.4 2 6.6 5.3 9.3V193c.5 1 .7 2.8 1.4 3 1 .5 2.6 0 4-.3l5.4-1.8c-1.3.7-2.7 1.3-4 2.3a20 20 0 0 0-7.4 17.8 245 245 0 0 0 10.1 44.7l1.3 4.4c-2.7 2-5 3.8-8.8 2.2-2-.8-4.7-.3-7-.3-1.2 0-2.7-.4-3.7.1-1.7.8-3.2 2-4.7 3.2-.5.4-.6 1-1 2l-2.8-2.5c-.3-.3-1-.7-1-.6-.4.2-.7.7-.7 1-.4 2.4-1 2.5-3 1.5-5.3-2.5-6-7.8-8.4-12.2-.3-.6.3-1.6.4-2-2-2 .8-4.2-.6-6.3l-2 4.8h-.7v-2.4c.1-.7.3-1.4.6-2-.5-.1-1.2-.4-1.3-.2-.6.7-1.6 1.8-1.4 2.3 1 2.6-.1 4.2-1.7 6-1.3 1.4-2 1.2-3.2 0-1.3-1.3-3-2.3-4.7-3.8-.1-3.2-1.6-4.8-4.5-5l-3-2.2v4c0 .3.6.6.8 1 1 1.8 1 2.5.2 6.5l-6.6-7.4c-.1 1 0 1.7-.2 1.8-2.4 1.6-2.4 1.8.1 3.4l-2.5 3.2c3.2 0 3.4 1.4 4.8 3.4 1.5 2.3 4 3.8 6.3 5.6s4.5 3.3 6.6 5c-6.5-2.5-12-5.5-17.6-10.7l-20-1m42-109.4c-2 1.5-4.6 2.8-6 5-2.8 4.3-1.2 9 .1 13.4.7 2.3 2 4.5 3 6.7.4.7 1 1.3 1.4 2 .5-.7 1.4-1.3 1.6-2 .4-2.5 1-5 .7-7.6-.2-3 1.6-4.6 3.6-6 3.2-2.3 3.2-5.3 0-7.6-1.5-.8-2.7-2-4.7-3.6l.2-.1zm-19.5 22c-1 1.8-1.6 3.3-2.6 4-1.7 1.4-1.5 2.8-1.4 4.7.1 3.2 2.4 3.7 4.3 4.7 1 .6 2.6.3 3.2-.8.8-1.4-.4-2.8-1-4.2-.4-1-1-1.8-1.4-2.7-.6-1.5-.8-3.3-1.2-5.7H213zm37.6 81.2l-.6-.4-1 .8-2.4-2.7 1.7-1.2c-1.4-1-2.5 1.6-4-.1-.2.4-.7 1-.5 1.2.6 1.5 1.4 3 2 4.6 1.2 3 5.2 4.3 5.2 8.2 0 .2 1 .4 1.3.7.2-.5.6-1 .5-1.5-.5-1.3-1.2-2.5-1.7-3.8-.5-1-.8-2-1-3-.2-.8.2-1.6.4-2.5l.1-.2zm-32.6-73.7l-.5.2 3 14.3-1.3-9.8 3.6 3.5.7-.6-5.4-7.6zm-4.5-18.5c-2.4.5-2.6 2-2 4 1.2-1.3 3.7-1.5 2-4zm-.2 27.4l-1.2-1-2.7 3.5.7.7 3.2-3zm4.4 33.2l2.3.4v-3.3c-2-.5-2.5.8-2.3 3zM412 76.6l5.6 3.3c-.8-2.2-1.4-3.6-3.6-4-2.8-.4-4.2-2.2-4.5-5-3.4-.7-6 .7-8.8 2.4-3.4 2-7 3.6-10.6 5.3-1 .5-2.3 1.3-2.4-1-2.5 1.4-4.6.1-4.5-2.5.2-5.2 2.7-9.2 6.3-12.8 1-1 1.4-2.2 2.3-3 10.4-7.3 19.6-10 32.2-2.7 5.2 3 7.5 8.3 9.3 13.7a37 37 0 0 1 .2 21.1c-.1.2-.3.4-.8 1-.2-1.3-.4-2-.4-3l.6-5.2c.6-2.5-.7-4-2.6-5-2-1.3-3.5-.1-4.8 1.2-1 1-2 2-3.2.7l-5 3-.7-3-.4.4-4.8-4.3.7-1zm45.2 15h-2.8c5.4 5 3 11.2 4.5 16.8l-.7.2c-.2-.4-.7-1-.7-1.3.2-2.3-1.2-3.4-3-4.3L443 97c-1.5-.8-3.6-1.3-4.2-2.5-1-2-1.2-4.6-1.3-7-.1-2 1-3.8 3-4.6.6-.2 1-.5 1.5-1 5.4-6.3 13-7.5 20.5-9.3a39 39 0 0 1 9.6-.9c1.7 0 3.4.5 5 1.5a41 41 0 0 1 14 19.3c.1.2 0 .5 0 1.6l-3-4-1.4 1.4-2.6-2.2-.6 4.3-2.2-3-.6 3.2-.7.1-2.6-5-5.7 6-1-.8-.8 3.6c-.4-1.5-.3-3.4-1.2-4.3-.7-.7-2.6-.1-4-.1l-.8 5h-1l-3.2-7-1 3h-.7l-.8-2.8zm104 118c-4.3-5-9.8-9.2-10-16.6l-.7-19.6 10.8 36.2zm-278.5-34l-8.8-.6-2-7c4-.7 8.5 2.3 10.7 7.6zm199-13l3-25.6c2 8.7 1.3 17.2-3 25.6zm-175.8 13V174l13.5-2.7c.2 0 .6-.2.7-.1.5.3 1 .7 1.2 1.2.1.2-.4.7-.7 1l-1.3-1.5c-1.6 1-4 1.6-5.2 3.2-2 2.3-3.6 1.7-5.7 1l-2.5-.8zm99-81.3c-.5.5-1 1-1.7 1.4-.5.3-1.7.6-1.8.4-1.5-2.3-4.2-1.5-6-2.5-.5-.3-1-.7-1.5-1l7.8-1.7c.6-.1 1.5.6 2 1.2.5.3.6 1 1.2 2.3zm78 108.4a53 53 0 0 1 0-22.5v22.5zm-4-51v-19.2c1 6.5 2.2 12.8 1 19.2h-1zM423 129c4 .6 2.8 3.8 3.2 6 .3 2 .1 4.4.1 6.6l-.6.1L423 129zm-24.7-18l7.7-1v-.6l-1.6-.5c1.5-2.5 3.5.3 5-.5l1.2 2.4-.4.5c-2.7-2-5 .2-7.5.4-1.5 0-3 1.4-4.5-.6zm-6-15.4c-4-4-5.8-8-4.4-13.3l.2 2.7c-.1 2.8.5 5 3.3 6.3 1.7 1 1.6 2.3 1 4.3zm68.7 22.2c.6 2.6 1.4 5.2 1.7 8s.1 5.4.1 8h-1l-1-16zm17.2 45.5V153c2.6 2.6.5 6.5 2 9.5l-2 1.2zm-83-1.3l11-4.4-10.4 5.8-.7-1.4zm-.3-54.8l6-1.6-2 1.2 1.7 2.8c-1-.1-2.3 0-3.2-.4s-1.7-1.4-2.4-2zm72.8 40l-1.4-10.7 1-.1 1.4 10.7-1 .1zm-40.3 72l9 2-.1.4-9-1.3.1-1.2zM329.8 170c3.8 1.3 5.5 4.3 6 8.2-1.8-3-2.4-6.8-6-8.2zm-23.8 5.6h-8l.1-.8 8 .8zm152.4 24.6l-.3 3-3.2-2 .3-.8 3.2-.2zM426 215.8l7.8 1.6-.1.7-7.7-2.3zm-6.4-60.4c-.2-1.5-1.3-3 .1-4.7 2.2 1.8.6 3.2-.1 4.7zM292.2 190c-1.3 3-4.2 2-6.3 2.8l6.3-2.8zm146.3-87.3c2.4 0 1.8 3 3 4l-3.6-3.3.6-.7zm4.3 9l-2.7-3c3.2.1 4 .8 2.7 3zm-20.5 24c-1 .6-1.4 1.2-2 1.3-.4 0-.8-.7-1.2-1 .5-.4 1-1 1.6-1 .3-.2.8.4 1.6 1zm102.3 125.6l18.2-3m-130.3-107l-3-15m-172.7 141c1.2-.7 3.5-1.3 4-2.4.7-2.3-1.4-3.5-3.2-4.7-2-1.2-3.7-2.6-5.6-4l.4-1 4.5 2 3.6 2.6.5-.6-6-6.7c.1-.4.2-1.2.7-1.7s1.2-1 2-1c.6-.1 1 .1 1.4 1.2.8 2.4 2.7 4.5 3.7 7 .7 1.8 1 3.7 1 5.6 0 2.8 1 5.6 3 7.7 1 1.3 1.8 2.8 3 4 .7.7 1.7 1.6 3 .1.3-.4 2-.1 2.8.1a63 63 0 0 1 8.7 2.7c-3 0-6.3.2-9.4-.1-4-.4-7.6-2.2-9.8-5.7-1.7-2.8-4-4.4-7-4.8-.3 0-.6-.1-1-.3zm36.7 3.5l-2 4.8c-.8-1.6-1-2.8-1.8-3.7-1.8-2-2-4-.3-6 .5-.6.4-1.6.8-2.3a40 40 0 0 1 2.4-3.8l4.4 9.8-.4.2c-.8-1-1.5-2-2.4-2.7-.6-.4-1.6-.2-2.5-.3.1.8.1 1.6.4 2.2.3.8.8 1.4 1.3 2zm7.8-4l2 1.4 1.5-3.8c.4 6.2-1 7.8-9.5 10.8l1.8-2.2c.7-.8 1.7-1 1.3-2.8-.2-.8 1.8-2.2 3-3.4zM242 202c-3.2.3-4 1-4 3.7-1.7-2.7-.7-5.3 2.3-5.6 2.4-.2 4.8-.1 7.2.2 1 .2 2 1.2 3.6 2.2-2.2 2.2-4 4.4-6 6-.6.4-2.5-.6-3.6-1.3s-2.2-1.8-1-3.3c.5-.7 1-1.3 1.6-1.8zm-1.3 6l5 2-.3.8-5-2 .3-1z"/></svg>