<svg id="Layer_1" data-name="Layer 1" xmlns="http://www.w3.org/2000/svg" width="376.52" height="246.42" viewBox="0 0 376.52 246.42"><title>multicomm [Recovered]</title><path d="M478,163.65c.23.53.7,1.07.67,1.59-.14,3.62-.38,7.23-.62,10.85,0,.17-.33.32-.8.74l-.92-2.22-.61,0-.91,22.18-1-.53c1.14,3.34,2.5,6.85,3.45,10.5.43,1.66.8,2.6,2.73,2l.67,3,4.79-1.53-.59-12.5.86-.1,2.23,7.2.41-.1-.8-14.15c2,5.12.68,11.16,5.71,14.78.2-.4.36-.58.33-.68-3.23-8.71-2.08-17.94-3.3-26.89-.19-1.37-1.08-3.34-2.15-3.76a5.41,5.41,0,0,1-3.55-4.29l-.93,7.38h-.58a15,15,0,0,1,0-3.22c.73-3.23,1.73-6.41,2.42-9.66.36-1.73-.27-3.86.5-5.27,1.75-3.08-.11-6,.21-8.91a67,67,0,0,0,.5-9.71c-.16-4.32-.74-8.62-1.14-12.92a3.91,3.91,0,0,1,.46-2.58l1.5,9h.33a14.44,14.44,0,0,1,0-1.88c.15-1.14-.83-2.7,1.3-3.17.38-.09.73-1.53.63-2.28-.54-3.74-1.26-7.47-1.87-11.2a13.35,13.35,0,0,1,0-2.12l.66-.07,3.66,12.77.92-.2-1.54-8.93,2.92,5,.84-.09.67-4,2.11,1L495.38,112l2.55-1.85a14.33,14.33,0,0,1,2,3,16.22,16.22,0,0,0,5.74,7.67c1.17.88,2.36,1.54,2.55,3.58.11,1.24,2.5,2.28,3.88,3.4l.46-.55-2.77-2.91a25.66,25.66,0,0,1,12.93,10.5L513,133.72l1.95,1.6c-7.5,4.1-10.3,10.84-11.06,18.64-.27,2.82-.45,5.78,1.7,8.6a92.34,92.34,0,0,1,.82-9.41,50.46,50.46,0,0,1,2.61-9.07,12.71,12.71,0,0,1,13.5-7.67,3.63,3.63,0,0,0,1,.08c6.76-1,10.7,3.46,14.08,8,2.73,3.7,4.48,8.14,6.56,12.29.23.46-.19,1.22-.23,1.84a13.16,13.16,0,0,0-.08,3.57c1,4.57-1.21,7.61-4.78,10.88-.11-1.46-.27-2.37-.23-3.28.14-4.5.42-9,.45-13.47,0-4.78-2-8.5-6.39-10.67a1.32,1.32,0,0,1-.61-.42c-3-5.73-8.55-3.71-13.11-4.2-3.55-.38-7,3.86-7.54,8.07a23.24,23.24,0,0,1-.94,4.32,12.58,12.58,0,0,0-.3,7.83c.39,1.36,0,3,.06,4.42.05,1.15.39,2.29.41,3.43a4.27,4.27,0,0,1-.47,2.46,5.3,5.3,0,0,0,0,6.74,11.44,11.44,0,0,1,1.17,3,30.13,30.13,0,0,0,1.78,4.85c1,1.84,1.68,3.53.74,5.62-.74,1.65-.21,3,1.3,4.1a6.17,6.17,0,0,1,1.5,2.81c.54,1.44.9,2.95,1.39,4.56a13.77,13.77,0,0,0-2.5,1.72c-1.18,1.26-2.36,2.59-.79,4.5,1.18,1.45.26,2.08-1.18,2.92-8.38,4.95-17.5,3.89-26.53,3.5a140.12,140.12,0,0,1-18.06-1.77c-2.59-.46-4.92-2.55-7.27-4a1.87,1.87,0,0,1-.36-1.72c2.33-2.07.53-3.09-1-4.13,4.28-4,.73-8.22,1.15-12.72-4.33,3.41-4.73,4.65-2.39,6.2a25.42,25.42,0,0,0-3.07-.92c-.83-.15-2.17-.35-2.5.07a15.87,15.87,0,0,0-2.17,4.32c-.11.32.77,1.22,1.36,1.5,1.57.76,3.23,1.32,5.52,2.22h-7.72l.89-1.67-.37-.45-3.14,2.28c-1.61-5.66-2.66-11.5-6.36-16.57-2.2,2.41-.43,4.38.17,6.3a32.91,32.91,0,0,1,1.8,6.46c-2-3.8-4-7.58-5.87-11.43-.36-.74-.07-1.78-.23-2.66a2.36,2.36,0,0,0-1.21-1.65l.27,1.5c-.42-.27-.68-.35-.8-.53-.91-1.38-1.85-2.75-2.67-4.18a4.82,4.82,0,0,0-4.4-2.76h-9l-4.2-14.54c-2.74,2.39-3.35,3.88-2.11,5.55l-3.5.84c-2.47-2-.79-4.4-.39-6.43a31.3,31.3,0,0,0-.08-13,14.33,14.33,0,0,1-.3-3.62,62.61,62.61,0,0,0-2.65-20.16l2-2.29c-3.18,1.14-3.54,2.17-2.77,5.05,2.14,8.14,3,16.35,1.09,24.5-2.89,1.13-5.74,2.07-8.42,3.36-1.5.72-2.68,2.1-4.1,3.06a14.41,14.41,0,0,1-2.86,1.34c-1.73.67-3.5,1.28-5.29,1.93l1,2.16a83.45,83.45,0,0,0,9.13-2.12,53.16,53.16,0,0,0,7.32-3.7c.93-.5,1.8-1.11,2.83-1.76l2.82,20.55-10.52.5c-3.3.16-6.67.1-10,.47a5.9,5.9,0,0,0-3.35,1.93c-1.17,1.32-.45,2.69.5,4.05q4.94,7.21,9.65,14.57c.68,1.08.83,2.5,1.36,4.18,2.93.8,4.06,3.7,5,6.22-1,.8-2.16,1.29-2.26,1.94-.3,2,2.5,5.2,4.68,5.58l-1,1.11L406,224l-1.79.37c-2.5,1.92-3.61,4.65-4.47,7.58a23,23,0,0,1-2.3,5.41c-2.32,3.82-4.86,7.5-7.28,11.27a3.39,3.39,0,0,0-.68,1.85c.24,3.25-1.43,5.67-3.12,8.18-1.86,2.76-1.4,5.28,1.29,7.17a6.4,6.4,0,0,1,2.74,4.78c.3,2.29.58,4.6,1.07,6.86a2.16,2.16,0,0,0,1.54,1.42c.54,0,1.4-.9,1.5-1.5a21,21,0,0,0,0-4.41c-.33-4.33-1.45-6.89-5.56-7.78-2.16-.47-2.52-2.18-1.11-4,1.17-1.5,2.54-2.88,3.6-4.47a4.26,4.26,0,0,0,.79-2.94c-.6-2.32.23-4.05,1.58-5.75,1-1.3,2.08-2.59,3-3.94a56.69,56.69,0,0,0,3.18-4.91,46.5,46.5,0,0,0,2.62-5.5c.67-1.67.68-3.76,1.71-5.1,1.33-1.75,1-2.91-.16-4.3a42.67,42.67,0,0,1,3.3,4.5c.89,1.6,2.07,1.89,3.27,1,2.11-1.5,3.95-3.36,6-5a31.25,31.25,0,0,1,3.14-2c-1.32,1.78-2.36,3-3.23,4.42s-.27,2.42,1.19,2.5c2.7.17,5.43.09,8.15,0,1.32,0,2.64-.35,4-.38,4.21-.09,5.35-2,3.11-6.12,1.21.33,2.15.5,3,.83,4.45,1.63,8.84,3.41,13.33,4.91a56.56,56.56,0,0,0,7.45,1.72,6.21,6.21,0,0,0,2.73-.11c7.79-2.15,15.63-1,23.37,0,9.9,1.22,19.73,3,29.59,4.67a9.83,9.83,0,0,1,2.3,1.06,13.51,13.51,0,0,0,1.67.71c.39.11,1.07-.08,1.18.13,1.89,3.22,5.39,2,8.1,3a4.15,4.15,0,0,0,2.77-.38c2.17-1,4.23-2.28,6.36-3.39,1.5-.78,2.88-.91,3.54,1.15.76,2.37,1.62,4.71,2.36,7.09,1.12,3.63,2.14,7.28,3.27,10.91.5,1.67,1.5,1.91,3,1a10,10,0,0,0,4.37-5.82,38.55,38.55,0,0,1,11.43-16.41,4.88,4.88,0,0,1,1.11-.5c.32,1.12.53,2.15.9,3.13a2.35,2.35,0,0,1-1,3.14c-1.79,1.36-3.42,3-3.37,6.34l6.36-4.5v57H522.4c3.11-2.22,2.58-5.47,2.21-8.65l2.45-.5.23-.65c-2.85-1.5-4.45-4.92-8.39-4.72-2.16.11-4.33.3-6.5.21a3.31,3.31,0,0,1-2.11-1.3c-.84-1.1-1.12-2.93-2.17-3.5-1.74-1-2.2-2.4-2.61-4-.89-3.46-1.39-7-2.61-10.39a63.45,63.45,0,0,0-4.53-8.83,11.52,11.52,0,0,0-1.87-2c-.54,1-1.11,2-1.61,3s-.8,3-1.52,3.16c-4.61,1.17-9.32,2-14,2.9l-.44-.82,2.26-2c.55-1.43-3.14-1.58-1-3.55a12.12,12.12,0,0,0-1.23-.84c-6.21-3.2-12.36-6.53-18.69-9.5-2.18-1-4.83-1.07-7.27-1.53-.21,0-.47.13-.7.22l-4.3,1.59c7.73,9,17.36,14.63,29.07,17.54l-35.92,13.78-2-4-1.33,5.33-1.07-1.42c-.58.89-1,2-1.73,2.54-2.38,1.65-4.89,3.14-7.39,4.59a21.51,21.51,0,0,0-9.8,11.23,2.74,2.74,0,0,1-2,1.43c-4.91-.06-9.82-.3-14.73-.5a11.61,11.61,0,0,1-1.93-.45c3.4-4.11,2.89-8.66,2.8-12.81-3.24,0-6.3.47-9.14-.1-5-1-9.8-2.5-15-1.86a2,2,0,0,1-.5,0c-1.63-.22-2-.87-.93-2.27.71-.89,1.29-1.9,2.2-3.27a22.42,22.42,0,0,1-3.73.79c-1,0-2.11-.5-3.15-.46-.69,0-1.36.57-2,.88a10.66,10.66,0,0,0,1.67,2.1c.45.34,1.33,0,1.93.26a10.13,10.13,0,0,1,1.85,1.14c-6.93-.66-9.75-2.36-13.5-7.58-1.74-2.43-3.43-4.9-5.14-7.35-.08-.12-.06-.32-.11-.66l1.14-.34a10.07,10.07,0,0,1-.52-1.36,6.87,6.87,0,0,1-.14-1.5c-.11-9.25,2.81-17.1,10.4-22.86a34.32,34.32,0,0,0,4-3.43c1.42-1.47,1.71-3.1-.28-4.4-1.73-1.12-2.16-2.79-2.36-4.69a31.57,31.57,0,0,0-1-6.1c-1.27-4,.12-5,3.5-6.3s6.85-2,10.3-2.91c7.27-2,9.7-6.72,6.87-13.61-.85-2.08-1.8-4.11-2.66-6.19-3.12-7.6-6.21-15.22-9.37-22.79a6.37,6.37,0,0,0-1.28-1.69c.13,3.95.46,8.21.28,12.45,0,1.23-1.62,3.45-2.4,3.41a12.44,12.44,0,0,1-6.36-2c-2.14-1.53-2.8-1.73-4.39.5a18.77,18.77,0,0,1-3.78,4.17c-.83.63-2.31.41-4.12.66-1.35,2.8-4.83,3-8.1,3.31a49.93,49.93,0,0,0-12.42,2.3,39.57,39.57,0,0,1-10.73,2A43.32,43.32,0,0,1,297,187.94c-1.54-1-2.9-1.25-3.95.65.65-1,1.24-1.94,2-2.84,2.16-2.74,3.71-3.18,7.16-2.1a6.62,6.62,0,0,1-1,2.19,10.88,10.88,0,0,1-2.63,1.33,11.35,11.35,0,0,0,1.81,1.13c4.23,1.46,8.5,2.91,12.73,4.3a22.7,22.7,0,0,0,15.4-.53c2.55-.95,5.27-1.4,7.85-2.27,3.79-1.28,5.24-3.79,4.35-7.5-.46-1.91,0-4.33-2.43-5.35.92-2.67-1.09-4.59-1.94-6.73-.69-1.74-2.23-3.16-3.42-4.74a24.73,24.73,0,0,1,3.26-2.16,8.67,8.67,0,0,0,4.92-6.72c1.1-5.74,7.5-9.93,13.43-8.89.43-1,.86-2.08,1.35-3.11,1.09-2.32,2.09-4.5,4.74-5.79,1.61-.78,3.62-2.22,3-4.92a2.62,2.62,0,0,1,1-2c2.86-2.1,5.65-4.43,8.8-6,8.23-4.16,16.58-8.13,25-11.78,1.58-.68,4,.5,6,.83l0,.72-1.86,1.08c1.71,3.09,5.1,4.36,7.64,2.4,3.3-2.55,6.73-5,9.57-8.19a10.44,10.44,0,0,0,2.5-5c.31-1.32,1.93-2.34,3-3.43a.94.94,0,0,1,.89.15,1.74,1.74,0,0,1,.2,1.29c-1,2.16-2.24,4.23-3.24,6.41a3,3,0,0,0-.17,2.32c1,1.4.46,2-.73,2.76a5.78,5.78,0,0,0-2,1.74,26.19,26.19,0,0,0-1.53,3.75,24.86,24.86,0,0,0,3.63.77,6.34,6.34,0,0,1,5.67,4.95,28.64,28.64,0,0,1,.56,5.16c-1.1-2.54-.7-5.91-4.64-6.5-2.6-.4-5.06-2.62-7.92-.42l-3.63-3.15-.45.43,3.92,4.63-3.31-1.18c-1.08,10.93,1.59,20.67,7.2,29.72v0c-.06.24-.22.5-.17.71.5,2.27,1.58,4.54,1.47,6.78s-1.41,4.15-2.21,6.31c4.08-.22,2.86-3.66,3.88-6l3.29,1.7c1.75-1.1,3.46-2.36,5.33-3.3s1.58-.65.5-2.24a7.47,7.47,0,0,1-.83-4.21c.13-3.64.61-7.26.74-10.9a85.59,85.59,0,0,0-.27-10.53c-2.59,3.88-.57,8.71-2.5,13.08l-.34-2.22-.67,1.4-.66-.23c0-2.1-.57-4.41.13-6.26,1.14-3,3.13-5.78,4.68-8.69a22.09,22.09,0,0,0,1.08-2.91l-.77-.36L430,130.75c.31-6.27-2-11.68-.4-17.58s2.23-12,3.31-18.22a34.33,34.33,0,0,1,.79,4.93c.08,4.33-.05,8.66-.08,13,0,3.38,0,3.38,2.32,5.86l-1,2.46,1.86-1.28,1.7,1.22.31-.47c.23.81.5,1.61.7,2.43.6,2.81,1.2,5.61,1.7,8.45a2.85,2.85,0,0,1-.38,1.91c-2.6,3.83-.61,8-1.37,12l.92.15,2.54-13c4.5,4,8.63.85,12.77-1.41,2.3-1.25,2.87-1,3,1.58.26,3.82.6,7.63.81,11.45.34,6.32.59,12.64.9,19a10.8,10.8,0,0,0,.41,1.83l.77.07a22.9,22.9,0,0,0,.64-4.1c-.14-6.65-.41-13.3-.61-20,0-1.62,0-3.24,0-4.86h.93l.54,4.95h.5l.8-3.16h.5l2.27,37.53L469,172l2,3.08c.23,3.73.47,7.46.73,11.43l-2.31-.82,2.55,6c1.82-8.15,3.42-16.25,3.25-24.55l-.73-.12-1.78,10h-.84l-.85-2-1-6.79-1.4,1a7.59,7.59,0,0,1-.09-1.09c.18-2.34.5-4.69.57-7,.15-5.13.17-10.27.27-15.4,0-.27.19-.54.74-.79l.77,8.56.83,0c0-2.35.17-4.72,0-7-.74-8.68-1.71-17.34-2.39-26a79.58,79.58,0,0,1,.18-11A161.15,161.15,0,0,1,473,145.68l2.19-1.91c0,1,.06,1.7,0,2.37-.26,2.55-.5,5.1-.86,7.64-.34,2.38-.93,4.72-1.23,7.1a19.63,19.63,0,0,0,.39,3.91c3.38-2.65.93-6.07,2.21-8.45L478,163.6Zm-57.91,69.85-.67.4v1.6c-3.75-4.41-3.75-4.41-5.83-4.43-1,5,1.05,9.66,3.2,13.72,2.06,3.89,5.85,6.86,9,10.42l.27-1.45c2.5,1.82,4.14,5.11,8,4,.27-.08.77.56,1.14.89,1.42,1.28,2.77,2.65,4.27,3.82a3.82,3.82,0,0,0,2.58,1c4.5-1.1,9.8-1.21,10.89-7.39-3.2-3.64-9.37-8-13.54-9.27a39,39,0,0,0-5.12-1c-4.2-.72-8-1.81-10.12-6.2C423.22,237.41,421.51,235.53,420.11,233.49ZM448.34,174l-6.85-4.5.2-.33,3.22.66c-2.86-2.53-5.08-4.68-7.5-6.57-.92-.72-2.78-1.5-3.39-1-1.1.78-1.6,2.42-2.3,3.73-.07.13.17.42.27.66h2.61c-1.85.79-3,1.45-1.46,3.06.2.21-.15.89-.15,1.34,0,2.79-.14,5.59,0,8.36,0,.55,1.16,1.36,1.88,1.5,1.9.32,3.85.31,5.78.46,3.33.26,6.67.47,10,.84,2.43.27,2.27-1,2.08-2.35h-4.42Zm11.24,70.38-.29.59a7.64,7.64,0,0,0,1,.69c5.69,2.94,11.36,5.92,17.09,8.78,3.86,1.93,7.8,3.74,11.75,5.5,1.23.54,2.82,1.23,3.3-1,.32-1.53.6-3.08,1-5-1.76.83-3.53,1-4.29-1.34.18-.23.27-.41.39-.47s.5-.09.71-.21a3.36,3.36,0,0,0,1.27-4.5q-1.86-2.93-4.56-.8c-2.4,1.9-2.76,3.67-1.36,7.53l-4,.45L476,247l-.48,2.46L466,245.13l-.9,1.5ZM524.05,273l.88-.84-3.55-.24a23.5,23.5,0,0,0,.46,3.05c.79,2.78,1.81,5.5,2.46,8.3.33,1.45,1.13,2.39,2.29,1.84,1.88-.89,3,.13,4.29,1,.92.6,1.83,1.25,2.94,2-.45-3.11-1.77-4.4-4.29-4.69a3.34,3.34,0,0,1-2.12-.79,24.87,24.87,0,0,1-3.4-5.42C523.54,276,524,274.4,524.05,273Zm18.79-14.53-18.23,2.93c3.11,3,13.87,1.22,18.23-2.93Zm-90-107.39c-2.9-2.58-6.29-2.58-9.65-2.58-.29,0-.79.61-.82,1a1.37,1.37,0,0,0,.61,1.14c4.05,1.53,8.14,3,12.22,4.46l.39-.7-3.83-2.68Zm57.6,108.6c-2.16-3-4.8-5.86-6.43-9.21s-2.21-7.12-3.21-10.57C498,244.7,505.08,259.13,510.43,259.68Zm39.26-2.22c.42,2.32,2,3.26,3,1.9a47.6,47.6,0,0,0,4.32-6.92c.21-.39-.55-1.29-.86-2a5.84,5.84,0,0,0-1.68,1.13,5.54,5.54,0,0,0-.5,1.91c-.6,2.22-1.19,4.49-4.3,4Zm-120,3a57,57,0,0,0,5.27,4.89c.34.26,2.54-.91,2.56-1.47.06-2.27-5.15-4.81-7.84-3.43ZM409.57,136.56l3,14.93c1.7-5.07-.46-14.65-3-14.94ZM438.4,152l-1.68,1.47a17.24,17.24,0,0,0-1.89-10.08v12C436.83,156,437.6,154.49,438.4,152Zm80.5,126.36-.08-1.08a19.78,19.78,0,0,0-8.23,1.08c-.33.13-.57,1-.52,1.42,0,.26.79.72,1.11.64,2.6-.62,5.17-1.35,7.77-2.05Zm-68.76-132c-1.36-.35-2.5-.59-3.6-1s-2.08-1.8-3,.16C446.19,147.86,448.07,148.13,450.14,146.34Zm-12.23-21.4c-2.3,4.85-2.3,4.85-1.3,6.85,2.56-1.75,1.78-4.1,1.3-6.85Zm70.53,50.74-1.39,0c-.07,1.72-.17,3.46-.17,5.18,0,.25.64.75.83.68.4-.14,1-.57,1-.89C508.7,179,508.55,177.33,508.43,175.68Zm16.92,90.9a15.71,15.71,0,0,1,.29,1.94,15.44,15.44,0,0,0-.13,2c.05.41.46,1.09.74,1.1a1.92,1.92,0,0,0,1.43-.62c.94-1.21-.33-3.78-2.31-4.39ZM441.19,160.05l-.36.82,3.79,1.79.5-1.09Z" transform="translate(-190.38 -52.49)"/><path d="M190.93,125.56c3.06.36,7.09,4.23,9.21,6,9.26,7.8,16.88,13,28.23,17.6,2.3.92,4.62,1.8,7,2.72h0c2.9-3.59,6.79-4.21,11-4.41,9-.42,15.34,3.88,20.44,10.7.8,1.07,1.73,1.91.85,3.74-.6,1.25.31,3.22.5,4.86.24,2.2.68,4.28-1.5,6.13-.74.63-.12,2.86-.12,4.74h0c-3.23.84-7.13,1.84-11,2.94a2,2,0,0,0-1.24,1.28,1.78,1.78,0,0,0,1.09,1.38,10.26,10.26,0,0,0,3.93.13c5.8-1.34,11.65-1.23,17.5-.7a2.13,2.13,0,0,1,1.45,1.05c.63,1.32,1.05,2.74,1.46,3.84h0c-2.71,3.09-5.93.95-9,1.19l2.85-2-.15-.36-2.19.47,2.39-3.06c-2.26-1.16-5.55-.9-7,.89a4.5,4.5,0,0,0-.85,3.27,14.93,14.93,0,0,0,5.26,9.31V193s0,0,0,0c.46,1.14.67,2.77,1.43,3.1,1.07.46,2.62,0,3.88-.32,1.84-.47,3.6-1.17,5.4-1.78a24.6,24.6,0,0,0-3.86,2.27c-5.46,4.66-8.12,10.59-7.35,17.78,1.63,15.27,5.69,30,10.09,44.66.43,1.42.84,2.84,1.29,4.39h0c-2.66,2-5,3.76-8.82,2.21-2-.84-4.68-.25-7.06-.29-1.24,0-2.66-.39-3.7.07a23.77,23.77,0,0,0-4.74,3.17c-.46.36-.62,1.12-1.07,2-1-.92-1.9-1.75-2.82-2.53-.34-.28-.86-.69-1.15-.59a1.58,1.58,0,0,0-.73,1.11c-.4,2.45-.94,2.5-3,1.53-5.25-2.45-6-7.84-8.37-12.17-.3-.56.32-1.62.43-2.09h0c-2.1-2,.84-4.23-.59-6.32l-1.9,4.8h-.7a18.15,18.15,0,0,1,0-2.42,11.71,11.71,0,0,1,.61-2h0c-.46-.09-1.16-.38-1.3-.21-.59.72-1.61,1.84-1.39,2.34,1.14,2.58-.12,4.17-1.68,6-1.26,1.44-2,1.17-3.19,0a59.21,59.21,0,0,0-4.66-3.77h0c-.11-3.21-1.6-4.79-4.5-4.89h0l-3.1-2.16c0,1.32-.09,2.65,0,4,0,.32.59.57.79.91,1.1,1.81,1.13,2.47.15,6.5l-6.56-7.38c-.1,1.06,0,1.69-.21,1.83-2.43,1.55-2.44,1.77.07,3.38l-2.47,3.16c3.18,0,3.4,1.39,4.76,3.4,1.53,2.26,4.1,3.85,6.3,5.61s4.48,3.34,6.64,5.13a51.37,51.37,0,0,1-17.65-10.66l-20-1M232,152.34h0c-1.94,1.55-4.59,2.84-6,5-2.79,4.26-1.18,9,.1,13.39a38.89,38.89,0,0,0,3.15,6.68,13.88,13.88,0,0,0,1.4,1.91h0c.54-.68,1.43-1.31,1.56-2.07a34,34,0,0,0,.74-7.56c-.17-3,1.55-4.57,3.57-6,3.21-2.25,3.24-5.31,0-7.62a36.41,36.41,0,0,1-4.65-3.57ZM212.76,174c-1.1,1.85-1.56,3.3-2.55,4.09-1.73,1.38-1.5,2.78-1.45,4.74.1,3.19,2.37,3.67,4.33,4.72a2.43,2.43,0,0,0,3.24-.82c.79-1.37-.4-2.83-1.06-4.21a18.13,18.13,0,0,1-1.41-2.73,31.12,31.12,0,0,1-1.24-5.67Zm37.62,81.16-.61-.44-1.12.75h0l-2.43-2.73h0l1.7-1.16c-1.4-1.09-2.5,1.61-3.87-.09-.21.42-.65.94-.54,1.24.59,1.55,1.4,3,2,4.57,1.15,3.09,5.16,4.35,5.23,8.17,0,.23.87.44,1.35.66h0c.19-.5.65-1.08.5-1.45-.48-1.29-1.21-2.5-1.74-3.76a10.74,10.74,0,0,1-1-3.11,4.85,4.85,0,0,1,.42-2.52Zm-32.57-73.68-.54.22,2.29,14.39.6-.08-1.29-9.78,3.61,3.5.73-.62ZM213.3,163c-2.37.55-2.58,2-2,4.07C212.46,165.79,215,165.63,213.3,163Zm-.23,27.43-1.2-1.12h0l-2.74,3.5.73.67,3.23-3Zm4.46,33.17,2.29.36h0v-3.33h0c-2.07-.38-2.5.91-2.31,3Z" transform="translate(-190.38 -52.49)"/><path d="M412.14,76.59l5.64,3.29c-.77-2.18-1.44-3.55-3.58-3.87-2.79-.42-4.24-2.16-4.5-5-3.37-.72-6,.71-8.85,2.42a113.68,113.68,0,0,1-10.58,5.31c-1.05.5-2.35,1.29-2.4-1-2.5,1.36-4.63.09-4.55-2.5.17-5.21,2.7-9.24,6.34-12.76.89-.86,1.36-2.23,2.33-2.92,10.39-7.31,19.56-10.12,32.18-2.68,5.17,3,7.5,8.26,9.27,13.7,2.3,7,2,14.07.23,21.13-.05.22-.27.39-.8,1.09a17.11,17.11,0,0,1-.36-2.86,34.06,34.06,0,0,1,.61-5.2c.56-2.5-.68-3.92-2.6-5.1s-3.45-.14-4.83,1.18c-1.05,1-2.08,2.15-3.21.67l-5.11,3.08-.7-3.14-.39.42-4.77-4.35Z" transform="translate(-190.38 -52.49)"/><path d="M457.17,91.53h-2.79c5.36,4.87,3.14,11.18,4.46,16.77l-.7.23c-.23-.44-.7-.9-.66-1.31.17-2.33-1.18-3.35-3-4.29-3.86-1.95-7.61-4.08-11.4-6.15-1.46-.8-3.61-1.29-4.2-2.5a18.69,18.69,0,0,1-1.3-7,4.33,4.33,0,0,1,3.15-4.56,3.45,3.45,0,0,0,1.46-.87c5.39-6.28,13.08-7.5,20.5-9.26a43,43,0,0,1,9.65-.89,9.1,9.1,0,0,1,4.86,1.46c7,4.72,10.8,11.82,14.08,19.28a7.58,7.58,0,0,1,0,1.57l-3.1-4.14-1.42,1.36-2.63-2.16-.61,4.28-2.21-3-.6,3.16-.7.1-2.58-5.12-5.72,6.12-1-.83-.75,3.61c-.39-1.54-.33-3.41-1.23-4.28-.71-.68-2.61-.14-3.92-.14l-.85,5.08H463l-3.16-7-1.14,3.1h-.68Z" transform="translate(-190.38 -52.49)"/><path d="M561.29,209.38c-4.29-5-9.75-9.22-10.1-16.59-.31-6.47-.91-12.91-1.39-19.37l.71-.17Z" transform="translate(-190.38 -52.49)"/><path d="M282.77,175.45l-8.79-.57-1.91-7C276,167.18,280.55,170.21,282.77,175.45Z" transform="translate(-190.38 -52.49)"/><path d="M481.89,162.59l2.2-25.65.7.07C486.68,145.73,486.08,154.21,481.89,162.59Z" transform="translate(-190.38 -52.49)"/><path d="M306.08,175.71v-1.42l13.5-2.66c.24,0,.58-.22.71-.11a3.65,3.65,0,0,1,1.23,1.16c.11.21-.43.73-.67,1.11l-1.33-1.47c-1.61.94-3.89,1.64-5.15,3.17-1.86,2.25-3.64,1.74-5.73,1l-2.58-.87Z" transform="translate(-190.38 -52.49)"/><path d="M405,94.38a12.14,12.14,0,0,1-1.73,1.38c-.54.32-1.67.63-1.8.44-1.5-2.26-4.2-1.46-6.13-2.53a12.17,12.17,0,0,1-1.5-1.12c2.64-.61,5.17-1.31,7.77-1.72.65-.1,1.55.62,2.14,1.16S404.43,93.15,405,94.38Z" transform="translate(-190.38 -52.49)"/><path d="M482.89,202.83c-1.42-2.22-1.79-18.15,0-22.5Z" transform="translate(-190.38 -52.49)"/><path d="M479,151.9V132.67c.9,6.5,2.21,12.78,1,19.22Z" transform="translate(-190.38 -52.49)"/><path d="M422.93,129.26c4,.59,2.83,3.76,3.17,6a44.33,44.33,0,0,1,.07,6.58l-.61.1Z" transform="translate(-190.38 -52.49)"/><path d="M398.17,111.36l7.68-1.14v-.56l-1.61-.5c1.5-2.5,3.5.3,5.09-.55l1.2,2.36-.43.45c-2.72-2.14-5,.23-7.5.43C401.21,112,399.73,113.39,398.17,111.36Z" transform="translate(-190.38 -52.49)"/><path d="M392.17,96c-3.92-4-5.82-8.08-4.42-13.29a21.8,21.8,0,0,1,.24,2.71c-.08,2.75.48,5.07,3.31,6.34C393,92.57,392.93,94,392.17,96Z" transform="translate(-190.38 -52.49)"/><path d="M460.93,118.22a72.68,72.68,0,0,1,1.73,7.89,73.48,73.48,0,0,1,.07,8.14l-.93,0-1.12-16.1Z" transform="translate(-190.38 -52.49)"/><path d="M478.06,163.71V153c2.6,2.57.5,6.54,2,9.5l-2.1,1.09Z" transform="translate(-190.38 -52.49)"/><path d="M395.13,162.43l10.7-5.07.39.74-10.38,5.76Z" transform="translate(-190.38 -52.49)"/><path d="M394.79,107.64l5.7-1.89.18.38-2,1.19,1.68,2.78a10.81,10.81,0,0,1-3.17-.41A11.51,11.51,0,0,1,394.79,107.64Z" transform="translate(-190.38 -52.49)"/><path d="M467.55,147.74,466.11,137l1-.12,1.39,10.72Z" transform="translate(-190.38 -52.49)"/><path d="M427.25,219.6l9,2.08-.11.45-9-1.34Z" transform="translate(-190.38 -52.49)"/><path d="M329.79,170c3.77,1.35,5.5,4.28,6,8.16C334,175.24,333.43,171.41,329.79,170Z" transform="translate(-190.38 -52.49)"/><path d="M306,175.65h-8l.06-.83,8,.89Z" transform="translate(-190.38 -52.49)"/><path d="M458.39,200.15l-.32,3-3.23-2,.3-.75Z" transform="translate(-190.38 -52.49)"/><path d="M426.13,215.81l7.79,1.57-.13.66-7.63-1.64Z" transform="translate(-190.38 -52.49)"/><path d="M419.67,155.35c-.19-1.5-1.26-3,.11-4.71,2.17,1.83.61,3.22-.14,4.66Z" transform="translate(-190.38 -52.49)"/><path d="M292.21,190c-1.26,2.86-4.2,1.91-6.32,2.81Z" transform="translate(-190.38 -52.49)"/><path d="M438.48,102.7c2.42,0,1.75,2.92,3,4l-3.64-3.29Z" transform="translate(-190.38 -52.49)"/><path d="M442.79,111.68l-2.73-3.08C443.33,108.66,444,109.36,442.79,111.68Z" transform="translate(-190.38 -52.49)"/><path d="M422.34,135.79c-.91.63-1.43,1.23-2,1.29-.37,0-.82-.73-1.23-1.15a6.49,6.49,0,0,1,1.64-1.14C421,134.71,421.54,135.28,422.34,135.79Z" transform="translate(-190.38 -52.49)"/><path d="M524.62,261.39l18.23-2.93" transform="translate(-190.38 -52.49)"/><path d="M412.55,151.49l-3-14.93" transform="translate(-190.38 -52.49)"/><path d="M437.9,124.95" transform="translate(-190.38 -52.49)"/><path d="M236.79,277.49c1.23-.71,3.54-1.26,3.92-2.43.74-2.28-1.45-3.53-3.24-4.67s-3.74-2.59-5.6-3.89l.45-1c1.5.66,3.05,1.22,4.48,2a36.63,36.63,0,0,1,3.57,2.6l.54-.64-6-6.71a4.79,4.79,0,0,1,.66-1.73,3.17,3.17,0,0,1,1.9-1c.62-.07,1,.13,1.35,1.23.75,2.45,2.71,4.5,3.74,6.89a14.8,14.8,0,0,1,1,5.63,11.24,11.24,0,0,0,3,7.66c1.1,1.25,1.82,2.84,3,4,.68.7,1.74,1.65,2.95.13.35-.43,1.85-.1,2.76.11a58.35,58.35,0,0,1,8.74,2.68c-3.14,0-6.31.24-9.42-.06a12.44,12.44,0,0,1-9.8-5.68,9.48,9.48,0,0,0-7.09-4.83A2,2,0,0,1,236.79,277.49Z" transform="translate(-190.38 -52.49)"/><path d="M273.54,281l-1.89,4.78c-.8-1.65-1.12-2.83-1.85-3.66-1.76-2-1.88-3.91-.29-6.09.46-.63.44-1.59.82-2.3.7-1.28,1.54-2.47,2.37-3.78l4.36,9.82-.4.19a15,15,0,0,0-2.43-2.66c-.59-.41-1.62-.21-2.45-.28a4.54,4.54,0,0,0,1.76,4Z" transform="translate(-190.38 -52.49)"/><path d="M281.3,277.14l2,1.35,1.45-3.83c.36,6.16-1.08,7.82-9.5,10.82.83-1,1.26-1.64,1.76-2.17.73-.77,1.74-1,1.31-2.75C278.18,279.74,280.21,278.35,281.3,277.14Z" transform="translate(-190.38 -52.49)"/><path d="M241.91,202.05c-3.21.26-3.93,1-4,3.66-1.66-2.67-.66-5.3,2.33-5.57a31.63,31.63,0,0,1,7.19.21c1.08.16,2,1.23,3.56,2.24-2.19,2.24-3.9,4.35-6,5.92-.58.43-2.5-.58-3.57-1.29s-2.18-1.78-1.12-3.34A20.81,20.81,0,0,1,241.91,202.05Z" transform="translate(-190.38 -52.49)"/><path d="M240.64,208.19l5.1,2.12-.32.77-5.15-2Z" transform="translate(-190.38 -52.49)"/></svg>