<svg class="line-drawing" width="280" version="1.1" class="new-future-logo" xmlns="http://www.w3.org/2000/svg" xmlns:xlink="http://www.w3.org/1999/xlink" x="0px" y="0px" viewBox="0 0 523.6 229.3" style="enable-background:new 0 0 523.6 229.3;" xml:space="preserve"> <g class="new-future"> <path d="M254.9,45.6V39.9H266c.5,0,1.1.9,1.2,1.5,1.4,8.4,2.8,16.9,4.1,25.3,1,5.9,2,11.8,2.9,17.7a6.9,6.9,0,0,0,.6,1.3l18.8-40.5h-6.4V40h35.6l-2.1,4.7c-6,12-11.9,24.1-17.8,36.2a2.6,2.6,0,0,1-2.7,1.7H289.1v5.7H277.2v6.3h18.9l-3.8,7.8c-3.5,7.2-7.1,14.5-10.7,21.7a2.2,2.2,0,0,1-1.5,1.2H256.9c-1.9-14.1-3.7-28.1-5.7-42.4h5.6V77H232.9v5.8h14.3c-6.1,12.4-12.1,24.4-18.1,36.7H237v5.6H202.2c-3.9-28.3-7.9-56.5-11.8-85h26.2l5.1,45.8.4.2c1.4-2.8,2.9-5.5,4.3-8.2,5.5-10.3,10.9-20.6,16.3-31a2.2,2.2,0,0,1,2.3-1.3C248.2,45.7,251.4,45.6,254.9,45.6Z"></path> <path d="M419.4,199.4l15,27.8H395V222h6.7a6.4,6.4,0,0,0-.5-1.5c-2.3-4.8-4.7-9.6-7.2-14.3a1.9,1.9,0,0,0-1.4-1.1H382c-1,5.5-1.9,10.9-2.9,16.3a19.7,19.7,0,0,0-.7,3.5c.1,2.3-1.1,2.4-3,2.4-6.7-.1-13.4,0-20.1,0H353c2.3-13,4.5-25.8,6.8-38.7H349.6V183h21.6c1.8,0,2.6-.4,2.3-2.4s0-2.2,0-3.6H361.9c1.3-7.3,2.5-14.4,3.8-21.5a56.2,56.2,0,0,0,.9-5.7c.2-1.4.8-1.8,2.1-1.7h10.8v-5.5l1.9-.2c9.5,0,19.1-.1,28.7.1a34.1,34.1,0,0,1,18.3,5.5c6.9,4.5,10.1,11,10.3,19.2.3,13.8-5.9,23.9-17.3,31.1Zm-33.5-16.7c4.9,0,9.6.1,14.3,0a14,14,0,0,0,9.3-3.5,9,9,0,0,0,3.3-9.3,7.2,7.2,0,0,0-6.7-5.8c-5.5-.3-11.1-.1-16.9-.1C388.1,170.1,387,176.3,385.9,182.7Z"></path> <path d="M73.2,81.4c2.2-12.3,4.3-24,6.5-36H71.3V40h34.4c-.7,4.4-1.5,8.7-2.2,12.9-1.3,7.2-2.6,14.4-3.8,21.6-.3,1.7-.8,2.2-2.5,2.1H88.9c-1.2,0-1.7.4-1.6,1.6s0,2.8,0,4.4H79v5.8H97.2c-2.2,12.3-4.3,24.2-6.4,36.3H72a3.5,3.5,0,0,1-1.9-1.5L43.4,85.4l-.8-1c-2.1,11.7-4.1,23.1-6.1,34.7h8.8v5.5H10.5C12.9,110.7,15.4,97,17.8,83H31.2V71H20c.5-3.1.9-5.8,1.4-8.6.9-5.1,1.9-10.2,2.7-15.3.2-1.4.7-2.2,2.3-2s2.6,0,4.2,0V39.9H43.8c.5,0,1.1.7,1.5,1.3L72.2,80Z"></path> <path d="M482.6,185H464v-5.6H451.1c2.2-12.5,4.4-24.6,6.6-36.9h65.9c-.5,3-.9,5.9-1.4,8.8s-1.5,7-1.9,10.6c-.2,1.5-1,1.4-2,1.4H479c-.7,3.9-1.3,7.7-2,11.7h35c-.3,1.5-.5,2.9-.8,4.4H491.6v5.9h11.7V195H475.7c-1.6,0-2.5.2-2.6,2.2s-1.1,5.9-1.7,9.1h41c-.5,3.1-1,6-1.5,8.9s-1.2,7.2-2,10.8c-.1.5-.8.9-1.3,1.2a1.7,1.7,0,0,1-1,.1H442.7c2.1-12.2,4.3-24.2,6.4-36.3h33.5Z"></path> <path d="M103.2,124.6c2.1-12.1,4.2-24,6.3-36h33.8V82.7H124.5c0-1.5,0-2.7.1-3.9s-.5-2.3-2.2-2.2c-3.4.1-6.9,0-10.7,0,.5-3,.9-5.8,1.4-8.5,1.6-8.8,3.2-17.5,4.7-26.3.2-1.4.6-1.9,2.1-1.9h62.5l1.8.2c-1.3,6.9-2.5,13.8-3.7,20.7H141.4c-1,0-2-.2-2.2,1.1-.5,3.4-1.1,6.8-1.8,10.5h35.1a15.8,15.8,0,0,1-.6,3.5c-.2.5-1.2.7-1.9.7H151.8v6.2h12v9.7H134c-.7,3.7-1.4,7.4-2.1,11.3h41c-1.3,7.1-2.5,14-3.7,20.8Z"></path> <path d="M178.8,194.2v5.7h-6.6a2.3,2.3,0,0,0-2.6,1.8c-6.3,14.9-17.2,24.2-33.5,26.7-10.4,1.6-20.5,1.4-30-3.7s-12.6-11.3-14.4-20.3-.4-15.1,1-22.5c.3-2.1.7-4.2,1.1-6.2h25.3c-.5,3.3-1,6.3-1.5,9.2s-1.4,7.8-.5,11.7c1.8,8,8.4,10,14.6,9.2,10.3-1.4,15-9.3,16.6-17.9,2.5-12.8,4.6-25.7,6.9-38.6v-1.2h-7.9v-5.5h34.4l-8.1,46H161.3v5.6Z"></path> <path d="M46.8,163.7,44.2,178H78.4c-.6,3.8-1.2,7.2-1.9,10.7,0,.3-1,.7-1.6.7h-8V199H42.2c-1.4,0-1.9.5-2.1,1.9-1.4,8.4-2.9,16.9-4.4,25.3a1.7,1.7,0,0,1-1.2,1h-24c2.2-12.6,4.3-24.9,6.6-37.5h5.8c2.5,0,4.9-.1,7.3,0s1.6-.5,1.6-1.7,0-2.7,0-4.3H29.6c-6.6,0-13.2-.1-19.7,0-1.8,0-2.5-.4-2.3-2.2a19.6,19.6,0,0,0,.1-3.5H19.1c2.2-12,4.2-23.8,6.3-35.6H90.7c-1.2,7.1-2.4,14-3.7,21.2Z"></path> <path d="M327.2,148h-7.8v-5.4h34.4c-1.6,9.4-3.3,18.8-5,28.4H338.7v5.8h9.1c-.7,4.1-1.4,7.8-2.1,11.6-1.8,9.1-5,17.8-10.9,25.2s-15.3,12.9-25.6,14.7c-8.4,1.5-16.7,1.5-24.9-1-11.7-3.7-18.7-11.6-20.5-23.7-.6-4-.6-8.1-.9-12.5h25.7c.2,1.8.3,3.6.6,5.3,1.7,8.2,8.7,10.2,14.9,9.3,9.8-1.3,14.8-9.4,16.3-17.8,2.4-12.6,4.6-25.3,6.8-38A11.9,11.9,0,0,0,327.2,148Z"></path> <path d="M264.6,142.5c-1.3,7.3-2.6,14.3-3.9,21.6H237.3c-1.4-.1-2,.1-2.2,1.7-1.9,11.1-3.9,22.1-5.9,33.1-1.2,7-2.5,14-3.7,21a13.3,13.3,0,0,0,0,2h9.2v5.2H199.3c2.2-12.8,4.5-25.5,6.7-38.4H193.5V183h23.9v-6h-9.3c.8-4.4,1.5-8.5,2.2-12.9H184.9c1.3-7.3,2.6-14.4,3.8-21.6Z"></path> <path d="M289.7,185H274.3v-5.6h-9.1c2.3-12.5,4.4-24.7,6.6-36.9h25.4Z"></path> <path d="M95.9,163.7c.7-4,1.3-7.7,2-11.3s1-5.5,1.4-8.3c.2-1,.3-1.7,1.7-1.7h24c-.6,3.4-1.1,6.8-1.7,10.2-.9,5-1.8,10-2.8,15-.1.6-.8,1.5-1.2,1.5H105.4v-5.7Z"></path> </g> <g class="tagline"> <path d="M39.8,14.7l.9-4.7H53.2c-.8,4.2-1.5,8.4-2.3,13-1.9-.4-3.7-.8-5.5-1s-.9.3-1.3.3c-2.8.2-5.8,1-8.5.5-5.9-1.2-8.3-6.3-6.5-12.7A13.8,13.8,0,0,1,41,.2a21.8,21.8,0,0,1,6.7.6c3.5.9,5.4,3.9,5.3,7.8H45.9a.8.8,0,0,1-.6-.4c-1.3-2-3.2-1.9-5-1.3a5.1,5.1,0,0,0-3.7,4.5c-.6,3.6,1.8,5.7,5.4,5a16.7,16.7,0,0,0,3-.8v-.5l-2.4-.4Z"></path> <path d="M210.7,23.2c-8.9.3-12.8-8.1-8.9-15.7A13,13,0,0,1,212.7.2a21.6,21.6,0,0,1,5.7.3c6.1,1.5,8,7.6,6.1,13.7S217.2,23.2,210.7,23.2Zm1.4-6.9a5.6,5.6,0,0,0,5.3-5A4.2,4.2,0,0,0,213.5,7a5.3,5.3,0,0,0-5.3,4.9A4,4,0,0,0,212.1,16.3Z"></path> <path d="M244.7,15.7l3.4,7h-8.2a2.2,2.2,0,0,1-1.3-.9,23,23,0,0,0-1.5-3.2,2.5,2.5,0,0,0-1.6-1c-.4,0-1,.7-1.1,1.2s-.6,2.6-.9,3.9H226q1.5-8.6,3-16.8c.2-1.2.5-2.3.6-3.4s.6-2,2.1-1.9h9.8c3.3.1,6.2,1,7.5,4.5a9.3,9.3,0,0,1-2.9,9.4ZM235.6,11c1.5-.1,2.8.1,3.8-.4s1.4-1.4,2.1-2.2a10.6,10.6,0,0,0-2.6-1.7,6.2,6.2,0,0,0-2.4-.1C236.2,8,235.9,9.3,235.6,11Z"></path> <path d="M296.9,8.6c.4-2.2.7-4.3,1.1-6.3s.5-1.9,2-1.8h5.9c-1.3,7.1-2.4,14-3.7,20.8a2,2,0,0,1-1.5,1.3c-2,.2-4,.1-6.2.1.4-2.5.7-4.9,1.2-7.5h-6c-.4,0-.9.7-1,1.2a35.5,35.5,0,0,0-.9,4.7c-.1,1.1-.5,1.6-1.7,1.6H280c1.2-6.9,2.3-13.7,3.5-20.5.2-1,.5-1.8,1.9-1.7h6c-.5,2.8-.9,5.4-1.3,8.1Z"></path> <path d="M127.3,7.5h-6.5c-.4-.1-.8-.5-1.3-.7a4.9,4.9,0,0,0-1.9-.7c-.4,0-.7.6-1.1.9s.6.7.9.8l4.4,1.3c2.2.7,4.2,1.7,4.7,4.2a6.9,6.9,0,0,1-2.4,7c-3.3,3-11.1,3.9-14.9,1.8s-3.5-3.7-3.8-6.7h7.2c.3.1.5.5.8.7s.9.9,1.3.9a15.7,15.7,0,0,0,3-.5,10.1,10.1,0,0,0-2.1-1.5c-1.1-.5-2.3-.8-3.4-1.2-4.8-1.6-6.1-6.6-2.7-10.4s6.1-3.5,9.7-3.4a12.3,12.3,0,0,1,4.6,1C126.6,2.1,127.6,4.1,127.3,7.5Z"></path> <path d="M327.7.7c-.4,1.9-.7,3.8-1.1,5.8h-10l-.4,2.2h8.4c-.4,2.1-.7,3.9-1.1,5.9h-6.9c-1.6,0-1.6.1-1.8,2h10c-.3,2.1-.6,4-1,6H306.1c.5-3.2,1-6.3,1.6-9.4S309,6,309.6,2.4c.2-1.4.7-1.9,2.1-1.9H326Z"></path> <path d="M64.9,6.6l-.6,2h8.5l-1,6h-7c-1.5,0-2,.4-1.6,2h9.9a19.7,19.7,0,0,0-.7,3.7c.1,2.1-.9,2.5-2.8,2.4H54.3c1.2-7.2,2.4-14.1,3.7-21A1.6,1.6,0,0,1,59.3.6H75.9c-.3,1.9-.5,3.6-.9,5.2s-.9.8-1.5.8Z"></path> <path d="M147,8.6l-1.1,6h-7c-1.4-.1-1.9.5-1.7,2h10c-.4,2.1-.7,4-1,5.9H128.4L132.3.6H150c-.4,2-.7,3.9-1,6H138.8l-.2,2Z"></path> <path d="M179.3,22.6c1-6,2-11.7,3.1-17.5.2-1.5.1-3.6,1-4.2s3.1-.4,4.7-.4h12.6c-.4,2.2-.7,4.1-1,6.2h-7.9c-2.5,0-2.7.2-2.3,3.1h7.9c-.3,2.1-.7,4-1,6h-6.8c-1.3,0-1.8.5-1.9,1.7s-.6,3.4-.9,5.1Z"></path> <path d="M80.3,22.5C81.2,17.3,82.1,12.3,83,7H76.8c.3-1.9.5-3.6.9-5.3A1.6,1.6,0,0,1,79,.6H97.9c-.4,2.3-.8,4.3-1.2,6.5H90.6c-1,5.3-1.9,10.3-2.8,15.5Z"></path> <path d="M266.9,7h-6.3c.5-2.2.8-4.3,1.2-6.4h20L280.6,7H276c-1.3-.1-1.7.4-1.9,1.7-.7,4.6-1.6,9.2-2.4,13.9h-7.6C265.1,17.4,265.9,12.4,266.9,7Z"></path> <path d="M172.1.6c-.5,2.3-.9,4.3-1.3,6.4h-4.3c-1.4-.1-1.9.3-2.2,1.8-.7,4.6-1.6,9.1-2.4,13.7h-7.5c.9-5.2,1.8-10.2,2.7-15.5h-6.2L152.1.6Z"></path> </g></svg>