<?xml version="1.0" encoding="utf-8"?>
<!-- Generator: Adobe Illustrator 16.0.3, SVG Export Plug-In . SVG Version: 6.00 Build 0)  -->
<!DOCTYPE svg PUBLIC "-//W3C//DTD SVG 1.1//EN" "http://www.w3.org/Graphics/SVG/1.1/DTD/svg11.dtd">
<svg version="1.1" id="Layer_1" xmlns="http://www.w3.org/2000/svg" xmlns:xlink="http://www.w3.org/1999/xlink" x="0px" y="0px"
	 width="595.28px" height="841.89px" viewBox="0 0 595.28 841.89" enable-background="new 0 0 595.28 841.89" xml:space="preserve">
<path fill="#3D3E3E" d="M283.783,424.131c0.669,0.275,1.271,0.012,1.465-0.73c0.135-0.513,0.454-1.81,0.598-2.349
	c0.197-0.735,0.12-0.991-0.422-1.63c-1.178-1.391-1.931-3.192-1.931-5.741c0-7.395,5.533-14.016,14.408-14.016
	c7.858,0,12.176,4.802,12.176,11.216c0,8.437-3.734,15.558-9.277,15.558c-3.063,0-5.353-2.531-4.62-5.636
	c0.882-3.708,2.584-7.709,2.584-10.385c0-2.396-1.285-4.394-3.946-4.394c-3.131,0-5.645,3.238-5.645,7.575
	c0,2.762,0.935,4.631,0.935,4.631s-3.202,13.57-3.765,15.945c-1.118,4.732-0.169,10.535-0.087,11.12
	c0.048,0.349,0.493,0.431,0.695,0.169c0.289-0.377,4.017-4.979,5.282-9.578c0.359-1.301,2.06-8.041,2.06-8.041
	c1.016,1.939,3.988,3.646,7.147,3.646c9.408,0,15.79-8.575,15.79-20.055c0-8.681-7.352-16.764-18.525-16.764
	c-13.904,0-20.915,9.968-20.915,18.28C277.79,417.987,279.696,422.465,283.783,424.131z"/>
</svg>
