<svg x="0" y="0" width="20" height="20" viewBox="0 0 20 20"><path class="icon" d="M6.268 10.998c.198.081.377.004.434-.217.04-.152.135-.536.177-.695.058-.219.036-.295-.125-.484-.349-.412-.572-.946-.572-1.701 0-2.192 1.64-4.154 4.27-4.154 2.33 0 3.608 1.423 3.608 3.324 0 2.5-1.105 4.611-2.749 4.611-.907 0-1.587-.75-1.369-1.67.262-1.1.767-2.285.767-3.079 0-.71-.382-1.302-1.17-1.302-.929 0-1.673.959-1.673 2.245 0 .819.277 1.373.277 1.373l-1.116 4.727c-.332 1.402-.05 3.122-.026 3.296.014.103.146.127.206.05.085-.111 1.191-1.476 1.565-2.839.106-.386.611-2.384.611-2.384.3.575 1.182 1.081 2.118 1.081 2.789 0 4.681-2.542 4.681-5.945 0-2.573-2.179-4.968-5.49-4.968-4.122 0-6.2 2.954-6.2 5.418 0 1.492.565 2.819 1.776 3.313z"/></svg>