<svg x="0px" y="0px" width="20px" height="20px" viewBox="0 0 20 20" enable-background="new 0 0 20 20">
	<path class="icon" d="M6.268,10.998c0.198,0.081,0.377,0.004,0.434-0.217c0.04-0.152,0.135-0.536,0.177-0.695
	c0.058-0.219,0.036-0.295-0.125-0.484C6.405,9.19,6.182,8.656,6.182,7.901c0-2.192,1.64-4.154,4.27-4.154
	c2.33,0,3.608,1.423,3.608,3.324c0,2.5-1.105,4.611-2.749,4.611c-0.907,0-1.587-0.75-1.369-1.67c0.262-1.1,0.767-2.285,0.767-3.079
	c0-0.71-0.382-1.302-1.17-1.302c-0.929,0-1.673,0.959-1.673,2.245c0,0.819,0.277,1.373,0.277,1.373s-0.949,4.022-1.116,4.727
	c-0.332,1.402-0.05,3.122-0.026,3.296c0.014,0.103,0.146,0.127,0.206,0.05c0.085-0.111,1.191-1.476,1.565-2.839
	c0.106-0.386,0.611-2.384,0.611-2.384c0.3,0.575,1.182,1.081,2.118,1.081c2.789,0,4.681-2.542,4.681-5.945
	c0-2.573-2.179-4.968-5.49-4.968c-4.122,0-6.2,2.954-6.2,5.418C4.492,9.177,5.057,10.504,6.268,10.998z" />
</svg>