<svg xmlns="http://www.w3.org/2000/svg" width="150" height="210" viewBox="0 0 152.1 212.6" class="line-drawing" style="max-width: 100%;">
    <g>
        <path
            d="M13.9,2.6H140.4a12,12,0,0,1,12,12V178.7a12.1,12.1,0,0,1-12,12.1H13.9a12.1,12.1,0,0,1-12-12.1V14.6A12,12,0,0,1,13.9,2.6ZM29.5,40.2h96.6M29.5,62.5h96.6M29.5,84.3h96.6M29.5,106h96.6M29.5,127.8H62.2m58.1,44.1c1.4,3.9,2.7,8.1,4,12.5s2.6,8.8,4,12.8a8.8,8.8,0,0,1,.5,1.5h-.4c-6.5-.7-13.1-1.8-19.6-2.8m2.5-20.4c-2.9,13.2-3.5,26-7.5,38-4.8-1.9-8-12.4-13.8-9.2-1.4.1-12.2,7.4-10.5,2.2,2.4-12.1,3.8-24.5,6.8-36.5,2.3,4.3,5.7,5,9.7,4.5C101.6,173.9,105.7,180.3,111.3,175.5Zm-25-5.5c-2.8-7.1-7.2-1-5.9-7.7,1.5-5-4.9-10.7-1.7-13.8,6-4.8,2.8-12.7,8.3-13.4a13.6,13.6,0,0,0,8.8-4.6c3.2-4,7.7,1.4,11.7.6s6.4-1.8,7.8,1.4c2.5,6.9,11.1,7,10.1,11.6a15.3,15.3,0,0,0,2,10.8c2.7,3.7-5.5,7-5.3,14.1a3.6,3.6,0,0,1-3.5,3.4c-5.9.3-2.9,1.5-7,2.6m2.6-20.2c-1.1,14.5-22.4,13-21.8-1.4S115.3,140.6,114.2,154.8Z"
            transform="translate(-1.1 -1.8)" />
        <polygon points="82.8 185.7 81.5 193 105.9 193 107.1 184.9 82.8 185.7" style="fill:#fff" />
    </g>
    <g>
        <polygon points="109.2 184.9 108.3 190.7 124.6 190.7 122.9 185.1 109.2 184.9" style="fill:#fff" />
    </g>
</svg>