<svg xmlns="http://www.w3.org/2000/svg" width="227" height="10" viewBox="0 0 226.9 10" fill-rule="evenodd">
    <path d="M0 4.8l6-2.6c.8-.3 1.8.1 2.7.2.3 0 .8 0 1-.2 1.8-1.4 3.7-1.4 5.4.1.3.3 1 .5 1.4.5H139c.6 0 1.2-.3 1.8-.4.7-.1 1.3-.1 2-.2 1-.1 2.2-.4 3.4-.4.8 0 1.6.2 2.5.2a289 289 0 0 0 5.9.3c.8 0 1.6 0 2.4-.1 1-.1 2-.3 3.2-.4 1-.1 2 .1 2.8.1l2.6.1c.2 0 .3 0 .5 0 1.5.1 3 .5 4.5.4 1.4-.1 2.8 0 4 0l5.3-.1c1-.1 2-.2 3.2 0 .4.1 1-.5 1.3-.7.2-.1.4-.4.6-.3 1.4.5 2.7-.2 4-.2 2.6-.1 5 1.2 7.4 1.4 3.2.3 6.3-.2 9.4-.9 1.7-.4 3.5-1 5.2-1.2 1.4-.2 3-.1 4.3.2 4 1.1 8 2.6 11.7 4.5-.1.1-.1.2-.2.2l-12 4.6c-1.5.6-3 .3-4.7-.1l-9.4-2c-3.2-.5-6.3.3-9.4 1.2-1.4.4-2.8.8-4.2-.1-.1-.1-.4 0-.5 0-.3 0-.7.2-1 .1-1.2-.9-2.7 0-4-.7-.8-.4-2-.1-3-.1-.3 0-.6.1-1 .1-1.5-.1-3-.3-4.6-.5-1.3-.1-2.7 0-4 0l-3.3-.3c-1.2 0-2.4 0-3.7 0-.4 0-1 .2-1.3.2l-2.5.1c-.3 0-.7-.1-1 .1-.8.5-1.6.5-2.5.3-.5-.1-1-.1-1.5-.1-.1 0-.2.1-.3.1l-4.2-.1-3.5.1c-1.5 0-3 .7-4.5-.3-.2-.2-.6-.1-1-.1h-123.2c-.4 0-1 .1-1 .3-2 1.6-3.8 1.6-5.7-.1-.1-.1-.2-.1-.3-.2-1.7 1.1-3.4.7-5 0L.1 5.2 0 4.8zm139.4-.8h-123v2.4l123-2.3zm51 4.3l2-.5c3-.9 5.8-1.4 8.8-.9l8.6 1.9c1.8.4 3.6.8 5.4.1l7.4-2.9c.3-.1.5-.3.8-.4l-14-.2c-4.6 0-9 .2-13.7-.1 0-.1 0-.3 0-.4H223c0-.2.1-.3.1-.4l-8.5-3.1a5.7 5.7 0 0 0-2.7-.2c-2 .3-3.7.8-5.5 1.3-5 1.4-10 1.6-15-.2-.3-.1-.6-.1-1-.2v6.4zM12.8 7.9c1.4 0 2.5-1.1 2.5-2.4 0-1.4-1-2.6-2.5-2.6-1.3 0-2.5 1.1-2.5 2.5 0 1.4 1 2.5 2.4 2.5zM2.2 5.1c1.5 1.2 3 1.8 5 1.6 1-.1 1.6-.6 1.6-1.5 0-1.2-.5-1.7-1.8-1.8-1.7-.1-3.2.5-4.7 1.6zm187 .3V3.7c.1-.7-.1-1.2-1-1.3-.8-.1-1.5.1-1.5.9a18 18 0 0 0 0 3.7c0 .4.7.9 1.2 1.1.7.3 1.2-.1 1.2-.9V5.4zm-30.7-2.6c-.6-.1-1.2.2-1.5.8-.5.8-.1 2.1 1 2.9.7.6 1.5.7 2.3.1l-1.7-3.8zm8 0c-1.5-.8-3.6 1.4-3.4 2.8.1.8.7 1 1.4 1.1.6 0 .8-.3 1-.9.2-1 .7-1.9 1-2.9zm14 4.4l1.6-4.2c-1-.4-1.7-.3-2.3.4-.6.7-1 2.5-.4 3.2.2.3.7.5 1 .6zM177 2.8H176c-1.6.3-3 2-2.8 3.4.1.6.4 1 1 .9.3 0 1-.4 1-.5-.1-1.6.6-2.7 2-3.9zm7 0l-.3-.1c-1 1.1-1.7 2.4-2 3.9-.1.7.5 1 1 1 .5 0 1-.1 1-.9V2.7zm-14 .5c-1.6-.4-3.2.5-3.4 2.1-.2 1.2.4 1.7 1.7 1.5-.7-1.7 1.4-2.1 1.7-3.5zM186 7.7V3.2c0-.5.1-1-.6-1-.7 0-.7.5-.7 1l-.1 3.5c0 1 .4 1.3 1.3 1zm-12.5-4.8c-1-.4-1.6-.2-2.2.4-.7.8-.8 2.2-.2 3 .2.3.7.5 1.2.8-.2-1.8-.1-2 1.3-4.3zm5.3.2c-1 .1-2 1.2-2 2.7 0 1.4.6 1.8 1.7 1.3l.3-4zm-29-.1c-1-.5-1.7-.3-2 .5-.6 1.1-.3 2.5.6 3.2.2-.6.4-1.3.6-1.9.3-.6.6-1.2 1-1.8zm-3.2-.1c-1.2.1-1.8.8-1.7 1.9.1 1.3.8 2.2 1.7 2.1v-4zM161 6.4l1-3.6c-.2 0-.5-.1-1-.1-1.3 0-1.7.6-1.2 1.8.3.6.7 1.2 1.2 1.9zm-18.7.9c-.5-1.3-1-2.6-1.6-3.9-.6.4-.8.9-.6 1.8.4 1.4 1 2 2.2 2.1zm14 0c-1.5-1.2-1.3-2.6-.8-4.1-1 .5-1.7 2-1.3 3.2.2.8.8 1.1 2 .9zm-4-4.3c-1.2-.3-1.8.1-2.2 1.1-.3.9-.1 1.7.6 2l1.6-3.1zm1.4.8c-1 .4-2 1.6-1.6 2.7.1.3.5.5 1 .7.1 0 .5-.3.5-.5.1-1 .2-2 .3-2.9zm-11-.6c-.6.2-.8.4-.7 1.1.1 1.3 1.3 2.8 2 2.9l-1.3-3.9zm1.6-.1c-.5-.1-.7.2-.8.8-.2 1.4.5 2.8 1.5 3.1l-.6-4zm19-.2c-1.3.6-2 2.5-1.4 3.4l1.4-3.4zm-12.8 4.4c0-.1.1-.2.1-.3-.3-.2-.6-.4-.8-.7-.2-.2-.4-.6-.6-.8a2 2 0 0 1-.3 0c.1.5 0 1.2.3 1.6.1.2.8.1 1.3.2zm5.4-3.4c-.7 1.2-.4 2.5.7 2.9l-.7-2.9zm20.4 3.6l-.2-2.4c-.7 1.1-.6 1.9.2 2.4z" />
    <g fill="#FFF">
        <path d="M139.4 3.9l.2 2.3c-41 0-82.2 0-123.3 0V3.9h123zm51 4.3V1.7c.4.1.7.1 1 .2 5 1.8 10 1.6 15 .2a55 55 0 0 1 5.5-1.2 5.7 5.7 0 0 1 2.7.2c2.8 1 5.7 2.1 8.5 3.1V4.7c-9 0-18.3 0-27.4 0v.4c4.5.3 9 0 13.7.1l13 .6-7.4 3c-1.8.7-3.6.3-5.4-.1L201 6.7c-3-.5-6 0-8.8.9-.6.2-1.2.3-2 .5zM12.8 7.9c-1.4 0-2.5-1.1-2.4-2.5 0-1.4 1-2.5 2.5-2.5 1.4 0 2.5 1.2 2.5 2.6 0 1.4-1 2.5-2.5 2.4zM2.2 5.1c1.5-1.2 3-1.8 4.7-1.6 1.3.1 1.8.6 1.8 1.8 0 .9-.5 1.4-1.6 1.5-1.8.2-3.4-.4-5-1.6zm187 .3v1.9c0 .8-.5 1.3-1.2.9-.5-.2-1-.7-1.2-1.1-.2-1.2-.1-2.5 0-3.7.1-.8.7-1.1 1.5-.9.8.1 1 .6 1 1.3 0 .5 0 1.1 0 1.6zm-30.7-2.6l1.7 3.8c-.8.5-1.6.5-2.3-.1-1-.8-1.3-2.1-1-2.9.4-.7 1-1 1.5-.8zm8 0c-.4 1.1-1 2-1 2.9-.2.6-.4 1-1 .9-.7 0-1.2-.3-1.4-1.1-.2-1.3 2-3.6 3.4-2.8zm14 4.4c-.3-.2-.8-.3-1-.6-.5-.7-.2-2.5.4-3.2.6-.7 1-.8 2.3-.4l-1.7 4.2zM177 2.8c-1.4 1.1-2 2.3-2 3.9 0 .2-.6.5-1 .5-.6.1-1-.3-1-.9-.2-1.5 1.2-3.2 2.8-3.4.3-.1.6 0 1.2-.1zm7 0v3.9c0 .8-.6.9-1 .9-.6 0-1.2-.3-1-1 .2-1.5.8-2.8 2-3.9l.3.1zm-14 .5c-.3 1.4-2.4 1.8-1.7 3.6-1.3.3-2-.3-1.7-1.5.2-1.5 1.8-2.5 3.4-2.1zM186 7.7c-1 .3-1.3 0-1.3-1l.1-3.5c0-.4 0-1 .7-1 .7 0 .6.5.6 1v4.5zm-12.5-4.8c-1.4 2.3-1.4 2.5-1.2 4.3-.5-.3-1-.5-1.2-.8-.6-.8-.4-2.2.3-3 .6-.7 1.3-.8 2.2-.4zm5.3.2l-.3 4c-1 .5-1.7.1-1.7-1.3.1-1.5 1-2.6 2-2.7zm-29-.1c-.3.6-.7 1.2-1 1.8-.3.6-.4 1.3-.6 1.9-1-.6-1.2-2.1-.6-3.2.4-.8 1-1 2-.5zm-3.2-.1v4c-1 0-1.6-.8-1.7-2.1-.1-1.1.5-1.7 1.7-1.9zM161 6.4c-.4-.7-1-1.3-1.2-1.9-.6-1.2-.2-1.8 1.2-1.8.3 0 .6.1 1 .1l-1 3.6zm-18.7.9c-1.2-.1-1.8-.7-2.2-2.1-.2-.9 0-1.5.6-1.8l1.6 3.9zm14 0c-1.3.2-2-.1-2-.9-.4-1.2.2-2.7 1.3-3.2-.5 1.5-.7 2.9.8 4.1zm-4-4.3L150.7 6c-.6-.3-1-1.1-.6-2 .3-1 1-1.3 2.2-1.1zm1.4.8c-.1 1-.1 1.9-.2 2.9 0 .2-.4.5-.5.5-.3-.2-.8-.4-1-.7-.3-1.1.5-2.3 1.6-2.7zm-11-.6l1.3 4c-.7-.1-2-1.6-2-2.9-.1-.7.1-.9.8-1.1z" />
        <path d="M144.3 3l.6 4c-1-.3-1.7-1.7-1.5-3.1.1-.6.4-.9.8-.8zm19-.2L162 6.2c-.7-.9.1-2.8 1.4-3.4zm-12.8 4.4c-.4 0-1 .1-1.2-.1-.2-.4-.2-1-.3-1.6h.3l.6.8c.2.3.5.5.8.7l-.1.3zm5.4-3.4l.7 2.9c-1-.5-1.4-1.7-.7-2.9zm20.4 3.6c-.8-.5-1-1.3-.2-2.4l.2 2.4z" />
    </g>
</svg>