<svg version="1.1" xmlns="http://www.w3.org/2000/svg" x="0" y="0" width="226.89" height="10" viewBox="0 0 226.89 10" xml:space="preserve"><path fill-rule="evenodd" clip-rule="evenodd" d="M0 4.76c2.02-.88 4-1.87 6.1-2.57.78-.27 1.8.15 2.73.2.33.03.77.03.99-.16 1.79-1.45 3.69-1.41 5.43.07.34.3.9.45 1.39.45 18.32.02 36.65.02 54.99.02 22.45.01 44.88.01 67.33.01.58 0 1.17-.28 1.76-.37.66-.1 1.33-.1 1.98-.18 1.13-.14 2.24-.38 3.37-.44.82-.04 1.63.16 2.45.21 1.96.11 3.92.22 5.88.29.79.03 1.58-.05 2.37-.13 1.07-.11 2.14-.33 3.21-.4.94-.05 1.87.05 2.81.09.88.04 1.74.08 2.6.11.17.01.33-.04.49-.03 1.51.14 3.03.5 4.5.36 1.4-.13 2.77.01 4.11-.05 1.79-.08 3.59.07 5.35-.12 1.08-.12 2.08-.17 3.15.05.38.08.89-.46 1.34-.72.19-.12.44-.39.56-.34 1.36.52 2.66-.19 4-.22 2.62-.08 4.88 1.16 7.38 1.41 3.22.32 6.31-.19 9.39-.92 1.74-.42 3.47-1.03 5.23-1.25 1.41-.18 2.96-.15 4.33.21 4.04 1.08 7.92 2.61 11.68 4.53-.06.1-.1.21-.16.24-4.01 1.54-8.03 3.12-12.07 4.59-1.53.56-3.15.27-4.73-.08-3.15-.71-6.27-1.55-9.45-2.04-3.21-.5-6.34.32-9.44 1.19-1.35.37-2.82.85-4.2-.12-.12-.08-.37-.02-.55-.01-.33.03-.75.21-.95.08-1.22-.86-2.68-.02-4-.68-.83-.41-2.03-.08-3.08-.07-.28 0-.58.15-.86.12-1.54-.13-3.08-.35-4.63-.45-1.34-.07-2.68.01-4.01-.03-.9-.03-1.79-.13-2.68-.21-.2-.02-.39-.06-.58-.06-1.22 0-2.43-.03-3.66 0-.45.01-.9.17-1.35.19-.83.05-1.65.05-2.48.08-.32.01-.68-.07-.92.07-.81.5-1.64.5-2.54.26-.46-.13-.97-.1-1.46-.13-.1 0-.19.05-.28.05-1.41-.03-2.81-.08-4.21-.08-1.17 0-2.35.11-3.53.09-1.48-.01-3.02.69-4.46-.28-.24-.16-.63-.12-.95-.12-41.09-.03-82.16-.04-123.22-.03-.39 0-.86.11-1.14.34-1.96 1.61-3.82 1.58-5.71-.12-.07-.06-.17-.11-.28-.2-1.67 1.09-3.37.74-5.01-.04C2.86 6.74 1.48 5.95.06 5.21L0 4.76zm139.37-.85C98.35 3.9 57.34 3.9 16.31 3.88v2.35l123.27.03c-.07-.79-.13-1.53-.21-2.35zm50.96 4.25c.71-.19 1.3-.34 1.89-.52 2.87-.89 5.8-1.43 8.78-.92 2.88.5 5.73 1.22 8.58 1.87 1.8.42 3.6.78 5.4.08 2.46-.95 4.9-1.95 7.35-2.95.27-.1.51-.27.75-.41-4.68-.18-9.29-.13-13.89-.19-4.55-.05-9.13.21-13.67-.07 0-.13.01-.27.01-.4 9.14.01 18.27.01 27.41.01.02-.15.06-.29.1-.44-2.82-1.06-5.63-2.18-8.48-3.15a5.71 5.71 0 0 0-2.69-.21c-1.86.3-3.71.75-5.54 1.25-5.02 1.38-10.02 1.64-15-.2-.28-.11-.61-.12-.99-.18.01 2.18.01 4.23-.01 6.43zM12.8 7.9c1.39.01 2.48-1.05 2.52-2.43.02-1.43-1.08-2.58-2.49-2.59-1.34-.01-2.46 1.11-2.46 2.51-.02 1.4 1.05 2.5 2.43 2.51zM2.15 5.06C3.64 6.28 5.21 6.88 7.01 6.7c1.12-.1 1.62-.63 1.63-1.53.01-1.15-.45-1.66-1.8-1.76-1.74-.13-3.24.47-4.69 1.65zm187.13.33c0-.55-.04-1.11.01-1.66.06-.72-.13-1.18-.91-1.31-.79-.13-1.46.1-1.53.92-.11 1.24-.13 2.51.02 3.74.05.43.71.91 1.19 1.11.73.3 1.2-.13 1.22-.95.01-.61 0-1.23 0-1.85zm-30.65-2.56c-.57-.14-1.16.17-1.52.82-.45.83-.05 2.11.86 2.88.74.65 1.54.67 2.35.13-.53-1.21-1.07-2.41-1.69-3.83zm8.08-.01c-1.54-.81-3.61 1.41-3.44 2.76.11.84.67 1.05 1.36 1.09.62.04.84-.29.99-.91.23-.97.69-1.88 1.09-2.94zm13.92 4.43c.63-1.63 1.14-2.93 1.64-4.25-1.13-.39-1.7-.29-2.28.4-.61.74-.88 2.53-.37 3.24.23.33.71.45 1.01.61zm-3.54-4.49c-.6.03-.88.02-1.16.07-1.63.29-3.02 1.99-2.83 3.44.07.63.44.97 1.03.89.33-.04.9-.36.89-.55-.05-1.56.63-2.73 2.07-3.85zm6.99-.05c-.08-.03-.18-.07-.27-.1-1.07 1.08-1.73 2.37-1.89 3.9-.08.71.46.99 1.07.98.55 0 1.12-.06 1.09-.89-.02-1.29 0-2.59 0-3.89zm-13.88.52c-1.64-.43-3.2.54-3.43 2.06-.2 1.19.36 1.74 1.71 1.49-.72-1.75 1.43-2.14 1.72-3.55zm15.84 4.45c0-1.59 0-3.05.01-4.51 0-.47.1-.96-.6-.97-.68 0-.67.52-.68.97-.05 1.17-.06 2.35-.07 3.52-.01 1.01.38 1.27 1.34.99zm-12.52-4.79c-.88-.38-1.59-.25-2.17.43-.67.78-.83 2.2-.25 3.02.21.31.66.48 1.17.83-.18-1.78-.12-1.97 1.25-4.28zm5.29.17c-1.07.1-1.95 1.22-2 2.67-.04 1.41.56 1.81 1.68 1.32.11-1.38.22-2.66.32-3.99zm-28.97-.09c-1.08-.47-1.69-.3-2.14.5-.6 1.06-.32 2.52.57 3.16.21-.62.39-1.26.64-1.87.27-.61.61-1.19.93-1.79zm-3.17-.08c-1.23.13-1.81.77-1.73 1.88.09 1.34.85 2.15 1.73 2.12v-4zm14.43 3.48c.33-1.31.6-2.42.88-3.57-.23-.04-.55-.12-.86-.12-1.31-.02-1.74.6-1.17 1.78.29.63.71 1.19 1.15 1.91zm-18.66.9c-.51-1.31-1.05-2.63-1.56-3.93-.61.36-.84.92-.61 1.84.36 1.43 1 2.02 2.17 2.09zm13.99-.03c-1.47-1.19-1.31-2.6-.8-4.12-1.13.52-1.69 2.02-1.33 3.24.23.8.85 1.08 2.13.88zm-4.11-4.32c-1.16-.27-1.85.06-2.2 1.07-.32.88-.05 1.69.57 2.02.53-1.01 1.07-2.02 1.63-3.09zm1.41.77c-1.13.4-1.92 1.63-1.61 2.74.08.29.54.51.86.67.08.04.49-.29.5-.48.13-.98.18-1.96.25-2.93zm-10.97-.62c-.63.15-.8.37-.74 1.05.11 1.32 1.31 2.83 2 2.9-.4-1.24-.84-2.59-1.26-3.95zm1.58-.11c-.47-.1-.75.24-.85.84-.22 1.39.52 2.79 1.47 3.13-.18-1.19-.39-2.49-.62-3.97zm19.13-.19c-1.35.61-2.11 2.5-1.45 3.4.47-1.08.98-2.27 1.45-3.4zm-12.83 4.42c.02-.09.05-.18.07-.27-.26-.22-.55-.43-.78-.69-.22-.25-.38-.55-.56-.82-.08.02-.17.04-.26.05.09.54.04 1.16.28 1.58.13.23.82.12 1.25.15zm5.35-3.41c-.73 1.19-.39 2.46.71 2.93-.22-.93-.48-1.96-.71-2.93zm20.45 3.6c-.07-.78-.15-1.63-.23-2.39-.66 1.07-.57 1.87.23 2.39z"/><path fill-rule="evenodd" clip-rule="evenodd" fill="#FFF" d="M139.37 3.91c.07.82.13 1.56.21 2.35-41.09 0-82.16-.01-123.27-.02V3.89c41.03.01 82.04.01 123.06.02zM190.33 8.16c.01-2.2.01-4.25.01-6.43.38.06.71.07.99.18 4.98 1.84 9.98 1.58 15 .2 1.82-.5 3.67-.94 5.54-1.25a5.71 5.71 0 0 1 2.69.21c2.85.97 5.66 2.09 8.48 3.15-.04.15-.07.29-.1.44-9.14 0-18.27 0-27.41-.01 0 .13-.01.27-.01.4 4.55.28 9.12.02 13.67.07 4.6.05 9.21.01 13.89.19-.24.14-.49.31-.75.41-2.45 1-4.89 2-7.35 2.95-1.8.69-3.6.33-5.4-.08-2.85-.65-5.69-1.38-8.58-1.87-2.98-.51-5.91.03-8.78.92-.58.18-1.18.33-1.89.52zM12.8 7.9c-1.38-.01-2.45-1.11-2.43-2.52 0-1.39 1.12-2.52 2.46-2.51 1.41.01 2.52 1.16 2.49 2.59-.04 1.39-1.13 2.45-2.52 2.44zM2.15 5.06C3.6 3.88 5.1 3.28 6.84 3.41c1.35.11 1.81.62 1.8 1.76-.01.9-.51 1.43-1.63 1.53-1.8.18-3.37-.42-4.86-1.64zM189.28 5.39c0 .62.01 1.24 0 1.86-.01.81-.49 1.25-1.22.95-.49-.2-1.14-.68-1.19-1.11-.16-1.23-.13-2.51-.02-3.74.07-.83.74-1.06 1.53-.92.78.13.97.59.91 1.31-.05.55-.01 1.1-.01 1.65zM158.63 2.83c.62 1.42 1.16 2.62 1.69 3.84-.8.54-1.61.52-2.35-.13-.91-.78-1.31-2.06-.86-2.88.37-.66.95-.97 1.52-.83zM166.71 2.82c-.4 1.05-.86 1.97-1.09 2.94-.15.63-.37.95-.99.91-.69-.04-1.25-.26-1.36-1.09-.17-1.35 1.9-3.57 3.44-2.76zM180.63 7.25c-.29-.16-.78-.29-1-.6-.51-.72-.24-2.5.37-3.24.57-.69 1.14-.79 2.28-.4l-1.65 4.24zM177.09 2.76c-1.44 1.13-2.12 2.29-2.07 3.86.01.19-.56.51-.89.55-.6.08-.96-.27-1.03-.89-.18-1.45 1.2-3.16 2.83-3.44.28-.06.56-.05 1.16-.08zM184.08 2.71c0 1.3-.02 2.6.01 3.89.03.83-.55.89-1.09.89-.61.01-1.16-.27-1.07-.98.16-1.53.82-2.82 1.89-3.9l.26.1zM170.2 3.23c-.29 1.41-2.45 1.8-1.72 3.55-1.35.25-1.91-.3-1.71-1.49.23-1.52 1.79-2.49 3.43-2.06zM186.04 7.68c-.96.28-1.35.02-1.34-.99.01-1.17.03-2.35.07-3.52.01-.45 0-.97.68-.97.69.01.6.5.6.97-.01 1.46-.01 2.92-.01 4.51zM173.52 2.89c-1.38 2.32-1.44 2.5-1.25 4.28-.51-.35-.96-.52-1.17-.83-.57-.83-.41-2.24.25-3.02.58-.68 1.3-.82 2.17-.43zM178.81 3.06c-.11 1.33-.22 2.61-.32 3.99-1.12.5-1.71.1-1.68-1.32.06-1.46.94-2.57 2-2.67zM149.84 2.97c-.32.6-.66 1.17-.92 1.79-.26.61-.44 1.25-.64 1.87-.89-.64-1.17-2.1-.57-3.16.44-.8 1.04-.97 2.13-.5zM146.67 2.89v4c-.88.03-1.64-.78-1.73-2.12-.08-1.11.5-1.75 1.73-1.88zM161.1 6.37c-.44-.72-.86-1.28-1.16-1.92-.57-1.18-.15-1.8 1.17-1.78.32.01.63.09.86.12-.27 1.17-.54 2.27-.87 3.58zM142.44 7.27c-1.17-.07-1.81-.66-2.17-2.09-.23-.92 0-1.48.61-1.84.51 1.3 1.05 2.62 1.56 3.93zM156.43 7.24c-1.28.2-1.9-.08-2.13-.88-.37-1.22.19-2.71 1.33-3.24-.51 1.52-.67 2.94.8 4.12zM152.32 2.92c-.56 1.07-1.09 2.08-1.63 3.09-.62-.33-.89-1.15-.57-2.02.35-1.01 1.04-1.34 2.2-1.07zM153.73 3.69c-.07.97-.12 1.95-.24 2.93-.01.19-.41.52-.5.48-.33-.16-.78-.38-.86-.67-.32-1.12.47-2.34 1.6-2.74zM142.76 3.07c.43 1.36.86 2.71 1.25 3.95-.68-.07-1.89-1.58-2-2.9-.06-.68.11-.9.75-1.05z"/><path fill-rule="evenodd" clip-rule="evenodd" fill="#FFF" d="M144.34 2.96c.23 1.48.44 2.78.62 3.97-.95-.33-1.69-1.74-1.47-3.13.09-.6.37-.95.85-.84zM163.47 2.77c-.47 1.13-.99 2.32-1.45 3.4-.65-.9.1-2.8 1.45-3.4zM150.64 7.19c-.43-.04-1.12.08-1.24-.14-.24-.42-.19-1.04-.28-1.58.09-.02.17-.04.26-.05.18.27.34.57.56.82.23.26.52.46.78.69-.03.08-.06.17-.08.26zM155.99 3.78c.23.97.49 2 .71 2.93-1.1-.47-1.44-1.74-.71-2.93zM176.44 7.38c-.8-.51-.89-1.31-.23-2.39.09.76.16 1.61.23 2.39z"/></svg>