<?xml version="1.0" encoding="UTF-8" standalone="no"?><!DOCTYPE svg PUBLIC "-//W3C//DTD SVG 1.1//EN" "http://www.w3.org/Graphics/SVG/1.1/DTD/svg11.dtd"><svg width="268" height="58" viewBox="0 0 268 58" xmlns="http://www.w3.org/2000/svg" xmlns:xlink="http://www.w3.org/1999/xlink"><svg width="58" height="58" version="1" viewBox="-5 -5 58 58" id="close"><path d="M46 24a22 22 0 1 1-44 0 22 22 0 1 1 44 0z" stroke="#fff" stroke-width="4" stroke-linecap="round" stroke-linejoin="round"/><path d="M16.222 16.222l15.556 15.556M31.778 16.222L16.222 31.778" fill="none" stroke="#fff" stroke-width="6" stroke-linecap="round"/><path fill="none" d="M0 0h48v48H0z"/></svg><svg viewBox="-5 -5 42 42" width="42" height="42" id="lab" x="58"><g fill="#fff"><path d="M20.682 3.732C20.209 3.26 19.582 3 18.914 3s-1.295.26-1.77.733l-1.41 1.412A2.482 2.482 0 0 0 15 6.914c0 .471.129.922.371 1.313L1.794 13.666a2.998 2.998 0 0 0-.908 4.876l12.72 12.58a2.982 2.982 0 0 0 2.045.877l.078.001a2.985 2.985 0 0 0 2.787-1.89l5.342-13.376c.402.265.875.407 1.367.407a2.48 2.48 0 0 0 1.768-.733L28.4 15c.477-.474.738-1.103.738-1.773s-.262-1.3-.732-1.768l-7.724-7.727zm-4.023 25.635a1 1 0 0 1-1.638.341L2.293 17.12a.998.998 0 0 1 .307-1.623l6.217-2.49c4.189 1.393 8.379.051 12.57 4.522l-4.728 11.838zM26.992 13.58l-1.414 1.413a.499.499 0 0 1-.707 0l-1.768-1.767-1.432 3.589.119-.303c-3.01-3.005-6.069-3.384-8.829-3.723-.887-.109-1.747-.223-2.592-.405l8.491-3.401-1.715-1.715a.5.5 0 0 1 0-.707l1.414-1.415a.5.5 0 0 1 .707 0l7.725 7.727a.496.496 0 0 1 .001.707z"/><path d="M16.5 21c1.378 0 2.5-1.121 2.5-2.5S17.879 16 16.5 16 14 17.121 14 18.5s1.122 2.5 2.5 2.5zm0-4a1.5 1.5 0 1 1-.001 3.001A1.5 1.5 0 0 1 16.5 17zM29.5 0C28.121 0 27 1.121 27 2.5S28.121 5 29.5 5 32 3.879 32 2.5 30.879 0 29.5 0zm0 4a1.5 1.5 0 1 1 .001-3.001A1.5 1.5 0 0 1 29.5 4zM8 17c0 1.103.897 2 2 2s2-.897 2-2-.897-2-2-2-2 .897-2 2zm2-1a1 1 0 1 1 0 2 1 1 0 0 1 0-2z"/><circle cx="13" cy="23" r="1"/><circle cx="29" cy="8" r="1"/></g></svg><svg width="42" height="42" viewBox="-5 -5 42 42" id="mail" x="100"><path fill="#fff" d="M28 5H4a4 4 0 0 0-4 4v13a4 4 0 0 0 4 4h24a4 4 0 0 0 4-4V9a4 4 0 0 0-4-4zM2 10.25l6.999 5.25L2 20.75v-10.5zM30 22c0 1.104-.898 2-2 2H4c-1.103 0-2-.896-2-2l7.832-5.875 4.368 3.277a3 3 0 0 0 3.599 0l4.369-3.277L30 22zm0-1.25l-7-5.25 7-5.25v10.5zm-12.801-2.148a1.98 1.98 0 0 1-1.199.4 1.99 1.99 0 0 1-1.2-.4L10.665 15.5l-.833-.625L2 9.001V9c0-1.103.897-2 2-2h24c1.102 0 2 .897 2 2l-12.801 9.602z"/></svg><svg width="42" height="42" viewBox="-5 -5 42 42" id="pen" x="142"><path fill="#fff" d="M29.395 2.58C27.75.937 25.584 0 23.449 0c-1.801 0-3.459.668-4.67 1.877l-4.867 4.904c-.015.014-.032.023-.047.038-.008.008-.013.019-.021.026l.002.002L3.517 17.256a4.023 4.023 0 0 0-1.013 1.705L.155 27.469C.153 27.492 0 28.16 0 28.5 0 30.432 1.569 32 3.504 32c.385 0 1.13-.184 1.157-.188l8.478-2.229a4.021 4.021 0 0 0 1.705-1.016l15.263-15.383c2.776-2.778 2.463-7.434-.712-10.604zM16.014 23.795a8.145 8.145 0 0 0-.719-2.627l9.455-9.454c.578 1.826.281 3.736-.986 5.004-.008.008-.018.013-.025.021l.014.013-7.728 7.79c0-.249.012-.493-.011-.747zm-1.221-3.539c-.373-.613-.797-1.205-1.322-1.729-.611-.611-1.312-1.09-2.044-1.492l9.532-9.532a6.939 6.939 0 0 1 2.098 1.438 6.976 6.976 0 0 1 1.281 1.771l-9.545 9.544zm-4.307-3.694a7.976 7.976 0 0 0-2.868-.599l7.703-7.762c1.179-1.15 2.896-1.481 4.587-1.062l-9.422 9.423zM4.167 29.873c-.109.025-.448.111-.678.127A1.505 1.505 0 0 1 2 28.5c.012-.168.079-.457.102-.562l1.053-3.814c1.143-.031 2.373.414 3.34 1.383.982.98 1.444 2.234 1.394 3.391l-3.722.975zm4.707-1.236c-.024-1.342-.57-2.738-1.672-3.838-1.042-1.043-2.406-1.645-3.766-1.699l.996-3.607c.072-.24.215-.477.391-.684 2.006-1.436 5.091-1.012 7.234 1.133 2.267 2.266 2.617 5.586.871 7.568a1.97 1.97 0 0 1-.359.156l-3.695.971zm19.817-16.865l-1.684 1.697c0-.226.027-.443.006-.674-.176-1.935-1.078-3.806-2.543-5.269-1.629-1.63-3.789-2.565-5.928-2.571l1.656-1.67C21.027 2.458 22.184 2 23.449 2c1.609 0 3.262.728 4.533 1.995 1.193 1.191 1.904 2.671 2.006 4.168.094 1.397-.367 2.678-1.297 3.609z"/></svg><svg width="42" height="42" viewBox="-5 -5 42 42" id="star" x="184"><path fill="#333" d="M31.881 12.557a2.303 2.303 0 0 0-1.844-1.511l-8.326-1.238-3.619-7.514A2.318 2.318 0 0 0 16 1c-.896 0-1.711.505-2.092 1.294l-3.619 7.514-8.327 1.238A2.3 2.3 0 0 0 .12 12.557a2.207 2.207 0 0 0 .537 2.285l6.102 6.092-1.415 8.451a2.224 2.224 0 0 0 .948 2.203 2.351 2.351 0 0 0 2.449.131L16 27.811l7.26 3.908a2.367 2.367 0 0 0 2.449-.131 2.225 2.225 0 0 0 .947-2.203l-1.416-8.451 6.104-6.092c.603-.603.81-1.485.537-2.285zm-8.293 6.806a2.216 2.216 0 0 0-.627 1.934l1.416 8.451-7.26-3.906a2.361 2.361 0 0 0-2.235 0l-7.26 3.906 1.416-8.451a2.212 2.212 0 0 0-.626-1.934L2.31 13.271l8.326-1.24a2.306 2.306 0 0 0 1.743-1.268L16 3.251l3.62 7.513a2.31 2.31 0 0 0 1.742 1.268l8.328 1.24-6.102 6.091z"/></svg><svg width="42" height="42" viewBox="-5 -5 42 42" id="user" x="226"><path fill="#fff" d="M31.11 28.336c-.201-.133-3.848-2.525-9.273-3.699 1.99-2.521 3.268-5.912 3.811-8.169.754-3.128.461-9.248-2.543-13.062C21.349 1.177 18.892 0 16 0c-2.892 0-5.349 1.178-7.104 3.406C5.892 7.219 5.6 13.339 6.353 16.467c.543 2.257 1.82 5.648 3.811 8.169-5.425 1.174-9.072 3.566-9.272 3.699A1.999 1.999 0 1 0 2 32h28a2.001 2.001 0 0 0 1.11-3.664zm-10.843-4.938l-.326.414c-2.385 2.74-5.495 2.74-7.879 0l-.327-.414c-2.785-3.529-4.167-8.197-3.572-12.65C8.708 6.469 11.16 2 16 2s7.293 4.47 7.838 8.749c.593 4.455-.784 9.118-3.571 12.649zM2 30c.138-.092 3.526-2.314 8.586-3.408l2.484-.537c.887.582 1.86.945 2.93.945 1.071 0 2.043-.363 2.93-.945l2.484.537C26.434 27.678 29.81 29.875 30 30H2z"/></svg></svg>