<svg class="line-drawing" width="100%" preserveAspectRatio="xMidYMid meet" viewBox="-30 -30 365 365"><path fill="#FFF" d="M54.453 45.605c1.963 9.165 4.033 17.959 5.677 26.831 1 5.399 1.167 10.948 2.02 16.381 1.377 8.773-2.416 14.942-10.913 17.622-2.942.928-5.869 2.086-8.571 3.563-10.194 5.572-20.999 9.082-32.529 10.554-1.356.174-2.946 1.72-3.583 3.037-.349.723.824 2.545 1.73 3.452 8.331 8.344 16.666 16.687 25.186 24.836 4.249 4.063 8.883 7.725 14.502 12.566-7.365 15.883-15.364 32.834-30.873 45.147l.803 1.746 56.277 9.118c-.8 3.649-2.044 6.837-2.082 10.037-.068 5.932.271 11.908.982 17.8 1.092 9.06 2.549 18.078 4.083 27.075.273 1.603 1.673 3.014 2.553 4.514 1.487-.876 3.252-1.479 4.416-2.671 8.007-8.196 17.224-14.418 27.934-18.64 4.541-1.79 8.549-4.896 12.98-7.028.953-.458 3.06.327 3.962 1.22 1.09 1.078 1.283 3 2.175 4.354a4768.92 4768.92 0 0 0 22.517 33.818c.594.885 1.607 1.486 2.891 2.634 6.32-8.203 12.439-16.065 18.469-23.995 4.189-5.509 8.988-10.728 12.133-16.791 2.357-4.554 3.346-7.886 8.416-2.997.752.726 2.131.807 3.223 1.173 4.279 1.437 8.479 3.207 12.854 4.229 9.105 2.126 18.287 3.946 27.477 5.688 2.701.512 4.533-1.394 3.779-3.855-4.076-13.311-2.346-26.971-3.059-40.492-.273-5.216 1.207-9.185 3.447-11.874 3.281-1.149 5.346-2.096 7.514-2.602 15.66-3.651 29.881-10.604 43.545-18.839 1.006-.607 2.221-1.562 2.438-2.551.148-.678-1.094-2.145-2.01-2.498-13.666-5.291-22.762-15.709-31.275-27.019-4.234-5.624-6.705-12.214-3.764-17.956 4.711-9.199 11.416-17.389 17.416-25.909 2.963-4.208 6.229-8.199 9.691-12.726-8.49-2.007-16.086-3.703-23.629-5.61-9.043-2.286-18.221-4.254-26.959-7.413-3.006-1.087-6.004-4.991-6.994-8.226-1.619-5.281-1.432-11.092-2.293-16.635-1.475-9.486-3.996-18.672-9.035-26.971-1.768-2.908-3.955-3.908-6.824-1.064-1.881 1.861-3.777 3.951-6.086 5.089-7.785 3.84-15.744 7.331-23.666 10.893-4.813 2.164-10.32.523-13.35-3.789a63.784 63.784 0 0 0-3.637-4.736c-7.836-9.198-15.668-18.399-23.601-27.516-1.229-1.411-2.964-2.384-4.464-3.56-1.05 1.411-2.363 2.695-3.109 4.251-5.77 12.04-11.567 24.07-17.04 36.245-1.68 3.738-4.31 5.752-7.662 7.832-3.818 2.369-7.085 3.149-11.015.887-.639-.367-1.642-.042-2.449-.187-9.928-1.775-20.096-2.295-29.359-7.191-3.326-1.755-7.418-3.893-11.259-1.251z"/><path d="M54.453 45.605c3.841-2.643 7.933-.504 11.257 1.253 9.263 4.896 19.432 5.416 29.359 7.191.808.145 1.811-.182 2.449.187 3.93 2.265 7.197 1.482 11.015-.887 3.353-2.08 5.982-4.094 7.662-7.832 5.472-12.175 11.27-24.205 17.04-36.245.746-1.556 2.059-2.84 3.109-4.251 1.5 1.176 3.235 2.147 4.464 3.561 7.932 9.114 15.764 18.315 23.6 27.515a63.675 63.675 0 0 1 3.637 4.737c3.029 4.313 8.537 5.952 13.352 3.789 7.92-3.563 15.879-7.054 23.666-10.894 2.309-1.138 4.203-3.228 6.086-5.089 2.869-2.844 5.057-1.844 6.822 1.065 5.041 8.298 7.563 17.482 9.035 26.97.861 5.543.674 11.354 2.293 16.635.992 3.233 3.988 7.139 6.994 8.226 8.738 3.159 17.916 5.128 26.959 7.413 7.543 1.907 15.139 3.604 23.629 5.61-3.463 4.525-6.729 8.518-9.689 12.726-6 8.521-12.705 16.71-17.416 25.909-2.941 5.742-.473 12.332 3.764 17.956 8.514 11.31 17.609 21.728 31.275 27.019.914.354 2.156 1.821 2.01 2.498-.219.99-1.434 1.942-2.439 2.551-13.662 8.235-27.885 15.188-43.543 18.839-2.168.506-4.232 1.451-7.514 2.603-2.24 2.688-3.723 6.657-3.449 11.874.713 13.521-1.018 27.182 3.059 40.491.754 2.463-1.078 4.367-3.779 3.855-9.188-1.742-18.369-3.563-27.477-5.688-4.375-1.021-8.574-2.792-12.854-4.229-1.092-.366-2.469-.447-3.223-1.173-5.068-4.889-6.059-1.557-8.416 2.997-3.143 6.063-7.943 11.282-12.131 16.791-6.029 7.93-12.148 15.792-18.469 23.996-1.283-1.147-2.299-1.749-2.893-2.635a4826.797 4826.797 0 0 1-22.516-33.818c-.892-1.354-1.085-3.274-2.175-4.354-.902-.893-3.009-1.678-3.962-1.22-4.431 2.133-8.439 5.238-12.98 7.028-10.71 4.222-19.926 10.442-27.934 18.64-1.164 1.191-2.929 1.795-4.416 2.671-.879-1.5-2.279-2.911-2.553-4.514-1.534-8.997-2.991-18.017-4.083-27.075a135.956 135.956 0 0 1-.982-17.8c.037-3.2 1.282-6.387 2.082-10.037l-56.277-9.118-.803-1.746c15.509-12.313 23.508-29.266 30.873-45.147-5.619-4.843-10.253-8.502-14.502-12.566-8.52-8.149-16.855-16.492-25.186-24.836-.906-.907-2.079-2.729-1.73-3.452.637-1.317 2.228-2.863 3.583-3.037 11.531-1.472 22.335-4.979 32.529-10.554 2.702-1.479 5.628-2.636 8.571-3.563 8.497-2.68 12.291-8.849 10.913-17.622-.853-5.433-1.02-10.98-2.02-16.381-1.643-8.874-3.713-17.668-5.676-26.833zm.599 146.938c-7.13-5.091-3.583-14.146-7.907-21.566-6.692 14.621-14.001 27.881-26.844 38.503 13.952 1.856 26.382 3.537 38.824 5.129 1.497.191 3.057-.101 4.587-.169-.3-1.41-.398-2.902-.935-4.217-2.307-5.651-4.743-11.249-7.132-16.867 2.182 3.125 4.318 6.283 6.557 9.366 4.228 5.824 6.91 12.997 14.302 16.104.832.35 1.473 2.229 1.443 3.382-.227 8.946-1.096 17.9-.843 26.827.181 6.425 1.609 12.842 2.824 19.196.545 2.852 2.944 4.85 5.401 2.367 6.515-6.578 14.594-10.595 22.564-14.809 5.967-3.154 12.135-5.927 18.274-8.897 4.617.853 9.766 2.311 14.992 2.671 16.063 1.109 31.657-1.391 47.442-4.829 14.982-3.264 27.309-9.881 38.248-19.999 4.643-4.292 8.021-9.143 10.766-15.133 2.895-6.313 8.945-11.178 13.617-16.675.32.196.643.393.965.588-.947 1.767-1.896 3.532-2.939 5.479 7.783.776 35.248-11.044 43.016-17.751-6.396-4.896-13.131-9.688-19.43-14.998-4.203-3.544-8.219-7.491-11.557-11.845-6.178-8.055-5.994-21.416-.182-29.734 1.611-2.308 3.273-4.579 4.939-6.849 3.607-4.91 7.199-9.832 10.861-14.701 2.266-3.015 1.641-5.152-2.172-6.22-4.934-1.38-9.955-2.439-14.883-3.839-4.906-1.393-9.715-4.174-14.615-4.296-7.197-.18-10.666-5.191-15.043-9.075-5.922-5.256-3.938-13.049-5.598-19.687-2.029-8.124-3.838-16.332-6.434-24.277-1.467-4.485-4.053-4.616-8.195-2.084-5.645 3.452-11.49 6.575-17.174 9.968-1.404.838-2.514 2.173-3.76 3.279 1.432.991 2.811 2.065 4.301 2.958 3.799 2.273 7.645 4.467 11.473 6.691-.232.477-.467.951-.697 1.428-1.275-.088-2.682.141-3.805-.318-4.422-1.808-8.697-3.976-13.145-5.713-2.234-.873-4.693-1.344-7.094-1.585-7.758-.781-15.523-1.497-23.305-1.99a117.188 117.188 0 0 0-13.567-.064c-5.904.312-11.788.993-17.68 1.517 11.542-9.258 25.808-5.354 38.983-8.609-.775-1.396-1.096-2.36-1.723-3.043-7.746-8.401-15.535-16.766-23.316-25.135-2.071-2.228-3.781-1.738-4.987.83-2.814 5.994-5.264 12.178-8.384 18.004-4.164 7.774-5.99 17.31-13.979 22.37-5.297 3.355-11.539 5.22-18.054 8.054 2.387-5.828-1.11-5.625-4.406-6.164-10.431-1.706-21.86-.104-30.288-8.78-.144-.148-.619.024-1.089.06 0 2.277-.292 4.598.048 6.822 2.013 13.188 4.228 26.347 6.21 39.54.229 1.521-.072 3.556-.953 4.734-4.273 5.719-8.825 11.229-13.313 16.783-.078.097-.586-.155-1.221-.341l.565-4.278c-13.483 4.247-24.675 13.943-39.68 12.78l-.14 1.41 31.828 30.38 1.465-.716c-1.116-12.62.953-24.644 5.339-37.156.937 1.316 1.273 1.572 1.274 1.829.001.815.005 1.67-.215 2.445-3.903 13.771-5.404 27.475.596 41.131.546 1.244.35 3.037-.036 4.428-1.422 5.121.061 9.297 2.437 11.682a8087.16 8087.16 0 0 1 2.579 13.674zM185.195 251.6l-1.021-1.633c-2.732.644-5.457 1.323-8.199 1.923-4.654 1.019-9.307 2.729-13.98 2.802-7.242.115-14.496-1.007-21.756-1.357-1.82-.088-3.797.532-5.452 1.34-.429.21-.385 2.697.241 3.561 7.191 9.923 14.537 19.732 22.725 30.763 9.575-13.051 18.508-25.225 27.442-37.399zm52.041-33.319c-2.949 3.099-5.469 6.369-8.59 8.895-6.42 5.191-13.164 9.979-19.768 14.944-1.715 1.287-3.398 2.613-5.096 3.923 1.729 1.495 3.236 3.831 5.221 4.345 10.102 2.617 20.324 4.764 30.049 6.971l-1.816-39.078z"/><path fill="#FFF" d="M55.052 192.543l-2.57-13.678c-2.376-2.385-3.859-6.561-2.437-11.682.386-1.391.582-3.184.036-4.428-6-13.656-4.499-27.36-.596-41.131.22-.775.217-1.63.215-2.445 0-.257-.337-.513-1.274-1.829-4.386 12.514-6.456 24.536-5.339 37.156l-1.465.716-31.828-30.38.14-1.41c15.005 1.163 26.197-8.533 39.68-12.78l-.565 4.278c.634.186 1.143.438 1.221.341 4.487-5.556 9.039-11.065 13.313-16.783.881-1.18 1.182-3.215.953-4.734-1.983-13.193-4.197-26.353-6.21-39.54-.34-2.226-.048-4.545-.048-6.822.47-.034.945-.208 1.089-.06 8.427 8.678 19.856 7.074 30.288 8.78 3.296.539 6.793.336 4.406 6.164 6.515-2.834 12.757-4.697 18.054-8.054 7.989-5.063 9.815-14.596 13.979-22.37 3.121-5.826 5.57-12.01 8.384-18.004 1.206-2.568 2.916-3.058 4.987-.83 7.782 8.369 15.57 16.732 23.316 25.135.627.683.947 1.646 1.723 3.043-13.176 3.256-27.441-.647-38.983 8.609 5.893-.522 11.776-1.205 17.68-1.517 4.511-.237 9.059-.221 13.567.064 7.779.493 15.549 1.209 23.305 1.99 2.398.241 4.857.712 7.094 1.585 4.447 1.737 8.725 3.905 13.145 5.713 1.123.459 2.527.23 3.805.318.23-.477.465-.951.697-1.428-3.826-2.226-7.674-4.418-11.473-6.691-1.49-.893-2.869-1.967-4.301-2.958 1.246-1.106 2.354-2.441 3.76-3.279 5.684-3.393 11.529-6.516 17.174-9.968 4.143-2.532 6.73-2.401 8.195 2.084 2.596 7.945 4.402 16.153 6.434 24.277 1.66 6.638-.324 14.431 5.598 19.687 4.377 3.884 7.846 8.896 15.043 9.075 4.9.122 9.709 2.903 14.615 4.296 4.928 1.398 9.949 2.459 14.883 3.839 3.813 1.066 4.438 3.205 2.172 6.22-3.662 4.869-7.254 9.791-10.861 14.701-1.666 2.27-3.328 4.541-4.939 6.849-5.814 8.318-5.996 21.681.182 29.734 3.338 4.354 7.355 8.301 11.557 11.845 6.301 5.31 13.033 10.103 19.43 14.998-7.768 6.707-35.23 18.527-43.016 17.751 1.045-1.945 1.992-3.713 2.939-5.479l-.965-.588c-4.672 5.497-10.725 10.362-13.617 16.675-2.744 5.99-6.123 10.841-10.764 15.133-10.941 10.118-23.268 16.735-38.25 19.999-15.785 3.438-31.377 5.938-47.442 4.829-5.226-.36-10.375-1.818-14.992-2.671-6.139 2.972-12.308 5.743-18.274 8.897-7.97 4.214-16.049 8.229-22.564 14.809-2.458 2.481-4.856.483-5.401-2.367-1.215-6.354-2.643-12.771-2.824-19.196-.252-8.927.616-17.881.843-26.827.029-1.151-.612-3.032-1.443-3.382-7.392-3.105-10.075-10.278-14.302-16.104-2.239-3.083-4.375-6.241-6.555-9.362-.205-.267-.405-.54-.604-.813zm39.98-79.369c2.029 4.799 3.126 9.981 6.075 13.691 3.437 4.323 8.291 7.645 12.882 10.902 22.771 16.166 62.202 19.231 84.786-3.901 4.654-4.768 13.43-5.804 13.604-15.152.049-2.563.631-4.565-1.771-5.674-2.529-1.165-4.313-.217-6.172 2.291-2.48 3.346-5.615 6.629-9.195 8.655-11.701 6.626-24.807 6.729-37.814 7.153-14.205.464-28.321.044-41.695-5.269-3.441-1.366-6.275-4.478-9.119-7.082-3.229-2.953-4.894-8.608-11.581-5.614zm30.69-5.032c.135 1.05-.106 2.949.663 4.252 1.146 1.94 2.949 4.764 4.574 4.834 2.113.09 5.756-1.775 6.199-3.465.931-3.553.848-7.712-.107-11.275-.493-1.838-4.156-4.422-5.66-4.011-2.152.588-3.794 3.499-5.33 5.65-.572.8-.228 2.254-.339 4.015zm60.58 4.458c-.242-.344-.484-.688-.729-1.031-.557-2.557-.539-5.465-1.83-7.573-1.336-2.185-3.795-4.636-6.045-4.95-1.373-.193-4.121 3.188-4.732 5.39-.746 2.68-.297 5.896.354 8.714.906 3.93 4.279 6.005 7.838 5.162 2.05-.489 3.451-3.718 5.144-5.712z"/><path fill="#FFF" d="M185.195 251.6c-8.934 12.174-17.867 24.349-27.443 37.396-8.188-11.029-15.532-20.84-22.725-30.763-.625-.862-.67-3.351-.241-3.561 1.654-.808 3.632-1.428 5.452-1.34 7.26.352 14.514 1.474 21.756 1.357 4.674-.073 9.326-1.784 13.98-2.802 2.742-.6 5.467-1.279 8.199-1.923l1.022 1.636zM55.052 192.543l.596.815c2.387 5.614 4.823 11.213 7.13 16.863.537 1.313.635 2.807.935 4.217-1.531.068-3.09.36-4.587.169-12.442-1.592-24.872-3.271-38.824-5.129 12.843-10.622 20.151-23.882 26.844-38.503 4.322 7.422.776 16.477 7.906 21.568zM237.236 218.281l1.816 39.076c-9.725-2.207-19.947-4.354-30.049-6.971-1.982-.514-3.492-2.85-5.221-4.345 1.695-1.31 3.381-2.636 5.096-3.923 6.604-4.965 13.348-9.753 19.768-14.944 3.123-2.523 5.641-5.794 8.59-8.893z"/><path d="M95.032 113.174c6.687-2.993 8.352 2.661 11.579 5.617 2.843 2.604 5.677 5.715 9.119 7.081 13.374 5.313 27.49 5.731 41.695 5.269 13.01-.426 26.113-.527 37.814-7.153 3.58-2.026 6.715-5.311 9.195-8.654 1.859-2.509 3.643-3.457 6.172-2.291 2.402 1.106 1.82 3.109 1.771 5.673-.174 9.35-8.949 10.386-13.604 15.152-22.584 23.134-62.014 20.067-84.786 3.901-4.591-3.259-9.445-6.579-12.882-10.902-2.947-3.712-4.044-8.895-6.073-13.693z"/><path d="M125.722 108.142c.112-1.762-.232-3.215.339-4.015 1.535-2.151 3.177-5.063 5.33-5.65 1.504-.411 5.167 2.173 5.66 4.011.956 3.563 1.038 7.724.107 11.275-.443 1.688-4.086 3.555-6.199 3.465-1.625-.07-3.428-2.894-4.574-4.834-.77-1.302-.528-3.202-.663-4.252zM186.302 112.6c-1.691 1.994-3.094 5.224-5.145 5.71-3.559.843-6.932-1.232-7.838-5.162-.65-2.818-1.102-6.034-.354-8.714.611-2.2 3.359-5.583 4.732-5.39 2.25.314 4.709 2.767 6.045 4.95 1.291 2.108 1.273 5.018 1.83 7.573l.73 1.033z"/></svg>