<svg xmlns="http://www.w3.org/2000/svg" width="100%" preserveAspectRatio="xMidYMid meet" viewBox="-30 -30 365 365"><path fill="#FFF" d="M54.5 45.6c2 9.2 4 18 5.7 26.8 1 5.4 1.2 11 2 16.4 1.4 8.8-2.4 15-11 17.6a48 48 0 0 0-8.6 3.6 91 91 0 0 1-32.5 10.6c-1.4.2-3 1.7-3.6 3-.3.7.8 2.5 1.7 3.5L33.5 152c4.2 4 9 7.7 14.5 12.6-7.4 16-15.4 32.8-31 45l.8 1.7 56.3 9c-.8 3.6-2 6.8-2 10a136 136 0 0 0 1 17.8 560 560 0 0 0 4.1 27.1c.3 1.6 1.7 3 2.6 4.5 1.5-1 3.3-1.5 4.4-2.7a79 79 0 0 1 27.9-18.6c4.5-1.8 8.5-5 13-7 1-.5 3 .3 4 1.2 1 1 1.3 3 2.2 4.4a4768.9 4768.9 0 0 0 22.5 33.8c.6 1 1.6 1.5 3 2.6l30.6-40.8c2.4-4.6 3.3-8 8.4-3 .8.7 2 .8 3.2 1.2 4.3 1.4 8.5 3.2 13 4.2l27.5 5.7c2.7.5 4.5-1.4 3.8-4-4-13.3-2.3-27-3-40.5-.3-5.2 1.2-9.2 3.4-12 3.3-1 5.3-2 7.5-2.6a151 151 0 0 0 43.5-18.8c1-.6 2.2-1.6 2.4-2.6.1-.7-1-2-2-2.5-13.7-5.3-22.8-15.7-31.3-27-4.2-5.6-6.7-12.2-3.8-18 4.7-9.2 11.4-17.4 17.4-26 3-4.2 6.2-8.2 9.7-12.7l-50.6-13c-3-1-6-5-7-8.2-1.6-5.3-1.4-11-2.3-16.6-1.5-9.5-4-18.7-9-27-1.8-3-4-4-6.8-1-2 2-3.8 4-6 5l-23.7 11c-4.8 2.2-10.3.5-13.3-3.8a63.8 63.8 0 0 0-3.6-4.7L140.8 8.6c-1.2-1.4-3-2.4-4.5-3.6-1 1.4-2.4 2.7-3 4.3l-17 36.2c-1.7 3.7-4.3 5.8-7.7 7.8-3.8 2.4-7 3-11 1-.6-.4-1.6 0-2.4-.2-10-1.8-20-2.3-29.4-7.2-3.3-1.8-7.4-4-11.3-1.3z"/><path d="M54.5 45.6c3.8-2.6 8-.5 11.3 1.3C75 51.8 85 52.3 95 54c.8.1 1.8-.2 2.4.2 4 2.3 7.2 1.5 11-1 3.4-2 6-4 7.7-7.8l17-36.2c.7-1.6 2-2.8 3-4.3 1.5 1.2 3.2 2 4.5 3.6L164.4 36a63.7 63.7 0 0 1 3.6 4.7c3 4.3 8.5 6 13.4 3.8l23.7-11c2.3-1 4.2-3.2 6-5 3-2.8 5-1.8 6.8 1 5 8.3 7.6 17.5 9 27 1 5.5.7 11.4 2.3 16.6 1 3.2 4 7 7 8.2l50.6 13-27 38.6c-3 5.7-.5 12.3 3.8 18 8.5 11.3 17.6 21.7 31.3 27 1 .4 2.2 1.8 2 2.5-.2 1-1.4 2-2.4 2.6a151 151 0 0 1-43.5 18.8c-2.2.5-4.2 1.5-7.5 2.6-2.2 2.7-3.7 6.7-3.4 12 .7 13.5-1 27.2 3 40.5.8 2.5-1 4.4-3.8 4a671 671 0 0 1-27.5-5.7c-4.4-1-8.6-2.8-13-4.2-1-.4-2.5-.4-3.2-1.2-5-5-6-1.6-8.4 3-3 6-8 11.3-12 16.8l-18.5 24c-1.3-1-2.3-1.7-3-2.6a4826.8 4826.8 0 0 1-22.5-33.8c-1-1.4-1-3.3-2.2-4.4-1-1-3-1.7-4-1.2-4.4 2-8.4 5.2-13 7a79 79 0 0 0-27.9 18.6c-1.2 1.2-3 1.8-4.4 2.7-1-1.5-2.3-3-2.6-4.5l-4-27a136 136 0 0 1-1-17.8c0-3.2 1.3-6.4 2-10l-57-11c15.5-12.3 23.5-29.3 31-45L8.3 127c-1-1-2-2.7-1.7-3.5.6-1.3 2.2-3 3.6-3A91 91 0 0 0 42.7 110a48 48 0 0 1 8.6-3.6c8.5-2.7 12.3-8.8 11-17.6l-7.7-43.2zm.6 147c-7-5-3.6-14-8-21.6-6.7 14.6-14 28-26.8 38.5l38.8 5c1.5.2 3-.1 4.6-.2-.3-1.4-.4-3-1-4.2l-7-17 6.6 9.4c4.2 5.8 7 13 14.3 16 .8.3 1.5 2.2 1.4 3.4L77 249c.2 6.4 1.6 12.8 2.8 19.2.5 3 3 5 5.4 2.4C91.8 264 100 260 108 255.8l18.3-9 15 2.7c16 1 31.7-1.4 47.4-4.8 15-3.3 27.3-10 38.2-20a46 46 0 0 0 10.8-15.1c3-6.3 9-11.2 13.6-16.7l1 .6-3 5.5c7.8.8 35.2-11 43-17.8l-19.4-15c-4.2-3.5-8.2-7.5-11.6-11.8-6.2-8-6-21.4-.2-29.7 1.6-2.3 3.3-4.6 5-6.8l11-14.7c2.3-3 1.6-5.2-2.2-6.2L260 93c-5-1.4-9.7-4.2-14.6-4.3-7.2-.2-10.7-5.2-15-9-6-5.3-4-13-5.6-19.7l-6.4-24.3c-1.5-4.5-4-4.6-8.2-2l-17.2 10c-1.4.8-2.5 2.2-3.8 3.3l4.3 3 11.5 6.7-.7 1.4c-1.3-.1-2.7.1-3.8-.3-4.4-1.8-8.7-4-13-5.7a27 27 0 0 0-7.1-1.6 631 631 0 0 0-23.3-2 117.2 117.2 0 0 0-13.6-.1l-17.7 1.5c11.5-9.3 25.8-5.4 39-8.6-.8-1.4-1-2.4-1.7-3l-23.3-25c-2-2.2-3.8-1.7-5 .8L126 32c-4.2 7.8-6 17.3-14 22.4-5.3 3.4-11.5 5.2-18 8 2.4-5.8-1-5.6-4.4-6.2-10.4-1.7-22-.1-30.3-8.8-.1-.1-.6 0-1 .1v6.8l6.2 39.5c.2 1.5-.1 3.6-1 4.7l-13.3 16.8c-.1.1-.6-.2-1.2-.3l.6-4.3C36 115 25 124.6 10 123.4l-.1 1.4 31.8 30.4 1.5-.7a87 87 0 0 1 5.3-37.2c1 1.3 1.3 1.6 1.3 1.8 0 .8 0 1.7-.2 2.4-4 13.8-5.4 27.5.6 41 .5 1.2.3 3 0 4.4-1.4 5 .1 9.3 2.4 11.7a8087.2 8087.2 0 0 1 2.6 13.7zm130 59l-1-1.6-22.2 4.7c-7.2.1-14.5-1-21.8-1.4-1.8-.1-3.8.5-5.5 1.3-.4.2-.4 2.7.2 3.6l22.7 30.8 27.4-37.4zm52-33.3l-8.6 9-25 19c1.7 1.5 3.2 3.8 5.2 4.3 10 2.6 20.3 4.8 30 7l-1.8-39z"/><g fill="#FFF"><path d="M55 192.5L52.5 179c-2.4-2.4-4-6.6-2.4-11.7.4-1.4.6-3.2 0-4.4-6-13.7-4.5-27.4-.6-41 .2-.8.2-1.6.2-2.4 0-.3-.3-.5-1.3-1.8a87 87 0 0 0-5.3 37.2l-1.5.7L10 123.4c15 1.2 26.2-8.5 39.7-12.8L49 115c.6.2 1 .4 1.2.3l13.3-16.8c1-1.2 1.2-3.2 1-4.7l-6.2-39.5c-.3-2.2 0-4.5 0-6.8.5 0 1-.2 1-.1 8.4 8.7 20 7 30.3 8.8 3.3.5 6.8.3 4.4 6.2l18-8c8-5 9.8-14.6 14-22.4l8.4-18c1.2-2.6 3-3 5-.8l23.3 25c.6.7 1 1.6 1.7 3-13.2 3.3-27.4-.6-39 8.6l17.7-1.5c4.5-.2 9-.2 13.6.1l23.3 2c2.4.2 5 .7 7 1.6l13 5.7c1 .5 2.5.2 3.8.3l.7-1.4-11.5-6.7c-1.5-1-3-2-4.3-3 1.2-1 2.4-2.4 3.8-3.3l17.2-10c4-2.5 6.7-2.4 8.2 2l6.4 24.3c1.7 6.6-.3 14.4 5.6 19.7 4.4 4 7.8 9 15 9 5 .1 9.7 3 14.6 4.3 5 1.4 10 2.5 15 3.8 3.8 1 4.4 3.2 2.2 6.2L261 124.7c-5.8 8.3-6 21.7.2 29.7 3.3 4.4 7.4 8.3 11.6 11.8l19.4 15c-7.8 6.7-35.2 18.5-43 17.8l3-5.5-1-.6c-4.7 5.5-10.7 10.4-13.6 16.7a46 46 0 0 1-10.8 15.1c-11 10-23.3 16.7-38.2 20-15.8 3.4-31.4 6-47.4 4.8-5.2-.4-10.4-1.8-15-2.7l-18.3 9c-8 4.2-16 8.2-22.6 14.8-2.5 2.5-5 .5-5.4-2.4-1.2-6.4-2.6-12.8-2.8-19.2-.3-9 .6-18 .8-26.8 0-1.2-.6-3-1.4-3.4-7.4-3-10-10.3-14.3-16L55 192.5zm40-79.4c2 4.8 3 10 6 13.7 3.4 4.3 8.3 7.6 13 11 22.8 16.2 62.2 19.2 84.8-4 4.7-4.8 13.4-5.8 13.6-15.2 0-2.6.6-4.6-1.8-5.7-2.5-1.2-4.3-.2-6.2 2.3-2.5 3.3-5.6 6.6-9.2 8.7-11.7 6.6-24.8 6.7-37.8 7.2a102 102 0 0 1-41.7-5.3c-3.4-1.4-6.3-4.5-9-7-3.2-3-5-8.6-11.6-5.6zm30.7-5c.1 1-.1 3 .7 4.3 1 2 3 4.8 4.6 4.8 2 .1 5.8-1.8 6.2-3.5 1-3.6.8-7.7-.1-11.3-.5-1.8-4.2-4.4-5.7-4-2.2.6-3.8 3.5-5.3 5.6-.6.8-.2 2.3-.3 4zm60.6 4.5l-.7-1c-.6-2.6-.5-5.5-1.8-7.6-1.3-2.2-3.8-4.6-6-5-1.4-.2-4 3.2-4.7 5.4-.7 2.7-.3 6 .4 8.7 1 4 4.3 6 7.8 5.2 2-.5 3.5-3.7 5-5.7z"/><path d="M185.2 251.6L157.8 289 135 258.2c-.6-1-.7-3.4-.2-3.6 1.7-.8 3.6-1.4 5.5-1.3 7.3.4 14.5 1.5 21.8 1.4 4.7-.1 9.3-1.8 14-2.8l8.2-2 1 1.6zm-130-59l.6.8 7 17c.5 1.3.6 2.8 1 4.2-1.5.1-3 .4-4.6.2l-38.8-5C33 199 40.5 185.6 47 171c4.3 7.4.8 16.5 8 21.6zm182.2 25.7l1.8 39-30-7c-2-.5-3.5-2.8-5.2-4.3l5-4 19.8-15c3-2.5 5.6-5.8 8.6-9z"/></g><path d="M95 113.2c6.7-3 8.4 2.7 11.6 5.6 2.8 2.6 5.7 5.7 9 7a102 102 0 0 0 41.7 5.3c13-.4 26-.5 37.8-7.2 3.6-2 6.7-5.3 9.2-8.7 2-2.5 3.6-3.5 6.2-2.3 2.4 1 1.8 3 1.8 5.7-.2 9.4-9 10.4-13.6 15.2-22.6 23-62 20-84.8 4-4.6-3.3-9.4-6.6-13-11-3-3.7-4-9-6-13.7zm30.7-5.2c.1-1.8-.2-3.2.3-4 1.5-2.2 3.2-5 5.3-5.6 1.5-.4 5.2 2.2 5.7 4 1 3.6 1 7.7.1 11.3-.4 1.7-4 3.6-6.2 3.5-1.6-.1-3.4-3-4.6-4.8-.8-1.3-.5-3.2-.7-4.3zm60.6 4.5c-1.7 2-3 5.2-5 5.7-3.6.8-7-1.2-7.8-5.2-.6-2.8-1-6-.4-8.7.6-2.2 3.4-5.6 4.7-5.4 2.3.3 4.7 2.8 6 5 1.3 2 1.3 5 1.8 7.6l.7 1z"/></svg>