<svg class="line-drawing" width="100%" preserveAspectRatio="xMidYMid meet" xmlns="http://www.w3.org/2000/svg" viewBox="-30 -30 365 365">
<g>
	<path fill="#FFFFFF" d="M54.453,45.605c1.963,9.165,4.033,17.959,5.677,26.831c1,5.399,1.167,10.948,2.02,16.381
		c1.377,8.773-2.416,14.942-10.913,17.622c-2.942,0.928-5.869,2.086-8.571,3.563c-10.194,5.572-20.999,9.082-32.529,10.554
		c-1.356,0.174-2.946,1.72-3.583,3.037c-0.349,0.723,0.824,2.545,1.73,3.452c8.331,8.344,16.666,16.687,25.186,24.836
		c4.249,4.063,8.883,7.725,14.502,12.566c-7.365,15.883-15.364,32.834-30.873,45.147c0.268,0.582,0.535,1.164,0.803,1.746
		c19.152,3.104,38.304,6.206,56.277,9.118c-0.8,3.649-2.044,6.837-2.082,10.037c-0.068,5.932,0.271,11.908,0.982,17.8
		c1.092,9.06,2.549,18.078,4.083,27.075c0.273,1.603,1.673,3.014,2.553,4.514c1.487-0.876,3.252-1.479,4.416-2.671
		c8.007-8.196,17.224-14.418,27.934-18.64c4.541-1.79,8.549-4.896,12.98-7.028c0.953-0.458,3.06,0.327,3.962,1.22
		c1.09,1.078,1.283,3,2.175,4.354c7.455,11.307,14.966,22.575,22.517,33.818c0.594,0.885,1.607,1.486,2.891,2.634
		c6.32-8.203,12.439-16.065,18.469-23.995c4.189-5.509,8.988-10.728,12.133-16.791c2.357-4.554,3.346-7.886,8.416-2.997
		c0.752,0.726,2.131,0.807,3.223,1.173c4.279,1.437,8.479,3.207,12.854,4.229c9.105,2.126,18.287,3.946,27.477,5.688
		c2.701,0.512,4.533-1.394,3.779-3.855c-4.076-13.311-2.346-26.971-3.059-40.492c-0.273-5.216,1.207-9.185,3.447-11.874
		c3.281-1.149,5.346-2.096,7.514-2.602c15.66-3.651,29.881-10.604,43.545-18.839c1.006-0.607,2.221-1.562,2.438-2.551
		c0.148-0.678-1.094-2.145-2.01-2.498c-13.666-5.291-22.762-15.709-31.275-27.019c-4.234-5.624-6.705-12.214-3.764-17.956
		c4.711-9.199,11.416-17.389,17.416-25.909c2.963-4.208,6.229-8.199,9.691-12.726c-8.49-2.007-16.086-3.703-23.629-5.61
		c-9.043-2.286-18.221-4.254-26.959-7.413c-3.006-1.087-6.004-4.991-6.994-8.226c-1.619-5.281-1.432-11.092-2.293-16.635
		c-1.475-9.486-3.996-18.672-9.035-26.971c-1.768-2.908-3.955-3.908-6.824-1.064c-1.881,1.861-3.777,3.951-6.086,5.089
		c-7.785,3.84-15.744,7.331-23.666,10.893c-4.813,2.164-10.32,0.523-13.35-3.789c-1.143-1.628-2.348-3.224-3.637-4.736
		c-7.836-9.198-15.668-18.399-23.601-27.516c-1.229-1.411-2.964-2.384-4.464-3.56c-1.05,1.411-2.363,2.695-3.109,4.251
		c-5.77,12.04-11.567,24.07-17.04,36.245c-1.68,3.738-4.31,5.752-7.662,7.832c-3.818,2.369-7.085,3.149-11.015,0.887
		c-0.639-0.367-1.642-0.042-2.449-0.187c-9.928-1.775-20.096-2.295-29.359-7.191C62.386,45.101,58.294,42.963,54.453,45.605z"/>
	<path d="M54.453,45.605c3.841-2.643,7.933-0.504,11.257,1.253c9.263,4.896,19.432,5.416,29.359,7.191
		c0.808,0.145,1.811-0.182,2.449,0.187c3.93,2.265,7.197,1.482,11.015-0.887c3.353-2.08,5.982-4.094,7.662-7.832
		c5.472-12.175,11.27-24.205,17.04-36.245c0.746-1.556,2.059-2.84,3.109-4.251c1.5,1.176,3.235,2.147,4.464,3.561
		c7.932,9.114,15.764,18.315,23.6,27.515c1.291,1.514,2.494,3.109,3.637,4.737c3.029,4.313,8.537,5.952,13.352,3.789
		c7.92-3.563,15.879-7.054,23.666-10.894c2.309-1.138,4.203-3.228,6.086-5.089c2.869-2.844,5.057-1.844,6.822,1.065
		c5.041,8.298,7.563,17.482,9.035,26.97c0.861,5.543,0.674,11.354,2.293,16.635c0.992,3.233,3.988,7.139,6.994,8.226
		c8.738,3.159,17.916,5.128,26.959,7.413c7.543,1.907,15.139,3.604,23.629,5.61c-3.463,4.525-6.729,8.518-9.689,12.726
		c-6,8.521-12.705,16.71-17.416,25.909c-2.941,5.742-0.473,12.332,3.764,17.956c8.514,11.31,17.609,21.728,31.275,27.019
		c0.914,0.354,2.156,1.821,2.01,2.498c-0.219,0.99-1.434,1.942-2.439,2.551c-13.662,8.235-27.885,15.188-43.543,18.839
		c-2.168,0.506-4.232,1.451-7.514,2.603c-2.24,2.688-3.723,6.657-3.449,11.874c0.713,13.521-1.018,27.182,3.059,40.491
		c0.754,2.463-1.078,4.367-3.779,3.855c-9.188-1.742-18.369-3.563-27.477-5.688c-4.375-1.021-8.574-2.792-12.854-4.229
		c-1.092-0.366-2.469-0.447-3.223-1.173c-5.068-4.889-6.059-1.557-8.416,2.997c-3.143,6.063-7.943,11.282-12.131,16.791
		c-6.029,7.93-12.148,15.792-18.469,23.996c-1.283-1.147-2.299-1.749-2.893-2.635c-7.55-11.242-15.061-22.513-22.516-33.818
		c-0.892-1.354-1.085-3.274-2.175-4.354c-0.902-0.893-3.009-1.678-3.962-1.22c-4.431,2.133-8.439,5.238-12.98,7.028
		c-10.71,4.222-19.926,10.442-27.934,18.64c-1.164,1.191-2.929,1.795-4.416,2.671c-0.879-1.5-2.279-2.911-2.553-4.514
		c-1.534-8.997-2.991-18.017-4.083-27.075c-0.711-5.892-1.05-11.868-0.982-17.8c0.037-3.2,1.282-6.387,2.082-10.037
		c-17.973-2.912-37.125-6.015-56.277-9.118c-0.268-0.582-0.535-1.164-0.803-1.746c15.509-12.313,23.508-29.266,30.873-45.147
		c-5.619-4.843-10.253-8.502-14.502-12.566c-8.52-8.149-16.855-16.492-25.186-24.836c-0.906-0.907-2.079-2.729-1.73-3.452
		c0.637-1.317,2.228-2.863,3.583-3.037c11.531-1.472,22.335-4.979,32.529-10.554c2.702-1.479,5.628-2.636,8.571-3.563
		c8.497-2.68,12.291-8.849,10.913-17.622c-0.853-5.433-1.02-10.98-2.02-16.381C58.486,63.564,56.416,54.77,54.453,45.605z
		 M55.052,192.543c-7.13-5.091-3.583-14.146-7.907-21.566c-6.692,14.621-14.001,27.881-26.844,38.503
		c13.952,1.856,26.382,3.537,38.824,5.129c1.497,0.191,3.057-0.101,4.587-0.169c-0.3-1.41-0.398-2.902-0.935-4.217
		c-2.307-5.651-4.743-11.249-7.132-16.867c2.182,3.125,4.318,6.283,6.557,9.366c4.228,5.824,6.91,12.997,14.302,16.104
		c0.832,0.35,1.473,2.229,1.443,3.382c-0.227,8.946-1.096,17.9-0.843,26.827c0.181,6.425,1.609,12.842,2.824,19.196
		c0.545,2.852,2.944,4.85,5.401,2.367c6.515-6.578,14.594-10.595,22.564-14.809c5.967-3.154,12.135-5.927,18.274-8.897
		c4.617,0.853,9.766,2.311,14.992,2.671c16.063,1.109,31.657-1.391,47.442-4.829c14.982-3.264,27.309-9.881,38.248-19.999
		c4.643-4.292,8.021-9.143,10.766-15.133c2.895-6.313,8.945-11.178,13.617-16.675c0.32,0.196,0.643,0.393,0.965,0.588
		c-0.947,1.767-1.896,3.532-2.939,5.479c7.783,0.776,35.248-11.044,43.016-17.751c-6.396-4.896-13.131-9.688-19.43-14.998
		c-4.203-3.544-8.219-7.491-11.557-11.845c-6.178-8.055-5.994-21.416-0.182-29.734c1.611-2.308,3.273-4.579,4.939-6.849
		c3.607-4.91,7.199-9.832,10.861-14.701c2.266-3.015,1.641-5.152-2.172-6.22c-4.934-1.38-9.955-2.439-14.883-3.839
		c-4.906-1.393-9.715-4.174-14.615-4.296c-7.197-0.18-10.666-5.191-15.043-9.075c-5.922-5.256-3.938-13.049-5.598-19.687
		c-2.029-8.124-3.838-16.332-6.434-24.277c-1.467-4.485-4.053-4.616-8.195-2.084c-5.645,3.452-11.49,6.575-17.174,9.968
		c-1.404,0.838-2.514,2.173-3.76,3.279c1.432,0.991,2.811,2.065,4.301,2.958c3.799,2.273,7.645,4.467,11.473,6.691
		c-0.232,0.477-0.467,0.951-0.697,1.428c-1.275-0.088-2.682,0.141-3.805-0.318c-4.422-1.808-8.697-3.976-13.145-5.713
		c-2.234-0.873-4.693-1.344-7.094-1.585c-7.758-0.781-15.523-1.497-23.305-1.99c-4.508-0.285-9.056-0.303-13.567-0.064
		c-5.904,0.312-11.788,0.993-17.68,1.517c11.542-9.258,25.808-5.354,38.983-8.609c-0.775-1.396-1.096-2.36-1.723-3.043
		c-7.746-8.401-15.535-16.766-23.316-25.135c-2.071-2.228-3.781-1.738-4.987,0.83c-2.814,5.994-5.264,12.178-8.384,18.004
		c-4.164,7.774-5.99,17.31-13.979,22.37c-5.297,3.355-11.539,5.22-18.054,8.054c2.387-5.828-1.11-5.625-4.406-6.164
		c-10.431-1.706-21.86-0.104-30.288-8.78c-0.144-0.148-0.619,0.024-1.089,0.06c0,2.277-0.292,4.598,0.048,6.822
		c2.013,13.188,4.228,26.347,6.21,39.54c0.229,1.521-0.072,3.556-0.953,4.734c-4.273,5.719-8.825,11.229-13.313,16.783
		c-0.078,0.097-0.586-0.155-1.221-0.341c0.184-1.396,0.373-2.818,0.565-4.278c-13.483,4.247-24.675,13.943-39.68,12.78
		c-0.046,0.47-0.093,0.939-0.14,1.41c10.609,10.127,21.219,20.253,31.828,30.38c0.488-0.238,0.977-0.477,1.465-0.716
		c-1.116-12.62,0.953-24.644,5.339-37.156c0.937,1.316,1.273,1.572,1.274,1.829c0.001,0.815,0.005,1.67-0.215,2.445
		c-3.903,13.771-5.404,27.475,0.596,41.131c0.546,1.244,0.35,3.037-0.036,4.428c-1.422,5.121,0.061,9.297,2.437,11.682
		C53.522,184.403,54.287,188.472,55.052,192.543z M185.195,251.6c-0.34-0.544-0.68-1.089-1.021-1.633
		c-2.732,0.644-5.457,1.323-8.199,1.923c-4.654,1.019-9.307,2.729-13.98,2.802c-7.242,0.115-14.496-1.007-21.756-1.357
		c-1.82-0.088-3.797,0.532-5.452,1.34c-0.429,0.21-0.385,2.697,0.241,3.561c7.191,9.923,14.537,19.732,22.725,30.763
		C167.328,275.948,176.261,263.774,185.195,251.6z M237.236,218.281c-2.949,3.099-5.469,6.369-8.59,8.895
		c-6.42,5.191-13.164,9.979-19.768,14.944c-1.715,1.287-3.398,2.613-5.096,3.923c1.729,1.495,3.236,3.831,5.221,4.345
		c10.102,2.617,20.324,4.764,30.049,6.971C238.429,243.948,237.845,231.391,237.236,218.281z"/>
	<path fill="#FFFFFF" d="M55.052,192.543c-0.765-4.07-1.529-8.141-2.57-13.678c-2.376-2.385-3.859-6.561-2.437-11.682
		c0.386-1.391,0.582-3.184,0.036-4.428c-6-13.656-4.499-27.36-0.596-41.131c0.22-0.775,0.217-1.63,0.215-2.445
		c0-0.257-0.337-0.513-1.274-1.829c-4.386,12.514-6.456,24.536-5.339,37.156c-0.488,0.239-0.977,0.478-1.465,0.716
		c-10.609-10.127-21.219-20.253-31.828-30.38c0.046-0.471,0.093-0.94,0.14-1.41c15.005,1.163,26.197-8.533,39.68-12.78
		c-0.193,1.46-0.381,2.884-0.565,4.278c0.634,0.186,1.143,0.438,1.221,0.341c4.487-5.556,9.039-11.065,13.313-16.783
		c0.881-1.18,1.182-3.215,0.953-4.734c-1.983-13.193-4.197-26.353-6.21-39.54c-0.34-2.226-0.048-4.545-0.048-6.822
		c0.47-0.034,0.945-0.208,1.089-0.06c8.427,8.678,19.856,7.074,30.288,8.78c3.296,0.539,6.793,0.336,4.406,6.164
		c6.515-2.834,12.757-4.697,18.054-8.054c7.989-5.063,9.815-14.596,13.979-22.37c3.121-5.826,5.57-12.01,8.384-18.004
		c1.206-2.568,2.916-3.058,4.987-0.83c7.782,8.369,15.57,16.732,23.316,25.135c0.627,0.683,0.947,1.646,1.723,3.043
		c-13.176,3.256-27.441-0.647-38.983,8.609c5.893-0.522,11.776-1.205,17.68-1.517c4.511-0.237,9.059-0.221,13.567,0.064
		c7.779,0.493,15.549,1.209,23.305,1.99c2.398,0.241,4.857,0.712,7.094,1.585c4.447,1.737,8.725,3.905,13.145,5.713
		c1.123,0.459,2.527,0.23,3.805,0.318c0.23-0.477,0.465-0.951,0.697-1.428c-3.826-2.226-7.674-4.418-11.473-6.691
		c-1.49-0.893-2.869-1.967-4.301-2.958c1.246-1.106,2.354-2.441,3.76-3.279c5.684-3.393,11.529-6.516,17.174-9.968
		c4.143-2.532,6.73-2.401,8.195,2.084c2.596,7.945,4.402,16.153,6.434,24.277c1.66,6.638-0.324,14.431,5.598,19.687
		c4.377,3.884,7.846,8.896,15.043,9.075c4.9,0.122,9.709,2.903,14.615,4.296c4.928,1.398,9.949,2.459,14.883,3.839
		c3.813,1.066,4.438,3.205,2.172,6.22c-3.662,4.869-7.254,9.791-10.861,14.701c-1.666,2.27-3.328,4.541-4.939,6.849
		c-5.814,8.318-5.996,21.681,0.182,29.734c3.338,4.354,7.355,8.301,11.557,11.845c6.301,5.31,13.033,10.103,19.43,14.998
		c-7.768,6.707-35.23,18.527-43.016,17.751c1.045-1.945,1.992-3.713,2.939-5.479c-0.322-0.196-0.645-0.392-0.965-0.588
		c-4.672,5.497-10.725,10.362-13.617,16.675c-2.744,5.99-6.123,10.841-10.764,15.133c-10.941,10.118-23.268,16.735-38.25,19.999
		c-15.785,3.438-31.377,5.938-47.442,4.829c-5.226-0.36-10.375-1.818-14.992-2.671c-6.139,2.972-12.308,5.743-18.274,8.897
		c-7.97,4.214-16.049,8.229-22.564,14.809c-2.458,2.481-4.856,0.483-5.401-2.367c-1.215-6.354-2.643-12.771-2.824-19.196
		c-0.252-8.927,0.616-17.881,0.843-26.827c0.029-1.151-0.612-3.032-1.443-3.382c-7.392-3.105-10.075-10.278-14.302-16.104
		c-2.239-3.083-4.375-6.241-6.555-9.362C55.451,193.089,55.251,192.816,55.052,192.543z M95.032,113.174
		c2.029,4.799,3.126,9.981,6.075,13.691c3.437,4.323,8.291,7.645,12.882,10.902c22.771,16.166,62.202,19.231,84.786-3.901
		c4.654-4.768,13.43-5.804,13.604-15.152c0.049-2.563,0.631-4.565-1.771-5.674c-2.529-1.165-4.313-0.217-6.172,2.291
		c-2.48,3.346-5.615,6.629-9.195,8.655c-11.701,6.626-24.807,6.729-37.814,7.153c-14.205,0.464-28.321,0.044-41.695-5.269
		c-3.441-1.366-6.275-4.478-9.119-7.082C103.384,115.835,101.719,110.18,95.032,113.174z M125.722,108.142
		c0.135,1.05-0.106,2.949,0.663,4.252c1.146,1.94,2.949,4.764,4.574,4.834c2.113,0.09,5.756-1.775,6.199-3.465
		c0.931-3.553,0.848-7.712-0.107-11.275c-0.493-1.838-4.156-4.422-5.66-4.011c-2.152,0.588-3.794,3.499-5.33,5.65
		C125.489,104.927,125.833,106.381,125.722,108.142z M186.302,112.6c-0.242-0.344-0.484-0.688-0.729-1.031
		c-0.557-2.557-0.539-5.465-1.83-7.573c-1.336-2.185-3.795-4.636-6.045-4.95c-1.373-0.193-4.121,3.188-4.732,5.39
		c-0.746,2.68-0.297,5.896,0.354,8.714c0.906,3.93,4.279,6.005,7.838,5.162C183.208,117.823,184.609,114.594,186.302,112.6z"/>
	<path fill="#FFFFFF" d="M185.195,251.6c-8.934,12.174-17.867,24.349-27.443,37.396c-8.188-11.029-15.532-20.84-22.725-30.763
		c-0.625-0.862-0.67-3.351-0.241-3.561c1.654-0.808,3.632-1.428,5.452-1.34c7.26,0.352,14.514,1.474,21.756,1.357
		c4.674-0.073,9.326-1.784,13.98-2.802c2.742-0.6,5.467-1.279,8.199-1.923C184.515,250.511,184.855,251.056,185.195,251.6z"/>
	<path fill="#FFFFFF" d="M55.052,192.543c0.2,0.272,0.399,0.546,0.596,0.815c2.387,5.614,4.823,11.213,7.13,16.863
		c0.537,1.313,0.635,2.807,0.935,4.217c-1.531,0.068-3.09,0.36-4.587,0.169c-12.442-1.592-24.872-3.271-38.824-5.129
		c12.843-10.622,20.151-23.882,26.844-38.503C51.468,178.397,47.922,187.452,55.052,192.543z"/>
	<path fill="#FFFFFF" d="M237.236,218.281c0.609,13.109,1.193,25.667,1.816,39.076c-9.725-2.207-19.947-4.354-30.049-6.971
		c-1.982-0.514-3.492-2.85-5.221-4.345c1.695-1.31,3.381-2.636,5.096-3.923c6.604-4.965,13.348-9.753,19.768-14.944
		C231.769,224.651,234.287,221.38,237.236,218.281z"/>
	<path d="M95.032,113.174c6.687-2.993,8.352,2.661,11.579,5.617c2.843,2.604,5.677,5.715,9.119,7.081
		c13.374,5.313,27.49,5.731,41.695,5.269c13.01-0.426,26.113-0.527,37.814-7.153c3.58-2.026,6.715-5.311,9.195-8.654
		c1.859-2.509,3.643-3.457,6.172-2.291c2.402,1.106,1.82,3.109,1.771,5.673c-0.174,9.35-8.949,10.386-13.604,15.152
		c-22.584,23.134-62.014,20.067-84.786,3.901c-4.591-3.259-9.445-6.579-12.882-10.902C98.158,123.155,97.061,117.972,95.032,113.174
		z"/>
	<path d="M125.722,108.142c0.112-1.762-0.232-3.215,0.339-4.015c1.535-2.151,3.177-5.063,5.33-5.65
		c1.504-0.411,5.167,2.173,5.66,4.011c0.956,3.563,1.038,7.724,0.107,11.275c-0.443,1.688-4.086,3.555-6.199,3.465
		c-1.625-0.07-3.428-2.894-4.574-4.834C125.615,111.092,125.857,109.192,125.722,108.142z"/>
	<path d="M186.302,112.6c-1.691,1.994-3.094,5.224-5.145,5.71c-3.559,0.843-6.932-1.232-7.838-5.162
		c-0.65-2.818-1.102-6.034-0.354-8.714c0.611-2.2,3.359-5.583,4.732-5.39c2.25,0.314,4.709,2.767,6.045,4.95
		c1.291,2.108,1.273,5.018,1.83,7.573C185.816,111.912,186.06,112.257,186.302,112.6z"/>
</g>
</svg>
