<svg x="0" y="0" width="20" height="20" viewBox="0 0 20 20"><path class="icon" d="M2.197 15.104a8.695 8.695 0 0 0 4.717 1.384c5.715 0 8.941-4.825 8.748-9.155a6.251 6.251 0 0 0 1.535-1.593 6.23 6.23 0 0 1-1.769.484 3.068 3.068 0 0 0 1.354-1.702 6.182 6.182 0 0 1-1.954.746 3.079 3.079 0 0 0-5.244 2.807A8.735 8.735 0 0 1 3.24 4.861a3.082 3.082 0 0 0 .953 4.109 3.092 3.092 0 0 1-1.395-.386c-.033 1.426.988 2.759 2.469 3.057a3.067 3.067 0 0 1-1.389.053 3.078 3.078 0 0 0 2.875 2.137 6.18 6.18 0 0 1-4.556 1.273z"/></svg>