<?xml version="1.0" encoding="utf-8"?>
<!-- Generator: Adobe Illustrator 16.0.3, SVG Export Plug-In . SVG Version: 6.00 Build 0)  -->
<!DOCTYPE svg PUBLIC "-//W3C//DTD SVG 1.1//EN" "http://www.w3.org/Graphics/SVG/1.1/DTD/svg11.dtd">
<svg version="1.1" id="Layer_1" xmlns="http://www.w3.org/2000/svg" xmlns:xlink="http://www.w3.org/1999/xlink" x="0px" y="0px"
	 width="595.28px" height="841.89px" viewBox="0 0 595.28 841.89" enable-background="new 0 0 595.28 841.89" xml:space="preserve">
<path fill="#3D3E3E" d="M274.684,434.815c4.15,2.661,9.08,4.214,14.375,4.214c17.412,0,27.248-14.706,26.656-27.897
	c1.831-1.32,3.422-2.972,4.679-4.854c-1.683,0.746-3.49,1.25-5.386,1.476c1.936-1.158,3.422-2.996,4.122-5.188
	c-1.812,1.075-3.819,1.856-5.954,2.277c-1.711-1.823-4.148-2.961-6.846-2.961c-6.053,0-10.501,5.649-9.135,11.515
	c-7.794-0.391-14.705-4.125-19.329-9.799c-2.457,4.216-1.275,9.731,2.902,12.521c-1.538-0.048-2.985-0.472-4.249-1.174
	c-0.101,4.346,3.012,8.409,7.522,9.315c-1.32,0.359-2.766,0.44-4.233,0.16c1.191,3.727,4.655,6.436,8.759,6.513
	C284.625,434.023,279.659,435.403,274.684,434.815z"/>
</svg>
