
<svg version="1.1" id="Layer_1" xmlns="http://www.w3.org/2000/svg" xmlns:xlink="http://www.w3.org/1999/xlink" x="0px" y="0px"
	 width="595.28px" height="841.89px" viewBox="0 0 595.28 841.89" enable-background="new 0 0 595.28 841.89" xml:space="preserve">
<path fill="#3D3E3E" d="M274.684,414.882c1.639,1.05,3.584,1.664,5.675,1.664c6.873,0,10.756-5.806,10.522-11.013
	c0.723-0.521,1.351-1.173,1.847-1.916c-0.665,0.294-1.378,0.493-2.126,0.582c0.764-0.457,1.351-1.183,1.627-2.047
	c-0.715,0.424-1.508,0.732-2.351,0.898c-0.675-0.719-1.638-1.169-2.703-1.169c-2.389,0-4.145,2.23-3.605,4.545
	c-3.077-0.154-5.805-1.628-7.63-3.868c-0.97,1.665-0.503,3.841,1.146,4.943c-0.607-0.02-1.179-0.187-1.678-0.464
	c-0.04,1.715,1.189,3.319,2.97,3.677c-0.521,0.142-1.092,0.174-1.671,0.063c0.47,1.471,1.837,2.541,3.458,2.571
	C278.608,414.569,276.647,415.114,274.684,414.882z"/>
</svg>
