<svg version="1.1" xmlns="http://www.w3.org/2000/svg" xmlns:xlink="http://www.w3.org/1999/xlink" x="0px" y="0px"
	 width="20px" height="20px" viewBox="0 0 20 20" enable-background="new 0 0 20 20" xml:space="preserve">
	<path class="icon" d="M2.197,15.104c1.362,0.875,2.979,1.384,4.717,1.384c5.715,0,8.941-4.825,8.748-9.155
	c0.6-0.433,1.122-0.975,1.535-1.593c-0.555,0.244-1.146,0.409-1.769,0.484c0.638-0.38,1.125-0.983,1.354-1.702
	c-0.596,0.353-1.255,0.608-1.954,0.746c-0.562-0.597-1.361-0.972-2.247-0.972c-1.986,0-3.447,1.854-2.997,3.779
	C7.026,7.948,4.758,6.722,3.24,4.861C2.435,6.245,2.822,8.053,4.193,8.97c-0.504-0.017-0.98-0.156-1.395-0.386
	c-0.033,1.426,0.988,2.759,2.469,3.057c-0.434,0.119-0.908,0.145-1.389,0.053c0.391,1.223,1.527,2.112,2.875,2.137
	C5.458,14.845,3.828,15.299,2.197,15.104z"/>
</svg>
