<svg xmlns="http://www.w3.org/2000/svg" width="100%" preserveAspectRatio="xMidYMid meet" viewBox="-53 6 600 600"><path d="M203.5 585.6c-.6-.5-1.8-1-1.8-1.3 0-3-2-3-4-3-5.2-.2-6.8-2.5-4.7-7.2a18.2 18.2 0 0 1 6-7.7 36.2 36.2 0 0 0 3.8-4c-7 0-13 1-18-3l.2-1 2 .1-.7-1.3 7.7 2c.4-3 .1-5-2-6.8-1.7-1.5-3.3-4-3.4-6.2l-.7-36.3a2.5 2.5 0 0 1 .9-2l1.3 36a7.3 7.3 0 0 0 3.9 6.6l.6-10.7-2.4-31a4.5 4.5 0 0 0-1.6-2.6c-3-2.6-3.6-9.5-1-12.2l-2.8-1.7 2.3-2.6c.5-.6 1.5-1 1.5-1.6l-.5-9-1-.1-.7 6.4-1-.1-1-12a29.1 29.1 0 0 0-3.9-13.4c-1-1.8-1-4.4-1-6.7 2 2.6.1 7.8 5.5 7.7l-.7-9c3.3 1.6 3.6 6.4 7.6 6 2.4-5-1.5-7-4.2-9.8 4-4.4.3-9.4 1-14.2 1-6.2 1.3-12.6 2.2-18.8a10 10 0 0 1 5.3-7.6l17.6-10.4c.4-.2 1 .1 1.3.1-.3-4.7-4-4-7.2-4.8a20.4 20.4 0 0 1-2.7-1l.3-.8L219 393c2.4 1 4.8 2.3 7.2.4 1 .4 1.8 1.2 2.7 1.2 3.5.1 6.8.1 10.2-1.7 2-1 4.7-.6 7.3-.2l-6.4 1.8c1 1.3 1.6 2.7 2.6 3.3l15 8.4c2 1 4 2.4 4.6 5l3.5 18a6.7 6.7 0 0 1-.6 2.6 7 7 0 0 0-.7 2.3l2 17.6c.2 1.8 1 2.3 2.6 2l4.5-.3v3.8l7-1.3c-3.5.6-7.6 3-8.3 6-.5-4.4-3-2.8-4.7-2.3l8 37.4-1-17a49.2 49.2 0 0 1 2.1-15.6c1.7 5 1 10.4 3.2 15.4a10.6 10.6 0 0 0-.9 2.7 36.2 36.2 0 0 0 1.9 16.2c1 2.7 1.5 5.8-2 8.3l4 .4-3.4 1.5.7 3.4-1 .2c-.5-2-1-3.8-1.6-5.6a8 8 0 0 0-1.5-2 6.8 6.8 0 0 0-1 2.3 116.9 116.9 0 0 0 2.3 25.5l2.8 21.5c.7 5 .7 5.2-4 7.3-1.7.7-3.4 1.3-4.8 1.7.4 4 1 8 1.3 12a35 35 0 0 0 4.3 14.4l4.2 9-.7.8-19.4-2.5c-2.3-.5-5.7-.5-5.2-4.7l-2-.7c-2.3-1-3.7-2.3-2.8-5a108.3 108.3 0 0 0 2.9-11.3 60 60 0 0 0 1.4-11.3c0-1-2.5-2.5-4-2.6l-21.4-.6 20-2.6-4.4-.7 6.6-.6v-2.5c-.2-.1-.4-.3-.6-.3l-26.4.4c-1 0-2 1-3 1.4l-4.2 2 1.3 26.4c0 .5-.6 1.6-1 1.6-5 .7-10 2.2-14.8-.5l14.4-.4-.1-1.6zm19.2-33.4v1h30V540c-.1-3.2-.7-6.3-1-9.5l-1.4-26.6a13.9 13.9 0 0 0-.9-3.2c-10.8 3.8-21.8 1.7-32.6 2.6l.5 4.6c1.3 13.7.3 27.7 4 41.2.7 2.4 1.5 3 3.6 2.8l16.5.5zm23.5-88.3l.6-.1a7.5 7.5 0 0 1 .5 1.9l-.1 6c.1.8 1 1.5 1.6 2.3a9.2 9.2 0 0 0 1.6-2.1c.5-1.4.7-3 1.2-4.5a3 3 0 0 1 1.4-1.7c.4-.1 1 .6 1.7 1l3.4 2.3v-4l9.6 3c-.3-1.2-1-2.5-1.8-2.5-3.6-.1-5.4-2.4-7.2-5-2.3-3-6.4-4.4-8.8-2.6-1.8 1.3-3.5 3-5.4 4-3.4 2-4 5-3.4 8.5.2 1.5.7 3 1 4.7.6-.4 1.2-.6 1.3-1l2.7-10.2zm-28.5-59.4a26.5 26.5 0 0 0 2.7 3.5l6.6 5.6c1.8 1.8 3.4 1 5-.1a63 63 0 0 0 6.3-5.8 45.9 45.9 0 0 0 3.8-5.7l-3.3.3.3-2.8-3.8 4.4-1-3c-2.4-.7-3.8.2-4.2 2.7l-3-2.4.4 4.3-.4.1-2.5-4.4v4l-4.2-3.8-.5.5 2.2 2.4zm-.3 83.4c1.8-.2 3.6-1 4.8-.6 5 2 9.7.6 14.5-.3 1-.2 1.7-1 2.6-1.7-1-.5-2.3-1.3-3.4-1.3-5.6-.1-11.2.1-16.7.3a19.4 19.4 0 0 0-3.3.7zm-11-20l-2-3.5a52.9 52.9 0 0 0-5.5 2.7c-.4.2-.3 1.6-.1 2.4.5 1.7 1 3.3 1.7 5l1.3 3c.7-2.4 1.4-3.8 1.3-5.2-.2-2.5 1.2-3.4 3.3-4.3zm-17.5 10H190l.3-4.4a13.5 13.5 0 0 0-2-.3zM84.5 226.7l1-.5-.4-.7-4.5 3c-.6-2.2.1-3.4 2-3.8a43.4 43.4 0 0 0 4.9-1c1.8-.5 2-2.3.8-3-2-1-5-2.4-6.5-1.6-4.2 2-8.8 3.6-11 8.4-1.7 3.6-2 4.2-.2 7.7-2.8-.2-4.2-1.5-4.8-4.4a21.3 21.3 0 0 0-3.7-7.7c-1.7-2.3-1.4-4 0-6.2s3.4-3.8 2.7-6.7c-.1-.3 1-1.4 1.4-1.3a11.2 11.2 0 0 1 2.5 1.7l5.8-2.6.1-.5c-5.3 0-10.6-.4-16 .2-2.5.3-4.7 2.4-7 3.4a5.4 5.4 0 0 1-3.2 0c-2.7-.7-5.3-1.8-8-2.5-.5-.1-1.2.5-1.8.8.5.6 1.2 1.8 1.4 1.7 3.4-1.3 4.3 2.3 6.3 3.4 3 1.6 5.4 4 7.6 5.7.3 3 .8 5.6.8 8.2a11.1 11.1 0 0 1-1.1 4.9 84.7 84.7 0 0 1-5.3 9.1C45 247 39.4 248 34 246a16 16 0 0 1-10.3-10.7c-1.7-5.4-.7-10.2 2-15a10.3 10.3 0 0 1 3.1-2.9l6.8-4.5a16.8 16.8 0 0 1 3.3-1c-1-.7-2.3-1.2-2.4-1.7-.2-3.4-2.7-3-4.8-2.7l-8 1.3a28 28 0 0 1 .8-27c-17-6.6-26-18.4-23.7-37 2-14.5 13-23.8 31.5-27.7 2.4 2.4 3 6.6 7.2 7.5-5.4 2.7-10.8 5.7-13.2 11.4-3 7-5.2 14.3-2 21.8 2 4.6 4.6 8.8 7 13.3a4.8 4.8 0 0 1 .2 1.8 80.8 80.8 0 0 1 8.2-4.8 36 36 0 0 1 9.3-2.9c4-.6 7.8-.3 11.8-.5 1 2.4 1.6 5 2.6 7.2 2.7 6 7 10.7 12.5 14.7 4 3 8 2 12.3 1.5-1-7 1.5-13.3 4.8-19.4 4.7-8.7 12.4-13.5 21.2-17v.1c.8-.5 1.5-1 2.4-1.4 1.7-1 1.7-2.3.5-3.2a12.1 12.1 0 0 0-5.1-2.7c-7-1.3-15 4.6-15.7 11.4l-3.2-1-3.5-1c-3.5-1-5-3.4-3.6-6.5 2.4-5.8 6.8-9.8 11.4-13.2.1-1.2-.1-2.5.5-3.4.3-.4 2-.3 2.8.1.4.2.2 1.5.3 2l7-.6.8-.7-2.2-1c4.7 1.5 7.2 5.5 10.4 8.7.4.4.7.8 1 1v-.1l4 8.8 10.2-1.7c-1 3.4-3 4.3-7.4 4-2.2-.1-4.7-1-6.3 1.6-.3.5-1.8.8-2.6.6-4.8-1-7.2 2.5-9.6 5.5a27.1 27.1 0 0 0-6.3 15.4 1.3 1.3 0 0 1-.3.9C95 179.3 97 185 96 190c8.2 3 12.5 9.6 16.2 17-.4.5-.8 1-1.2 1.4-.3.3-.6.5-1.3 1 1.4-3 1.2-4.8-1.6-6.4-1.5-.8-2.2-3-3.5-4.2-.7-.6-2-.4-3.3-.6l1-2c-2.4-.3-5.7 1-6-2.4-5 .3-9.7-2-14.7.6s-6.8 7-10.3 10.8a8.3 8.3 0 0 0 1.6 1c5.4 1.5 10 4.6 14.3 8a8.8 8.8 0 0 0 1.7.9l4.4 6.2 9.2-4.7.6 3.2 2.7.1-11 3.7a11.9 11.9 0 0 0-3.3 2c-2 1.6-4 3-6.6 1.2zM51.8 229c-1.3-3.5.6-9.2-6-10-.6-.1-1.3-1-1.8-1.7-1.8-2.2-3.8-2.2-6-1a19.9 19.9 0 0 1-3.4 1.5c-6.4 2-10.2 7.3-10 13.7s4.7 11.8 10.8 12.6c9.5 1.3 15.6-4 16.2-15.3zm-30-71.8l-1 .3 3.4 8.5 1-.4zm-13 62.6c.3.6 1 1.3.7 1.7s-1 1-1.5 1.5c-3.7 2.5-4.6 6.5-4.8 10.5-.3 4.6-.8 9.5 2.7 13.3 6 6.6 10.8 15 20.5 17 1 .2 2.6-2 4.4-3.5-6.6-1.2-10.8-5-14.3-8.8-4.7-5.2-8-11.4-8.3-18.7a20 20 0 0 1 .6-6.3c.3-1.2 1.8-2 3.3-3-1.7 16 8.5 25.4 19 34.5l3.6-4.6C33.3 257 32 260 31 263c-2.7 8 .4 14.7 4.2 21.4 2 3.7 3 8.7 9.3 6.6 1.4-.5 3.4.7 5 1.3 8.5 3 16.6 2 24-2.4 9-5.3 13-15 11-25.5a20.9 20.9 0 0 1-.5-4.5c4 6.4 7 13 5.5 20.8a1.9 1.9 0 0 1-.4-.5c-.1-.3-.2-.6-.1-.2-2.5 4.3-4.7 9.3-8 13.6-6 8-14.6 11.5-24.7 10.6-2.8-.3-5.7-.6-8.5-1l2.7-2.3c-1-.6-2-1.6-3-1.6-1.4-.1-3 1-4.3.7a72.4 72.4 0 0 1-7.8-1.7c3.8 3 6.8 6 11.5 6.4a35.7 35.7 0 0 0 6.1 1.8l10.6.5a25.9 25.9 0 0 1-2.5 4c-2 2.3-3 4.8-1.6 7.8.3.7-.3 1.8-.6 3l-1-.5c-2.4-4.7-2.4-4.7-8-3.5-9.4 2-18.7 2.7-27.5-2.3C18.2 313 14.5 310 12 305c-2.2-4-5-7.8-5.6-12.5-1.4-8.3.5-15.8 5-22.8 1.5-2.4.7-3.7-1.4-5.6a23.3 23.3 0 0 1-5.4-7 33 33 0 0 1 1.8-35.7c.5-.8 1.7-1 2.6-1.6zm48 81.3c6 3.7 17.4-.2 21-6.8zm384-172c2.8 6.2 4 12.6 2.2 19.3-.4 1.5-1.4 2.7-2 4-.4 1-.4 2-.8 3l-2.4 5-1-.5 1.2-2.8-.7-.6-4.6 4 6 1c18.5 2 31.5 15.2 33 33.7.2 3-.7 6.3-1 9.5l-.7 5.3c-3 5.7-6 11.4-11.8 15-3.3 2-7 3.5-10.5 5.2l-.4-.7 5 1.6-10.5.4c-4.4 0-7.6 2.5-10.7 5a73.3 73.3 0 0 0-7.9 7.8 5.4 5.4 0 0 0-1 3.5l.8 9.7a27.9 27.9 0 0 0 7.7 17.8c8 8.8 19.8 10 30.5 3.7.5-.3 1-.6 2-1.3-6.5 9-14.4 12.2-27.4 9s-21-13.2-21.6-27c2.5-.6 3.6-4 1.6-6.4a6.3 6.3 0 0 1-.4-7.7l7.6-11c1-1.5-.4-9.7-2-10-4-.4-4.7-3.2-5.4-6.2 4.2-2.6 10.8-1.6 17.7 2.5-.5-2.2-4.5-5-8-5.5a43 43 0 0 1-20.5-7.9c-6.6-5.2-16.7-4-23 4a82.9 82.9 0 0 0-5.5 8.6 26 26 0 0 0-1.3 2.7h-1c-.5-3-1.7-6-1.2-8.8.4-2.2 2.8-4.2 4.6-6 5-5.4 15.4-7.3 22.2-4.4a14.9 14.9 0 0 0 3.5 1.1c2.2.3 4 .2 5.2-2.3 3.4-7 8.6-9.4 16.5-8.4 1.5.2 3.2-.7 4.8-.5 1.3.1 2.5 1 3.8 1.8-2.8 4 1.8 4.8 2.7 7 .8 2 4 2.6 6.6 4l.3-5c1.2 8.5-3 15-8.3 20.7 3.8 5 8 2.3 12.3 2 7-.7 10.8-6.2 16-9.4a5.8 5.8 0 0 0 2.2-2.5c4.4-9.6 7-19.5 1.8-29.6-1.8-3.4-5-6-7.7-9.2-.5-.5-1.2-1-1.4-1.6-1.5-4.3-6-4.2-9-6a9.2 9.2 0 0 0-3.3-1 29.5 29.5 0 0 0-3.8-.2c-.2 0-.4.2-.6.1-6-2-12-.3-18.2-1.2l7.2-2.6c-2.2.5-4.6.8-6.6 1.7-3 1.4-4.4.4-5.5-2.3-.3-.8-.8-1.6-1.4-2.7a18.8 18.8 0 0 1 3-.2c7.6.8 11.3-4.4 14.2-10s2-11.4-1.8-16.4a11.1 11.1 0 0 0-11.3-4.3c-4 .8-7.7 2.6-12 4l-3.4-6.7L417 118l-1.3-.6.2-.8 9.2 2.4a48.6 48.6 0 0 1 7.2 2.4c1.6.8 3 2.2 4.5 3.3V124.5l4 4.6zm-18 84.2c2.4.1 5.8-4 6-7s-2.3-5.5-5.8-5.6c-3-.1-6 3-6.2 6.2 0 2.7 3.5 6.4 6 6.5zm7.5 69.7l-13-17.7c-2.2 5.7 4.8 15.2 13 17.7zm-128-171.5l-2.3 1 .1 1a61.7 61.7 0 0 1 6.8-.8c3 0 6 .4 9.2.5 1.3 0 2.7-.4 4-.2a13.6 13.6 0 0 1 3.3 1.4 28.7 28.7 0 0 1 3.9-16.9c2.8-5 5.8-10.5 12.6-12.7a17.4 17.4 0 0 1-1.1 3c-2.7 4.2-6 8.2-8 12.7-1.6 3.3-2 7.3-3 11a27.2 27.2 0 0 1-2 4.1l5 4.4c-7.8-1.5-14.8-3.7-21.6-.2l-3 .6a6.6 6.6 0 0 1-6.3-5.3 3.1 3.1 0 0 0-1.5-2.2c-1 4.7-1.4 9.7-3.2 14s-4.2 9.2-7.7 12.3c-3 2.6-8.2 4.8-12 4-5.4-1-10.4-4.4-15.4-7.2-1.2-.7-2-2.7-2.2-4.2-.8-4-2-8.2-.7-13l2 1.7 3.4-5.5 2.4 12.7a7.8 7.8 0 0 0 3.8 4c3.6 1.8 7.4 1 11.2.4.7-.1 1.4-.3 2.4-.5l-.6 4c3-.5 4-2.2 3.3-4.8-.2-.6.4-1.6 1-2.2 3.7-4.2 3.7-8.5 0-13a45.8 45.8 0 0 1-3.2-5l-.2.1a5.6 5.6 0 0 1 6.6 2.1l6.2 10.5c1-4.6 2.2-9-.7-14.4-1.4-2.6-4-4.5-4.8-7.3a12.9 12.9 0 0 1-.3-2.4 43.5 43.5 0 0 1-5-3.8c-2.6-2.6-5.4-4.7-9.3-5-3.4-.2-6.6-1-9.8 1.4-4.3 3.2-9.2 5.6-13.7 8.6-1.2.8-2 2-2.8 3.3l-8 10.7a3.9 3.9 0 0 0-.8 2.5c.8 5.7.4 12 4.7 16.6 1.6 1.8 3.5 3.3 5.2 4.8l-10.6 3.6 2-4.8a53.4 53.4 0 0 0-1.2-5.7l-4.7-13.7c-.6-1.8-1.5-3.7-1.3-5.4a58.3 58.3 0 0 1 2.3-9.3l2.7-8 4.7-11.2 3.7 5.3.4-.3c-1.3-3.8-3-7.4-3.7-11.3a48.4 48.4 0 0 1-.9-13.1 28.9 28.9 0 0 1 9.4-18.6c.8-.7 2-1 3.2-1.4l-.1-.1-8 11.2c-2.7 5-3 10.8-2.2 16.4l1.6 11.2a28.6 28.6 0 0 0 1.4 4.3c3.8-1 7.5-2.8 11-2.8 6.5.1 8.7-3.5 10-9 .5-2.5 1.5-5 2.2-7.3 2.3-8 7.5-13.8 14.4-18 2-1.3 5-1.7 7.4-2.5-1.6-3.7-3.7 2-5.5-.5l3.5-4c3.5 2 7.4 4 10 7.8l7.2 12c3 7 1.2 11.6-5 15.8l-15 11c-1.5 1-2 2.2-.6 3.8l5 6.6c.4.5 1.3.6 2 1l2 10.3 5-.3zm-24-36a59.4 59.4 0 0 0 1.7 6.4c1 2.5 2.5 3.4 5.5 3.2 7.8-.7 13.2-5.3 18-10.5 5-5.5 2.6-12.6-4.6-14l-2.4-.6c-9.6-2.2-18.3 4.7-18.2 15.7zm99 96.8l-3.3 1-5.2-4.6-1.3 3c-.1-.1-.3-.2-.4-.3-1-3-1.8-6-4-8.7s-4.3-5.6-6.7-8.4c-2.5-3-10.3-4-13.5-2-2.3 1.4-5 2.3-7.4 3.7-3.8 2.4-7.5 5-9.2 9.5a5.5 5.5 0 0 1-2.1 2.2c-2.7 2-3.3 4.5-3 7.5.5 6.3 1.7 12.2 8.4 15.5l-8.2 3.3c1.8-2 1-3.5.1-5.6-.8-1.8-.6-4-1-6.2a4.6 4.6 0 0 0-1-1.8 2 2 0 0 0-1 .4 5.2 5.2 0 0 0 .5 1.8c1.5 3 1.5 6.3-.5 8.5-2.6 3-6 5-9.3 7.3l-1-1a13 13 0 0 1 1.5-2.6c1.3-1.3 2.8-2.4 4-3.8 2.7-2.8 3-6 1.7-9.5a3.4 3.4 0 0 0-1.3-1.6 14.5 14.5 0 0 0-18.1 2.6 11.5 11.5 0 0 1-2.4 1.6c11.7 7.4 16 13.3 15.3 24.3-.2 4.8-2 9.7-4 14.2-2.2 5-6.6 8-12 9.2l-15 3 .3 2-11 1c.4.8.8 1.2.8 1.7a8.7 8.7 0 0 1-.4 1.9c-.6-.4-1.4-.7-1.7-1.3-1.7-4 1.5-5.6 3.5-7.8l7 3.2.7-1-5.7-4.2.2-.6 7 2.2c-.2-4-3.6-3.5-5.8-6 1-1.8 2.2-4 3.6-6a2.4 2.4 0 0 1 2.3 0c4 4 9 3.7 13.2 1.6 5-2.4 7.6-7 8.8-12.5 1.2-5.8-1-10.2-5-14-1.6-1.6-4.3-2.4-6.6-3-4-1-12 2.4-14.5 6.3l-4-8.8c2-1 4.2-2 6-3 .6-.3 1-1 1.6-1.3 1-.5 2.4-1.3 3.5-1.2 4 .4 7-.3 9.2-4a24.5 24.5 0 0 1 13.7-10.7 2.8 2.8 0 0 0 .7-.6l-1.2-3 .6-.6a29.2 29.2 0 0 0 3.5 2.1 12.4 12.4 0 0 0 2.9.5l7.4 11.2c.2-1.5.1-3-.6-3.7-2.7-3-2.2-6.2-1.4-9.5l1.4-5-7 7.2-3.2-4c4.2-4.2 7.4-10 14.5-10.7a4.7 4.7 0 0 0 2.9-2.3H320l1.3-1.2-3-1 4-3.6-4.8-3.5.6-1 3 1.3a95.5 95.5 0 0 1 8.3 4.9c2 1.4 3 1 3.5-1.2a22.9 22.9 0 0 1 8.6-12.5c-3.5 4-6.6 8.2-8 14h2.6c1.6-.1 3.3-.7 5-.4 6 .8 11-.4 16.6-3 6.7-3.2 13-1 18.6 3.7 3.8 3.3 5.2 7.7 6.4 12a6.6 6.6 0 0 1-.4 4.2c-1.3 2.8-3 5.4-4.5 8zm-9.5-7l2.5-5a6.2 6.2 0 0 0-.3-7 6.5 6.5 0 0 0-6.7-3c-1.8.2-3.7.7-5 1zm-145.8 87.4c-3-.2-5.6.2-5.3 4.4.1 1-1 2.5-1.7 3.6-5.2 7-10 14.4-17.5 19.4-1 .8-1 3.2-1.6 5a6.4 6.4 0 0 1-1.5 2.5c-1.8-5.6-1.8-5.6-8.3-6-12.2-.5-22.4-4.7-29.2-15.4-3-4.8-3-5.3 1-9.5 1.7-2 3.2-4 4.8-6.2 6.3 3.7 12.8 6 20.3 5l-3.7-.4c-11-1.3-19.8-6.7-26.4-15.4-1.4-1.8-3.6-4-2.3-6.8-2.5-1.4-2.6-4-3-6.3-.6-3.8-1.7-8-.8-11.5 2.6-9.7 6.2-19 15.4-24.8 2.5-1.6 3.7-5.6 3-8.6a16.7 16.7 0 0 1 0-3.5l-2.5.4a2.5 2.5 0 0 1 .1-.6c1-.1 2.2-.6 2.5-.2 2 2.8 4.5 1 6.8.7a48.7 48.7 0 0 1 6.7-.1c1.4.1 3 1 4.2.8 6-1.5 9 3.2 13.6 6l-18.7-2-.1 1.2h7.5v1l-7.2.3c-1.4 3-4.3 3.8-8 2.4-1.8 1-3 2-4.4 2.8-5.2 2.5-8.5 6.8-11 11.7a42.7 42.7 0 0 0-2.1 6.2c-.7 2.2-1.4 4 .6 6.2 1 1.2.4 3.7.7 5.6a39.2 39.2 0 0 0 10.7 21.7 32 32 0 0 0 20.6 9.6c5.8.6 10.4-2.8 15-5.8 1.4-1 2.7-2.6 4.7-.4a33.9 33.9 0 0 1-19.3 10c10-.1 17.8-4.7 24.2-11.4l13 7-.5 1.8zM139 30.8l-13.2-4c6.4-12.4 30.6-14.6 40.4-3.8-4.2 3-8.5 6-10.6 11.5l10.4-2c1.5-.2 3-.2 4.6-.5a57.5 57.5 0 0 0 7.9-1.7c6.7-2.2 13.2-1.8 18.5 2.6 3.6 3 7.4 1.8 11.2 3l1 3.3c.6 2.2-1.3 5-3.5 4.7-4.3-.5-6.7 2.3-9.3 5-1-1-2-2-3-3-1.6-2-3-4-4.6-5.8l-.6.6 7 9.6-3 2.6c2-3.5-.4-7.3-3.3-9.4a41.7 41.7 0 0 0-10.3-5.6c-6.3-2-12.8-2.6-18.2 2-2.5 2.2-4.3 5.3-6.3 8-.2.2.4 1.5.8 1.6 9 2.3 15.6 8.2 21.2 15.3.1.1.2.1 0 0l9.7-5.2-1.4 4 7 1c-2 0-4.3-.3-6.3.1-4.7 1-9.8 1-13 5.5a2.3 2.3 0 0 1-1 .7l-4.7 1.6 2.8-3.6 3.4-2.8c-1.3-2.4-6.8-4.2-9.2-3.2-7 3-13.8 9.8-10.5 15.4h-7.2c-4.2 0-5.2-1.3-5.2-5.5.1-6.5 3.7-11.3 7.5-16.3l-1.4-3.5 4.2-.6.3.6-1.5 1.3.3.7 7-3.2c-5-2.8-10-1.4-15-1l-.7-1 7-10.5c4.8-1.8 6.6-6.6 9.7-10l5-5.4c-4.2-2-7.4-5.6-12.3-3.4-2 .8-4.2.7-6 1.6-1.4.6-2.3 2.2-3.5 3.3-1 1-2.3 1.6-3.5 2.5zm300.4 266.4c1.6.7 3.8 1 4.7 2.3 1.7 2.2 3.3 2 5.2 1a21.6 21.6 0 0 0 9.3-9.1c1.2-2.2 3-4.4 3.3-6.7.2-1.7 0-2.6 2-3a16.4 16.4 0 0 1-2.5 10.5c-4.5 7.8-10.8 13.3-20.2 14.4-7.2.8-13.7-1.6-20.2-4-1-.4-2.2 0-3.2 0l-.1 1c-.3-.2-1-.6-.8-.7 1.3-4.3-2.3-7-3.3-10.7s-2-7-2.8-10.4c-.7-3-1-6.3-1.7-10-5.8 3.8-12.4 3.3-19.5 2.5l.6 3.4-3.4-1-1.5 2c0-.5-.1-.7 0-.8 2-3.2 1.6-4-.8-6.6a97.1 97.1 0 0 1-7.3-9.1c-.6-.8-.7-2-1.2-3.7 8.8 2.5 17 3 25-1l-2-1 8-3.7-1.6 2 5.6 2.4-.1.5-3.3-.3c3.6.5 3.5 3 4 5.8 1.5 7 4.4 13.4 9.6 18.6a10.7 10.7 0 0 1 1.1 1.5l-1.7 1.4 3 1.7 1-3.5c.8 3.7 4.4 3.3 7 4.3s5.5 1.6 8.3 3H432l-.1 1 4.3.7q.4 1.5.7 3l1 2.3h1l-.1-.1zm-8.6 2a29.9 29.9 0 0 0-.3-3l-1-4.7-2.2 5c0 .1.1.2-.1-.2zM210.6 167.4c-1.8-1.3-4.2-2.2-5.4-4-3-4-8.2-4-12.2-6.2-2.4-1.4-6.2-.5-9.4-.5-1.8 0-3.2-.1-4.4-2-10.3-15.3-9.6-33.4 3.5-45.7a3 3 0 0 1 1.7-.9l-5.7 8.4c-4 5.8-4 12.3-3.5 19 .3 4 1 8 1.7 12 1 5.6 4.2 8.2 9.8 8.3 3.3.1 6.7.6 9.3 1l-1.2-11.8c-.1-1.3-.3-3.7 2.6-3 .3.1 1.2-1 1.4-2l2.6-9a31 31 0 0 1 19.1-18.9l1.8-.8-2.7-1.3.6-3.5c2 1.5 3.5 3.4 5.4 4 4.8 1.5 6.4 6 8.8 9.3a29.4 29.4 0 0 1 4.4 10.7c1 5-.3 9-5.2 12-6.5 4-12.3 9.3-18.5 14-2 1.6-4.2 3-7 2-1-.4-2.5-.1-4-.1 0 .7-.4 1.6-.1 2.2 1.7 4 7.3 6 11.3 4.7 1.5-.5 3-1.4 4 .7l-8.6 1.5zm23.4-41.7l-11-2.5a14 14 0 0 0-15.2 16.9c2.3 9.3 4 10.6 12.7 7s17-10.5 13.6-21.4zm134-79.2l.8 9-.7.1a39 39 0 0 0-.3-4.7c-.2-1.2-1.2-2.4-1.2-3.6 0-4-4-5.7-5.3-9a5.4 5.4 0 0 1-.1-2c-1.6-1.3-3.6-2.5-5-4a13.5 13.5 0 0 0-9.2-5.3c-3-.3-6.2-1.4-9 1.7-1.6 1.7-4.7 2-7 3.2A28 28 0 0 0 318.5 43c-1.2 2.2-3.3 3.8-4.8 6-1 1.4-2.3 3-2.2 4.5a53.5 53.5 0 0 0 1.8 11.8 13.6 13.6 0 0 0 9.1 9.6l-11.7 4 2.6-1.7c-.8-4.4-1.3-8.8-2.5-13-1-3.5-2.8-6.7-4-10a11.3 11.3 0 0 1-1.1-4.9c1.3-11.4 7-20 17.3-25.3 2-1 1.6-2 1-3.4-1.4-3 .1-5.7 3.4-6.6 1.3-.3 2.3-1.4 3.5-2 .3-.2.7-.6 1-.6 3 .1 6.2.5 9.3.5a14.3 14.3 0 0 1 9.7 3.9 56.4 56.4 0 0 1 8 9.5c1.5 2 1.3 5.5 5.6 5l-2.6 2.2a85 85 0 0 1 4.9 8.1c1 2 1 4 1.4 6.2zM347.5 22c-2.6-3.7-11-4.4-15.5-1.7zm97.4 87c-2-1.3-3.6-3-5.7-3.7-3.8-1.3-8-2-11.8-3a34.3 34.3 0 0 1-13.2-6.4c-6.5-5.2-17-5.5-23.3.3l-10.4 10 9.8 4-.1.6-5.2-.3.4-.4a36.9 36.9 0 0 0-4.1-2c-.7-.2-1.7.3-2.4.1-7.4-2.6-14 0-20 4-3 2-5.6 5-8.7 7.3l8-9.2 6-1.6v-.7l-4-.5a96 96 0 0 1 10-.6c4.7.2 6.8-3 9.2-6 4.3-5.6 9-10.8 17-11.3a30.9 30.9 0 0 1 17.6 4.1c.5.3 1 .5 2 1 3-9.4 8.7-15.7 19.4-15.4s16.4 6.8 19 17a14.1 14.1 0 0 0 1.3-1.1 55 55 0 0 0 2-2.4 14.7 14.7 0 0 1 2.3 3.2 3.9 3.9 0 0 1-.4 3q-4 6.5-8.4 12.8c-.4.5-1.7.4-2.5.6H448c.7-1 1.3-1.8 2-2.7l5.6-7.5c.4-.7.2-1.8.3-2.7-.8.3-1.8.5-2.2 1a34.1 34.1 0 0 0-2.8 5c-1.2 2.6-2.7 4.6-6 4zm-16.6-15c-.2 3.5 2.4 7 5.5 7.2 5 .4 8.6-2.4 9-6.8.3-3.7-3.4-7.8-7.2-8-4.2-.2-7 2.6-7.2 7.6zm-365.8 5c-.8-.5-1.6-1.5-2.4-1.4-7.7.3-10.3-3-7.4-10.2 1.4-3.6 3.6-7 5.6-10.3.3-.5 1-.7 1.5-1L58.5 72H69v-.8a22 22 0 0 0-15.3 0c-.3-6 8.3-14.3 15.6-16.8a31.6 31.6 0 0 1 23.8.7c2.4-13.8 9.8-22.8 23.2-26.5-5.6 1.8-8.8 6.4-12.2 10.8-1.2 1.5-2.4 2.8-4.5-.3l-4.3 15.5c-.1.4.4 1 .7 1.5l9.3 11.5c1.4 1.8 1.3 3.4-.3 4.2-.4-1.5-.4-3.6-1.4-5a70.1 70.1 0 0 0-7.1-7.3c-.4-.4-1.3-.4-2-.4s-1.4.4-1.7.1c-2.3-2.3-5.6-1.7-8-3s-4.4-.4-6-.2c-2.8.4-7 2-7.6 4-1 3.4-4 4.7-5.4 7.5.1.3.1.6.3.7q7.5 4 15 7.8V76l6.5 8.2 9.5-4.8L97 83l2.8.5-13 3.4.2 1.2 4 .3v1l-9.5-.7a16 16 0 0 0 2-2.2 2.1 2.1 0 0 0 .2-1.8c-1.3-2-6.8-3.2-9-2a34.3 34.3 0 0 0-3.5 2c-4 3-8 6-7.5 12 0 1-.7 1.8-1 2.7zM265.8 179l-2.6-1.8.3-.2c-2-.6-4.3-.6-5.5-2-3-3.2-6.2-1.2-9.3-1.2a5.6 5.6 0 0 0-1.9.2c-1.2.4-3.5-.1-2.2 2.7-2.6-1.6-4.2.8-6.2 1.4l-7 .8c-4 2-7 .4-9.7-2.7 3-2.2 5-.5 6.6 1.2l4.7-4.2c-13.7-1-23.8 4.5-32 16-1.4-2-3-3.6-3.6-5.5-2-5.5-4.3-6.8-10.2-6.5-3 .2-6.2-1-9.2-1.2-3 0-5.8.7-9 .5 5 1.4 7-2.5 9.4-5 5-5.2 13.3-6.8 19.5-3.3 2.2 1.2 4.3 2.8 6.7 3.5s5 .7 8 1l-2.2-5c1 .6 2 1.8 3 1.6a35.2 35.2 0 0 0 5.9-2.2l5.5-2.2-.6 7c5.6 1 10.2-1 15-2.3 4.3-1.3 9-.7 14.2-1 2.3-7.8 6.6-15.2 14.4-19.8l1 .8-9 14c-3 4-2.6 6.8 1.7 9 2.8 1.4 5 3 4 6.7zM86 128.3c-6.4 1.2-9.8 6.2-13.6 10.8-1 1.2-2.8 1.6-4.6 2-2.6 6.4-5.8 13-5 20.6.2 1.4.4 3.5-2.2 3.3a21.4 21.4 0 0 0 .5-3.9 33.6 33.6 0 0 1 3.5-17.5l-3.8.5-1.5-14a6.8 6.8 0 0 0 .5-1.5 37.2 37.2 0 0 1 12.7-24.6c2-1.7 6-2 4.4-6.3.1 0 .3 0 .3-.1a9.9 9.9 0 0 0 .8-2.9c0-2.3-.4-4.6-.5-6.7l3.6.4-3 2.5h14.3c2.7.2 5.5.2 8 1a23.6 23.6 0 0 1 7.5 5.1 46 46 0 0 0-20.5-.3h11c-1 .5-1.6 1-2 1-3.4-1.3-6.2-.5-8.6 2.3-.5.5-1.7.4-2.5.5-1.4.2-3.2-.6-3.8 1.5a.9.9 0 0 1-.6.6c-6 .4-8.7 5.2-12 9-3 3.5-4 8-5 12.5-.1.5.1 1.6.4 1.7 4 1.6 2.8 5.3 3.5 8.2.2.7.4 1.5.7 2.4 3.2-2 4.8-3.8 4.4-7.7-.7-7.5 0-15 5.6-21a16.1 16.1 0 0 1 3-2l.8.7a15.6 15.6 0 0 1-1.1 3.6c-3 5-3.2 10.4-3.4 16-.1 3.5.7 3.8 4 2.8a20.5 20.5 0 0 1 3.8-.3zM277 13l1.3-2.3 3 3.4c2.8 2.7 6.4 2 9.7 2 4.3-.2 5.2.1 6 4a26.4 26.4 0 0 1-.7 15.3 5.9 5.9 0 0 1-2.7 2.6c.8-5 5-9.6.6-14.2h-1.4l.3 5c.1 1 .3 1.8.3 2.8a4 4 0 0 1-5.7 4.9l-6.4-.8c-3-.3-3.6-1-2.3-4 2.5-5.5-.8-11-6.5-11a6.2 6.2 0 0 0-6.2 8.2 60.4 60.4 0 0 0 3.1 6.9 46.4 46.4 0 0 1-6.8.6 4.3 4.3 0 0 1-4.2-3.4c-2.4-9.3 3.3-18.3 12.8-20.6a7.1 7.1 0 0 1 5.9.8zM222.2 253c2.2-2.2 2-3.5-.6-4.8-3-1.6-6.2-3.4-9.3-5.2l.6-1 11 6.5.8-4.5.4 7.3 5.6-2.8.2 3.3c-2.5.3-3 4-1 7.6 1.3 1.2 2.6 2.4 4 3.6.2.2 1-.3 1.4-.5.8.8 1.7 1.6 2.4 2.4s1.2 1.6 2 3l1.6-7.5a54.3 54.3 0 0 0 .1 5.8c.1 1 .7 2.5 1.3 2.7 4.5 1.3 8.8 4 13.6 3 3.4-.6 6.5-2.2 10-3 4-1 4.8-4 5.3-7.4l1 .4c-.7 2.7-.6 6.4-2.3 7.7-3 2.2-7 3-10.6 4.2-1.4.5-3 .5-4.3 1 6.6 1.2 12.3-1.6 18.2-4a22.6 22.6 0 0 1-10.5 7.5c-5.2 2-10.7 3.2-16 5a64.6 64.6 0 0 0-6.6 3c-1.3-4.2-5.6-6.3-9.5-8.6a37.1 37.1 0 0 1-13-12.6c-1-1.6-1.5-3 .7-4 2 .7 1.2 4.8 4.4 3.5l4.8 6.4 1-.7c1 3.2 6.3 6 10.7 5.6l.3-3.8 5.5 4 8-.7.2-1c-11.7-.4-20.2-6.7-27.6-15.3l-1 1.3 8 8.5a23.2 23.2 0 0 1-11.5-9.9h1.8l-1-5.8zm1.5-155.7c5.5-1.3 7-5.5 7.8-10l5-27.5c1.3-7-2-12.4-8.8-13.6-2.6-.4-6 1-8.3 2.5-6.2 3.8-11.3 8.7-13 16.3-.3 1.4-.4 3.3-2.7 3-3.3-.6-5.4-2.7-5-5a31.7 31.7 0 0 1 2.1-6.8c1-2.3 2-4.3-1-7l6 .7-3-2.6 9.7-2.8c-2.7-8.5 1-20.7 7.8-23.6L216.5 32c-1.5 3.4 1 7.6-1.6 9.8 5.7 1.6 12.4 3 18.8 5.4 2.4 1 4.5 3.2 6 5.4.8 1 0 3.5-.6 5.2a86.6 86.6 0 0 0-4.2 24l-.7 10.5c-.5 4-2 7.4-5.5 9.6-3 1.7-4 1-4.5-2.2-.1-.7-.3-1.3-.5-2.4zM384 140c2.7-2.2 3-5.4 1.4-8.6s-5.7-4.8-8.7-3.5c-1 .5-1.8 1.6-3 2.7-8.3-4.2-17.6-5.8-27.2-.7l-.4-.6a17.5 17.5 0 0 1 1.7-.9c5.6-2.4 11.4-2 17.3-2 1.4-.1 3-1.2 4-2.2 4-3.7 8.3-5.7 13.7-4.4a71.9 71.9 0 0 1 7.7 2.8l1.4-2.4c2 3.2 4.5 3.4 7.6 3a4.3 4.3 0 0 1 3.5 2.3 27.2 27.2 0 0 1-.8 19.1c-.1.3-.5.6-1.6.8a10.8 10.8 0 0 1 0-2.3l2.7-11.2c-2-1.4-5-.1-4.2-4l-1 .7a12 12 0 0 0 0 2l1.6 9.5c.2 2.7-1.5 4-4.2 3.7a67.2 67.2 0 0 1-8.3-1c-1-.2-2-1.6-3.3-2.6zm-30.6-93.7c2.8-1.3 4.2 2.3 6.7 2 2.4 4.8 5.7 9.3 6.2 14.8.1 1-1.3 1.8-1.6 2.8a18 18 0 0 1-15.6 13.6 7.1 7.1 0 0 1-5.2-1 49.9 49.9 0 0 0-7.9-3.2c-4.6-1.5-6.5-5-7.2-9.4l-1-10.7 2.6 1.4 2.8-5 1 .2 2 13c.5 2.3 5.2 4.8 8.2 4.6l5.5-.7c3.8-.6 4-.3 3 3.5 2.4-.2 4-2 4-4.6a5.5 5.5 0 0 1 .7-2.8 7 7 0 0 0 .6-10.6l-4.7-7.4c0-.1.1-.1.1-.2a2.8 2.8 0 0 0-.1-.4zM225 360c1-.5 2-1.3 3-1.4 2-.2 4.3-.1 6.5-.4-3.5-2.3-7.5-1.8-11.3-1.8l.1-1c3.7.4 7.6.3 11.2 1.2s7 3 9.5 4l2.8-2c-.7 2-.6 4.8-3.7 4.3a24.8 24.8 0 0 1-.4 18.3c-1 2.4-3.2 2-5.4 1.7l3-10.8c.8-3.8-2-9.6-6.5-9.8a89.9 89.9 0 0 0-10.2-.4c-1.8.1-3.5 1.3-5.2 2.6 3 1.6 7 0 8.2 4.8l-8.6-.5-.7 8c2.8.6 5 1.5 7-1.2 1-1.3 5.8-.3 7 1s2 1.7 2.4-.6l2.6 2-2 3.3-7-3c-2.3 3.7-5.4 3.4-9-.3l.5 4.8-3 1v.6h5.5c-9 2.3-12 .7-11.7-6a13.4 13.4 0 0 0 1.5 3.5 6.1 6.1 0 0 0 3.3 1.6c-3.4-4.7-3-9.7-2.4-15l-1 4c-2-7.3 3.2-15.4 9.7-14.2l-2.2 2h6.6l11 1.2V360c-3.6-1.3-7.2-1.7-11 0zM148 39.4l-1.2 1.8c-2.4 1.2-4.7 2.8-7.2 3.5a19 19 0 0 0-8.6 4.6c-2 1.8-3.3 3.6-2.6 6.4l-6.3-1.5c-3.7-.7-5-3.2-3.8-7 1.7-5.4 5.8-8.7 9.8-12 1.8-1.5 2-2.8 1.3-5 1.5.8 5-1.3 3.4 2.6l7-1-1.2-1.3a14.5 14.5 0 0 1 9.3 8.7zm-42 91c-4-1-7.5-3-11.7-2.4-.5.1-1-.7-1.6-1a27.8 27.8 0 0 1 16-10.5c6.6-1.7 13-.5 19 1.7a32.4 32.4 0 0 1 9.9-17.2c2.2 3.4-.5 6-1 8.7-.6 3.8-1.5 7.5-2 11.3-.1.7.6 1.7 1 2.5 3 4.8 6.3 9.5 7 15.4a4.8 4.8 0 0 1-.6 2.7 14.7 14.7 0 0 0-3.5-10.2c-2-2.7-4.8-5-7.5-7.5-1-.3-3.3-.3-4.3-1.3-4.5-4.4-9.4-1-14-.6-2 .2-3.6 3.6-5.7 4.8s-2 2.2-1.2 3.8zm307.5 164.2a29.3 29.3 0 0 1-16 6l-17.3.2c-1.6 0-3 .8-4 .7l-6.6-9a220 220 0 0 1-9.5-14.7c-1-1.6-2.3-4.4 1.2-5.4 3 5.5 4.8 11.2 9.8 15.5a24.8 24.8 0 0 0 6 4.3c1.5.7 2.8 1.2 4-.6.3-.5 2-.4 3 0 7.5 3.6 15 3 22.7 1a16.9 16.9 0 0 0 2.6-.8c3-1.4 2.4 1.8 4.2 3zM139.3 265c-9.6.8-18.4-1-24.8-9-1.5-2-2-4.7-3.3-6.8-4.2-6.5-3.7-13.3-1.5-20.2.1-.5.3-1 .5-1.5l6.2-16.2c.7-1.7 3.3-2.8 1.6-5.3l3-1.3c-.7-2.3 1.6-2.4 3-3a31.1 31.1 0 0 1 6.2-1.8 54.1 54.1 0 0 1 8.8-.8c1 0 1.8 1.3 2.7 2a18.6 18.6 0 0 1-2.3 2.2l-12.5 8.3c-.7.4-1.2 1.3-2 1.5-5.7 1.2-8.4 6-11.3 10.2-3 4.4-3.2 10-3.3 15.2-.2 6.6 2.7 12 6 17.3 3 4.8 8.2 6.2 13.4 7.2zM363 177l2.5.6c0 2 2 4-.5 5.8-1 .7-1.2 2.5-1.7 4-2.3 5.7-7.5 6.8-12.6 8-.5.1-1-.4-1.7-.6-2-1-4-2.2-6-2.7-4.6-1.2-6.7-4-7.4-8.5-.2-1.6-.8-3.2-1-5-.1-1.2-1-3.3 2-2.7.3.1.8-1.3 1.2-2l1.6-2.5 2 10.2c.5 2.8 3.5 5 7 4.8l7.6-.7-.7 3.3c2.8-.3 2.7-2.5 3.3-4 .3-.7 0-1.8.4-2.3 1.5-1.7 2.8-3.3 1.8-5.7l1-.3zm-222-23.3l9.7-12 2 .3c.5-2 2.8-2.7 5.2-2.3a9.3 9.3 0 0 0 4.8-.4c2-.7 8.2 1.2 9 3s-.2 2.3-2 3a96.6 96.6 0 0 0-13.7 6.3c-2.2 1.3-3.5 4-5 6s-3.4 2.4-5.4.5l-4.7-4.4zm25-81l.2.2-2.4 4.3c-1.5 2.8-3.7 5.4-2.4 9 .3.8-.5 2-.7 2.8l10 4.3-23.2-2.6 2.3 2.6a29 29 0 0 0-21.3 12.7l-.6-.5 6-7.4c4.3-4.5 4.4-4.5.6-9.6l12.2-1.5v-1a49.9 49.9 0 0 0-6.9-.6c-2.3.1-4.6.8-7 1 5-2.3 10-1.8 15.3-1.3a35.5 35.5 0 0 0 5.5-.3v1.8c2.8-3.7 5.2-7.3 8-10.7 1-1.3 2.8-2 4.3-3zM94.8 229.3l-1.2 14a25.6 25.6 0 0 0 3.3 14.8c2.8 5 5.4 10 4 16.6-1.5-1.4-3.3-2.6-4.4-4a47 47 0 0 1-8.9-26.9 48.1 48.1 0 0 1 1.6-10c.6-2.8 2.4-4.4 5.6-4.4zM448 112l.3.1 5.3 7-16.7 5.6a65 65 0 0 0-1.5-6.4 4.9 4.9 0 0 0-2.1-2.2c-.6-.4-1.6-.1-2.4-.3a4.6 4.6 0 0 1-3.5-5.2c.1-1 2.5-2 4-2.3 4.5-1 9 .3 13.5 1l-.1-.1zm-327 45.8l-5 13c-2.2 6-1.3 12-.1 18 1 4 1.5 8.4-1.4 12.8a15 15 0 0 1-1.7-2.4 50 50 0 0 1-3.6-21.2c.1-7 2.6-13 6.3-18.6.8-1.3 3-1.8 4.3-2.6zm-5.5-89c.1-4.8 5-2.7 7-5.2l-2-1c.1-.1.3-.3.4-.3 1-.3 2.2-.3 3-1 2.8-2 5.5-4.4 8.6-6.3-5 3.2-6.5 8.7-8.6 13.8-1 2.2-1.6 2.7-4.3 2.4-1.5 7.5-.7 15 0 22.4-3.5-7.5-3.3-15.2-1-23-3 5.2-3 11-2.6 17.3l-9-4.4 5-10.3c.3-.6 1-1.5.8-2-1.2-3.2.8-2.6 2.6-2.3zM359 268.7c-6.8 5-18 4.7-25.6-.8l6.3 1 .4-.7-8.3-5.3a12.6 12.6 0 0 1-5.2-6.9c-.5-1.8 4-3.6 6-2.3a26 26 0 0 1 5.1 4.6 25.6 25.6 0 0 0 12.1 7.8l9.3 2.7zm-189.6-75l-3.7 17c-1 7.5 2.4 14.3 4.7 21.2a25.9 25.9 0 0 1 .6 4.6c-4.4-1-5.2-4.4-6.6-7a36 36 0 0 1-4.2-18c0-6.4 2.4-11.8 6-16.7.6-.8 2.3-.8 3-1zm6.8 322l-3-1.3c.8-6.3 1.8-12.6 2-19 .2-3.5-.8-7.2-1.6-10.7-.7-3.3-3.4-2.6-6-2a2.8 2.8 0 0 1 .2-.5c5.3 0 4.7-4.3 5.5-7.5a35.6 35.6 0 0 1 2.5-7.7c.5.8 1.4 1.6 1.5 2.5l1.2 15.4c.2 4.8-.2 9.6-.1 14.4 0 1.4 1 2.8 1.3 4.3.4 4.5-3 7.8-3.6 12.2zm27.4-487.3c3.3-3.6 6.4-7.4 10-10.7 2.3-2.2 4-5.4 3.5-8.5a27.1 27.1 0 0 1-.1-3.9 6.5 6.5 0 0 0 6.6.5 10.1 10.1 0 0 1 4.8-.7 95 95 0 0 1 12 2.2c1.7.4 3 2 4.4 3.5-7.4.2-14.7-1.7-21.4 2.2H221l-1 4.4c-4-.3-6.7 2-9 5.3l-6 8.2-1.4-3zM368 46.5c3.5-1 6.7-3.6 10.6-1.6.6.3 1.3.7 1.5 1.3 2.5 6.3 1.6 12.5-.2 18.8l-.8 2.7-1.6-1.3 2.2-9.5c.4-2-3-6.8-5.2-7.3a8.3 8.3 0 0 0 .9 2.7c2.2 2.7 1.7 6 1.7 9 0 1.3-1.4 3.4-2.5 3.6-1.8.4-4-.4-6-1-.2-.1-.1-2 0-2.8.8-5 1.3-9.8-.7-14.6zm-60 174a10.1 10.1 0 0 0 .2 2c2.5 6.3-2 9.7-6 12.6-3.3 2.4-7.5 3.8-11.4 5.3-2.4 1-4 1.8-4 4.7a12.4 12.4 0 0 1-1.6 5.9l1-7.5-.6-.2-2.2 5.6-.5-2-2.8 1.3-.6-.6c.6-1 1-2.6 2-3.2 1.8-1 1-2 .2-3-2-2.7-1.5-4.6 1.8-5.4a25.1 25.1 0 0 1 2.8-.4c9.5-1.3 16.4-6.4 21.6-15zM182.2 102.3c4.6-2.2 8.3-5.2 12.4-6 6.5-1 13.3-.6 18.6 5.2-11.5-2.8-19.5 3.8-27.7 9.8 1.8-3 1.6-4.4-1-6.4a27.5 27.5 0 0 1-2.4-2.7zm43 87L222 206c-1 4.8.5 9 3.2 13a15 15 0 0 1 2.5 4.6c.2 1-.6 2.6-1.4 3.5-.3.4-2-.2-2.8-.6-.5-.2-.8-1-1.3-1.2-2.2-1.6-3-3.4-3.2-6.4-.2-4.2-1.8-8.4-2.4-12.6-.3-2-.3-4.3.6-5.8a113.6 113.6 0 0 1 7.2-10.6c.2-.3.8-.3 1-.3zm134.5 93.3c-2.4 2.4-7.4-1-8 4.4-4.3-1.8-6.4-7.3-11-6.7l-6.5-7.4c2.3.8 5.3 0 6.2 3.4.3 1 1.6 2 3 .3a4.4 4.4 0 0 1 2.7-1.4l9.6-.7c.7 0 2 .4 2.2 1 1 2.3 1.5 4.8 2 7zM243.4 244l-8-2.5a32.3 32.3 0 0 1-15.6-9.7c-.7-.8-1.3-1.7-2-2.6l18.2 9.5c6.8 2.5 14 1.2 20.4-2 5.7-3 12-5.5 15-12.2l1 .6a22.6 22.6 0 0 1-1.9 3.8c-5.8 8-14 12-23.4 14a29.7 29.7 0 0 0-3.5 1.1zm131-10c-.7 12 6 18.5 15.7 23.2-6 .6-11.6.5-17-2.8l3-.8-4.5-5.7c-3-2.6-3.4-3.6-1.7-7 1-2.2 2-4.6 3-7zm0-60.7v-.1l9.7 11c-7.3-1-12.8 2-18.4 4.5l4-16.5zM128 280.8c-.5 1-.8 2.6-1.7 3.4-9 8.5-19.7 10-31.4 6.8-.8-.2-1.5-.6-2.3-1C87 288 87 288 89 282.3l9.7 6a21.9 21.9 0 0 0 9.7 1 34 34 0 0 0 18.6-9zm184.2-50l1.8.7c.3-2.5 1-5 1-7.2-.4-3 1.7-4.3 4.2-5.8l-1 11a10 10 0 0 0-.3 2.6c1 6 4.5 10.7 9 14.6 1 1 2 2 3 3 2.4 2.3 5 3.8 8.7 3.4s7.2-.1 11-.1l.1.8a40.8 40.8 0 0 1-6 .9c-11.2.1-19.6-4.7-25.2-14.5l-6-9.3zm32.4-31c-2.4 3.7-5 7-6.8 10.8a58.9 58.9 0 0 0-3.4 10.8c-.7 2.8-1.4 5.5-.8 8.6.6 3-.1 6-.3 9-2.8-3.4-4-16-2.2-20.8 5.2-13.8 8-17.5 13.5-18.4zM62 100l-4 10.8c-2 5.4-1 10.7 1 16a20.5 20.5 0 0 1 .7 3.5l-5-6.4a29.4 29.4 0 0 1 .7 4.8 10 10 0 0 1-1.1 3.1c-1-.5-2.3-1-2.7-1.7-.8-1.6-.6-4-1.7-5.2s-3.3-1.3-5-2.5h7.6c2 .1 2.5-.8 2.8-2.7a158.9 158.9 0 0 1 3.5-15.6c.4-1.5 2-2.7 3.2-4zm-29 15.7c-7-12-4.4-31 9.3-39.8l-6 12.7c-.4.7-1 1.7-1.8 1.8-3 .3-3 2.3-2.8 4.5l.6 14.8c.2 2 1 4 1.8 5.8zM291.5 9.3c-4.5-1-6.5-6.7-12.2-5.4-3-5-9-1.7-12.4-3.7l12 .1V1l14.4 1.4v1l-5 1.3c7-.5 13.8 0 20 3l-19-2.2-.3.8zm-4 247c1-3 1.4-5.5 2.6-7.6a9 9 0 0 1 3.9-3.4c.5-.2 2 1.2 3 2 1.2 1.4 3.6 2.4 1.5 5.2h3.5l.1 1zm-142-40.8l-3-4.8c-1 3 2.2 6.2-1.4 9.2-1.2-1.8-3.5-3.7-3.3-5.3.3-3.6-1.7-3.2-3.8-3.4-.2 0-.3-.3-1-1h7c2.3.2 3-.7 3-3a27.8 27.8 0 0 1 5.7-17.9c-4 8.3-5.4 17-2.2 26zm-61 11.3l2.3 3.3c-5.7.4-6.3 4.6-7.2 8.4-.8 3.6-1.3 7.2-2 11a31.4 31.4 0 0 0-3.1-2.2 3 3 0 0 1-1.8-6 37.3 37.3 0 0 1 10.8-13c.4-.3.6-1 1-1.4zm86.3-133.5l.1.2c-2.3-7.6.3-18.7 5-20l-1.2 20.8zm299.4 117l2.6-6.5c2.5-.5 4-2.5 5-5a16 16 0 0 1 2.5-3.9c1.7-2 2.8-6 1.7-8l3.5-2.6c-.6 7.8-2.7 14.4-7.8 19.8l-4.7 5a10.2 10.2 0 0 1-2.9 1.3zm-250 61.5l-7.3 3 .3 3.6-6.3-3 8.4-11.2zM179.3 157l-11.5 5c.5-5.2 2.6-9.5 5.6-13.8zM441 129a33 33 0 0 1 18.6-7.6 20.2 20.2 0 0 1 14.1 3.6l-3.7-1c-9.2-1.7-17.5.2-24.6 6.4-2.6 2.3-3-1-4.3-1.5zM183.3 495c4.4 3.4 1.7 7.5 2.6 11.4l-2.2-.6-1.3 48.3c-.3-2.7-1-5.4-1-8l1.8-41c.2-3.4.1-6.7.1-10zm-22.2-216.5l-12.5-3.7a1.1 1.1 0 0 1-.6-.6c-1-3-3-4.4-6-3.4l.4-4.4c.1-.5.2-1.3.6-1.5 6.8-3.4 11.6-9 16-14.8a8.3 8.3 0 0 1 1.4-1 19 19 0 0 1-6.5 9.6 47.8 47.8 0 0 1-4.9 3.7c-2.3 1.6-5.2 2.8-4.5 6.7l3 2-.5-4.8c.1 6.4 4.5 8.5 9.6 10a31.9 31.9 0 0 1 4.3 2zm216.4-106l.3-.5c3-1.4 6-2.7 5.7-6.8 3.3-1.3 1-3.5 1-5.4 0-1 .3-2.8 1-3 2-.8 3 1 3.3 2.6a6.2 6.2 0 0 1-.5 3c-1.8 5.6-5 10.3-10.3 14.8zm-87.8 337.4l-2 2.8-1.3-.7c.2-10.7 1-21.4-1.4-32.5l3.2 1.7c-.5 1.3-1 2.2-1 3l1.7 9.6c.3 2.3-.1 4.6 0 7l.6 9.3zm88.4-312.8c2.8-2.3 7 1 7-3.8 7.3 1.8 8.7 3 8.6 8.2l-8-2.2c-1.5-.4-3-.6-4.6-1a28.6 28.6 0 0 1-3.1-1.2zm-122-152c.1-.5-.1-1.2.2-1.4 6-5 13.3-6.3 21-5.7-8.5-.6-13.4 6.5-20 9.6l1-3.7-2 1.2zm-13 199l5.3 1.8-1.3 8.7-1 .1-4-6-.2.5c-1-.6-2.7-1-2.8-2-.4-3 1.8-3.2 4-3.2zm146-167.2l5.3 3.2a7.2 7.2 0 0 0 2.2.9c1.8.3 4.2 3.4 3.7 5-.2.5-1 1.3-1.5 1.2-2.8-.4-5.5-1-8.5-1.7.8-2.8 2.2-4 4.8-2.6-.8-3.3-6.4-.8-6-6zm-21 112l4-.8c5-1 10-2.7 15.3-3 4.3-.2 8.6 1 12.8 2.2l-32 2zM253 384.5c-2 2.8-3.8 5-6.8 4.7l2.5-14 1-.2a20.1 20.1 0 0 0 .6 3.1c.7 2.2-1.3 5.5 2.7 6.4zm-21.3-205.7l3.6-.4 1.6 2.6c-9.6.2-15.7 6-21 12.6.2-3.7 4.4-7.8 15.7-14.8zm74.8-58.5l9.5-1.6a32.8 32.8 0 0 0-4.7 3c-2.4 2.2-5 1-7.8.3l.4 2.6-7 1.6c2.4-4.2 6-5 9.5-6zM240.8 84c-3.6-4.4-1.4-9.5-1.3-15 3.7 5 .5 10.2 3 14.7zM363 177l-1.2-.3-4.8-6.4c-.7-1-.6-2.7-2.5-2.4l.2-1.4c4 1 6.3 3.8 8.6 6.6 1.2 1.5 1 2.8-.4 4zm-127.8 1.5l.1.1 3.2-.5a28 28 0 0 1 19.4 2.2 6 6 0 0 1 2.4 2.3c-8-4.3-16.7-3-25-4zm40.4-12.6a29.8 29.8 0 0 1 4.1-3.4c4-2.2 8.2-2.8 12.2-3L277 167l-1.6-1.3zM485 181l-11.5 10c-1.7-3-2-4.5 1-5.6l10-4.8zm-118 86.7l4.5-4.2c4 3.7 4 3.7 3.7 8.4-2.4-1.3-3-6-7.4-3.2zM265.8 179l-.1.2c2.2-3.8 4.2-7.7 6.5-11.3.6-1 2-1.4 3.2-2h-.1c-1.5 2-3.2 3.7-4.6 5.7a22.7 22.7 0 0 0-3.9 14.2c-2.3-1.8-2.4-2.4-1-6.8zM203.5 28.3V28c-1.4-.6-3.5-.8-4.2-1.8-1.7-2.6-4.3-3-7-3.7-1.2-.3-2.4-1-3.6-1.3l.4-.8 6.4 2.4 5.8-8.3-4 8.5zM159 517a7.2 7.2 0 0 0 4.8-7.7l6.6 5-1.2 1.4c-4-4-6.5 1.6-10.2 1.2zm87.7-158.4v-.1c1-1.5 1-1.5 4-.3l.6 11.2 1 .3-3 1.8.3-4.2c.4-3.3.7-6.7-3-8.6zm76.3-111l-1.4 5 4.8-2 .3.8c-4.3 5-10 2.6-15.3 2.5 5-.1 10.6.8 10.5-7.4zm-25-111.3c-1-3 1.5-6.2 5-7.7l-1.4 7.5zM221 13l12.8-.8c-2-.1-4-.7-5.8 1.7s-4.3 1.8-6.7.6c-.3-.1-.2-1-.3-1.5zm107.2 255.7c-5.2 5.3-11.4 6.2-17.7 7zm-6-181l1.3-2.8-3.2.4V85l10.8-4 .5 1-9 6.4zm-16.4 186.7c-3.8.8-6-2.2-8.8-3.6a13.6 13.6 0 0 1-7.3-10c3 6.3 8.7 10 14.4 13.3a5.1 5.1 0 0 0 1.7.3zm-53.2-126.2l-3.7 1-.1-.4 10.6-4 .4 1-8 6-.4-.4zM374 258a25.8 25.8 0 0 0 1.4 4.1c1 2 2.3 3.6 3.4 5.4a3.6 3.6 0 0 1 .1 1.9c0 .1-1 .4-1 .3a12.1 12.1 0 0 1-.8-1.5 27 27 0 0 0-2.4-4.1c-2.7-3.2-2.8-3.2-.7-6zM88.6 215l-1.5-2a5.1 5.1 0 0 1 6-2.6c1.3.3 3.3 2.4 3.2 2.7a38.7 38.7 0 0 1-4 5l-1-1 2-1.5c.7-.5 1.6-1.3 1.5-1.6a3.6 3.6 0 0 0-1.8-1.9c-2.3-1-4 .1-4.7 3zM81 76v.1c1.8-1 3.5-2.4 5.3-2.5 1.4-.1 3 1.5 4.5 2.3L88 80c-.3.4-1 .4-2 .2a9.5 9.5 0 0 0 1.4-1.2c.7-.8 1.3-1.8 2-2.6a18.9 18.9 0 0 0-4.4-1c-1 0-2 1-3 1.4-.2.1-.7-.4-1-.6zM241.8 41c-2-6-3.8-12-2-18.2zm-5 61l-10 5.5-.6-.8a30.6 30.6 0 0 1 4.5-3.6 33.5 33.5 0 0 1 5.6-1.9zm166.3-17c1.2-6.2 4-11 8.2-14.8zM296.7 240.7l7 9.4c-3.3-1.2-7-5.5-7-9.4zm6-129a25.5 25.5 0 0 0 2.6-1.1c1-.6 2-1.3 3-1.8l6 3h-11.7zM270.8 185c5-2 10.3-3.5 16-3zm-33 182.8l-5.7 1c-.6 0-1.2-.6-1.7-1 .5-.6 1-1.6 1.4-1.7a59.3 59.3 0 0 1 6 .1zM8.8 220c-.1-2.3 2.8-5.2 6-6-.4 3.7-3 5.2-6 6zm154 287l1.2-9 1 .1c1.2 5.6.8 8.3-2 9zm11.5-446.4a6.7 6.7 0 0 0 1.2-.9l2-2.6c-1.4-.5-2.7-1.3-4-1.3-1 0-2 1-3.3 1.8a3.4 3.4 0 0 1 3.9-3.5c1.5.1 3.7 1.3 4 2.6 1 2.6-1.5 3.5-3.8 3.8zM242.6 385c-5.4 2.5-10-.8-15-.4l.1-1zM223 41c-.5-5.7.3-10.6 3-14.8zm55.5 422.6l1-5.2 1.8 3 .3-2 .5-.1 1.2 3.7zm59-267l-6.4 4.4-1.6-2.4 7.8-2.6zM235.4 262c-.5.2-1.2.6-1.4.5-1.4-1-2.7-2.4-4-3.6l-.3-2.3 6 4.3c.1.1-.2.7-.4 1zm-29.7 114c-1.6-3 0-6.2 0-9.4l1.3 9zm121.5-111.5l-6.4-7.3 1-.7 6.2 7.4zM117.7 140.4c2.4-1.7 5-2.8 7.6-.7.8.7 1.2 2 1.4 3.4-2-3.4-4.6-3.5-7.6-2.2-.3.1-1-.3-1.4-.5zM119 109a18.8 18.8 0 0 1-3.3 2c-.5.2-1.3-.7-2-1 .4-.5.6-1.3 1-1.5a26.7 26.7 0 0 1 3.8-.6zm303.5 72c4.3.6 8.7 1.8 12.4 5.5zm-355 59.4c1.7 3.7 3-1.3 5-.2l-3.2 4.2-2.7-3.6zm93.8 38a17.5 17.5 0 0 1 3.4-1.3 3.6 3.6 0 0 1 2.5.6c.3.2 0 1.5-.4 2a4.7 4.7 0 0 1-1.4 1.2l-4-2.6zM168.8 69l-5.6 2.4c.3-3 1.3-3.6 5.6-2.5zm121 440.6l8.4 4.4-.3.7-7.7-3.6c-.3-.1-.2-1-.3-1.6zM117.2 263L109 260l.3-.8 8.3 3.3z"/><path d="M305.6 274.5v.8h.3v-1.8l3.3 2.2-4.2 2.4-.6-.4 1-3zM286 465.8l.2 8.2-1-8.2zm-107-447l7.7 1-.1 1-7.8-1.4zm258.6 278h.1l.2-2 .7-.1v1.2zM282.8 111l.2-.1-.2-.4.2.1z"/><path d="M436.8 294.5l1.3-.3V295 295zm2 1.6l.7.8-.7-.1.1.1v-.7z"/><path d="M438.7 296.7l.7.1a2.9 2.9 0 0 0 0 .4zM353.4 46.3a2.8 2.8 0 0 1 .1.4c0 .1 0 .1-.1.2a.5.5 0 0 1-.1-.6zM438 295l.1-.7h.6l-.1.6.1-.1zm.7 0l.1-.7zM114.2 152l-5.6.4-.3-.6c1-.5 2.2-1.5 3.4-1.5.8 0 1.7 1 2.6 1.7zm-27 15l10-6.5c-2.8 5.7-7 8.6-10 6.6z"/></svg>