<?xml version="1.0" encoding="utf-8"?>
<!-- Generator: Adobe Illustrator 19.1.1, SVG Export Plug-In . SVG Version: 6.00 Build 0)  -->
<svg version="1.1" id="Layer_1" xmlns="http://www.w3.org/2000/svg" xmlns:xlink="http://www.w3.org/1999/xlink" x="0px" y="0px"
	 width="612px" height="792px" viewBox="0 0 612 792" style="enable-background:new 0 0 612 792;" xml:space="preserve">
<style type="text/css">
	.st0{fill:#FFFFFF;}
</style>
<g>
	<path class="st0" d="M248,454c0-38,0-76,0-113.9c39.3,0,78.7,0,117.9,0c0,38,0,76,0,113.9C326.6,454,287.3,454,248,454z
		 M332.6,357.9c0.3-11.6-8.8-18.2-17.4-13.3c-15.4,8.6-30.6,17.6-45.3,27.2c-8.1,5.3-14.8,12.4-18.9,21.5
		c-3.2,7.1-0.2,15.9,6.5,19.3c2.7,1.4,5.1,1.3,6.1-1.8c2.5-7.7,7.9-13,13.7-18c15.4-13.1,33-22.5,51-31.2
		C330.2,360.7,331.7,358.7,332.6,357.9z M352,387.9c-0.7-2.8-1.1-4.4-1.6-6c-3.2-8.9-9.3-11.4-16.6-5.6
		c-14.4,11.5-28.5,23.4-42,35.9c-5.9,5.6-10,13.1-14.8,19.9c-4,5.7,1.2,16.7,5.8,19.4c3.1,1.8,5.5,2,7.1-2c1.4-3.4,3-6.7,5.1-9.7
		c14.1-19.6,31.6-35.4,52.4-47.5C349.4,391.3,350.7,389.2,352,387.9z M295.2,447.8c0.3,0.4,0.5,0.8,0.8,1.2c1.5-0.4,3.2-0.6,4.6-1.3
		c7.2-3.1,14.5-5.8,21.4-9.5c13.1-6.9,26-14.1,38.7-21.6c4.6-2.7,4.6-6.5,1.4-12.1c-2.5-4.3-5-5.3-9.9-2.6
		c-12,6.8-23.7,14.1-35.7,21C306.4,428.8,301.4,438.7,295.2,447.8z M269.1,409.7c0.2,0.5,0.4,1.1,0.6,1.6c6.2-1,13.7-0.2,18.2-3.5
		c12.5-9.2,23.8-20.1,35.6-30.3c-12,3.6-23.5,8.1-35,12.9C279.5,394.3,274.4,402.1,269.1,409.7z"/>
	<path d="M332.6,357.9c-0.9,0.8-2.4,2.8-4.4,3.7c-18,8.7-35.6,18.1-51,31.2c-5.9,5-11.3,10.4-13.7,18c-1,3.1-3.4,3.2-6.1,1.8
		c-6.6-3.5-9.7-12.2-6.5-19.3c4.1-9.1,10.9-16.2,18.9-21.5c14.7-9.6,29.9-18.6,45.3-27.2C323.8,339.7,332.9,346.2,332.6,357.9z"/>
	<path d="M352,387.9c-1.3,1.3-2.6,3.3-4.5,4.4c-20.9,12.1-38.4,27.9-52.4,47.5c-2.1,2.9-3.8,6.3-5.1,9.7c-1.6,4-4,3.7-7.1,2
		c-4.6-2.6-9.9-13.7-5.8-19.4c4.8-6.8,8.9-14.3,14.8-19.9c13.5-12.6,27.6-24.4,42-35.9c7.2-5.8,13.4-3.3,16.6,5.6
		C350.9,383.5,351.2,385.2,352,387.9z"/>
	<path d="M295.2,447.8c6.2-9.1,11.3-19,21.5-24.8c12-6.8,23.7-14.2,35.7-21c4.8-2.7,7.4-1.7,9.9,2.6c3.2,5.6,3.1,9.4-1.4,12.1
		c-12.8,7.5-25.7,14.7-38.7,21.6c-6.9,3.6-14.2,6.4-21.4,9.5c-1.5,0.6-3.1,0.8-4.6,1.3C295.7,448.6,295.4,448.2,295.2,447.8z"/>
	<path d="M269.1,409.7c5.2-7.6,10.3-15.5,19.4-19.3c11.5-4.8,23-9.3,35-12.9c-11.8,10.2-23.1,21.1-35.6,30.3
		c-4.5,3.3-12,2.4-18.2,3.5C269.5,410.8,269.3,410.3,269.1,409.7z"/>
</g>
</svg>
